<?xml version="1.0" encoding="utf-8" standalone="no"?>
<!DOCTYPE svg PUBLIC "-//W3C//DTD SVG 1.1//EN"
  "http://www.w3.org/Graphics/SVG/1.1/DTD/svg11.dtd">
<svg height="1440pt" version="1.1" viewBox="0 0 1440 1440" width="1440pt" xmlns="http://www.w3.org/2000/svg" xmlns:xlink="http://www.w3.org/1999/xlink">
 <metadata>
  <rdf:RDF xmlns:cc="http://creativecommons.org/ns#" xmlns:dc="http://purl.org/dc/elements/1.1/" xmlns:rdf="http://www.w3.org/1999/02/22-rdf-syntax-ns#">
   <cc:Work>
    <dc:type rdf:resource="http://purl.org/dc/dcmitype/StillImage"/>
    <dc:date>2021-10-17T05:56:36.754129</dc:date>
    <dc:format>image/svg+xml</dc:format>
    <dc:creator>
     <cc:Agent>
      <dc:title>Matplotlib v3.4.3, https://matplotlib.org/</dc:title>
     </cc:Agent>
    </dc:creator>
   </cc:Work>
  </rdf:RDF>
 </metadata>
 <defs>
  <style type="text/css">*{stroke-linecap:butt;stroke-linejoin:round;}</style>
 </defs>
 <g id="figure_1">
  <g id="patch_1">
   <path d="M 0 1440 
L 1440 1440 
L 1440 0 
L 0 0 
z
" style="fill:#ffffff;"/>
  </g>
  <g id="axes_1">
   <g id="patch_2">
    <path clip-path="url(#p6cf61e8518)" d="M 712.029447 1034.698233 
Q 683.609243 1063.677732 656.754698 1091.060762 
" style="fill:none;stroke:#ff0000;stroke-linecap:round;stroke-width:2;"/>
    <path clip-path="url(#p6cf61e8518)" d="M 660.983358 1089.605278 
L 656.754698 1091.060762 
L 658.127506 1086.804543 
L 660.983358 1089.605278 
z
" style="fill:#ff0000;stroke:#ff0000;stroke-linecap:round;stroke-width:2;"/>
   </g>
   <g id="patch_3">
    <path clip-path="url(#p6cf61e8518)" d="M 722.885139 1021.297819 
Q 749.088479 981.831823 774.6734 943.297255 
" style="fill:none;stroke:#000000;stroke-linecap:round;"/>
    <path clip-path="url(#p6cf61e8518)" d="M 770.794688 945.523371 
L 774.6734 943.297255 
L 774.127066 947.735894 
L 770.794688 945.523371 
z
" style="stroke:#000000;stroke-linecap:round;"/>
   </g>
   <g id="patch_4">
    <path clip-path="url(#p6cf61e8518)" d="M 648.24789 1107.458553 
Q 644.72186 1142.113574 641.309001 1175.656305 
" style="fill:none;stroke:#000000;stroke-linecap:round;"/>
    <path clip-path="url(#p6cf61e8518)" d="M 643.703624 1171.879298 
L 641.309001 1175.656305 
L 639.72417 1171.474402 
L 643.703624 1171.879298 
z
" style="stroke:#000000;stroke-linecap:round;"/>
   </g>
   <g id="patch_5">
    <path clip-path="url(#p6cf61e8518)" d="M 641.078763 1095.639399 
Q 600.317937 1079.420526 560.595928 1063.615003 
" style="fill:none;stroke:#000000;stroke-linecap:round;"/>
    <path clip-path="url(#p6cf61e8518)" d="M 563.573094 1066.95214 
L 560.595928 1063.615003 
L 565.051937 1063.235552 
L 563.573094 1066.95214 
z
" style="stroke:#000000;stroke-linecap:round;"/>
   </g>
   <g id="patch_6">
    <path clip-path="url(#p6cf61e8518)" d="M 641.541531 1103.023167 
Q 607.558029 1121.765688 574.553538 1139.968266 
" style="fill:none;stroke:#000000;stroke-linecap:round;"/>
    <path clip-path="url(#p6cf61e8518)" d="M 579.022032 1139.787817 
L 574.553538 1139.968266 
L 577.090275 1136.285201 
L 579.022032 1139.787817 
z
" style="stroke:#000000;stroke-linecap:round;"/>
   </g>
   <g id="patch_7">
    <path clip-path="url(#p6cf61e8518)" d="M 655.712605 1104.466586 
Q 686.591315 1130.83519 716.619807 1156.477758 
" style="fill:none;stroke:#000000;stroke-linecap:round;"/>
    <path clip-path="url(#p6cf61e8518)" d="M 714.876747 1152.359294 
L 716.619807 1156.477758 
L 712.2792 1155.401127 
L 714.876747 1152.359294 
z
" style="stroke:#000000;stroke-linecap:round;"/>
   </g>
   <g id="patch_8">
    <path clip-path="url(#p6cf61e8518)" d="M 641.507108 1094.724035 
Q 621.768352 1084.056377 603.013178 1073.920289 
" style="fill:none;stroke:#000000;stroke-linecap:round;"/>
    <path clip-path="url(#p6cf61e8518)" d="M 605.581248 1077.581574 
L 603.013178 1073.920289 
L 607.483049 1074.062604 
L 605.581248 1077.581574 
z
" style="stroke:#000000;stroke-linecap:round;"/>
   </g>
   <g id="patch_9">
    <path clip-path="url(#p6cf61e8518)" d="M 640.491392 1099.530101 
Q 597.593892 1102.954588 555.810882 1106.290105 
" style="fill:none;stroke:#000000;stroke-linecap:round;"/>
    <path clip-path="url(#p6cf61e8518)" d="M 559.95735 1107.965457 
L 555.810882 1106.290105 
L 559.639044 1103.978142 
L 559.95735 1107.965457 
z
" style="stroke:#000000;stroke-linecap:round;"/>
   </g>
   <g id="patch_10">
    <path clip-path="url(#p6cf61e8518)" d="M 652.548153 1106.793522 
Q 666.779697 1139.853175 680.569169 1171.885905 
" style="fill:none;stroke:#000000;stroke-linecap:round;"/>
    <path clip-path="url(#p6cf61e8518)" d="M 680.824585 1167.421068 
L 680.569169 1171.885905 
L 677.15055 1169.00267 
L 680.824585 1167.421068 
z
" style="stroke:#000000;stroke-linecap:round;"/>
   </g>
   <g id="patch_11">
    <path clip-path="url(#p6cf61e8518)" d="M 657.456806 1101.211419 
Q 696.312295 1112.265939 734.092424 1123.014516 
" style="fill:none;stroke:#000000;stroke-linecap:round;"/>
    <path clip-path="url(#p6cf61e8518)" d="M 730.792389 1119.996277 
L 734.092424 1123.014516 
L 729.697812 1123.843601 
L 730.792389 1119.996277 
z
" style="stroke:#000000;stroke-linecap:round;"/>
   </g>
   <g id="patch_12">
    <path clip-path="url(#p6cf61e8518)" d="M 646.78661 1090.497891 
Q 639.485086 1064.443898 632.485263 1039.466464 
" style="fill:none;stroke:#000000;stroke-linecap:round;"/>
    <path clip-path="url(#p6cf61e8518)" d="M 631.638856 1043.857773 
L 632.485263 1039.466464 
L 635.490466 1042.778375 
L 631.638856 1043.857773 
z
" style="stroke:#000000;stroke-linecap:round;"/>
   </g>
   <g id="patch_13">
    <path clip-path="url(#p6cf61e8518)" d="M 644.177284 1105.951137 
Q 623.018152 1136.36016 602.497592 1165.851454 
" style="fill:none;stroke:#000000;stroke-linecap:round;"/>
    <path clip-path="url(#p6cf61e8518)" d="M 606.423899 1163.7104 
L 602.497592 1165.851454 
L 603.140532 1161.425776 
L 606.423899 1163.7104 
z
" style="stroke:#000000;stroke-linecap:round;"/>
   </g>
   <g id="patch_14">
    <path clip-path="url(#p6cf61e8518)" d="M 655.811625 1093.338562 
Q 674.102379 1078.287975 691.529802 1063.947782 
" style="fill:none;stroke:#000000;stroke-linecap:round;"/>
    <path clip-path="url(#p6cf61e8518)" d="M 687.170264 1064.944991 
L 691.529802 1063.947782 
L 689.711846 1068.033738 
L 687.170264 1064.944991 
z
" style="stroke:#000000;stroke-linecap:round;"/>
   </g>
   <g id="patch_15">
    <path clip-path="url(#p6cf61e8518)" d="M 781.8424 926.668496 
Q 790.178119 886.48084 798.28677 847.387917 
" style="fill:none;stroke:#000000;stroke-linecap:round;"/>
    <path clip-path="url(#p6cf61e8518)" d="M 795.516065 850.898357 
L 798.28677 847.387917 
L 799.432699 851.710745 
L 795.516065 850.898357 
z
" style="stroke:#000000;stroke-linecap:round;"/>
   </g>
   <g id="patch_16">
    <path clip-path="url(#p6cf61e8518)" d="M 793.265512 832.725043 
Q 764.361995 811.733923 737.267748 792.056782 
" style="fill:none;stroke:#ff0000;stroke-linecap:round;stroke-width:2;"/>
    <path clip-path="url(#p6cf61e8518)" d="M 739.329011 796.025559 
L 737.267748 792.056782 
L 741.679528 792.789038 
L 739.329011 796.025559 
z
" style="fill:#ff0000;stroke:#ff0000;stroke-linecap:round;stroke-width:2;"/>
   </g>
   <g id="patch_17">
    <path clip-path="url(#p6cf61e8518)" d="M 808.911584 837.247226 
Q 845.304414 834.859916 880.581607 832.54579 
" style="fill:none;stroke:#000000;stroke-linecap:round;"/>
    <path clip-path="url(#p6cf61e8518)" d="M 876.45927 830.81191 
L 880.581607 832.54579 
L 876.721101 834.803331 
L 876.45927 830.81191 
z
" style="stroke:#000000;stroke-linecap:round;"/>
   </g>
   <g id="patch_18">
    <path clip-path="url(#p6cf61e8518)" d="M 720.701149 781.802062 
Q 668.348909 755.781132 616.997854 730.257827 
" style="fill:none;stroke:#000000;stroke-linecap:round;"/>
    <path clip-path="url(#p6cf61e8518)" d="M 619.689623 733.829155 
L 616.997854 730.257827 
L 621.469977 730.247209 
L 619.689623 733.829155 
z
" style="stroke:#000000;stroke-linecap:round;"/>
   </g>
   <g id="patch_19">
    <path clip-path="url(#p6cf61e8518)" d="M 600.397371 722.238211 
Q 548.027821 697.753193 496.671075 673.741704 
" style="fill:none;stroke:#000000;stroke-linecap:round;"/>
    <path clip-path="url(#p6cf61e8518)" d="M 499.447515 677.24761 
L 496.671075 673.741704 
L 501.141665 673.624096 
L 499.447515 677.24761 
z
" style="stroke:#000000;stroke-linecap:round;"/>
   </g>
   <g id="patch_20">
    <path clip-path="url(#p6cf61e8518)" d="M 479.211069 670.561534 
Q 423.716992 676.758248 369.334044 682.830889 
" style="fill:none;stroke:#000000;stroke-linecap:round;"/>
    <path clip-path="url(#p6cf61e8518)" d="M 373.531286 684.374637 
L 369.334044 682.830889 
L 373.087388 680.399344 
L 373.531286 684.374637 
z
" style="stroke:#000000;stroke-linecap:round;"/>
   </g>
   <g id="patch_21">
    <path clip-path="url(#p6cf61e8518)" d="M 488.33085 660.956296 
Q 490.675707 621.704479 492.953892 583.568707 
" style="fill:none;stroke:#000000;stroke-linecap:round;"/>
    <path clip-path="url(#p6cf61e8518)" d="M 490.718921 587.442323 
L 492.953892 583.568707 
L 494.711803 587.680853 
L 490.718921 587.442323 
z
" style="stroke:#000000;stroke-linecap:round;"/>
   </g>
   <g id="patch_22">
    <path clip-path="url(#p6cf61e8518)" d="M 351.45309 686.812327 
Q 319.718525 698.074956 289.037606 708.963645 
" style="fill:none;stroke:#000000;stroke-linecap:round;"/>
    <path clip-path="url(#p6cf61e8518)" d="M 293.476167 709.510615 
L 289.037606 708.963645 
L 292.138319 705.740978 
L 293.476167 709.510615 
z
" style="stroke:#000000;stroke-linecap:round;"/>
   </g>
   <g id="patch_23">
    <path clip-path="url(#p6cf61e8518)" d="M 351.33543 681.37428 
Q 318.228935 671.206908 286.191208 661.367768 
" style="fill:none;stroke:#000000;stroke-linecap:round;"/>
    <path clip-path="url(#p6cf61e8518)" d="M 289.427792 664.453951 
L 286.191208 661.367768 
L 290.602105 660.63021 
L 289.427792 664.453951 
z
" style="stroke:#000000;stroke-linecap:round;"/>
   </g>
   <g id="patch_24">
    <path clip-path="url(#p6cf61e8518)" d="M 496.404209 565.636162 
Q 504.663444 542.100748 512.182249 520.675255 
" style="fill:none;stroke:#ff0000;stroke-linecap:round;stroke-width:2;"/>
    <path clip-path="url(#p6cf61e8518)" d="M 508.970557 523.787334 
L 512.182249 520.675255 
L 512.744897 525.111856 
L 508.970557 523.787334 
z
" style="fill:#ff0000;stroke:#ff0000;stroke-linecap:round;stroke-width:2;"/>
   </g>
   <g id="patch_25">
    <path clip-path="url(#p6cf61e8518)" d="M 520.826339 503.349595 
Q 544.654836 470.014073 567.833174 437.588108 
" style="fill:none;stroke:#000000;stroke-linecap:round;"/>
    <path clip-path="url(#p6cf61e8518)" d="M 563.880031 439.679199 
L 567.833174 437.588108 
L 567.134161 442.005277 
L 563.880031 439.679199 
z
" style="stroke:#000000;stroke-linecap:round;"/>
   </g>
   <g id="patch_26">
    <path clip-path="url(#p6cf61e8518)" d="M 579.948508 423.830591 
Q 612.727804 394.242097 644.67717 365.402747 
" style="fill:none;stroke:#000000;stroke-linecap:round;"/>
    <path clip-path="url(#p6cf61e8518)" d="M 640.367813 366.598339 
L 644.67717 365.402747 
L 643.048029 369.567588 
L 640.367813 366.598339 
z
" style="stroke:#000000;stroke-linecap:round;"/>
   </g>
   <g id="patch_27">
    <path clip-path="url(#p6cf61e8518)" d="M 660.562324 358.030048 
Q 722.417126 352.155747 783.158902 346.38715 
" style="fill:none;stroke:#000000;stroke-linecap:round;"/>
    <path clip-path="url(#p6cf61e8518)" d="M 778.987732 344.774283 
L 783.158902 346.38715 
L 779.365907 348.756366 
L 778.987732 344.774283 
z
" style="stroke:#000000;stroke-linecap:round;"/>
   </g>
   <g id="patch_28">
    <path clip-path="url(#p6cf61e8518)" d="M 643.281613 358.53706 
Q 608.923352 357.298312 575.682399 356.099848 
" style="fill:none;stroke:#000000;stroke-linecap:round;"/>
    <path clip-path="url(#p6cf61e8518)" d="M 579.607741 358.242671 
L 575.682399 356.099848 
L 579.751863 354.245268 
L 579.607741 358.242671 
z
" style="stroke:#000000;stroke-linecap:round;"/>
   </g>
   <g id="patch_29">
    <path clip-path="url(#p6cf61e8518)" d="M 648.411928 350.937049 
Q 637.239664 325.864354 626.522457 301.812895 
" style="fill:none;stroke:#000000;stroke-linecap:round;"/>
    <path clip-path="url(#p6cf61e8518)" d="M 626.323678 306.280611 
L 626.522457 301.812895 
L 629.977362 304.652547 
L 626.323678 306.280611 
z
" style="stroke:#000000;stroke-linecap:round;"/>
   </g>
   <g id="patch_30">
    <path clip-path="url(#p6cf61e8518)" d="M 801.541317 344.936212 
Q 864.486971 341.104409 926.316656 337.34054 
" style="fill:none;stroke:#000000;stroke-linecap:round;"/>
    <path clip-path="url(#p6cf61e8518)" d="M 922.202522 335.587285 
L 926.316656 337.34054 
L 922.445572 339.579894 
L 922.202522 335.587285 
z
" style="stroke:#000000;stroke-linecap:round;"/>
   </g>
   <g id="patch_31">
    <path clip-path="url(#p6cf61e8518)" d="M 944.712 337.41448 
Q 987.853745 340.751023 1028.766079 343.915144 
" style="fill:none;stroke:#ff0000;stroke-linecap:round;stroke-width:2;"/>
    <path clip-path="url(#p6cf61e8518)" d="M 1024.932205 341.612664 
L 1028.766079 343.915144 
L 1024.62377 345.600754 
L 1024.932205 341.612664 
z
" style="fill:#ff0000;stroke:#ff0000;stroke-linecap:round;stroke-width:2;"/>
   </g>
   <g id="patch_32">
    <path clip-path="url(#p6cf61e8518)" d="M 936.653983 328.102709 
Q 938.343293 302.882516 939.957882 278.777857 
" style="fill:none;stroke:#000000;stroke-linecap:round;"/>
    <path clip-path="url(#p6cf61e8518)" d="M 937.695023 282.635249 
L 939.957882 278.777857 
L 941.68608 282.90258 
L 937.695023 282.635249 
z
" style="stroke:#000000;stroke-linecap:round;"/>
   </g>
   <g id="patch_33">
    <path clip-path="url(#p6cf61e8518)" d="M 1047.577206 348.198033 
Q 1075.777589 360.414907 1101.926168 371.742905 
" style="fill:none;stroke:#ff0000;stroke-linecap:round;stroke-width:2;"/>
    <path clip-path="url(#p6cf61e8518)" d="M 1099.050824 368.317647 
L 1101.926168 371.742905 
L 1097.460755 371.988026 
L 1099.050824 368.317647 
z
" style="fill:#ff0000;stroke:#ff0000;stroke-linecap:round;stroke-width:2;"/>
   </g>
   <g id="patch_34">
    <path clip-path="url(#p6cf61e8518)" d="M 1047.664846 341.516835 
Q 1079.197142 328.806522 1109.692479 316.514196 
" style="fill:none;stroke:#000000;stroke-linecap:round;"/>
    <path clip-path="url(#p6cf61e8518)" d="M 1105.234818 316.154661 
L 1109.692479 316.514196 
L 1106.730254 319.864603 
L 1105.234818 316.154661 
z
" style="stroke:#000000;stroke-linecap:round;"/>
   </g>
   <g id="patch_35">
    <path clip-path="url(#p6cf61e8518)" d="M 1043.718047 337.115512 
Q 1057.682629 311.014843 1071.119778 285.899981 
" style="fill:none;stroke:#000000;stroke-linecap:round;"/>
    <path clip-path="url(#p6cf61e8518)" d="M 1067.469311 288.483407 
L 1071.119778 285.899981 
L 1070.996238 290.370411 
L 1067.469311 288.483407 
z
" style="stroke:#000000;stroke-linecap:round;"/>
   </g>
   <g id="patch_36">
    <path clip-path="url(#p6cf61e8518)" d="M 1120.508515 377.193368 
Q 1155.53888 381.761793 1189.460599 386.185635 
" style="fill:none;stroke:#000000;stroke-linecap:round;"/>
    <path clip-path="url(#p6cf61e8518)" d="M 1185.752823 383.685156 
L 1189.460599 386.185635 
L 1185.23555 387.651568 
L 1185.752823 383.685156 
z
" style="stroke:#000000;stroke-linecap:round;"/>
   </g>
   <g id="PathCollection_1">
    <defs>
     <path d="M 0 8.660254 
C 2.296726 8.660254 4.499694 7.747755 6.123724 6.123724 
C 7.747755 4.499694 8.660254 2.296726 8.660254 0 
C 8.660254 -2.296726 7.747755 -4.499694 6.123724 -6.123724 
C 4.499694 -7.747755 2.296726 -8.660254 0 -8.660254 
C -2.296726 -8.660254 -4.499694 -7.747755 -6.123724 -6.123724 
C -7.747755 -4.499694 -8.660254 -2.296726 -8.660254 0 
C -8.660254 2.296726 -7.747755 4.499694 -6.123724 6.123724 
C -4.499694 7.747755 -2.296726 8.660254 0 8.660254 
z
" id="m6a2e7a5772" style="stroke:#1f78b4;"/>
    </defs>
    <g clip-path="url(#p6cf61e8518)">
     <use style="fill:#1f78b4;stroke:#1f78b4;" x="718.093239" xlink:href="#m6a2e7a5772" y="1028.515109"/>
     <use style="fill:#1f78b4;stroke:#1f78b4;" x="649.124706" xlink:href="#m6a2e7a5772" y="1098.840908"/>
     <use style="fill:#1f78b4;stroke:#1f78b4;" x="640.319463" xlink:href="#m6a2e7a5772" y="1185.381818"/>
     <use style="fill:#1f78b4;stroke:#1f78b4;" x="551.512912" xlink:href="#m6a2e7a5772" y="1060.000839"/>
     <use style="fill:#1f78b4;stroke:#1f78b4;" x="565.991384" xlink:href="#m6a2e7a5772" y="1144.690449"/>
     <use style="fill:#1f78b4;stroke:#1f78b4;" x="724.054341" xlink:href="#m6a2e7a5772" y="1162.826413"/>
     <use style="fill:#1f78b4;stroke:#1f78b4;" x="594.408909" xlink:href="#m6a2e7a5772" y="1069.270178"/>
     <use style="fill:#1f78b4;stroke:#1f78b4;" x="546.065889" xlink:href="#m6a2e7a5772" y="1107.068043"/>
     <use style="fill:#1f78b4;stroke:#1f78b4;" x="684.434595" xlink:href="#m6a2e7a5772" y="1180.865229"/>
     <use style="fill:#1f78b4;stroke:#1f78b4;" x="743.499493" xlink:href="#m6a2e7a5772" y="1125.690859"/>
     <use style="fill:#1f78b4;stroke:#1f78b4;" x="629.84571" xlink:href="#m6a2e7a5772" y="1030.047758"/>
     <use style="fill:#1f78b4;stroke:#1f78b4;" x="596.913066" xlink:href="#m6a2e7a5772" y="1173.877301"/>
     <use style="fill:#1f78b4;stroke:#1f78b4;" x="699.082972" xlink:href="#m6a2e7a5772" y="1057.732639"/>
     <use style="fill:#1f78b4;stroke:#1f78b4;" x="780.083357" xlink:href="#m6a2e7a5772" y="935.149082"/>
     <use style="fill:#1f78b4;stroke:#1f78b4;" x="800.272605" xlink:href="#m6a2e7a5772" y="837.813929"/>
     <use style="fill:#1f78b4;stroke:#1f78b4;" x="728.452643" xlink:href="#m6a2e7a5772" y="785.65483"/>
     <use style="fill:#1f78b4;stroke:#1f78b4;" x="890.340074" xlink:href="#m6a2e7a5772" y="831.90565"/>
     <use style="fill:#1f78b4;stroke:#1f78b4;" x="608.24396" xlink:href="#m6a2e7a5772" y="725.90683"/>
     <use style="fill:#1f78b4;stroke:#1f78b4;" x="487.814435" xlink:href="#m6a2e7a5772" y="669.600844"/>
     <use style="fill:#1f78b4;stroke:#1f78b4;" x="359.61293" xlink:href="#m6a2e7a5772" y="683.916392"/>
     <use style="fill:#1f78b4;stroke:#1f78b4;" x="493.537087" xlink:href="#m6a2e7a5772" y="573.806278"/>
     <use style="fill:#1f78b4;stroke:#1f78b4;" x="515.78954" xlink:href="#m6a2e7a5772" y="510.395962"/>
     <use style="fill:#1f78b4;stroke:#1f78b4;" x="279.821333" xlink:href="#m6a2e7a5772" y="712.234509"/>
     <use style="fill:#1f78b4;stroke:#1f78b4;" x="276.842975" xlink:href="#m6a2e7a5772" y="658.496822"/>
     <use style="fill:#1f78b4;stroke:#1f78b4;" x="573.518055" xlink:href="#m6a2e7a5772" y="429.635091"/>
     <use style="fill:#1f78b4;stroke:#1f78b4;" x="651.937515" xlink:href="#m6a2e7a5772" y="358.849139"/>
     <use style="fill:#1f78b4;stroke:#1f78b4;" x="792.894003" xlink:href="#m6a2e7a5772" y="345.462615"/>
     <use style="fill:#1f78b4;stroke:#1f78b4;" x="565.908821" xlink:href="#m6a2e7a5772" y="355.747473"/>
     <use style="fill:#1f78b4;stroke:#1f78b4;" x="622.541477" xlink:href="#m6a2e7a5772" y="292.878815"/>
     <use style="fill:#1f78b4;stroke:#1f78b4;" x="936.075001" xlink:href="#m6a2e7a5772" y="336.746503"/>
     <use style="fill:#1f78b4;stroke:#1f78b4;" x="1039.6305" xlink:href="#m6a2e7a5772" y="344.755389"/>
     <use style="fill:#1f78b4;stroke:#1f78b4;" x="940.611609" xlink:href="#m6a2e7a5772" y="269.018182"/>
     <use style="fill:#1f78b4;stroke:#1f78b4;" x="1111.923015" xlink:href="#m6a2e7a5772" y="376.073705"/>
     <use style="fill:#1f78b4;stroke:#1f78b4;" x="1118.76168" xlink:href="#m6a2e7a5772" y="312.858503"/>
     <use style="fill:#1f78b4;stroke:#1f78b4;" x="1075.73312" xlink:href="#m6a2e7a5772" y="277.27736"/>
     <use style="fill:#1f78b4;stroke:#1f78b4;" x="1199.157025" xlink:href="#m6a2e7a5772" y="387.450178"/>
    </g>
   </g>
   <g id="text_1">
    <g clip-path="url(#p6cf61e8518)">
     <!-- 1 -->
     <g transform="translate(714.275739 1031.826359)scale(0.12 -0.12)">
      <defs>
       <path d="M 794 531 
L 1825 531 
L 1825 4091 
L 703 3866 
L 703 4441 
L 1819 4666 
L 2450 4666 
L 2450 531 
L 3481 531 
L 3481 0 
L 794 0 
L 794 531 
z
" id="DejaVuSans-31" transform="scale(0.015625)"/>
      </defs>
      <use xlink:href="#DejaVuSans-31"/>
     </g>
    </g>
   </g>
   <g id="text_2">
    <g clip-path="url(#p6cf61e8518)">
     <!-- 0 -->
     <g transform="translate(645.307206 1102.152158)scale(0.12 -0.12)">
      <defs>
       <path d="M 2034 4250 
Q 1547 4250 1301 3770 
Q 1056 3291 1056 2328 
Q 1056 1369 1301 889 
Q 1547 409 2034 409 
Q 2525 409 2770 889 
Q 3016 1369 3016 2328 
Q 3016 3291 2770 3770 
Q 2525 4250 2034 4250 
z
M 2034 4750 
Q 2819 4750 3233 4129 
Q 3647 3509 3647 2328 
Q 3647 1150 3233 529 
Q 2819 -91 2034 -91 
Q 1250 -91 836 529 
Q 422 1150 422 2328 
Q 422 3509 836 4129 
Q 1250 4750 2034 4750 
z
" id="DejaVuSans-30" transform="scale(0.015625)"/>
      </defs>
      <use xlink:href="#DejaVuSans-30"/>
     </g>
    </g>
   </g>
   <g id="text_3">
    <g clip-path="url(#p6cf61e8518)">
     <!-- 4 -->
     <g transform="translate(636.501963 1188.693068)scale(0.12 -0.12)">
      <defs>
       <path d="M 2419 4116 
L 825 1625 
L 2419 1625 
L 2419 4116 
z
M 2253 4666 
L 3047 4666 
L 3047 1625 
L 3713 1625 
L 3713 1100 
L 3047 1100 
L 3047 0 
L 2419 0 
L 2419 1100 
L 313 1100 
L 313 1709 
L 2253 4666 
z
" id="DejaVuSans-34" transform="scale(0.015625)"/>
      </defs>
      <use xlink:href="#DejaVuSans-34"/>
     </g>
    </g>
   </g>
   <g id="text_4">
    <g clip-path="url(#p6cf61e8518)">
     <!-- 2 -->
     <g transform="translate(547.695412 1063.312089)scale(0.12 -0.12)">
      <defs>
       <path d="M 1228 531 
L 3431 531 
L 3431 0 
L 469 0 
L 469 531 
Q 828 903 1448 1529 
Q 2069 2156 2228 2338 
Q 2531 2678 2651 2914 
Q 2772 3150 2772 3378 
Q 2772 3750 2511 3984 
Q 2250 4219 1831 4219 
Q 1534 4219 1204 4116 
Q 875 4013 500 3803 
L 500 4441 
Q 881 4594 1212 4672 
Q 1544 4750 1819 4750 
Q 2544 4750 2975 4387 
Q 3406 4025 3406 3419 
Q 3406 3131 3298 2873 
Q 3191 2616 2906 2266 
Q 2828 2175 2409 1742 
Q 1991 1309 1228 531 
z
" id="DejaVuSans-32" transform="scale(0.015625)"/>
      </defs>
      <use xlink:href="#DejaVuSans-32"/>
     </g>
    </g>
   </g>
   <g id="text_5">
    <g clip-path="url(#p6cf61e8518)">
     <!-- 9 -->
     <g transform="translate(562.173884 1148.001699)scale(0.12 -0.12)">
      <defs>
       <path d="M 703 97 
L 703 672 
Q 941 559 1184 500 
Q 1428 441 1663 441 
Q 2288 441 2617 861 
Q 2947 1281 2994 2138 
Q 2813 1869 2534 1725 
Q 2256 1581 1919 1581 
Q 1219 1581 811 2004 
Q 403 2428 403 3163 
Q 403 3881 828 4315 
Q 1253 4750 1959 4750 
Q 2769 4750 3195 4129 
Q 3622 3509 3622 2328 
Q 3622 1225 3098 567 
Q 2575 -91 1691 -91 
Q 1453 -91 1209 -44 
Q 966 3 703 97 
z
M 1959 2075 
Q 2384 2075 2632 2365 
Q 2881 2656 2881 3163 
Q 2881 3666 2632 3958 
Q 2384 4250 1959 4250 
Q 1534 4250 1286 3958 
Q 1038 3666 1038 3163 
Q 1038 2656 1286 2365 
Q 1534 2075 1959 2075 
z
" id="DejaVuSans-39" transform="scale(0.015625)"/>
      </defs>
      <use xlink:href="#DejaVuSans-39"/>
     </g>
    </g>
   </g>
   <g id="text_6">
    <g clip-path="url(#p6cf61e8518)">
     <!-- 12 -->
     <g transform="translate(716.419341 1166.137663)scale(0.12 -0.12)">
      <use xlink:href="#DejaVuSans-31"/>
      <use x="63.623047" xlink:href="#DejaVuSans-32"/>
     </g>
    </g>
   </g>
   <g id="text_7">
    <g clip-path="url(#p6cf61e8518)">
     <!-- 7 -->
     <g transform="translate(590.591409 1072.581428)scale(0.12 -0.12)">
      <defs>
       <path d="M 525 4666 
L 3525 4666 
L 3525 4397 
L 1831 0 
L 1172 0 
L 2766 4134 
L 525 4134 
L 525 4666 
z
" id="DejaVuSans-37" transform="scale(0.015625)"/>
      </defs>
      <use xlink:href="#DejaVuSans-37"/>
     </g>
    </g>
   </g>
   <g id="text_8">
    <g clip-path="url(#p6cf61e8518)">
     <!-- 5 -->
     <g transform="translate(542.248389 1110.379293)scale(0.12 -0.12)">
      <defs>
       <path d="M 691 4666 
L 3169 4666 
L 3169 4134 
L 1269 4134 
L 1269 2991 
Q 1406 3038 1543 3061 
Q 1681 3084 1819 3084 
Q 2600 3084 3056 2656 
Q 3513 2228 3513 1497 
Q 3513 744 3044 326 
Q 2575 -91 1722 -91 
Q 1428 -91 1123 -41 
Q 819 9 494 109 
L 494 744 
Q 775 591 1075 516 
Q 1375 441 1709 441 
Q 2250 441 2565 725 
Q 2881 1009 2881 1497 
Q 2881 1984 2565 2268 
Q 2250 2553 1709 2553 
Q 1456 2553 1204 2497 
Q 953 2441 691 2322 
L 691 4666 
z
" id="DejaVuSans-35" transform="scale(0.015625)"/>
      </defs>
      <use xlink:href="#DejaVuSans-35"/>
     </g>
    </g>
   </g>
   <g id="text_9">
    <g clip-path="url(#p6cf61e8518)">
     <!-- 11 -->
     <g transform="translate(676.799595 1184.176479)scale(0.12 -0.12)">
      <use xlink:href="#DejaVuSans-31"/>
      <use x="63.623047" xlink:href="#DejaVuSans-31"/>
     </g>
    </g>
   </g>
   <g id="text_10">
    <g clip-path="url(#p6cf61e8518)">
     <!-- 3 -->
     <g transform="translate(739.681993 1129.002109)scale(0.12 -0.12)">
      <defs>
       <path d="M 2597 2516 
Q 3050 2419 3304 2112 
Q 3559 1806 3559 1356 
Q 3559 666 3084 287 
Q 2609 -91 1734 -91 
Q 1441 -91 1130 -33 
Q 819 25 488 141 
L 488 750 
Q 750 597 1062 519 
Q 1375 441 1716 441 
Q 2309 441 2620 675 
Q 2931 909 2931 1356 
Q 2931 1769 2642 2001 
Q 2353 2234 1838 2234 
L 1294 2234 
L 1294 2753 
L 1863 2753 
Q 2328 2753 2575 2939 
Q 2822 3125 2822 3475 
Q 2822 3834 2567 4026 
Q 2313 4219 1838 4219 
Q 1578 4219 1281 4162 
Q 984 4106 628 3988 
L 628 4550 
Q 988 4650 1302 4700 
Q 1616 4750 1894 4750 
Q 2613 4750 3031 4423 
Q 3450 4097 3450 3541 
Q 3450 3153 3228 2886 
Q 3006 2619 2597 2516 
z
" id="DejaVuSans-33" transform="scale(0.015625)"/>
      </defs>
      <use xlink:href="#DejaVuSans-33"/>
     </g>
    </g>
   </g>
   <g id="text_11">
    <g clip-path="url(#p6cf61e8518)">
     <!-- 10 -->
     <g transform="translate(622.21071 1033.359008)scale(0.12 -0.12)">
      <use xlink:href="#DejaVuSans-31"/>
      <use x="63.623047" xlink:href="#DejaVuSans-30"/>
     </g>
    </g>
   </g>
   <g id="text_12">
    <g clip-path="url(#p6cf61e8518)">
     <!-- 8 -->
     <g transform="translate(593.095566 1177.188551)scale(0.12 -0.12)">
      <defs>
       <path d="M 2034 2216 
Q 1584 2216 1326 1975 
Q 1069 1734 1069 1313 
Q 1069 891 1326 650 
Q 1584 409 2034 409 
Q 2484 409 2743 651 
Q 3003 894 3003 1313 
Q 3003 1734 2745 1975 
Q 2488 2216 2034 2216 
z
M 1403 2484 
Q 997 2584 770 2862 
Q 544 3141 544 3541 
Q 544 4100 942 4425 
Q 1341 4750 2034 4750 
Q 2731 4750 3128 4425 
Q 3525 4100 3525 3541 
Q 3525 3141 3298 2862 
Q 3072 2584 2669 2484 
Q 3125 2378 3379 2068 
Q 3634 1759 3634 1313 
Q 3634 634 3220 271 
Q 2806 -91 2034 -91 
Q 1263 -91 848 271 
Q 434 634 434 1313 
Q 434 1759 690 2068 
Q 947 2378 1403 2484 
z
M 1172 3481 
Q 1172 3119 1398 2916 
Q 1625 2713 2034 2713 
Q 2441 2713 2670 2916 
Q 2900 3119 2900 3481 
Q 2900 3844 2670 4047 
Q 2441 4250 2034 4250 
Q 1625 4250 1398 4047 
Q 1172 3844 1172 3481 
z
" id="DejaVuSans-38" transform="scale(0.015625)"/>
      </defs>
      <use xlink:href="#DejaVuSans-38"/>
     </g>
    </g>
   </g>
   <g id="text_13">
    <g clip-path="url(#p6cf61e8518)">
     <!-- 6 -->
     <g transform="translate(695.265472 1061.043889)scale(0.12 -0.12)">
      <defs>
       <path d="M 2113 2584 
Q 1688 2584 1439 2293 
Q 1191 2003 1191 1497 
Q 1191 994 1439 701 
Q 1688 409 2113 409 
Q 2538 409 2786 701 
Q 3034 994 3034 1497 
Q 3034 2003 2786 2293 
Q 2538 2584 2113 2584 
z
M 3366 4563 
L 3366 3988 
Q 3128 4100 2886 4159 
Q 2644 4219 2406 4219 
Q 1781 4219 1451 3797 
Q 1122 3375 1075 2522 
Q 1259 2794 1537 2939 
Q 1816 3084 2150 3084 
Q 2853 3084 3261 2657 
Q 3669 2231 3669 1497 
Q 3669 778 3244 343 
Q 2819 -91 2113 -91 
Q 1303 -91 875 529 
Q 447 1150 447 2328 
Q 447 3434 972 4092 
Q 1497 4750 2381 4750 
Q 2619 4750 2861 4703 
Q 3103 4656 3366 4563 
z
" id="DejaVuSans-36" transform="scale(0.015625)"/>
      </defs>
      <use xlink:href="#DejaVuSans-36"/>
     </g>
    </g>
   </g>
   <g id="text_14">
    <g clip-path="url(#p6cf61e8518)">
     <!-- 13 -->
     <g transform="translate(772.448357 938.460332)scale(0.12 -0.12)">
      <use xlink:href="#DejaVuSans-31"/>
      <use x="63.623047" xlink:href="#DejaVuSans-33"/>
     </g>
    </g>
   </g>
   <g id="text_15">
    <g clip-path="url(#p6cf61e8518)">
     <!-- 14 -->
     <g transform="translate(792.637605 841.125179)scale(0.12 -0.12)">
      <use xlink:href="#DejaVuSans-31"/>
      <use x="63.623047" xlink:href="#DejaVuSans-34"/>
     </g>
    </g>
   </g>
   <g id="text_16">
    <g clip-path="url(#p6cf61e8518)">
     <!-- 15 -->
     <g transform="translate(720.817643 788.96608)scale(0.12 -0.12)">
      <use xlink:href="#DejaVuSans-31"/>
      <use x="63.623047" xlink:href="#DejaVuSans-35"/>
     </g>
    </g>
   </g>
   <g id="text_17">
    <g clip-path="url(#p6cf61e8518)">
     <!-- 16 -->
     <g transform="translate(882.705074 835.2169)scale(0.12 -0.12)">
      <use xlink:href="#DejaVuSans-31"/>
      <use x="63.623047" xlink:href="#DejaVuSans-36"/>
     </g>
    </g>
   </g>
   <g id="text_18">
    <g clip-path="url(#p6cf61e8518)">
     <!-- 17 -->
     <g transform="translate(600.60896 729.21808)scale(0.12 -0.12)">
      <use xlink:href="#DejaVuSans-31"/>
      <use x="63.623047" xlink:href="#DejaVuSans-37"/>
     </g>
    </g>
   </g>
   <g id="text_19">
    <g clip-path="url(#p6cf61e8518)">
     <!-- 18 -->
     <g transform="translate(480.179435 672.912094)scale(0.12 -0.12)">
      <use xlink:href="#DejaVuSans-31"/>
      <use x="63.623047" xlink:href="#DejaVuSans-38"/>
     </g>
    </g>
   </g>
   <g id="text_20">
    <g clip-path="url(#p6cf61e8518)">
     <!-- 20 -->
     <g transform="translate(351.97793 687.227642)scale(0.12 -0.12)">
      <use xlink:href="#DejaVuSans-32"/>
      <use x="63.623047" xlink:href="#DejaVuSans-30"/>
     </g>
    </g>
   </g>
   <g id="text_21">
    <g clip-path="url(#p6cf61e8518)">
     <!-- 19 -->
     <g transform="translate(485.902087 577.117528)scale(0.12 -0.12)">
      <use xlink:href="#DejaVuSans-31"/>
      <use x="63.623047" xlink:href="#DejaVuSans-39"/>
     </g>
    </g>
   </g>
   <g id="text_22">
    <g clip-path="url(#p6cf61e8518)">
     <!-- 21 -->
     <g transform="translate(508.15454 513.707212)scale(0.12 -0.12)">
      <use xlink:href="#DejaVuSans-32"/>
      <use x="63.623047" xlink:href="#DejaVuSans-31"/>
     </g>
    </g>
   </g>
   <g id="text_23">
    <g clip-path="url(#p6cf61e8518)">
     <!-- 22 -->
     <g transform="translate(272.186333 715.545759)scale(0.12 -0.12)">
      <use xlink:href="#DejaVuSans-32"/>
      <use x="63.623047" xlink:href="#DejaVuSans-32"/>
     </g>
    </g>
   </g>
   <g id="text_24">
    <g clip-path="url(#p6cf61e8518)">
     <!-- 23 -->
     <g transform="translate(269.207975 661.808072)scale(0.12 -0.12)">
      <use xlink:href="#DejaVuSans-32"/>
      <use x="63.623047" xlink:href="#DejaVuSans-33"/>
     </g>
    </g>
   </g>
   <g id="text_25">
    <g clip-path="url(#p6cf61e8518)">
     <!-- 24 -->
     <g transform="translate(565.883055 432.946341)scale(0.12 -0.12)">
      <use xlink:href="#DejaVuSans-32"/>
      <use x="63.623047" xlink:href="#DejaVuSans-34"/>
     </g>
    </g>
   </g>
   <g id="text_26">
    <g clip-path="url(#p6cf61e8518)">
     <!-- 25 -->
     <g transform="translate(644.302515 362.160389)scale(0.12 -0.12)">
      <use xlink:href="#DejaVuSans-32"/>
      <use x="63.623047" xlink:href="#DejaVuSans-35"/>
     </g>
    </g>
   </g>
   <g id="text_27">
    <g clip-path="url(#p6cf61e8518)">
     <!-- 28 -->
     <g transform="translate(785.259003 348.773865)scale(0.12 -0.12)">
      <use xlink:href="#DejaVuSans-32"/>
      <use x="63.623047" xlink:href="#DejaVuSans-38"/>
     </g>
    </g>
   </g>
   <g id="text_28">
    <g clip-path="url(#p6cf61e8518)">
     <!-- 26 -->
     <g transform="translate(558.273821 359.058723)scale(0.12 -0.12)">
      <use xlink:href="#DejaVuSans-32"/>
      <use x="63.623047" xlink:href="#DejaVuSans-36"/>
     </g>
    </g>
   </g>
   <g id="text_29">
    <g clip-path="url(#p6cf61e8518)">
     <!-- 27 -->
     <g transform="translate(614.906477 296.190065)scale(0.12 -0.12)">
      <use xlink:href="#DejaVuSans-32"/>
      <use x="63.623047" xlink:href="#DejaVuSans-37"/>
     </g>
    </g>
   </g>
   <g id="text_30">
    <g clip-path="url(#p6cf61e8518)">
     <!-- 29 -->
     <g transform="translate(928.440001 340.057753)scale(0.12 -0.12)">
      <use xlink:href="#DejaVuSans-32"/>
      <use x="63.623047" xlink:href="#DejaVuSans-39"/>
     </g>
    </g>
   </g>
   <g id="text_31">
    <g clip-path="url(#p6cf61e8518)">
     <!-- 30 -->
     <g transform="translate(1031.9955 348.066639)scale(0.12 -0.12)">
      <use xlink:href="#DejaVuSans-33"/>
      <use x="63.623047" xlink:href="#DejaVuSans-30"/>
     </g>
    </g>
   </g>
   <g id="text_32">
    <g clip-path="url(#p6cf61e8518)">
     <!-- 31 -->
     <g transform="translate(932.976609 272.329432)scale(0.12 -0.12)">
      <use xlink:href="#DejaVuSans-33"/>
      <use x="63.623047" xlink:href="#DejaVuSans-31"/>
     </g>
    </g>
   </g>
   <g id="text_33">
    <g clip-path="url(#p6cf61e8518)">
     <!-- 32 -->
     <g transform="translate(1104.288015 379.384955)scale(0.12 -0.12)">
      <use xlink:href="#DejaVuSans-33"/>
      <use x="63.623047" xlink:href="#DejaVuSans-32"/>
     </g>
    </g>
   </g>
   <g id="text_34">
    <g clip-path="url(#p6cf61e8518)">
     <!-- 34 -->
     <g transform="translate(1111.12668 316.169753)scale(0.12 -0.12)">
      <use xlink:href="#DejaVuSans-33"/>
      <use x="63.623047" xlink:href="#DejaVuSans-34"/>
     </g>
    </g>
   </g>
   <g id="text_35">
    <g clip-path="url(#p6cf61e8518)">
     <!-- 33 -->
     <g transform="translate(1068.09812 280.58861)scale(0.12 -0.12)">
      <use xlink:href="#DejaVuSans-33"/>
      <use x="63.623047" xlink:href="#DejaVuSans-33"/>
     </g>
    </g>
   </g>
   <g id="text_36">
    <g clip-path="url(#p6cf61e8518)">
     <!-- 35 -->
     <g transform="translate(1191.522025 390.761428)scale(0.12 -0.12)">
      <use xlink:href="#DejaVuSans-33"/>
      <use x="63.623047" xlink:href="#DejaVuSans-35"/>
     </g>
    </g>
   </g>
  </g>
 </g>
 <defs>
  <clipPath id="p6cf61e8518">
   <rect height="1108.8" width="1116" x="180" y="172.8"/>
  </clipPath>
 </defs>
</svg>
