<?xml version="1.0" encoding="utf-8" standalone="no"?>
<!DOCTYPE svg PUBLIC "-//W3C//DTD SVG 1.1//EN"
  "http://www.w3.org/Graphics/SVG/1.1/DTD/svg11.dtd">
<svg height="1440pt" version="1.1" viewBox="0 0 1440 1440" width="1440pt" xmlns="http://www.w3.org/2000/svg" xmlns:xlink="http://www.w3.org/1999/xlink">
 <metadata>
  <rdf:RDF xmlns:cc="http://creativecommons.org/ns#" xmlns:dc="http://purl.org/dc/elements/1.1/" xmlns:rdf="http://www.w3.org/1999/02/22-rdf-syntax-ns#">
   <cc:Work>
    <dc:type rdf:resource="http://purl.org/dc/dcmitype/StillImage"/>
    <dc:date>2021-10-17T06:23:18.500100</dc:date>
    <dc:format>image/svg+xml</dc:format>
    <dc:creator>
     <cc:Agent>
      <dc:title>Matplotlib v3.4.3, https://matplotlib.org/</dc:title>
     </cc:Agent>
    </dc:creator>
   </cc:Work>
  </rdf:RDF>
 </metadata>
 <defs>
  <style type="text/css">*{stroke-linecap:butt;stroke-linejoin:round;}</style>
 </defs>
 <g id="figure_1">
  <g id="patch_1">
   <path d="M 0 1440 
L 1440 1440 
L 1440 0 
L 0 0 
z
" style="fill:#ffffff;"/>
  </g>
  <g id="axes_1">
   <g id="patch_2">
    <path clip-path="url(#pdd476f4e70)" d="M 1096.274005 841.94524 
Q 1107.714487 894.939293 1118.683111 945.747632 
" style="fill:none;stroke:#ff0000;stroke-linecap:round;stroke-width:2;"/>
    <path clip-path="url(#pdd476f4e70)" d="M 1119.79399 941.415663 
L 1118.683111 945.747632 
L 1115.884063 942.259747 
L 1119.79399 941.415663 
z
" style="fill:#ff0000;stroke:#ff0000;stroke-linecap:round;stroke-width:2;"/>
   </g>
   <g id="patch_3">
    <path clip-path="url(#pdd476f4e70)" d="M 1089.333339 826.488467 
Q 1074.918219 806.780005 1061.163139 787.973954 
" style="fill:none;stroke:#000000;stroke-linecap:round;"/>
    <path clip-path="url(#pdd476f4e70)" d="M 1061.910287 792.383237 
L 1061.163139 787.973954 
L 1065.138854 790.021806 
L 1061.910287 792.383237 
z
" style="stroke:#000000;stroke-linecap:round;"/>
   </g>
   <g id="patch_4">
    <path clip-path="url(#pdd476f4e70)" d="M 1093.842174 824.840559 
Q 1089.070139 756.602696 1084.376101 689.480142 
" style="fill:none;stroke:#000000;stroke-linecap:round;"/>
    <path clip-path="url(#pdd476f4e70)" d="M 1082.660022 693.609921 
L 1084.376101 689.480142 
L 1086.650276 693.330873 
L 1082.660022 693.609921 
z
" style="stroke:#000000;stroke-linecap:round;"/>
   </g>
   <g id="patch_5">
    <path clip-path="url(#pdd476f4e70)" d="M 1128.698604 960.331455 
Q 1159.212991 975.892396 1188.731375 990.94542 
" style="fill:none;stroke:#000000;stroke-linecap:round;"/>
    <path clip-path="url(#pdd476f4e70)" d="M 1186.076554 987.346541 
L 1188.731375 990.94542 
L 1184.259379 990.909949 
L 1186.076554 987.346541 
z
" style="stroke:#000000;stroke-linecap:round;"/>
   </g>
   <g id="patch_6">
    <path clip-path="url(#pdd476f4e70)" d="M 1125.738154 963.632165 
Q 1147.069803 996.085182 1167.787344 1027.603922 
" style="fill:none;stroke:#000000;stroke-linecap:round;"/>
    <path clip-path="url(#pdd476f4e70)" d="M 1167.261529 1023.162805 
L 1167.787344 1027.603922 
L 1163.918961 1025.359904 
L 1167.261529 1023.162805 
z
" style="stroke:#000000;stroke-linecap:round;"/>
   </g>
   <g id="patch_7">
    <path clip-path="url(#pdd476f4e70)" d="M 1114.762757 962.426492 
Q 1089.752772 986.676207 1065.545463 1010.147647 
" style="fill:none;stroke:#000000;stroke-linecap:round;"/>
    <path clip-path="url(#pdd476f4e70)" d="M 1069.809423 1008.799075 
L 1065.545463 1010.147647 
L 1067.024981 1005.927336 
L 1069.809423 1008.799075 
z
" style="stroke:#000000;stroke-linecap:round;"/>
   </g>
   <g id="patch_8">
    <path clip-path="url(#pdd476f4e70)" d="M 1112.367699 955.490404 
Q 1092.898879 953.442957 1074.541962 951.512444 
" style="fill:none;stroke:#000000;stroke-linecap:round;"/>
    <path clip-path="url(#pdd476f4e70)" d="M 1078.310847 953.91983 
L 1074.541962 951.512444 
L 1078.729201 949.941767 
L 1078.310847 953.91983 
z
" style="stroke:#000000;stroke-linecap:round;"/>
   </g>
   <g id="patch_9">
    <path clip-path="url(#pdd476f4e70)" d="M 1119.245473 964.882254 
Q 1111.126896 1004.556013 1103.232461 1043.134437 
" style="fill:none;stroke:#000000;stroke-linecap:round;"/>
    <path clip-path="url(#pdd476f4e70)" d="M 1105.993773 1039.616603 
L 1103.232461 1043.134437 
L 1102.074981 1038.814687 
L 1105.993773 1039.616603 
z
" style="stroke:#000000;stroke-linecap:round;"/>
   </g>
   <g id="patch_10">
    <path clip-path="url(#pdd476f4e70)" d="M 1126.752521 949.934506 
Q 1147.796384 926.369709 1168.095542 903.638828 
" style="fill:none;stroke:#000000;stroke-linecap:round;"/>
    <path clip-path="url(#pdd476f4e70)" d="M 1163.939453 905.290168 
L 1168.095542 903.638828 
L 1166.922961 907.954503 
L 1163.939453 905.290168 
z
" style="stroke:#000000;stroke-linecap:round;"/>
   </g>
   <g id="patch_11">
    <path clip-path="url(#pdd476f4e70)" d="M 1122.477808 964.924071 
Q 1130.219638 1009.060266 1137.768306 1052.095239 
" style="fill:none;stroke:#000000;stroke-linecap:round;"/>
    <path clip-path="url(#pdd476f4e70)" d="M 1139.04715 1047.80985 
L 1137.768306 1052.095239 
L 1135.107302 1048.50093 
L 1139.04715 1047.80985 
z
" style="stroke:#000000;stroke-linecap:round;"/>
   </g>
   <g id="patch_12">
    <path clip-path="url(#pdd476f4e70)" d="M 1129.498972 954.823419 
Q 1160.070031 949.177588 1189.541648 943.734801 
" style="fill:none;stroke:#000000;stroke-linecap:round;"/>
    <path clip-path="url(#pdd476f4e70)" d="M 1185.244948 942.49449 
L 1189.541648 943.734801 
L 1185.971379 946.427974 
L 1185.244948 942.49449 
z
" style="stroke:#000000;stroke-linecap:round;"/>
   </g>
   <g id="patch_13">
    <path clip-path="url(#pdd476f4e70)" d="M 1082.118835 671.209949 
Q 1071.388187 613.199836 1060.860901 556.289107 
" style="fill:none;stroke:#000000;stroke-linecap:round;"/>
    <path clip-path="url(#pdd476f4e70)" d="M 1059.621837 560.586166 
L 1060.860901 556.289107 
L 1063.555111 559.858593 
L 1059.621837 560.586166 
z
" style="stroke:#000000;stroke-linecap:round;"/>
   </g>
   <g id="patch_14">
    <path clip-path="url(#pdd476f4e70)" d="M 1055.577123 538.75343 
Q 1035.499322 493.388758 1015.874012 449.046462 
" style="fill:none;stroke:#000000;stroke-linecap:round;"/>
    <path clip-path="url(#pdd476f4e70)" d="M 1015.664007 453.513664 
L 1015.874012 449.046462 
L 1019.321771 451.894787 
L 1015.664007 453.513664 
z
" style="stroke:#000000;stroke-linecap:round;"/>
   </g>
   <g id="patch_15">
    <path clip-path="url(#pdd476f4e70)" d="M 1005.371587 434.428921 
Q 975.53128 408.555243 946.535689 383.413996 
" style="fill:none;stroke:#000000;stroke-linecap:round;"/>
    <path clip-path="url(#pdd476f4e70)" d="M 948.24763 387.545492 
L 946.535689 383.413996 
L 950.86805 384.523341 
L 948.24763 387.545492 
z
" style="stroke:#000000;stroke-linecap:round;"/>
   </g>
   <g id="patch_16">
    <path clip-path="url(#pdd476f4e70)" d="M 930.555037 375.937383 
Q 896.2846 371.662744 863.123599 367.526489 
" style="fill:none;stroke:#000000;stroke-linecap:round;"/>
    <path clip-path="url(#pdd476f4e70)" d="M 866.845294 370.006203 
L 863.123599 367.526489 
L 867.340388 366.036961 
L 866.845294 370.006203 
z
" style="stroke:#000000;stroke-linecap:round;"/>
   </g>
   <g id="patch_17">
    <path clip-path="url(#pdd476f4e70)" d="M 850.896066 374.602409 
Q 839.065156 413.405525 827.886375 450.069779 
" style="fill:none;stroke:#ff0000;stroke-linecap:round;stroke-width:2;"/>
    <path clip-path="url(#pdd476f4e70)" d="M 830.965996 446.826951 
L 827.886375 450.069779 
L 827.139885 445.660386 
L 830.965996 446.826951 
z
" style="fill:#ff0000;stroke:#ff0000;stroke-linecap:round;stroke-width:2;"/>
   </g>
   <g id="patch_18">
    <path clip-path="url(#pdd476f4e70)" d="M 853.970844 357.672784 
Q 856.50908 317.667557 858.976521 278.778121 
" style="fill:none;stroke:#000000;stroke-linecap:round;"/>
    <path clip-path="url(#pdd476f4e70)" d="M 856.727254 282.643453 
L 858.976521 278.778121 
L 860.719227 282.896734 
L 856.727254 282.643453 
z
" style="stroke:#000000;stroke-linecap:round;"/>
   </g>
   <g id="patch_19">
    <path clip-path="url(#pdd476f4e70)" d="M 849.08488 358.819587 
Q 831.788234 328.924715 815.051499 299.997572 
" style="fill:none;stroke:#000000;stroke-linecap:round;"/>
    <path clip-path="url(#pdd476f4e70)" d="M 815.323571 304.461424 
L 815.051499 299.997572 
L 818.785824 302.458226 
L 815.323571 304.461424 
z
" style="stroke:#000000;stroke-linecap:round;"/>
   </g>
   <g id="patch_20">
    <path clip-path="url(#pdd476f4e70)" d="M 823.150175 469.016747 
Q 811.745538 531.409182 800.541935 592.701806 
" style="fill:none;stroke:#000000;stroke-linecap:round;"/>
    <path clip-path="url(#pdd476f4e70)" d="M 803.228576 589.126619 
L 800.541935 592.701806 
L 799.29377 588.407381 
L 803.228576 589.126619 
z
" style="stroke:#000000;stroke-linecap:round;"/>
   </g>
   <g id="patch_21">
    <path clip-path="url(#pdd476f4e70)" d="M 797.776958 610.930371 
Q 790.246764 675.344384 782.846388 738.647927 
" style="fill:none;stroke:#000000;stroke-linecap:round;"/>
    <path clip-path="url(#pdd476f4e70)" d="M 785.297309 734.907207 
L 782.846388 738.647927 
L 781.324365 734.442758 
L 785.297309 734.907207 
z
" style="stroke:#000000;stroke-linecap:round;"/>
   </g>
   <g id="patch_22">
    <path clip-path="url(#pdd476f4e70)" d="M 779.450612 756.718516 
Q 763.707301 814.932664 748.255863 872.067549 
" style="fill:none;stroke:#000000;stroke-linecap:round;"/>
    <path clip-path="url(#pdd476f4e70)" d="M 751.230747 868.728379 
L 748.255863 872.067549 
L 747.369457 867.684139 
L 751.230747 868.728379 
z
" style="stroke:#000000;stroke-linecap:round;"/>
   </g>
   <g id="patch_23">
    <path clip-path="url(#pdd476f4e70)" d="M 742.483856 889.547209 
Q 721.361858 942.303227 700.655419 994.02131 
" style="fill:none;stroke:#000000;stroke-linecap:round;"/>
    <path clip-path="url(#pdd476f4e70)" d="M 703.998886 991.051255 
L 700.655419 994.02131 
L 700.285455 989.564504 
L 703.998886 991.051255 
z
" style="stroke:#000000;stroke-linecap:round;"/>
   </g>
   <g id="patch_24">
    <path clip-path="url(#pdd476f4e70)" d="M 689.536927 1007.462234 
Q 665.920503 1021.222213 644.236127 1033.856495 
" style="fill:none;stroke:#ff0000;stroke-linecap:round;stroke-width:2;"/>
    <path clip-path="url(#pdd476f4e70)" d="M 648.699132 1033.570863 
L 644.236127 1033.856495 
L 646.685425 1030.114712 
L 648.699132 1033.570863 
z
" style="fill:#ff0000;stroke:#ff0000;stroke-linecap:round;stroke-width:2;"/>
   </g>
   <g id="patch_25">
    <path clip-path="url(#pdd476f4e70)" d="M 698.114102 1011.69428 
Q 702.255269 1044.201129 706.255148 1075.598907 
" style="fill:none;stroke:#000000;stroke-linecap:round;"/>
    <path clip-path="url(#pdd476f4e70)" d="M 707.733624 1071.378231 
L 706.255148 1075.598907 
L 703.765693 1071.883721 
L 707.733624 1071.378231 
z
" style="stroke:#000000;stroke-linecap:round;"/>
   </g>
   <g id="patch_26">
    <path clip-path="url(#pdd476f4e70)" d="M 626.882419 1042.803687 
Q 593.678054 1057.281366 561.498541 1071.312191 
" style="fill:none;stroke:#000000;stroke-linecap:round;"/>
    <path clip-path="url(#pdd476f4e70)" d="M 565.96452 1071.546791 
L 561.498541 1071.312191 
L 564.365809 1067.880169 
L 565.96452 1071.546791 
z
" style="stroke:#000000;stroke-linecap:round;"/>
   </g>
   <g id="patch_27">
    <path clip-path="url(#pdd476f4e70)" d="M 544.122116 1077.26641 
Q 514.514295 1084.468414 485.99283 1091.406165 
" style="fill:none;stroke:#000000;stroke-linecap:round;"/>
    <path clip-path="url(#pdd476f4e70)" d="M 490.352207 1092.40408 
L 485.99283 1091.406165 
L 489.406788 1088.517412 
L 490.352207 1092.40408 
z
" style="stroke:#000000;stroke-linecap:round;"/>
   </g>
   <g id="patch_28">
    <path clip-path="url(#pdd476f4e70)" d="M 467.942244 1095.125678 
Q 437.869594 1100.079103 408.900113 1104.85082 
" style="fill:none;stroke:#000000;stroke-linecap:round;"/>
    <path clip-path="url(#pdd476f4e70)" d="M 413.171981 1106.174127 
L 408.900113 1104.85082 
L 412.52188 1102.22731 
L 413.171981 1106.174127 
z
" style="stroke:#000000;stroke-linecap:round;"/>
   </g>
   <g id="patch_29">
    <path clip-path="url(#pdd476f4e70)" d="M 390.928716 1104.041141 
Q 371.351443 1098.39435 353.922651 1093.367258 
" style="fill:none;stroke:#ff0000;stroke-linecap:round;stroke-width:2;"/>
    <path clip-path="url(#pdd476f4e70)" d="M 357.211695 1096.39747 
L 353.922651 1093.367258 
L 358.320247 1092.55415 
L 357.211695 1096.39747 
z
" style="fill:#ff0000;stroke:#ff0000;stroke-linecap:round;stroke-width:2;"/>
   </g>
   <g id="patch_30">
    <path clip-path="url(#pdd476f4e70)" d="M 397.403456 1114.906239 
Q 390.647758 1145.913515 384.130068 1175.828385 
" style="fill:none;stroke:#000000;stroke-linecap:round;"/>
    <path clip-path="url(#pdd476f4e70)" d="M 386.935747 1172.345833 
L 384.130068 1175.828385 
L 383.027434 1171.494311 
L 386.935747 1172.345833 
z
" style="stroke:#000000;stroke-linecap:round;"/>
   </g>
   <g id="patch_31">
    <path clip-path="url(#pdd476f4e70)" d="M 334.840107 1091.269221 
Q 310.147785 1093.909274 286.567162 1096.430467 
" style="fill:none;stroke:#000000;stroke-linecap:round;"/>
    <path clip-path="url(#pdd476f4e70)" d="M 290.757118 1097.993885 
L 286.567162 1096.430467 
L 290.331869 1094.016553 
L 290.757118 1097.993885 
z
" style="stroke:#000000;stroke-linecap:round;"/>
   </g>
   <g id="patch_32">
    <path clip-path="url(#pdd476f4e70)" d="M 282.526301 1104.005903 
Q 292.357028 1115.311101 301.454121 1125.77263 
" style="fill:none;stroke:#000000;stroke-linecap:round;"/>
    <path clip-path="url(#pdd476f4e70)" d="M 300.338591 1121.441857 
L 301.454121 1125.77263 
L 297.320184 1124.06659 
L 300.338591 1121.441857 
z
" style="stroke:#000000;stroke-linecap:round;"/>
   </g>
   <g id="PathCollection_1">
    <defs>
     <path d="M 0 8.660254 
C 2.296726 8.660254 4.499694 7.747755 6.123724 6.123724 
C 7.747755 4.499694 8.660254 2.296726 8.660254 0 
C 8.660254 -2.296726 7.747755 -4.499694 6.123724 -6.123724 
C 4.499694 -7.747755 2.296726 -8.660254 0 -8.660254 
C -2.296726 -8.660254 -4.499694 -7.747755 -6.123724 -6.123724 
C -7.747755 -4.499694 -8.660254 -2.296726 -8.660254 0 
C -8.660254 2.296726 -7.747755 4.499694 -6.123724 6.123724 
C -4.499694 7.747755 -2.296726 8.660254 0 8.660254 
z
" id="m0cdf4ac36e" style="stroke:#1f78b4;"/>
    </defs>
    <g clip-path="url(#pdd476f4e70)">
     <use style="fill:#1f78b4;stroke:#1f78b4;" x="1094.446275" xlink:href="#m0cdf4ac36e" y="833.478913"/>
     <use style="fill:#1f78b4;stroke:#1f78b4;" x="1120.981976" xlink:href="#m0cdf4ac36e" y="956.396328"/>
     <use style="fill:#1f78b4;stroke:#1f78b4;" x="1197.443563" xlink:href="#m0cdf4ac36e" y="995.388237"/>
     <use style="fill:#1f78b4;stroke:#1f78b4;" x="1173.158219" xlink:href="#m0cdf4ac36e" y="1035.774932"/>
     <use style="fill:#1f78b4;stroke:#1f78b4;" x="1058.52676" xlink:href="#m0cdf4ac36e" y="1016.952991"/>
     <use style="fill:#1f78b4;stroke:#1f78b4;" x="1064.819493" xlink:href="#m0cdf4ac36e" y="950.489976"/>
     <use style="fill:#1f78b4;stroke:#1f78b4;" x="1101.272327" xlink:href="#m0cdf4ac36e" y="1052.7132"/>
     <use style="fill:#1f78b4;stroke:#1f78b4;" x="1174.60909" xlink:href="#m0cdf4ac36e" y="896.344995"/>
     <use style="fill:#1f78b4;stroke:#1f78b4;" x="1139.457447" xlink:href="#m0cdf4ac36e" y="1061.725037"/>
     <use style="fill:#1f78b4;stroke:#1f78b4;" x="1199.157025" xlink:href="#m0cdf4ac36e" y="941.959043"/>
     <use style="fill:#1f78b4;stroke:#1f78b4;" x="1055.392501" xlink:href="#m0cdf4ac36e" y="780.084293"/>
     <use style="fill:#1f78b4;stroke:#1f78b4;" x="1083.693877" xlink:href="#m0cdf4ac36e" y="679.724662"/>
     <use style="fill:#1f78b4;stroke:#1f78b4;" x="1059.082056" xlink:href="#m0cdf4ac36e" y="546.672629"/>
     <use style="fill:#1f78b4;stroke:#1f78b4;" x="1011.915885" xlink:href="#m0cdf4ac36e" y="440.103294"/>
     <use style="fill:#1f78b4;stroke:#1f78b4;" x="939.149164" xlink:href="#m0cdf4ac36e" y="377.00935"/>
     <use style="fill:#1f78b4;stroke:#1f78b4;" x="853.422425" xlink:href="#m0cdf4ac36e" y="366.316437"/>
     <use style="fill:#1f78b4;stroke:#1f78b4;" x="824.707984" xlink:href="#m0cdf4ac36e" y="460.494292"/>
     <use style="fill:#1f78b4;stroke:#1f78b4;" x="859.595766" xlink:href="#m0cdf4ac36e" y="269.018182"/>
     <use style="fill:#1f78b4;stroke:#1f78b4;" x="810.155249" xlink:href="#m0cdf4ac36e" y="291.535078"/>
     <use style="fill:#1f78b4;stroke:#1f78b4;" x="798.783003" xlink:href="#m0cdf4ac36e" y="602.324563"/>
     <use style="fill:#1f78b4;stroke:#1f78b4;" x="781.710976" xlink:href="#m0cdf4ac36e" y="748.360354"/>
     <use style="fill:#1f78b4;stroke:#1f78b4;" x="745.703395" xlink:href="#m0cdf4ac36e" y="881.505826"/>
     <use style="fill:#1f78b4;stroke:#1f78b4;" x="697.019565" xlink:href="#m0cdf4ac36e" y="1003.102516"/>
     <use style="fill:#1f78b4;stroke:#1f78b4;" x="634.819896" xlink:href="#m0cdf4ac36e" y="1039.34281"/>
     <use style="fill:#1f78b4;stroke:#1f78b4;" x="707.491324" xlink:href="#m0cdf4ac36e" y="1085.302491"/>
     <use style="fill:#1f78b4;stroke:#1f78b4;" x="552.537313" xlink:href="#m0cdf4ac36e" y="1075.219442"/>
     <use style="fill:#1f78b4;stroke:#1f78b4;" x="476.489555" xlink:href="#m0cdf4ac36e" y="1093.717805"/>
     <use style="fill:#1f78b4;stroke:#1f78b4;" x="399.247884" xlink:href="#m0cdf4ac36e" y="1106.44069"/>
     <use style="fill:#1f78b4;stroke:#1f78b4;" x="343.455313" xlink:href="#m0cdf4ac36e" y="1090.3481"/>
     <use style="fill:#1f78b4;stroke:#1f78b4;" x="382.048618" xlink:href="#m0cdf4ac36e" y="1185.381818"/>
     <use style="fill:#1f78b4;stroke:#1f78b4;" x="276.842975" xlink:href="#m0cdf4ac36e" y="1097.470158"/>
     <use style="fill:#1f78b4;stroke:#1f78b4;" x="307.871169" xlink:href="#m0cdf4ac36e" y="1133.152146"/>
    </g>
   </g>
   <g id="text_1">
    <g clip-path="url(#pdd476f4e70)">
     <!-- 1 -->
     <g transform="translate(1090.628775 836.790163)scale(0.12 -0.12)">
      <defs>
       <path d="M 794 531 
L 1825 531 
L 1825 4091 
L 703 3866 
L 703 4441 
L 1819 4666 
L 2450 4666 
L 2450 531 
L 3481 531 
L 3481 0 
L 794 0 
L 794 531 
z
" id="DejaVuSans-31" transform="scale(0.015625)"/>
      </defs>
      <use xlink:href="#DejaVuSans-31"/>
     </g>
    </g>
   </g>
   <g id="text_2">
    <g clip-path="url(#pdd476f4e70)">
     <!-- 0 -->
     <g transform="translate(1117.164476 959.707578)scale(0.12 -0.12)">
      <defs>
       <path d="M 2034 4250 
Q 1547 4250 1301 3770 
Q 1056 3291 1056 2328 
Q 1056 1369 1301 889 
Q 1547 409 2034 409 
Q 2525 409 2770 889 
Q 3016 1369 3016 2328 
Q 3016 3291 2770 3770 
Q 2525 4250 2034 4250 
z
M 2034 4750 
Q 2819 4750 3233 4129 
Q 3647 3509 3647 2328 
Q 3647 1150 3233 529 
Q 2819 -91 2034 -91 
Q 1250 -91 836 529 
Q 422 1150 422 2328 
Q 422 3509 836 4129 
Q 1250 4750 2034 4750 
z
" id="DejaVuSans-30" transform="scale(0.015625)"/>
      </defs>
      <use xlink:href="#DejaVuSans-30"/>
     </g>
    </g>
   </g>
   <g id="text_3">
    <g clip-path="url(#pdd476f4e70)">
     <!-- 7 -->
     <g transform="translate(1193.626063 998.699487)scale(0.12 -0.12)">
      <defs>
       <path d="M 525 4666 
L 3525 4666 
L 3525 4397 
L 1831 0 
L 1172 0 
L 2766 4134 
L 525 4134 
L 525 4666 
z
" id="DejaVuSans-37" transform="scale(0.015625)"/>
      </defs>
      <use xlink:href="#DejaVuSans-37"/>
     </g>
    </g>
   </g>
   <g id="text_4">
    <g clip-path="url(#pdd476f4e70)">
     <!-- 4 -->
     <g transform="translate(1169.340719 1039.086182)scale(0.12 -0.12)">
      <defs>
       <path d="M 2419 4116 
L 825 1625 
L 2419 1625 
L 2419 4116 
z
M 2253 4666 
L 3047 4666 
L 3047 1625 
L 3713 1625 
L 3713 1100 
L 3047 1100 
L 3047 0 
L 2419 0 
L 2419 1100 
L 313 1100 
L 313 1709 
L 2253 4666 
z
" id="DejaVuSans-34" transform="scale(0.015625)"/>
      </defs>
      <use xlink:href="#DejaVuSans-34"/>
     </g>
    </g>
   </g>
   <g id="text_5">
    <g clip-path="url(#pdd476f4e70)">
     <!-- 8 -->
     <g transform="translate(1054.70926 1020.264241)scale(0.12 -0.12)">
      <defs>
       <path d="M 2034 2216 
Q 1584 2216 1326 1975 
Q 1069 1734 1069 1313 
Q 1069 891 1326 650 
Q 1584 409 2034 409 
Q 2484 409 2743 651 
Q 3003 894 3003 1313 
Q 3003 1734 2745 1975 
Q 2488 2216 2034 2216 
z
M 1403 2484 
Q 997 2584 770 2862 
Q 544 3141 544 3541 
Q 544 4100 942 4425 
Q 1341 4750 2034 4750 
Q 2731 4750 3128 4425 
Q 3525 4100 3525 3541 
Q 3525 3141 3298 2862 
Q 3072 2584 2669 2484 
Q 3125 2378 3379 2068 
Q 3634 1759 3634 1313 
Q 3634 634 3220 271 
Q 2806 -91 2034 -91 
Q 1263 -91 848 271 
Q 434 634 434 1313 
Q 434 1759 690 2068 
Q 947 2378 1403 2484 
z
M 1172 3481 
Q 1172 3119 1398 2916 
Q 1625 2713 2034 2713 
Q 2441 2713 2670 2916 
Q 2900 3119 2900 3481 
Q 2900 3844 2670 4047 
Q 2441 4250 2034 4250 
Q 1625 4250 1398 4047 
Q 1172 3844 1172 3481 
z
" id="DejaVuSans-38" transform="scale(0.015625)"/>
      </defs>
      <use xlink:href="#DejaVuSans-38"/>
     </g>
    </g>
   </g>
   <g id="text_6">
    <g clip-path="url(#pdd476f4e70)">
     <!-- 9 -->
     <g transform="translate(1061.001993 953.801226)scale(0.12 -0.12)">
      <defs>
       <path d="M 703 97 
L 703 672 
Q 941 559 1184 500 
Q 1428 441 1663 441 
Q 2288 441 2617 861 
Q 2947 1281 2994 2138 
Q 2813 1869 2534 1725 
Q 2256 1581 1919 1581 
Q 1219 1581 811 2004 
Q 403 2428 403 3163 
Q 403 3881 828 4315 
Q 1253 4750 1959 4750 
Q 2769 4750 3195 4129 
Q 3622 3509 3622 2328 
Q 3622 1225 3098 567 
Q 2575 -91 1691 -91 
Q 1453 -91 1209 -44 
Q 966 3 703 97 
z
M 1959 2075 
Q 2384 2075 2632 2365 
Q 2881 2656 2881 3163 
Q 2881 3666 2632 3958 
Q 2384 4250 1959 4250 
Q 1534 4250 1286 3958 
Q 1038 3666 1038 3163 
Q 1038 2656 1286 2365 
Q 1534 2075 1959 2075 
z
" id="DejaVuSans-39" transform="scale(0.015625)"/>
      </defs>
      <use xlink:href="#DejaVuSans-39"/>
     </g>
    </g>
   </g>
   <g id="text_7">
    <g clip-path="url(#pdd476f4e70)">
     <!-- 3 -->
     <g transform="translate(1097.454827 1056.02445)scale(0.12 -0.12)">
      <defs>
       <path d="M 2597 2516 
Q 3050 2419 3304 2112 
Q 3559 1806 3559 1356 
Q 3559 666 3084 287 
Q 2609 -91 1734 -91 
Q 1441 -91 1130 -33 
Q 819 25 488 141 
L 488 750 
Q 750 597 1062 519 
Q 1375 441 1716 441 
Q 2309 441 2620 675 
Q 2931 909 2931 1356 
Q 2931 1769 2642 2001 
Q 2353 2234 1838 2234 
L 1294 2234 
L 1294 2753 
L 1863 2753 
Q 2328 2753 2575 2939 
Q 2822 3125 2822 3475 
Q 2822 3834 2567 4026 
Q 2313 4219 1838 4219 
Q 1578 4219 1281 4162 
Q 984 4106 628 3988 
L 628 4550 
Q 988 4650 1302 4700 
Q 1616 4750 1894 4750 
Q 2613 4750 3031 4423 
Q 3450 4097 3450 3541 
Q 3450 3153 3228 2886 
Q 3006 2619 2597 2516 
z
" id="DejaVuSans-33" transform="scale(0.015625)"/>
      </defs>
      <use xlink:href="#DejaVuSans-33"/>
     </g>
    </g>
   </g>
   <g id="text_8">
    <g clip-path="url(#pdd476f4e70)">
     <!-- 2 -->
     <g transform="translate(1170.79159 899.656245)scale(0.12 -0.12)">
      <defs>
       <path d="M 1228 531 
L 3431 531 
L 3431 0 
L 469 0 
L 469 531 
Q 828 903 1448 1529 
Q 2069 2156 2228 2338 
Q 2531 2678 2651 2914 
Q 2772 3150 2772 3378 
Q 2772 3750 2511 3984 
Q 2250 4219 1831 4219 
Q 1534 4219 1204 4116 
Q 875 4013 500 3803 
L 500 4441 
Q 881 4594 1212 4672 
Q 1544 4750 1819 4750 
Q 2544 4750 2975 4387 
Q 3406 4025 3406 3419 
Q 3406 3131 3298 2873 
Q 3191 2616 2906 2266 
Q 2828 2175 2409 1742 
Q 1991 1309 1228 531 
z
" id="DejaVuSans-32" transform="scale(0.015625)"/>
      </defs>
      <use xlink:href="#DejaVuSans-32"/>
     </g>
    </g>
   </g>
   <g id="text_9">
    <g clip-path="url(#pdd476f4e70)">
     <!-- 6 -->
     <g transform="translate(1135.639947 1065.036287)scale(0.12 -0.12)">
      <defs>
       <path d="M 2113 2584 
Q 1688 2584 1439 2293 
Q 1191 2003 1191 1497 
Q 1191 994 1439 701 
Q 1688 409 2113 409 
Q 2538 409 2786 701 
Q 3034 994 3034 1497 
Q 3034 2003 2786 2293 
Q 2538 2584 2113 2584 
z
M 3366 4563 
L 3366 3988 
Q 3128 4100 2886 4159 
Q 2644 4219 2406 4219 
Q 1781 4219 1451 3797 
Q 1122 3375 1075 2522 
Q 1259 2794 1537 2939 
Q 1816 3084 2150 3084 
Q 2853 3084 3261 2657 
Q 3669 2231 3669 1497 
Q 3669 778 3244 343 
Q 2819 -91 2113 -91 
Q 1303 -91 875 529 
Q 447 1150 447 2328 
Q 447 3434 972 4092 
Q 1497 4750 2381 4750 
Q 2619 4750 2861 4703 
Q 3103 4656 3366 4563 
z
" id="DejaVuSans-36" transform="scale(0.015625)"/>
      </defs>
      <use xlink:href="#DejaVuSans-36"/>
     </g>
    </g>
   </g>
   <g id="text_10">
    <g clip-path="url(#pdd476f4e70)">
     <!-- 5 -->
     <g transform="translate(1195.339525 945.270293)scale(0.12 -0.12)">
      <defs>
       <path d="M 691 4666 
L 3169 4666 
L 3169 4134 
L 1269 4134 
L 1269 2991 
Q 1406 3038 1543 3061 
Q 1681 3084 1819 3084 
Q 2600 3084 3056 2656 
Q 3513 2228 3513 1497 
Q 3513 744 3044 326 
Q 2575 -91 1722 -91 
Q 1428 -91 1123 -41 
Q 819 9 494 109 
L 494 744 
Q 775 591 1075 516 
Q 1375 441 1709 441 
Q 2250 441 2565 725 
Q 2881 1009 2881 1497 
Q 2881 1984 2565 2268 
Q 2250 2553 1709 2553 
Q 1456 2553 1204 2497 
Q 953 2441 691 2322 
L 691 4666 
z
" id="DejaVuSans-35" transform="scale(0.015625)"/>
      </defs>
      <use xlink:href="#DejaVuSans-35"/>
     </g>
    </g>
   </g>
   <g id="text_11">
    <g clip-path="url(#pdd476f4e70)">
     <!-- 11 -->
     <g transform="translate(1047.757501 783.395543)scale(0.12 -0.12)">
      <use xlink:href="#DejaVuSans-31"/>
      <use x="63.623047" xlink:href="#DejaVuSans-31"/>
     </g>
    </g>
   </g>
   <g id="text_12">
    <g clip-path="url(#pdd476f4e70)">
     <!-- 10 -->
     <g transform="translate(1076.058877 683.035912)scale(0.12 -0.12)">
      <use xlink:href="#DejaVuSans-31"/>
      <use x="63.623047" xlink:href="#DejaVuSans-30"/>
     </g>
    </g>
   </g>
   <g id="text_13">
    <g clip-path="url(#pdd476f4e70)">
     <!-- 12 -->
     <g transform="translate(1051.447056 549.983879)scale(0.12 -0.12)">
      <use xlink:href="#DejaVuSans-31"/>
      <use x="63.623047" xlink:href="#DejaVuSans-32"/>
     </g>
    </g>
   </g>
   <g id="text_14">
    <g clip-path="url(#pdd476f4e70)">
     <!-- 13 -->
     <g transform="translate(1004.280885 443.414544)scale(0.12 -0.12)">
      <use xlink:href="#DejaVuSans-31"/>
      <use x="63.623047" xlink:href="#DejaVuSans-33"/>
     </g>
    </g>
   </g>
   <g id="text_15">
    <g clip-path="url(#pdd476f4e70)">
     <!-- 14 -->
     <g transform="translate(931.514164 380.3206)scale(0.12 -0.12)">
      <use xlink:href="#DejaVuSans-31"/>
      <use x="63.623047" xlink:href="#DejaVuSans-34"/>
     </g>
    </g>
   </g>
   <g id="text_16">
    <g clip-path="url(#pdd476f4e70)">
     <!-- 15 -->
     <g transform="translate(845.787425 369.627687)scale(0.12 -0.12)">
      <use xlink:href="#DejaVuSans-31"/>
      <use x="63.623047" xlink:href="#DejaVuSans-35"/>
     </g>
    </g>
   </g>
   <g id="text_17">
    <g clip-path="url(#pdd476f4e70)">
     <!-- 16 -->
     <g transform="translate(817.072984 463.805542)scale(0.12 -0.12)">
      <use xlink:href="#DejaVuSans-31"/>
      <use x="63.623047" xlink:href="#DejaVuSans-36"/>
     </g>
    </g>
   </g>
   <g id="text_18">
    <g clip-path="url(#pdd476f4e70)">
     <!-- 17 -->
     <g transform="translate(851.960766 272.329432)scale(0.12 -0.12)">
      <use xlink:href="#DejaVuSans-31"/>
      <use x="63.623047" xlink:href="#DejaVuSans-37"/>
     </g>
    </g>
   </g>
   <g id="text_19">
    <g clip-path="url(#pdd476f4e70)">
     <!-- 18 -->
     <g transform="translate(802.520249 294.846328)scale(0.12 -0.12)">
      <use xlink:href="#DejaVuSans-31"/>
      <use x="63.623047" xlink:href="#DejaVuSans-38"/>
     </g>
    </g>
   </g>
   <g id="text_20">
    <g clip-path="url(#pdd476f4e70)">
     <!-- 19 -->
     <g transform="translate(791.148003 605.635813)scale(0.12 -0.12)">
      <use xlink:href="#DejaVuSans-31"/>
      <use x="63.623047" xlink:href="#DejaVuSans-39"/>
     </g>
    </g>
   </g>
   <g id="text_21">
    <g clip-path="url(#pdd476f4e70)">
     <!-- 20 -->
     <g transform="translate(774.075976 751.671604)scale(0.12 -0.12)">
      <use xlink:href="#DejaVuSans-32"/>
      <use x="63.623047" xlink:href="#DejaVuSans-30"/>
     </g>
    </g>
   </g>
   <g id="text_22">
    <g clip-path="url(#pdd476f4e70)">
     <!-- 21 -->
     <g transform="translate(738.068395 884.817076)scale(0.12 -0.12)">
      <use xlink:href="#DejaVuSans-32"/>
      <use x="63.623047" xlink:href="#DejaVuSans-31"/>
     </g>
    </g>
   </g>
   <g id="text_23">
    <g clip-path="url(#pdd476f4e70)">
     <!-- 22 -->
     <g transform="translate(689.384565 1006.413766)scale(0.12 -0.12)">
      <use xlink:href="#DejaVuSans-32"/>
      <use x="63.623047" xlink:href="#DejaVuSans-32"/>
     </g>
    </g>
   </g>
   <g id="text_24">
    <g clip-path="url(#pdd476f4e70)">
     <!-- 23 -->
     <g transform="translate(627.184896 1042.65406)scale(0.12 -0.12)">
      <use xlink:href="#DejaVuSans-32"/>
      <use x="63.623047" xlink:href="#DejaVuSans-33"/>
     </g>
    </g>
   </g>
   <g id="text_25">
    <g clip-path="url(#pdd476f4e70)">
     <!-- 24 -->
     <g transform="translate(699.856324 1088.613741)scale(0.12 -0.12)">
      <use xlink:href="#DejaVuSans-32"/>
      <use x="63.623047" xlink:href="#DejaVuSans-34"/>
     </g>
    </g>
   </g>
   <g id="text_26">
    <g clip-path="url(#pdd476f4e70)">
     <!-- 25 -->
     <g transform="translate(544.902313 1078.530692)scale(0.12 -0.12)">
      <use xlink:href="#DejaVuSans-32"/>
      <use x="63.623047" xlink:href="#DejaVuSans-35"/>
     </g>
    </g>
   </g>
   <g id="text_27">
    <g clip-path="url(#pdd476f4e70)">
     <!-- 26 -->
     <g transform="translate(468.854555 1097.029055)scale(0.12 -0.12)">
      <use xlink:href="#DejaVuSans-32"/>
      <use x="63.623047" xlink:href="#DejaVuSans-36"/>
     </g>
    </g>
   </g>
   <g id="text_28">
    <g clip-path="url(#pdd476f4e70)">
     <!-- 27 -->
     <g transform="translate(391.612884 1109.75194)scale(0.12 -0.12)">
      <use xlink:href="#DejaVuSans-32"/>
      <use x="63.623047" xlink:href="#DejaVuSans-37"/>
     </g>
    </g>
   </g>
   <g id="text_29">
    <g clip-path="url(#pdd476f4e70)">
     <!-- 28 -->
     <g transform="translate(335.820313 1093.65935)scale(0.12 -0.12)">
      <use xlink:href="#DejaVuSans-32"/>
      <use x="63.623047" xlink:href="#DejaVuSans-38"/>
     </g>
    </g>
   </g>
   <g id="text_30">
    <g clip-path="url(#pdd476f4e70)">
     <!-- 29 -->
     <g transform="translate(374.413618 1188.693068)scale(0.12 -0.12)">
      <use xlink:href="#DejaVuSans-32"/>
      <use x="63.623047" xlink:href="#DejaVuSans-39"/>
     </g>
    </g>
   </g>
   <g id="text_31">
    <g clip-path="url(#pdd476f4e70)">
     <!-- 30 -->
     <g transform="translate(269.207975 1100.781408)scale(0.12 -0.12)">
      <use xlink:href="#DejaVuSans-33"/>
      <use x="63.623047" xlink:href="#DejaVuSans-30"/>
     </g>
    </g>
   </g>
   <g id="text_32">
    <g clip-path="url(#pdd476f4e70)">
     <!-- 31 -->
     <g transform="translate(300.236169 1136.463396)scale(0.12 -0.12)">
      <use xlink:href="#DejaVuSans-33"/>
      <use x="63.623047" xlink:href="#DejaVuSans-31"/>
     </g>
    </g>
   </g>
  </g>
 </g>
 <defs>
  <clipPath id="pdd476f4e70">
   <rect height="1108.8" width="1116" x="180" y="172.8"/>
  </clipPath>
 </defs>
</svg>
