<?xml version="1.0" encoding="utf-8" standalone="no"?>
<!DOCTYPE svg PUBLIC "-//W3C//DTD SVG 1.1//EN"
  "http://www.w3.org/Graphics/SVG/1.1/DTD/svg11.dtd">
<svg height="1440pt" version="1.1" viewBox="0 0 1440 1440" width="1440pt" xmlns="http://www.w3.org/2000/svg" xmlns:xlink="http://www.w3.org/1999/xlink">
 <metadata>
  <rdf:RDF xmlns:cc="http://creativecommons.org/ns#" xmlns:dc="http://purl.org/dc/elements/1.1/" xmlns:rdf="http://www.w3.org/1999/02/22-rdf-syntax-ns#">
   <cc:Work>
    <dc:type rdf:resource="http://purl.org/dc/dcmitype/StillImage"/>
    <dc:date>2021-10-17T06:30:41.356305</dc:date>
    <dc:format>image/svg+xml</dc:format>
    <dc:creator>
     <cc:Agent>
      <dc:title>Matplotlib v3.4.3, https://matplotlib.org/</dc:title>
     </cc:Agent>
    </dc:creator>
   </cc:Work>
  </rdf:RDF>
 </metadata>
 <defs>
  <style type="text/css">*{stroke-linecap:butt;stroke-linejoin:round;}</style>
 </defs>
 <g id="figure_1">
  <g id="patch_1">
   <path d="M 0 1440 
L 1440 1440 
L 1440 0 
L 0 0 
z
" style="fill:#ffffff;"/>
  </g>
  <g id="axes_1">
   <g id="patch_2">
    <path clip-path="url(#p26dd768c70)" d="M 394.033774 828.436506 
Q 370.265683 822.220336 348.660898 816.569946 
" style="fill:none;stroke:#ff0000;stroke-linecap:round;stroke-width:2;"/>
    <path clip-path="url(#p26dd768c70)" d="M 352.02469 819.516962 
L 348.660898 816.569946 
L 353.036786 815.647121 
L 352.02469 819.516962 
z
" style="fill:#ff0000;stroke:#ff0000;stroke-linecap:round;stroke-width:2;"/>
   </g>
   <g id="patch_3">
    <path clip-path="url(#p26dd768c70)" d="M 410.028601 834.752963 
Q 446.462301 854.485632 481.912897 873.685847 
" style="fill:none;stroke:#000000;stroke-linecap:round;"/>
    <path clip-path="url(#p26dd768c70)" d="M 479.348121 870.022253 
L 481.912897 873.685847 
L 477.443156 873.539512 
L 479.348121 870.022253 
z
" style="stroke:#000000;stroke-linecap:round;"/>
   </g>
   <g id="patch_4">
    <path clip-path="url(#p26dd768c70)" d="M 333.570308 806.445762 
Q 311.97762 771.475859 290.972325 737.457254 
" style="fill:none;stroke:#000000;stroke-linecap:round;"/>
    <path clip-path="url(#p26dd768c70)" d="M 291.372113 741.911485 
L 290.972325 737.457254 
L 294.775582 739.809962 
L 291.372113 741.911485 
z
" style="stroke:#000000;stroke-linecap:round;"/>
   </g>
   <g id="patch_5">
    <path clip-path="url(#p26dd768c70)" d="M 341.259928 821.883531 
Q 351.98951 849.455625 362.313633 875.985797 
" style="fill:none;stroke:#000000;stroke-linecap:round;"/>
    <path clip-path="url(#p26dd768c70)" d="M 362.726861 871.532793 
L 362.313633 875.985797 
L 358.999166 872.983412 
L 362.726861 871.532793 
z
" style="stroke:#000000;stroke-linecap:round;"/>
   </g>
   <g id="patch_6">
    <path clip-path="url(#p26dd768c70)" d="M 329.49857 812.998619 
Q 307.482142 810.918889 286.578793 808.944303 
" style="fill:none;stroke:#000000;stroke-linecap:round;"/>
    <path clip-path="url(#p26dd768c70)" d="M 290.372978 811.311615 
L 286.578793 808.944303 
L 290.749154 807.329343 
L 290.372978 811.311615 
z
" style="stroke:#000000;stroke-linecap:round;"/>
   </g>
   <g id="patch_7">
    <path clip-path="url(#p26dd768c70)" d="M 335.284586 821.997901 
Q 324.091716 854.316255 313.264734 885.57814 
" style="fill:none;stroke:#000000;stroke-linecap:round;"/>
    <path clip-path="url(#p26dd768c70)" d="M 316.463645 882.452925 
L 313.264734 885.57814 
L 312.683908 881.143882 
L 316.463645 882.452925 
z
" style="stroke:#000000;stroke-linecap:round;"/>
   </g>
   <g id="patch_8">
    <path clip-path="url(#p26dd768c70)" d="M 495.900504 885.124337 
Q 526.618202 923.783566 556.640368 961.567446 
" style="fill:none;stroke:#000000;stroke-linecap:round;"/>
    <path clip-path="url(#p26dd768c70)" d="M 555.717831 957.191497 
L 556.640368 961.567446 
L 552.586087 959.679906 
L 555.717831 957.191497 
z
" style="stroke:#000000;stroke-linecap:round;"/>
   </g>
   <g id="patch_9">
    <path clip-path="url(#p26dd768c70)" d="M 567.758834 976.267328 
Q 597.946941 1018.496552 627.484857 1059.816242 
" style="fill:none;stroke:#000000;stroke-linecap:round;"/>
    <path clip-path="url(#p26dd768c70)" d="M 626.785683 1055.399099 
L 627.484857 1059.816242 
L 623.531638 1057.725295 
L 626.785683 1055.399099 
z
" style="stroke:#000000;stroke-linecap:round;"/>
   </g>
   <g id="patch_10">
    <path clip-path="url(#p26dd768c70)" d="M 641.805076 1067.101639 
Q 667.222595 1065.130435 690.41074 1063.332126 
" style="fill:none;stroke:#ff0000;stroke-linecap:round;stroke-width:2;"/>
    <path clip-path="url(#p26dd768c70)" d="M 686.268073 1061.647397 
L 690.41074 1063.332126 
L 686.577356 1065.635422 
L 686.268073 1061.647397 
z
" style="fill:#ff0000;stroke:#ff0000;stroke-linecap:round;stroke-width:2;"/>
   </g>
   <g id="patch_11">
    <path clip-path="url(#p26dd768c70)" d="M 630.747413 1076.081889 
Q 617.578441 1121.229105 604.722541 1165.303014 
" style="fill:none;stroke:#000000;stroke-linecap:round;"/>
    <path clip-path="url(#p26dd768c70)" d="M 607.76261 1162.023078 
L 604.722541 1165.303014 
L 603.922634 1160.902997 
L 607.76261 1162.023078 
z
" style="stroke:#000000;stroke-linecap:round;"/>
   </g>
   <g id="patch_12">
    <path clip-path="url(#p26dd768c70)" d="M 706.236143 1055.390921 
Q 730.004946 1021.379038 752.492877 989.200014 
" style="fill:none;stroke:#ff0000;stroke-linecap:round;stroke-width:2;"/>
    <path clip-path="url(#p26dd768c70)" d="M 748.562226 991.333084 
L 752.492877 989.200014 
L 751.840943 993.624376 
L 748.562226 991.333084 
z
" style="fill:#ff0000;stroke:#ff0000;stroke-linecap:round;stroke-width:2;"/>
   </g>
   <g id="patch_13">
    <path clip-path="url(#p26dd768c70)" d="M 701.657698 1071.141657 
Q 703.990763 1123.936942 706.274468 1175.615282 
" style="fill:none;stroke:#000000;stroke-linecap:round;"/>
    <path clip-path="url(#p26dd768c70)" d="M 708.095928 1171.530887 
L 706.274468 1175.615282 
L 704.099828 1171.707477 
L 708.095928 1171.530887 
z
" style="stroke:#000000;stroke-linecap:round;"/>
   </g>
   <g id="patch_14">
    <path clip-path="url(#p26dd768c70)" d="M 760.674658 971.830512 
Q 773.382391 916.540853 785.589247 863.430442 
" style="fill:none;stroke:#ff0000;stroke-linecap:round;stroke-width:2;"/>
    <path clip-path="url(#p26dd768c70)" d="M 782.744073 866.880802 
L 785.589247 863.430442 
L 786.64243 867.776798 
L 782.744073 866.880802 
z
" style="fill:#ff0000;stroke:#ff0000;stroke-linecap:round;stroke-width:2;"/>
   </g>
   <g id="patch_15">
    <path clip-path="url(#p26dd768c70)" d="M 761.607152 988.437809 
Q 775.837484 1028.929814 789.697124 1068.367027 
" style="fill:none;stroke:#000000;stroke-linecap:round;"/>
    <path clip-path="url(#p26dd768c70)" d="M 790.257768 1063.930172 
L 789.697124 1068.367027 
L 786.484027 1065.256399 
L 790.257768 1063.930172 
z
" style="stroke:#000000;stroke-linecap:round;"/>
   </g>
   <g id="patch_16">
    <path clip-path="url(#p26dd768c70)" d="M 789.566492 844.292448 
Q 804.835631 759.645018 819.906296 676.097864 
" style="fill:none;stroke:#000000;stroke-linecap:round;"/>
    <path clip-path="url(#p26dd768c70)" d="M 817.227981 679.679292 
L 819.906296 676.097864 
L 821.16445 680.389373 
L 817.227981 679.679292 
z
" style="stroke:#000000;stroke-linecap:round;"/>
   </g>
   <g id="patch_17">
    <path clip-path="url(#p26dd768c70)" d="M 823.837347 658.095914 
Q 838.794495 601.004797 853.184947 546.076747 
" style="fill:none;stroke:#ff0000;stroke-linecap:round;stroke-width:2;"/>
    <path clip-path="url(#p26dd768c70)" d="M 850.236505 549.439289 
L 853.184947 546.076747 
L 854.105915 550.453026 
L 850.236505 549.439289 
z
" style="fill:#ff0000;stroke:#ff0000;stroke-linecap:round;stroke-width:2;"/>
   </g>
   <g id="patch_18">
    <path clip-path="url(#p26dd768c70)" d="M 813.018582 667.271292 
Q 798.755925 668.587993 785.606568 669.801916 
" style="fill:none;stroke:#000000;stroke-linecap:round;"/>
    <path clip-path="url(#p26dd768c70)" d="M 789.773486 671.425738 
L 785.606568 669.801916 
L 789.405777 667.442676 
L 789.773486 671.425738 
z
" style="stroke:#000000;stroke-linecap:round;"/>
   </g>
   <g id="patch_19">
    <path clip-path="url(#p26dd768c70)" d="M 861.023413 528.52048 
Q 886.321537 493.551141 910.309018 460.393491 
" style="fill:none;stroke:#ff0000;stroke-linecap:round;stroke-width:2;"/>
    <path clip-path="url(#p26dd768c70)" d="M 906.344046 462.462063 
L 910.309018 460.393491 
L 909.584892 464.806612 
L 906.344046 462.462063 
z
" style="fill:#ff0000;stroke:#ff0000;stroke-linecap:round;stroke-width:2;"/>
   </g>
   <g id="patch_20">
    <path clip-path="url(#p26dd768c70)" d="M 851.905033 527.878304 
Q 833.557191 493.088978 815.730908 459.28858 
" style="fill:none;stroke:#000000;stroke-linecap:round;"/>
    <path clip-path="url(#p26dd768c70)" d="M 815.827847 463.759665 
L 815.730908 459.28858 
L 819.365939 461.89368 
L 815.827847 463.759665 
z
" style="stroke:#000000;stroke-linecap:round;"/>
   </g>
   <g id="patch_21">
    <path clip-path="url(#p26dd768c70)" d="M 925.356192 451.369738 
Q 955.321112 450.687205 983.050544 450.055592 
" style="fill:none;stroke:#ff0000;stroke-linecap:round;stroke-width:2;"/>
    <path clip-path="url(#p26dd768c70)" d="M 979.006037 448.147198 
L 983.050544 450.055592 
L 979.097125 452.146161 
L 979.006037 448.147198 
z
" style="fill:#ff0000;stroke:#ff0000;stroke-linecap:round;stroke-width:2;"/>
   </g>
   <g id="patch_22">
    <path clip-path="url(#p26dd768c70)" d="M 914.939485 443.083359 
Q 904.587489 393.039549 894.461973 344.090594 
" style="fill:none;stroke:#000000;stroke-linecap:round;"/>
    <path clip-path="url(#p26dd768c70)" d="M 893.313717 348.412806 
L 894.461973 344.090594 
L 897.230788 347.602525 
L 893.313717 348.412806 
z
" style="stroke:#000000;stroke-linecap:round;"/>
   </g>
   <g id="patch_23">
    <path clip-path="url(#p26dd768c70)" d="M 999.674588 456.302974 
Q 1027.066909 487.373283 1052.980488 516.766298 
" style="fill:none;stroke:#ff0000;stroke-linecap:round;stroke-width:2;"/>
    <path clip-path="url(#p26dd768c70)" d="M 1051.83545 512.443233 
L 1052.980488 516.766298 
L 1048.835014 515.088489 
L 1051.83545 512.443233 
z
" style="fill:#ff0000;stroke:#ff0000;stroke-linecap:round;stroke-width:2;"/>
   </g>
   <g id="patch_24">
    <path clip-path="url(#p26dd768c70)" d="M 995.667117 441.31856 
Q 1007.202934 384.3588 1018.516826 328.494827 
" style="fill:none;stroke:#000000;stroke-linecap:round;"/>
    <path clip-path="url(#p26dd768c70)" d="M 1015.76264 332.018243 
L 1018.516826 328.494827 
L 1019.683047 332.812226 
L 1015.76264 332.018243 
z
" style="stroke:#000000;stroke-linecap:round;"/>
   </g>
   <g id="patch_25">
    <path clip-path="url(#p26dd768c70)" d="M 1065.908611 531.435071 
Q 1105.634282 576.527933 1144.620889 620.781877 
" style="fill:none;stroke:#000000;stroke-linecap:round;"/>
    <path clip-path="url(#p26dd768c70)" d="M 1143.47743 616.458394 
L 1144.620889 620.781877 
L 1140.476027 619.102554 
L 1143.47743 616.458394 
z
" style="stroke:#000000;stroke-linecap:round;"/>
   </g>
   <g id="patch_26">
    <path clip-path="url(#p26dd768c70)" d="M 1156.229771 635.087797 
Q 1175.121798 660.677779 1192.68574 684.468819 
" style="fill:none;stroke:#ff0000;stroke-linecap:round;stroke-width:2;"/>
    <path clip-path="url(#p26dd768c70)" d="M 1191.919013 680.062899 
L 1192.68574 684.468819 
L 1188.700968 682.438649 
L 1191.919013 680.062899 
z
" style="fill:#ff0000;stroke:#ff0000;stroke-linecap:round;stroke-width:2;"/>
   </g>
   <g id="patch_27">
    <path clip-path="url(#p26dd768c70)" d="M 1154.322172 636.154257 
Q 1166.840924 667.234555 1178.941959 697.277783 
" style="fill:none;stroke:#000000;stroke-linecap:round;"/>
    <path clip-path="url(#p26dd768c70)" d="M 1179.30265 692.820216 
L 1178.941959 697.277783 
L 1175.59232 694.314691 
L 1179.30265 692.820216 
z
" style="stroke:#000000;stroke-linecap:round;"/>
   </g>
   <g id="patch_28">
    <path clip-path="url(#p26dd768c70)" d="M 1198.4121 701.860735 
Q 1194.876163 742.807291 1191.436416 782.639959 
" style="fill:none;stroke:#000000;stroke-linecap:round;"/>
    <path clip-path="url(#p26dd768c70)" d="M 1193.773139 778.82686 
L 1191.436416 782.639959 
L 1189.78797 778.482721 
L 1193.773139 778.82686 
z
" style="stroke:#000000;stroke-linecap:round;"/>
   </g>
   <g id="patch_29">
    <path clip-path="url(#p26dd768c70)" d="M 1185.631024 785.286845 
Q 1164.815175 755.539675 1144.640328 726.708537 
" style="fill:none;stroke:#000000;stroke-linecap:round;"/>
    <path clip-path="url(#p26dd768c70)" d="M 1145.294997 731.132495 
L 1144.640328 726.708537 
L 1148.572296 728.839176 
L 1145.294997 731.132495 
z
" style="stroke:#000000;stroke-linecap:round;"/>
   </g>
   <g id="patch_30">
    <path clip-path="url(#p26dd768c70)" d="M 1137.517679 710.172912 
Q 1125.930444 645.124144 1114.539279 581.176082 
" style="fill:none;stroke:#000000;stroke-linecap:round;"/>
    <path clip-path="url(#p26dd768c70)" d="M 1113.271758 585.464833 
L 1114.539279 581.176082 
L 1117.209768 584.76335 
L 1113.271758 585.464833 
z
" style="stroke:#000000;stroke-linecap:round;"/>
   </g>
   <g id="patch_31">
    <path clip-path="url(#p26dd768c70)" d="M 1111.86097 562.945243 
Q 1103.699729 490.072612 1095.662921 418.311068 
" style="fill:none;stroke:#000000;stroke-linecap:round;"/>
    <path clip-path="url(#p26dd768c70)" d="M 1094.120537 422.508811 
L 1095.662921 418.311068 
L 1098.095685 422.063622 
L 1094.120537 422.508811 
z
" style="stroke:#000000;stroke-linecap:round;"/>
   </g>
   <g id="patch_32">
    <path clip-path="url(#p26dd768c70)" d="M 1090.183639 401.12747 
Q 1071.771173 369.81875 1054.492236 340.437494 
" style="fill:none;stroke:#ff0000;stroke-linecap:round;stroke-width:2;"/>
    <path clip-path="url(#p26dd768c70)" d="M 1054.79598 344.899303 
L 1054.492236 340.437494 
L 1058.24393 342.871584 
L 1054.79598 344.899303 
z
" style="fill:#ff0000;stroke:#ff0000;stroke-linecap:round;stroke-width:2;"/>
   </g>
   <g id="patch_33">
    <path clip-path="url(#p26dd768c70)" d="M 1099.727505 401.636196 
Q 1124.801844 367.778425 1149.210793 334.819127 
" style="fill:none;stroke:#000000;stroke-linecap:round;"/>
    <path clip-path="url(#p26dd768c70)" d="M 1145.22298 336.843319 
L 1149.210793 334.819127 
L 1148.437458 339.223892 
L 1145.22298 336.843319 
z
" style="stroke:#000000;stroke-linecap:round;"/>
   </g>
   <g id="patch_34">
    <path clip-path="url(#p26dd768c70)" d="M 1046.790886 322.660194 
Q 1040.913045 300.031607 1036.440628 282.813638 
" style="fill:none;stroke:#0000ff;stroke-linecap:round;stroke-width:5;"/>
    <path clip-path="url(#p26dd768c70)" d="M 1035.510506 287.187981 
L 1036.440628 282.813638 
L 1039.382029 286.182341 
L 1035.510506 287.187981 
z
" style="fill:#0000ff;stroke:#0000ff;stroke-linecap:round;stroke-width:5;"/>
   </g>
   <g id="PathCollection_1">
    <defs>
     <path d="M 0 8.660254 
C 2.296726 8.660254 4.499694 7.747755 6.123724 6.123724 
C 7.747755 4.499694 8.660254 2.296726 8.660254 0 
C 8.660254 -2.296726 7.747755 -4.499694 6.123724 -6.123724 
C 4.499694 -7.747755 2.296726 -8.660254 0 -8.660254 
C -2.296726 -8.660254 -4.499694 -7.747755 -6.123724 -6.123724 
C -7.747755 -4.499694 -8.660254 -2.296726 -8.660254 0 
C -8.660254 2.296726 -7.747755 4.499694 -6.123724 6.123724 
C -4.499694 7.747755 -2.296726 8.660254 0 8.660254 
z
" id="m5ea3c564ce" style="stroke:#1f78b4;"/>
    </defs>
    <g clip-path="url(#p26dd768c70)">
     <use style="fill:#1f78b4;stroke:#1f78b4;" x="402.411725" xlink:href="#m5ea3c564ce" y="830.627626"/>
     <use style="fill:#1f78b4;stroke:#1f78b4;" x="338.119292" xlink:href="#m5ea3c564ce" y="813.812955"/>
     <use style="fill:#1f78b4;stroke:#1f78b4;" x="285.835499" xlink:href="#m5ea3c564ce" y="729.138035"/>
     <use style="fill:#1f78b4;stroke:#1f78b4;" x="365.85847" xlink:href="#m5ea3c564ce" y="885.09506"/>
     <use style="fill:#1f78b4;stroke:#1f78b4;" x="276.842975" xlink:href="#m5ea3c564ce" y="808.024631"/>
     <use style="fill:#1f78b4;stroke:#1f78b4;" x="310.065032" xlink:href="#m5ea3c564ce" y="894.816976"/>
     <use style="fill:#1f78b4;stroke:#1f78b4;" x="490.512606" xlink:href="#m5ea3c564ce" y="878.34349"/>
     <use style="fill:#1f78b4;stroke:#1f78b4;" x="562.721463" xlink:href="#m5ea3c564ce" y="969.220703"/>
     <use style="fill:#1f78b4;stroke:#1f78b4;" x="633.171557" xlink:href="#m5ea3c564ce" y="1067.771194"/>
     <use style="fill:#1f78b4;stroke:#1f78b4;" x="701.275355" xlink:href="#m5ea3c564ce" y="1062.489543"/>
     <use style="fill:#1f78b4;stroke:#1f78b4;" x="601.984148" xlink:href="#m5ea3c564ce" y="1174.691051"/>
     <use style="fill:#1f78b4;stroke:#1f78b4;" x="758.735629" xlink:href="#m5ea3c564ce" y="980.26697"/>
     <use style="fill:#1f78b4;stroke:#1f78b4;" x="706.706059" xlink:href="#m5ea3c564ce" y="1185.381818"/>
     <use style="fill:#1f78b4;stroke:#1f78b4;" x="788.029362" xlink:href="#m5ea3c564ce" y="852.813823"/>
     <use style="fill:#1f78b4;stroke:#1f78b4;" x="792.939221" xlink:href="#m5ea3c564ce" y="1077.592321"/>
     <use style="fill:#1f78b4;stroke:#1f78b4;" x="821.642084" xlink:href="#m5ea3c564ce" y="666.475187"/>
     <use style="fill:#1f78b4;stroke:#1f78b4;" x="855.94556" xlink:href="#m5ea3c564ce" y="535.539544"/>
     <use style="fill:#1f78b4;stroke:#1f78b4;" x="775.873554" xlink:href="#m5ea3c564ce" y="670.700448"/>
     <use style="fill:#1f78b4;stroke:#1f78b4;" x="916.694407" xlink:href="#m5ea3c564ce" y="451.567033"/>
     <use style="fill:#1f78b4;stroke:#1f78b4;" x="811.17045" xlink:href="#m5ea3c564ce" y="450.641499"/>
     <use style="fill:#1f78b4;stroke:#1f78b4;" x="993.947914" xlink:href="#m5ea3c564ce" y="449.807375"/>
     <use style="fill:#1f78b4;stroke:#1f78b4;" x="892.48166" xlink:href="#m5ea3c564ce" y="334.517332"/>
     <use style="fill:#1f78b4;stroke:#1f78b4;" x="1060.185701" xlink:href="#m5ea3c564ce" y="524.93896"/>
     <use style="fill:#1f78b4;stroke:#1f78b4;" x="1020.458438" xlink:href="#m5ea3c564ce" y="318.907843"/>
     <use style="fill:#1f78b4;stroke:#1f78b4;" x="1151.086481" xlink:href="#m5ea3c564ce" y="628.121012"/>
     <use style="fill:#1f78b4;stroke:#1f78b4;" x="1199.157025" xlink:href="#m5ea3c564ce" y="693.234425"/>
     <use style="fill:#1f78b4;stroke:#1f78b4;" x="1182.595278" xlink:href="#m5ea3c564ce" y="706.347874"/>
     <use style="fill:#1f78b4;stroke:#1f78b4;" x="1190.595228" xlink:href="#m5ea3c564ce" y="792.381008"/>
     <use style="fill:#1f78b4;stroke:#1f78b4;" x="1139.036738" xlink:href="#m5ea3c564ce" y="718.700652"/>
     <use style="fill:#1f78b4;stroke:#1f78b4;" x="1112.824769" xlink:href="#m5ea3c564ce" y="571.551116"/>
     <use style="fill:#1f78b4;stroke:#1f78b4;" x="1094.574679" xlink:href="#m5ea3c564ce" y="408.594033"/>
     <use style="fill:#1f78b4;stroke:#1f78b4;" x="1048.969097" xlink:href="#m5ea3c564ce" y="331.045899"/>
     <use style="fill:#1f78b4;stroke:#1f78b4;" x="1155.028595" xlink:href="#m5ea3c564ce" y="326.963374"/>
     <use style="fill:#1f78b4;stroke:#1f78b4;" x="1032.857218" xlink:href="#m5ea3c564ce" y="269.018182"/>
    </g>
   </g>
   <g id="text_1">
    <g clip-path="url(#p26dd768c70)">
     <!-- 1 -->
     <g transform="translate(398.594225 833.938876)scale(0.12 -0.12)">
      <defs>
       <path d="M 794 531 
L 1825 531 
L 1825 4091 
L 703 3866 
L 703 4441 
L 1819 4666 
L 2450 4666 
L 2450 531 
L 3481 531 
L 3481 0 
L 794 0 
L 794 531 
z
" id="DejaVuSans-31" transform="scale(0.015625)"/>
      </defs>
      <use xlink:href="#DejaVuSans-31"/>
     </g>
    </g>
   </g>
   <g id="text_2">
    <g clip-path="url(#p26dd768c70)">
     <!-- 0 -->
     <g transform="translate(334.301792 817.124205)scale(0.12 -0.12)">
      <defs>
       <path d="M 2034 4250 
Q 1547 4250 1301 3770 
Q 1056 3291 1056 2328 
Q 1056 1369 1301 889 
Q 1547 409 2034 409 
Q 2525 409 2770 889 
Q 3016 1369 3016 2328 
Q 3016 3291 2770 3770 
Q 2525 4250 2034 4250 
z
M 2034 4750 
Q 2819 4750 3233 4129 
Q 3647 3509 3647 2328 
Q 3647 1150 3233 529 
Q 2819 -91 2034 -91 
Q 1250 -91 836 529 
Q 422 1150 422 2328 
Q 422 3509 836 4129 
Q 1250 4750 2034 4750 
z
" id="DejaVuSans-30" transform="scale(0.015625)"/>
      </defs>
      <use xlink:href="#DejaVuSans-30"/>
     </g>
    </g>
   </g>
   <g id="text_3">
    <g clip-path="url(#p26dd768c70)">
     <!-- 4 -->
     <g transform="translate(282.017999 732.449285)scale(0.12 -0.12)">
      <defs>
       <path d="M 2419 4116 
L 825 1625 
L 2419 1625 
L 2419 4116 
z
M 2253 4666 
L 3047 4666 
L 3047 1625 
L 3713 1625 
L 3713 1100 
L 3047 1100 
L 3047 0 
L 2419 0 
L 2419 1100 
L 313 1100 
L 313 1709 
L 2253 4666 
z
" id="DejaVuSans-34" transform="scale(0.015625)"/>
      </defs>
      <use xlink:href="#DejaVuSans-34"/>
     </g>
    </g>
   </g>
   <g id="text_4">
    <g clip-path="url(#p26dd768c70)">
     <!-- 5 -->
     <g transform="translate(362.04097 888.40631)scale(0.12 -0.12)">
      <defs>
       <path d="M 691 4666 
L 3169 4666 
L 3169 4134 
L 1269 4134 
L 1269 2991 
Q 1406 3038 1543 3061 
Q 1681 3084 1819 3084 
Q 2600 3084 3056 2656 
Q 3513 2228 3513 1497 
Q 3513 744 3044 326 
Q 2575 -91 1722 -91 
Q 1428 -91 1123 -41 
Q 819 9 494 109 
L 494 744 
Q 775 591 1075 516 
Q 1375 441 1709 441 
Q 2250 441 2565 725 
Q 2881 1009 2881 1497 
Q 2881 1984 2565 2268 
Q 2250 2553 1709 2553 
Q 1456 2553 1204 2497 
Q 953 2441 691 2322 
L 691 4666 
z
" id="DejaVuSans-35" transform="scale(0.015625)"/>
      </defs>
      <use xlink:href="#DejaVuSans-35"/>
     </g>
    </g>
   </g>
   <g id="text_5">
    <g clip-path="url(#p26dd768c70)">
     <!-- 2 -->
     <g transform="translate(273.025475 811.335881)scale(0.12 -0.12)">
      <defs>
       <path d="M 1228 531 
L 3431 531 
L 3431 0 
L 469 0 
L 469 531 
Q 828 903 1448 1529 
Q 2069 2156 2228 2338 
Q 2531 2678 2651 2914 
Q 2772 3150 2772 3378 
Q 2772 3750 2511 3984 
Q 2250 4219 1831 4219 
Q 1534 4219 1204 4116 
Q 875 4013 500 3803 
L 500 4441 
Q 881 4594 1212 4672 
Q 1544 4750 1819 4750 
Q 2544 4750 2975 4387 
Q 3406 4025 3406 3419 
Q 3406 3131 3298 2873 
Q 3191 2616 2906 2266 
Q 2828 2175 2409 1742 
Q 1991 1309 1228 531 
z
" id="DejaVuSans-32" transform="scale(0.015625)"/>
      </defs>
      <use xlink:href="#DejaVuSans-32"/>
     </g>
    </g>
   </g>
   <g id="text_6">
    <g clip-path="url(#p26dd768c70)">
     <!-- 3 -->
     <g transform="translate(306.247532 898.128226)scale(0.12 -0.12)">
      <defs>
       <path d="M 2597 2516 
Q 3050 2419 3304 2112 
Q 3559 1806 3559 1356 
Q 3559 666 3084 287 
Q 2609 -91 1734 -91 
Q 1441 -91 1130 -33 
Q 819 25 488 141 
L 488 750 
Q 750 597 1062 519 
Q 1375 441 1716 441 
Q 2309 441 2620 675 
Q 2931 909 2931 1356 
Q 2931 1769 2642 2001 
Q 2353 2234 1838 2234 
L 1294 2234 
L 1294 2753 
L 1863 2753 
Q 2328 2753 2575 2939 
Q 2822 3125 2822 3475 
Q 2822 3834 2567 4026 
Q 2313 4219 1838 4219 
Q 1578 4219 1281 4162 
Q 984 4106 628 3988 
L 628 4550 
Q 988 4650 1302 4700 
Q 1616 4750 1894 4750 
Q 2613 4750 3031 4423 
Q 3450 4097 3450 3541 
Q 3450 3153 3228 2886 
Q 3006 2619 2597 2516 
z
" id="DejaVuSans-33" transform="scale(0.015625)"/>
      </defs>
      <use xlink:href="#DejaVuSans-33"/>
     </g>
    </g>
   </g>
   <g id="text_7">
    <g clip-path="url(#p26dd768c70)">
     <!-- 6 -->
     <g transform="translate(486.695106 881.65474)scale(0.12 -0.12)">
      <defs>
       <path d="M 2113 2584 
Q 1688 2584 1439 2293 
Q 1191 2003 1191 1497 
Q 1191 994 1439 701 
Q 1688 409 2113 409 
Q 2538 409 2786 701 
Q 3034 994 3034 1497 
Q 3034 2003 2786 2293 
Q 2538 2584 2113 2584 
z
M 3366 4563 
L 3366 3988 
Q 3128 4100 2886 4159 
Q 2644 4219 2406 4219 
Q 1781 4219 1451 3797 
Q 1122 3375 1075 2522 
Q 1259 2794 1537 2939 
Q 1816 3084 2150 3084 
Q 2853 3084 3261 2657 
Q 3669 2231 3669 1497 
Q 3669 778 3244 343 
Q 2819 -91 2113 -91 
Q 1303 -91 875 529 
Q 447 1150 447 2328 
Q 447 3434 972 4092 
Q 1497 4750 2381 4750 
Q 2619 4750 2861 4703 
Q 3103 4656 3366 4563 
z
" id="DejaVuSans-36" transform="scale(0.015625)"/>
      </defs>
      <use xlink:href="#DejaVuSans-36"/>
     </g>
    </g>
   </g>
   <g id="text_8">
    <g clip-path="url(#p26dd768c70)">
     <!-- 7 -->
     <g transform="translate(558.903963 972.531953)scale(0.12 -0.12)">
      <defs>
       <path d="M 525 4666 
L 3525 4666 
L 3525 4397 
L 1831 0 
L 1172 0 
L 2766 4134 
L 525 4134 
L 525 4666 
z
" id="DejaVuSans-37" transform="scale(0.015625)"/>
      </defs>
      <use xlink:href="#DejaVuSans-37"/>
     </g>
    </g>
   </g>
   <g id="text_9">
    <g clip-path="url(#p26dd768c70)">
     <!-- 8 -->
     <g transform="translate(629.354057 1071.082444)scale(0.12 -0.12)">
      <defs>
       <path d="M 2034 2216 
Q 1584 2216 1326 1975 
Q 1069 1734 1069 1313 
Q 1069 891 1326 650 
Q 1584 409 2034 409 
Q 2484 409 2743 651 
Q 3003 894 3003 1313 
Q 3003 1734 2745 1975 
Q 2488 2216 2034 2216 
z
M 1403 2484 
Q 997 2584 770 2862 
Q 544 3141 544 3541 
Q 544 4100 942 4425 
Q 1341 4750 2034 4750 
Q 2731 4750 3128 4425 
Q 3525 4100 3525 3541 
Q 3525 3141 3298 2862 
Q 3072 2584 2669 2484 
Q 3125 2378 3379 2068 
Q 3634 1759 3634 1313 
Q 3634 634 3220 271 
Q 2806 -91 2034 -91 
Q 1263 -91 848 271 
Q 434 634 434 1313 
Q 434 1759 690 2068 
Q 947 2378 1403 2484 
z
M 1172 3481 
Q 1172 3119 1398 2916 
Q 1625 2713 2034 2713 
Q 2441 2713 2670 2916 
Q 2900 3119 2900 3481 
Q 2900 3844 2670 4047 
Q 2441 4250 2034 4250 
Q 1625 4250 1398 4047 
Q 1172 3844 1172 3481 
z
" id="DejaVuSans-38" transform="scale(0.015625)"/>
      </defs>
      <use xlink:href="#DejaVuSans-38"/>
     </g>
    </g>
   </g>
   <g id="text_10">
    <g clip-path="url(#p26dd768c70)">
     <!-- 9 -->
     <g transform="translate(697.457855 1065.800793)scale(0.12 -0.12)">
      <defs>
       <path d="M 703 97 
L 703 672 
Q 941 559 1184 500 
Q 1428 441 1663 441 
Q 2288 441 2617 861 
Q 2947 1281 2994 2138 
Q 2813 1869 2534 1725 
Q 2256 1581 1919 1581 
Q 1219 1581 811 2004 
Q 403 2428 403 3163 
Q 403 3881 828 4315 
Q 1253 4750 1959 4750 
Q 2769 4750 3195 4129 
Q 3622 3509 3622 2328 
Q 3622 1225 3098 567 
Q 2575 -91 1691 -91 
Q 1453 -91 1209 -44 
Q 966 3 703 97 
z
M 1959 2075 
Q 2384 2075 2632 2365 
Q 2881 2656 2881 3163 
Q 2881 3666 2632 3958 
Q 2384 4250 1959 4250 
Q 1534 4250 1286 3958 
Q 1038 3666 1038 3163 
Q 1038 2656 1286 2365 
Q 1534 2075 1959 2075 
z
" id="DejaVuSans-39" transform="scale(0.015625)"/>
      </defs>
      <use xlink:href="#DejaVuSans-39"/>
     </g>
    </g>
   </g>
   <g id="text_11">
    <g clip-path="url(#p26dd768c70)">
     <!-- 10 -->
     <g transform="translate(594.349148 1178.002301)scale(0.12 -0.12)">
      <use xlink:href="#DejaVuSans-31"/>
      <use x="63.623047" xlink:href="#DejaVuSans-30"/>
     </g>
    </g>
   </g>
   <g id="text_12">
    <g clip-path="url(#p26dd768c70)">
     <!-- 11 -->
     <g transform="translate(751.100629 983.57822)scale(0.12 -0.12)">
      <use xlink:href="#DejaVuSans-31"/>
      <use x="63.623047" xlink:href="#DejaVuSans-31"/>
     </g>
    </g>
   </g>
   <g id="text_13">
    <g clip-path="url(#p26dd768c70)">
     <!-- 12 -->
     <g transform="translate(699.071059 1188.693068)scale(0.12 -0.12)">
      <use xlink:href="#DejaVuSans-31"/>
      <use x="63.623047" xlink:href="#DejaVuSans-32"/>
     </g>
    </g>
   </g>
   <g id="text_14">
    <g clip-path="url(#p26dd768c70)">
     <!-- 13 -->
     <g transform="translate(780.394362 856.125073)scale(0.12 -0.12)">
      <use xlink:href="#DejaVuSans-31"/>
      <use x="63.623047" xlink:href="#DejaVuSans-33"/>
     </g>
    </g>
   </g>
   <g id="text_15">
    <g clip-path="url(#p26dd768c70)">
     <!-- 14 -->
     <g transform="translate(785.304221 1080.903571)scale(0.12 -0.12)">
      <use xlink:href="#DejaVuSans-31"/>
      <use x="63.623047" xlink:href="#DejaVuSans-34"/>
     </g>
    </g>
   </g>
   <g id="text_16">
    <g clip-path="url(#p26dd768c70)">
     <!-- 15 -->
     <g transform="translate(814.007084 669.786437)scale(0.12 -0.12)">
      <use xlink:href="#DejaVuSans-31"/>
      <use x="63.623047" xlink:href="#DejaVuSans-35"/>
     </g>
    </g>
   </g>
   <g id="text_17">
    <g clip-path="url(#p26dd768c70)">
     <!-- 16 -->
     <g transform="translate(848.31056 538.850794)scale(0.12 -0.12)">
      <use xlink:href="#DejaVuSans-31"/>
      <use x="63.623047" xlink:href="#DejaVuSans-36"/>
     </g>
    </g>
   </g>
   <g id="text_18">
    <g clip-path="url(#p26dd768c70)">
     <!-- 17 -->
     <g transform="translate(768.238554 674.011698)scale(0.12 -0.12)">
      <use xlink:href="#DejaVuSans-31"/>
      <use x="63.623047" xlink:href="#DejaVuSans-37"/>
     </g>
    </g>
   </g>
   <g id="text_19">
    <g clip-path="url(#p26dd768c70)">
     <!-- 18 -->
     <g transform="translate(909.059407 454.878283)scale(0.12 -0.12)">
      <use xlink:href="#DejaVuSans-31"/>
      <use x="63.623047" xlink:href="#DejaVuSans-38"/>
     </g>
    </g>
   </g>
   <g id="text_20">
    <g clip-path="url(#p26dd768c70)">
     <!-- 19 -->
     <g transform="translate(803.53545 453.952749)scale(0.12 -0.12)">
      <use xlink:href="#DejaVuSans-31"/>
      <use x="63.623047" xlink:href="#DejaVuSans-39"/>
     </g>
    </g>
   </g>
   <g id="text_21">
    <g clip-path="url(#p26dd768c70)">
     <!-- 20 -->
     <g transform="translate(986.312914 453.118625)scale(0.12 -0.12)">
      <use xlink:href="#DejaVuSans-32"/>
      <use x="63.623047" xlink:href="#DejaVuSans-30"/>
     </g>
    </g>
   </g>
   <g id="text_22">
    <g clip-path="url(#p26dd768c70)">
     <!-- 21 -->
     <g transform="translate(884.84666 337.828582)scale(0.12 -0.12)">
      <use xlink:href="#DejaVuSans-32"/>
      <use x="63.623047" xlink:href="#DejaVuSans-31"/>
     </g>
    </g>
   </g>
   <g id="text_23">
    <g clip-path="url(#p26dd768c70)">
     <!-- 22 -->
     <g transform="translate(1052.550701 528.25021)scale(0.12 -0.12)">
      <use xlink:href="#DejaVuSans-32"/>
      <use x="63.623047" xlink:href="#DejaVuSans-32"/>
     </g>
    </g>
   </g>
   <g id="text_24">
    <g clip-path="url(#p26dd768c70)">
     <!-- 23 -->
     <g transform="translate(1012.823438 322.219093)scale(0.12 -0.12)">
      <use xlink:href="#DejaVuSans-32"/>
      <use x="63.623047" xlink:href="#DejaVuSans-33"/>
     </g>
    </g>
   </g>
   <g id="text_25">
    <g clip-path="url(#p26dd768c70)">
     <!-- 24 -->
     <g transform="translate(1143.451481 631.432262)scale(0.12 -0.12)">
      <use xlink:href="#DejaVuSans-32"/>
      <use x="63.623047" xlink:href="#DejaVuSans-34"/>
     </g>
    </g>
   </g>
   <g id="text_26">
    <g clip-path="url(#p26dd768c70)">
     <!-- 25 -->
     <g transform="translate(1191.522025 696.545675)scale(0.12 -0.12)">
      <use xlink:href="#DejaVuSans-32"/>
      <use x="63.623047" xlink:href="#DejaVuSans-35"/>
     </g>
    </g>
   </g>
   <g id="text_27">
    <g clip-path="url(#p26dd768c70)">
     <!-- 26 -->
     <g transform="translate(1174.960278 709.659124)scale(0.12 -0.12)">
      <use xlink:href="#DejaVuSans-32"/>
      <use x="63.623047" xlink:href="#DejaVuSans-36"/>
     </g>
    </g>
   </g>
   <g id="text_28">
    <g clip-path="url(#p26dd768c70)">
     <!-- 27 -->
     <g transform="translate(1182.960228 795.692258)scale(0.12 -0.12)">
      <use xlink:href="#DejaVuSans-32"/>
      <use x="63.623047" xlink:href="#DejaVuSans-37"/>
     </g>
    </g>
   </g>
   <g id="text_29">
    <g clip-path="url(#p26dd768c70)">
     <!-- 28 -->
     <g transform="translate(1131.401738 722.011902)scale(0.12 -0.12)">
      <use xlink:href="#DejaVuSans-32"/>
      <use x="63.623047" xlink:href="#DejaVuSans-38"/>
     </g>
    </g>
   </g>
   <g id="text_30">
    <g clip-path="url(#p26dd768c70)">
     <!-- 29 -->
     <g transform="translate(1105.189769 574.862366)scale(0.12 -0.12)">
      <use xlink:href="#DejaVuSans-32"/>
      <use x="63.623047" xlink:href="#DejaVuSans-39"/>
     </g>
    </g>
   </g>
   <g id="text_31">
    <g clip-path="url(#p26dd768c70)">
     <!-- 30 -->
     <g transform="translate(1086.939679 411.905283)scale(0.12 -0.12)">
      <use xlink:href="#DejaVuSans-33"/>
      <use x="63.623047" xlink:href="#DejaVuSans-30"/>
     </g>
    </g>
   </g>
   <g id="text_32">
    <g clip-path="url(#p26dd768c70)">
     <!-- 31 -->
     <g transform="translate(1041.334097 334.357149)scale(0.12 -0.12)">
      <use xlink:href="#DejaVuSans-33"/>
      <use x="63.623047" xlink:href="#DejaVuSans-31"/>
     </g>
    </g>
   </g>
   <g id="text_33">
    <g clip-path="url(#p26dd768c70)">
     <!-- 32 -->
     <g transform="translate(1147.393595 330.274624)scale(0.12 -0.12)">
      <use xlink:href="#DejaVuSans-33"/>
      <use x="63.623047" xlink:href="#DejaVuSans-32"/>
     </g>
    </g>
   </g>
   <g id="text_34">
    <g clip-path="url(#p26dd768c70)">
     <!-- 33 -->
     <g transform="translate(1025.222218 272.329432)scale(0.12 -0.12)">
      <use xlink:href="#DejaVuSans-33"/>
      <use x="63.623047" xlink:href="#DejaVuSans-33"/>
     </g>
    </g>
   </g>
  </g>
 </g>
 <defs>
  <clipPath id="p26dd768c70">
   <rect height="1108.8" width="1116" x="180" y="172.8"/>
  </clipPath>
 </defs>
</svg>
