<?xml version="1.0" encoding="utf-8" standalone="no"?>
<!DOCTYPE svg PUBLIC "-//W3C//DTD SVG 1.1//EN"
  "http://www.w3.org/Graphics/SVG/1.1/DTD/svg11.dtd">
<svg height="1440pt" version="1.1" viewBox="0 0 1440 1440" width="1440pt" xmlns="http://www.w3.org/2000/svg" xmlns:xlink="http://www.w3.org/1999/xlink">
 <metadata>
  <rdf:RDF xmlns:cc="http://creativecommons.org/ns#" xmlns:dc="http://purl.org/dc/elements/1.1/" xmlns:rdf="http://www.w3.org/1999/02/22-rdf-syntax-ns#">
   <cc:Work>
    <dc:type rdf:resource="http://purl.org/dc/dcmitype/StillImage"/>
    <dc:date>2021-10-17T06:30:40.727310</dc:date>
    <dc:format>image/svg+xml</dc:format>
    <dc:creator>
     <cc:Agent>
      <dc:title>Matplotlib v3.4.3, https://matplotlib.org/</dc:title>
     </cc:Agent>
    </dc:creator>
   </cc:Work>
  </rdf:RDF>
 </metadata>
 <defs>
  <style type="text/css">*{stroke-linecap:butt;stroke-linejoin:round;}</style>
 </defs>
 <g id="figure_1">
  <g id="patch_1">
   <path d="M 0 1440 
L 1440 1440 
L 1440 0 
L 0 0 
z
" style="fill:#ffffff;"/>
  </g>
  <g id="axes_1">
   <g id="patch_2">
    <path clip-path="url(#p451a673c90)" d="M 476.859427 1060.371641 
Q 462.122348 1085.655737 448.511276 1109.007966 
" style="fill:none;stroke:#ff0000;stroke-linecap:round;stroke-width:2;"/>
    <path clip-path="url(#p451a673c90)" d="M 452.253453 1106.55927 
L 448.511276 1109.007966 
L 448.797625 1104.545007 
L 452.253453 1106.55927 
z
" style="fill:#ff0000;stroke:#ff0000;stroke-linecap:round;stroke-width:2;"/>
   </g>
   <g id="patch_3">
    <path clip-path="url(#p451a673c90)" d="M 487.10699 1046.532667 
Q 517.515539 1013.697007 547.164417 981.681651 
" style="fill:none;stroke:#000000;stroke-linecap:round;"/>
    <path clip-path="url(#p451a673c90)" d="M 542.97913 983.257524 
L 547.164417 981.681651 
L 545.913943 985.975404 
L 542.97913 983.257524 
z
" style="stroke:#000000;stroke-linecap:round;"/>
   </g>
   <g id="patch_4">
    <path clip-path="url(#p451a673c90)" d="M 434.63249 1120.556609 
Q 401.315781 1129.041709 369.08252 1137.250876 
" style="fill:none;stroke:#000000;stroke-linecap:round;"/>
    <path clip-path="url(#p451a673c90)" d="M 373.452388 1138.201801 
L 369.08252 1137.250876 
L 372.465181 1134.325537 
L 373.452388 1138.201801 
z
" style="stroke:#000000;stroke-linecap:round;"/>
   </g>
   <g id="patch_5">
    <path clip-path="url(#p451a673c90)" d="M 451.226739 1121.209196 
Q 464.360164 1125.677749 476.435143 1129.786174 
" style="fill:none;stroke:#000000;stroke-linecap:round;"/>
    <path clip-path="url(#p451a673c90)" d="M 473.29255 1126.604333 
L 476.435143 1129.786174 
L 472.004115 1130.391144 
L 473.29255 1126.604333 
z
" style="stroke:#000000;stroke-linecap:round;"/>
   </g>
   <g id="patch_6">
    <path clip-path="url(#p451a673c90)" d="M 438.560376 1125.837018 
Q 422.870312 1151.900588 407.756874 1177.006295 
" style="fill:none;stroke:#000000;stroke-linecap:round;"/>
    <path clip-path="url(#p451a673c90)" d="M 411.533353 1174.610839 
L 407.756874 1177.006295 
L 408.106397 1172.547839 
L 411.533353 1174.610839 
z
" style="stroke:#000000;stroke-linecap:round;"/>
   </g>
   <g id="patch_7">
    <path clip-path="url(#p451a673c90)" d="M 449.593352 1124.069181 
Q 472.99942 1144.2066 495.557957 1163.614847 
" style="fill:none;stroke:#000000;stroke-linecap:round;"/>
    <path clip-path="url(#p451a673c90)" d="M 493.830125 1159.489972 
L 495.557957 1163.614847 
L 491.221357 1162.522187 
L 493.830125 1159.489972 
z
" style="stroke:#000000;stroke-linecap:round;"/>
   </g>
   <g id="patch_8">
    <path clip-path="url(#p451a673c90)" d="M 560.560957 969.089004 
Q 597.139893 939.738296 632.84681 911.087291 
" style="fill:none;stroke:#000000;stroke-linecap:round;"/>
    <path clip-path="url(#p451a673c90)" d="M 628.475316 912.030707 
L 632.84681 911.087291 
L 630.978647 915.150536 
L 628.475316 912.030707 
z
" style="stroke:#000000;stroke-linecap:round;"/>
   </g>
   <g id="patch_9">
    <path clip-path="url(#p451a673c90)" d="M 648.07481 900.822059 
Q 691.049206 877.38169 733.042083 854.47669 
" style="fill:none;stroke:#000000;stroke-linecap:round;"/>
    <path clip-path="url(#p451a673c90)" d="M 728.572796 854.63629 
L 733.042083 854.47669 
L 730.488191 858.14788 
L 728.572796 854.63629 
z
" style="stroke:#000000;stroke-linecap:round;"/>
   </g>
   <g id="patch_10">
    <path clip-path="url(#p451a673c90)" d="M 749.75795 852.772492 
Q 782.034952 864.593614 812.212274 875.645749 
" style="fill:none;stroke:#ff0000;stroke-linecap:round;stroke-width:2;"/>
    <path clip-path="url(#p451a673c90)" d="M 809.144053 872.392133 
L 812.212274 875.645749 
L 807.768448 876.148156 
L 809.144053 872.392133 
z
" style="fill:#ff0000;stroke:#ff0000;stroke-linecap:round;stroke-width:2;"/>
   </g>
   <g id="patch_11">
    <path clip-path="url(#p451a673c90)" d="M 741.038876 841.152169 
Q 738.78268 807.963418 736.602314 775.890126 
" style="fill:none;stroke:#000000;stroke-linecap:round;"/>
    <path clip-path="url(#p451a673c90)" d="M 734.878216 780.016564 
L 736.602314 775.890126 
L 738.869005 779.745267 
L 734.878216 780.016564 
z
" style="stroke:#000000;stroke-linecap:round;"/>
   </g>
   <g id="patch_12">
    <path clip-path="url(#p451a673c90)" d="M 829.535069 884.363437 
Q 859.058939 905.057755 886.751756 924.468623 
" style="fill:none;stroke:#ff0000;stroke-linecap:round;stroke-width:2;"/>
    <path clip-path="url(#p451a673c90)" d="M 884.62422 920.534974 
L 886.751756 924.468623 
L 882.328316 923.810462 
L 884.62422 920.534974 
z
" style="fill:#ff0000;stroke:#ff0000;stroke-linecap:round;stroke-width:2;"/>
   </g>
   <g id="patch_13">
    <path clip-path="url(#p451a673c90)" d="M 826.086683 871.539661 
Q 834.800463 852.75419 843.043783 834.982952 
" style="fill:none;stroke:#000000;stroke-linecap:round;"/>
    <path clip-path="url(#p451a673c90)" d="M 839.546302 837.769998 
L 843.043783 834.982952 
L 843.174931 839.453164 
L 839.546302 837.769998 
z
" style="stroke:#000000;stroke-linecap:round;"/>
   </g>
   <g id="patch_14">
    <path clip-path="url(#p451a673c90)" d="M 904.285123 931.624423 
Q 935.770682 934.918479 965.032311 937.979865 
" style="fill:none;stroke:#ff0000;stroke-linecap:round;stroke-width:2;"/>
    <path clip-path="url(#p451a673c90)" d="M 961.26213 935.574509 
L 965.032311 937.979865 
L 960.845917 939.552796 
L 961.26213 935.574509 
z
" style="fill:#ff0000;stroke:#ff0000;stroke-linecap:round;stroke-width:2;"/>
   </g>
   <g id="patch_15">
    <path clip-path="url(#p451a673c90)" d="M 895.686046 939.386508 
Q 895.721585 968.981927 895.755781 997.459313 
" style="fill:none;stroke:#000000;stroke-linecap:round;"/>
    <path clip-path="url(#p451a673c90)" d="M 897.750976 993.456914 
L 895.755781 997.459313 
L 893.750979 993.461717 
L 897.750976 993.456914 
z
" style="stroke:#000000;stroke-linecap:round;"/>
   </g>
   <g id="patch_16">
    <path clip-path="url(#p451a673c90)" d="M 984.440198 937.885658 
Q 1027.676879 931.693047 1069.806821 925.65895 
" style="fill:none;stroke:#000000;stroke-linecap:round;"/>
    <path clip-path="url(#p451a673c90)" d="M 1065.56367 924.24627 
L 1069.806821 925.65895 
L 1066.130786 928.205863 
L 1065.56367 924.24627 
z
" style="stroke:#000000;stroke-linecap:round;"/>
   </g>
   <g id="patch_17">
    <path clip-path="url(#p451a673c90)" d="M 1083.876836 916.80626 
Q 1101.812677 886.316143 1118.614763 857.753356 
" style="fill:none;stroke:#ff0000;stroke-linecap:round;stroke-width:2;"/>
    <path clip-path="url(#p451a673c90)" d="M 1114.862786 860.187009 
L 1118.614763 857.753356 
L 1118.310499 862.21513 
L 1114.862786 860.187009 
z
" style="fill:#ff0000;stroke:#ff0000;stroke-linecap:round;stroke-width:2;"/>
   </g>
   <g id="patch_18">
    <path clip-path="url(#p451a673c90)" d="M 1079.031802 932.923588 
Q 1077.044926 970.881886 1075.116492 1007.723678 
" style="fill:none;stroke:#000000;stroke-linecap:round;"/>
    <path clip-path="url(#p451a673c90)" d="M 1077.322846 1003.833691 
L 1075.116492 1007.723678 
L 1073.328314 1003.624603 
L 1077.322846 1003.833691 
z
" style="stroke:#000000;stroke-linecap:round;"/>
   </g>
   <g id="patch_19">
    <path clip-path="url(#p451a673c90)" d="M 1123.492768 839.726138 
Q 1120.461719 799.290683 1117.597817 761.085039 
" style="fill:none;stroke:#ff0000;stroke-linecap:round;stroke-width:2;"/>
    <path clip-path="url(#p451a673c90)" d="M 1115.902414 765.223349 
L 1117.597817 761.085039 
L 1119.891223 764.924348 
L 1115.902414 765.223349 
z
" style="fill:#ff0000;stroke:#ff0000;stroke-linecap:round;stroke-width:2;"/>
   </g>
   <g id="patch_20">
    <path clip-path="url(#p451a673c90)" d="M 1131.474788 852.96259 
Q 1160.195896 870.982508 1187.969941 888.408229 
" style="fill:none;stroke:#000000;stroke-linecap:round;"/>
    <path clip-path="url(#p451a673c90)" d="M 1185.644556 884.588205 
L 1187.969941 888.408229 
L 1183.518691 887.976522 
L 1185.644556 884.588205 
z
" style="stroke:#000000;stroke-linecap:round;"/>
   </g>
   <g id="patch_21">
    <path clip-path="url(#p451a673c90)" d="M 1112.6622 742.604046 
Q 1091.858091 704.153463 1072.118062 667.669535 
" style="fill:none;stroke:#ff0000;stroke-linecap:round;stroke-width:2;"/>
    <path clip-path="url(#p451a673c90)" d="M 1072.262517 672.139337 
L 1072.118062 667.669535 
L 1075.780577 670.235852 
L 1072.262517 672.139337 
z
" style="fill:#ff0000;stroke:#ff0000;stroke-linecap:round;stroke-width:2;"/>
   </g>
   <g id="patch_22">
    <path clip-path="url(#p451a673c90)" d="M 1125.368219 749.090391 
Q 1157.968333 744.796896 1189.459985 740.649387 
" style="fill:none;stroke:#000000;stroke-linecap:round;"/>
    <path clip-path="url(#p451a673c90)" d="M 1185.233083 739.188807 
L 1189.459985 740.649387 
L 1185.75538 743.154561 
L 1185.233083 739.188807 
z
" style="stroke:#000000;stroke-linecap:round;"/>
   </g>
   <g id="patch_23">
    <path clip-path="url(#p451a673c90)" d="M 1060.482764 652.304774 
Q 1027.660603 622.885197 996.503531 594.958094 
" style="fill:none;stroke:#ff0000;stroke-linecap:round;stroke-width:2;"/>
    <path clip-path="url(#p451a673c90)" d="M 998.147224 599.117213 
L 996.503531 594.958094 
L 1000.817042 596.138612 
L 998.147224 599.117213 
z
" style="fill:#ff0000;stroke:#ff0000;stroke-linecap:round;stroke-width:2;"/>
   </g>
   <g id="patch_24">
    <path clip-path="url(#p451a673c90)" d="M 1073.589091 652.540276 
Q 1098.32454 631.930384 1122.201041 612.036179 
" style="fill:none;stroke:#000000;stroke-linecap:round;"/>
    <path clip-path="url(#p451a673c90)" d="M 1117.847714 613.060164 
L 1122.201041 612.036179 
L 1120.408233 616.133232 
L 1117.847714 613.060164 
z
" style="stroke:#000000;stroke-linecap:round;"/>
   </g>
   <g id="patch_25">
    <path clip-path="url(#p451a673c90)" d="M 981.54018 582.379838 
Q 930.629668 542.944874 880.603041 504.194562 
" style="fill:none;stroke:#000000;stroke-linecap:round;"/>
    <path clip-path="url(#p451a673c90)" d="M 882.540581 508.225187 
L 880.603041 504.194562 
L 884.990065 505.062905 
L 882.540581 508.225187 
z
" style="stroke:#000000;stroke-linecap:round;"/>
   </g>
   <g id="patch_26">
    <path clip-path="url(#p451a673c90)" d="M 864.710295 495.311025 
Q 826.300733 481.68845 789.998619 468.813316 
" style="fill:none;stroke:#ff0000;stroke-linecap:round;stroke-width:2;"/>
    <path clip-path="url(#p451a673c90)" d="M 793.100004 472.035336 
L 789.998619 468.813316 
L 794.437066 468.26542 
L 793.100004 472.035336 
z
" style="fill:#ff0000;stroke:#ff0000;stroke-linecap:round;stroke-width:2;"/>
   </g>
   <g id="patch_27">
    <path clip-path="url(#p451a673c90)" d="M 875.658569 490.002621 
Q 885.384437 461.383733 894.750557 433.823419 
" style="fill:none;stroke:#000000;stroke-linecap:round;"/>
    <path clip-path="url(#p451a673c90)" d="M 891.569849 436.967159 
L 894.750557 433.823419 
L 895.357124 438.254229 
L 891.569849 436.967159 
z
" style="stroke:#000000;stroke-linecap:round;"/>
   </g>
   <g id="patch_28">
    <path clip-path="url(#p451a673c90)" d="M 771.3925 462.841012 
Q 717.043051 447.650202 663.770366 432.76035 
" style="fill:none;stroke:#000000;stroke-linecap:round;"/>
    <path clip-path="url(#p451a673c90)" d="M 667.084348 435.763269 
L 663.770366 432.76035 
L 668.161091 431.910916 
L 667.084348 435.763269 
z
" style="stroke:#000000;stroke-linecap:round;"/>
   </g>
   <g id="patch_29">
    <path clip-path="url(#p451a673c90)" d="M 645.851944 428.483317 
Q 594.752085 418.595796 544.7499 408.920668 
" style="fill:none;stroke:#000000;stroke-linecap:round;"/>
    <path clip-path="url(#p451a673c90)" d="M 548.297118 411.644129 
L 544.7499 408.920668 
L 549.057 407.71697 
L 548.297118 411.644129 
z
" style="stroke:#000000;stroke-linecap:round;"/>
   </g>
   <g id="patch_30">
    <path clip-path="url(#p451a673c90)" d="M 526.621921 405.556265 
Q 479.822098 397.287024 434.123255 389.212321 
" style="fill:none;stroke:#000000;stroke-linecap:round;"/>
    <path clip-path="url(#p451a673c90)" d="M 437.714242 391.877806 
L 434.123255 389.212321 
L 438.410236 387.938823 
L 437.714242 391.877806 
z
" style="stroke:#000000;stroke-linecap:round;"/>
   </g>
   <g id="patch_31">
    <path clip-path="url(#p451a673c90)" d="M 416.963643 383.224881 
Q 377.253221 360.618337 338.514421 338.564923 
" style="fill:none;stroke:#000000;stroke-linecap:round;"/>
    <path clip-path="url(#p451a673c90)" d="M 341.001131 342.281948 
L 338.514421 338.564923 
L 342.980067 338.80577 
L 341.001131 342.281948 
z
" style="stroke:#000000;stroke-linecap:round;"/>
   </g>
   <g id="patch_32">
    <path clip-path="url(#p451a673c90)" d="M 321.379024 333.045069 
Q 303.428963 331.629132 287.708046 330.389035 
" style="fill:none;stroke:#ff0000;stroke-linecap:round;stroke-width:2;"/>
    <path clip-path="url(#p451a673c90)" d="M 291.538383 332.697392 
L 287.708046 330.389035 
L 291.852934 328.709779 
L 291.538383 332.697392 
z
" style="fill:#ff0000;stroke:#ff0000;stroke-linecap:round;stroke-width:2;"/>
   </g>
   <g id="patch_33">
    <path clip-path="url(#p451a673c90)" d="M 325.070934 326.621191 
Q 307.501903 301.372411 290.571456 277.041352 
" style="fill:none;stroke:#000000;stroke-linecap:round;"/>
    <path clip-path="url(#p451a673c90)" d="M 291.214454 281.467021 
L 290.571456 277.041352 
L 294.497791 279.182355 
L 291.214454 281.467021 
z
" style="stroke:#000000;stroke-linecap:round;"/>
   </g>
   <g id="PathCollection_1">
    <defs>
     <path d="M 0 8.660254 
C 2.296726 8.660254 4.499694 7.747755 6.123724 6.123724 
C 7.747755 4.499694 8.660254 2.296726 8.660254 0 
C 8.660254 -2.296726 7.747755 -4.499694 6.123724 -6.123724 
C 4.499694 -7.747755 2.296726 -8.660254 0 -8.660254 
C -2.296726 -8.660254 -4.499694 -7.747755 -6.123724 -6.123724 
C -7.747755 -4.499694 -8.660254 -2.296726 -8.660254 0 
C -8.660254 2.296726 -7.747755 4.499694 -6.123724 6.123724 
C -4.499694 7.747755 -2.296726 8.660254 0 8.660254 
z
" id="m56e0516400" style="stroke:#1f78b4;"/>
    </defs>
    <g clip-path="url(#p451a673c90)">
     <use style="fill:#1f78b4;stroke:#1f78b4;" x="481.221196" xlink:href="#m56e0516400" y="1052.888246"/>
     <use style="fill:#1f78b4;stroke:#1f78b4;" x="443.025993" xlink:href="#m56e0516400" y="1118.418951"/>
     <use style="fill:#1f78b4;stroke:#1f78b4;" x="359.605212" xlink:href="#m56e0516400" y="1139.664557"/>
     <use style="fill:#1f78b4;stroke:#1f78b4;" x="485.693827" xlink:href="#m56e0516400" y="1132.936374"/>
     <use style="fill:#1f78b4;stroke:#1f78b4;" x="402.714875" xlink:href="#m56e0516400" y="1185.381818"/>
     <use style="fill:#1f78b4;stroke:#1f78b4;" x="502.970067" xlink:href="#m56e0516400" y="1169.991859"/>
     <use style="fill:#1f78b4;stroke:#1f78b4;" x="553.808957" xlink:href="#m56e0516400" y="974.506766"/>
     <use style="fill:#1f78b4;stroke:#1f78b4;" x="640.471526" xlink:href="#m56e0516400" y="904.969267"/>
     <use style="fill:#1f78b4;stroke:#1f78b4;" x="741.62638" xlink:href="#m56e0516400" y="849.794388"/>
     <use style="fill:#1f78b4;stroke:#1f78b4;" x="822.443869" xlink:href="#m56e0516400" y="879.392967"/>
     <use style="fill:#1f78b4;stroke:#1f78b4;" x="735.93913" xlink:href="#m56e0516400" y="766.134649"/>
     <use style="fill:#1f78b4;stroke:#1f78b4;" x="895.675644" xlink:href="#m56e0516400" y="930.723689"/>
     <use style="fill:#1f78b4;stroke:#1f78b4;" x="847.157684" xlink:href="#m56e0516400" y="826.11406"/>
     <use style="fill:#1f78b4;stroke:#1f78b4;" x="975.867638" xlink:href="#m56e0516400" y="939.11347"/>
     <use style="fill:#1f78b4;stroke:#1f78b4;" x="895.767522" xlink:href="#m56e0516400" y="1007.236692"/>
     <use style="fill:#1f78b4;stroke:#1f78b4;" x="1079.484613" xlink:href="#m56e0516400" y="924.27284"/>
     <use style="fill:#1f78b4;stroke:#1f78b4;" x="1124.140015" xlink:href="#m56e0516400" y="848.360679"/>
     <use style="fill:#1f78b4;stroke:#1f78b4;" x="1074.605385" xlink:href="#m56e0516400" y="1017.488126"/>
     <use style="fill:#1f78b4;stroke:#1f78b4;" x="1116.783448" xlink:href="#m56e0516400" y="750.221021"/>
     <use style="fill:#1f78b4;stroke:#1f78b4;" x="1196.250979" xlink:href="#m56e0516400" y="893.603837"/>
     <use style="fill:#1f78b4;stroke:#1f78b4;" x="1066.932933" xlink:href="#m56e0516400" y="658.086272"/>
     <use style="fill:#1f78b4;stroke:#1f78b4;" x="1199.157025" xlink:href="#m56e0516400" y="739.372269"/>
     <use style="fill:#1f78b4;stroke:#1f78b4;" x="988.389955" xlink:href="#m56e0516400" y="587.68563"/>
     <use style="fill:#1f78b4;stroke:#1f78b4;" x="1129.716174" xlink:href="#m56e0516400" y="605.774475"/>
     <use style="fill:#1f78b4;stroke:#1f78b4;" x="872.870952" xlink:href="#m56e0516400" y="498.205335"/>
     <use style="fill:#1f78b4;stroke:#1f78b4;" x="779.72974" xlink:href="#m56e0516400" y="465.171292"/>
     <use style="fill:#1f78b4;stroke:#1f78b4;" x="897.89688" xlink:href="#m56e0516400" y="424.565196"/>
     <use style="fill:#1f78b4;stroke:#1f78b4;" x="654.353578" xlink:href="#m56e0516400" y="430.128333"/>
     <use style="fill:#1f78b4;stroke:#1f78b4;" x="535.148815" xlink:href="#m56e0516400" y="407.062914"/>
     <use style="fill:#1f78b4;stroke:#1f78b4;" x="424.491683" xlink:href="#m56e0516400" y="387.510481"/>
     <use style="fill:#1f78b4;stroke:#1f78b4;" x="330.014921" xlink:href="#m56e0516400" y="333.726286"/>
     <use style="fill:#1f78b4;stroke:#1f78b4;" x="276.842975" xlink:href="#m56e0516400" y="329.531976"/>
     <use style="fill:#1f78b4;stroke:#1f78b4;" x="284.988639" xlink:href="#m56e0516400" y="269.018182"/>
    </g>
   </g>
   <g id="text_1">
    <g clip-path="url(#p451a673c90)">
     <!-- 1 -->
     <g transform="translate(477.403696 1056.199496)scale(0.12 -0.12)">
      <defs>
       <path d="M 794 531 
L 1825 531 
L 1825 4091 
L 703 3866 
L 703 4441 
L 1819 4666 
L 2450 4666 
L 2450 531 
L 3481 531 
L 3481 0 
L 794 0 
L 794 531 
z
" id="DejaVuSans-31" transform="scale(0.015625)"/>
      </defs>
      <use xlink:href="#DejaVuSans-31"/>
     </g>
    </g>
   </g>
   <g id="text_2">
    <g clip-path="url(#p451a673c90)">
     <!-- 0 -->
     <g transform="translate(439.208493 1121.730201)scale(0.12 -0.12)">
      <defs>
       <path d="M 2034 4250 
Q 1547 4250 1301 3770 
Q 1056 3291 1056 2328 
Q 1056 1369 1301 889 
Q 1547 409 2034 409 
Q 2525 409 2770 889 
Q 3016 1369 3016 2328 
Q 3016 3291 2770 3770 
Q 2525 4250 2034 4250 
z
M 2034 4750 
Q 2819 4750 3233 4129 
Q 3647 3509 3647 2328 
Q 3647 1150 3233 529 
Q 2819 -91 2034 -91 
Q 1250 -91 836 529 
Q 422 1150 422 2328 
Q 422 3509 836 4129 
Q 1250 4750 2034 4750 
z
" id="DejaVuSans-30" transform="scale(0.015625)"/>
      </defs>
      <use xlink:href="#DejaVuSans-30"/>
     </g>
    </g>
   </g>
   <g id="text_3">
    <g clip-path="url(#p451a673c90)">
     <!-- 4 -->
     <g transform="translate(355.787712 1142.975807)scale(0.12 -0.12)">
      <defs>
       <path d="M 2419 4116 
L 825 1625 
L 2419 1625 
L 2419 4116 
z
M 2253 4666 
L 3047 4666 
L 3047 1625 
L 3713 1625 
L 3713 1100 
L 3047 1100 
L 3047 0 
L 2419 0 
L 2419 1100 
L 313 1100 
L 313 1709 
L 2253 4666 
z
" id="DejaVuSans-34" transform="scale(0.015625)"/>
      </defs>
      <use xlink:href="#DejaVuSans-34"/>
     </g>
    </g>
   </g>
   <g id="text_4">
    <g clip-path="url(#p451a673c90)">
     <!-- 5 -->
     <g transform="translate(481.876327 1136.247624)scale(0.12 -0.12)">
      <defs>
       <path d="M 691 4666 
L 3169 4666 
L 3169 4134 
L 1269 4134 
L 1269 2991 
Q 1406 3038 1543 3061 
Q 1681 3084 1819 3084 
Q 2600 3084 3056 2656 
Q 3513 2228 3513 1497 
Q 3513 744 3044 326 
Q 2575 -91 1722 -91 
Q 1428 -91 1123 -41 
Q 819 9 494 109 
L 494 744 
Q 775 591 1075 516 
Q 1375 441 1709 441 
Q 2250 441 2565 725 
Q 2881 1009 2881 1497 
Q 2881 1984 2565 2268 
Q 2250 2553 1709 2553 
Q 1456 2553 1204 2497 
Q 953 2441 691 2322 
L 691 4666 
z
" id="DejaVuSans-35" transform="scale(0.015625)"/>
      </defs>
      <use xlink:href="#DejaVuSans-35"/>
     </g>
    </g>
   </g>
   <g id="text_5">
    <g clip-path="url(#p451a673c90)">
     <!-- 2 -->
     <g transform="translate(398.897375 1188.693068)scale(0.12 -0.12)">
      <defs>
       <path d="M 1228 531 
L 3431 531 
L 3431 0 
L 469 0 
L 469 531 
Q 828 903 1448 1529 
Q 2069 2156 2228 2338 
Q 2531 2678 2651 2914 
Q 2772 3150 2772 3378 
Q 2772 3750 2511 3984 
Q 2250 4219 1831 4219 
Q 1534 4219 1204 4116 
Q 875 4013 500 3803 
L 500 4441 
Q 881 4594 1212 4672 
Q 1544 4750 1819 4750 
Q 2544 4750 2975 4387 
Q 3406 4025 3406 3419 
Q 3406 3131 3298 2873 
Q 3191 2616 2906 2266 
Q 2828 2175 2409 1742 
Q 1991 1309 1228 531 
z
" id="DejaVuSans-32" transform="scale(0.015625)"/>
      </defs>
      <use xlink:href="#DejaVuSans-32"/>
     </g>
    </g>
   </g>
   <g id="text_6">
    <g clip-path="url(#p451a673c90)">
     <!-- 3 -->
     <g transform="translate(499.152567 1173.303109)scale(0.12 -0.12)">
      <defs>
       <path d="M 2597 2516 
Q 3050 2419 3304 2112 
Q 3559 1806 3559 1356 
Q 3559 666 3084 287 
Q 2609 -91 1734 -91 
Q 1441 -91 1130 -33 
Q 819 25 488 141 
L 488 750 
Q 750 597 1062 519 
Q 1375 441 1716 441 
Q 2309 441 2620 675 
Q 2931 909 2931 1356 
Q 2931 1769 2642 2001 
Q 2353 2234 1838 2234 
L 1294 2234 
L 1294 2753 
L 1863 2753 
Q 2328 2753 2575 2939 
Q 2822 3125 2822 3475 
Q 2822 3834 2567 4026 
Q 2313 4219 1838 4219 
Q 1578 4219 1281 4162 
Q 984 4106 628 3988 
L 628 4550 
Q 988 4650 1302 4700 
Q 1616 4750 1894 4750 
Q 2613 4750 3031 4423 
Q 3450 4097 3450 3541 
Q 3450 3153 3228 2886 
Q 3006 2619 2597 2516 
z
" id="DejaVuSans-33" transform="scale(0.015625)"/>
      </defs>
      <use xlink:href="#DejaVuSans-33"/>
     </g>
    </g>
   </g>
   <g id="text_7">
    <g clip-path="url(#p451a673c90)">
     <!-- 6 -->
     <g transform="translate(549.991457 977.818016)scale(0.12 -0.12)">
      <defs>
       <path d="M 2113 2584 
Q 1688 2584 1439 2293 
Q 1191 2003 1191 1497 
Q 1191 994 1439 701 
Q 1688 409 2113 409 
Q 2538 409 2786 701 
Q 3034 994 3034 1497 
Q 3034 2003 2786 2293 
Q 2538 2584 2113 2584 
z
M 3366 4563 
L 3366 3988 
Q 3128 4100 2886 4159 
Q 2644 4219 2406 4219 
Q 1781 4219 1451 3797 
Q 1122 3375 1075 2522 
Q 1259 2794 1537 2939 
Q 1816 3084 2150 3084 
Q 2853 3084 3261 2657 
Q 3669 2231 3669 1497 
Q 3669 778 3244 343 
Q 2819 -91 2113 -91 
Q 1303 -91 875 529 
Q 447 1150 447 2328 
Q 447 3434 972 4092 
Q 1497 4750 2381 4750 
Q 2619 4750 2861 4703 
Q 3103 4656 3366 4563 
z
" id="DejaVuSans-36" transform="scale(0.015625)"/>
      </defs>
      <use xlink:href="#DejaVuSans-36"/>
     </g>
    </g>
   </g>
   <g id="text_8">
    <g clip-path="url(#p451a673c90)">
     <!-- 7 -->
     <g transform="translate(636.654026 908.280517)scale(0.12 -0.12)">
      <defs>
       <path d="M 525 4666 
L 3525 4666 
L 3525 4397 
L 1831 0 
L 1172 0 
L 2766 4134 
L 525 4134 
L 525 4666 
z
" id="DejaVuSans-37" transform="scale(0.015625)"/>
      </defs>
      <use xlink:href="#DejaVuSans-37"/>
     </g>
    </g>
   </g>
   <g id="text_9">
    <g clip-path="url(#p451a673c90)">
     <!-- 8 -->
     <g transform="translate(737.80888 853.105638)scale(0.12 -0.12)">
      <defs>
       <path d="M 2034 2216 
Q 1584 2216 1326 1975 
Q 1069 1734 1069 1313 
Q 1069 891 1326 650 
Q 1584 409 2034 409 
Q 2484 409 2743 651 
Q 3003 894 3003 1313 
Q 3003 1734 2745 1975 
Q 2488 2216 2034 2216 
z
M 1403 2484 
Q 997 2584 770 2862 
Q 544 3141 544 3541 
Q 544 4100 942 4425 
Q 1341 4750 2034 4750 
Q 2731 4750 3128 4425 
Q 3525 4100 3525 3541 
Q 3525 3141 3298 2862 
Q 3072 2584 2669 2484 
Q 3125 2378 3379 2068 
Q 3634 1759 3634 1313 
Q 3634 634 3220 271 
Q 2806 -91 2034 -91 
Q 1263 -91 848 271 
Q 434 634 434 1313 
Q 434 1759 690 2068 
Q 947 2378 1403 2484 
z
M 1172 3481 
Q 1172 3119 1398 2916 
Q 1625 2713 2034 2713 
Q 2441 2713 2670 2916 
Q 2900 3119 2900 3481 
Q 2900 3844 2670 4047 
Q 2441 4250 2034 4250 
Q 1625 4250 1398 4047 
Q 1172 3844 1172 3481 
z
" id="DejaVuSans-38" transform="scale(0.015625)"/>
      </defs>
      <use xlink:href="#DejaVuSans-38"/>
     </g>
    </g>
   </g>
   <g id="text_10">
    <g clip-path="url(#p451a673c90)">
     <!-- 9 -->
     <g transform="translate(818.626369 882.704217)scale(0.12 -0.12)">
      <defs>
       <path d="M 703 97 
L 703 672 
Q 941 559 1184 500 
Q 1428 441 1663 441 
Q 2288 441 2617 861 
Q 2947 1281 2994 2138 
Q 2813 1869 2534 1725 
Q 2256 1581 1919 1581 
Q 1219 1581 811 2004 
Q 403 2428 403 3163 
Q 403 3881 828 4315 
Q 1253 4750 1959 4750 
Q 2769 4750 3195 4129 
Q 3622 3509 3622 2328 
Q 3622 1225 3098 567 
Q 2575 -91 1691 -91 
Q 1453 -91 1209 -44 
Q 966 3 703 97 
z
M 1959 2075 
Q 2384 2075 2632 2365 
Q 2881 2656 2881 3163 
Q 2881 3666 2632 3958 
Q 2384 4250 1959 4250 
Q 1534 4250 1286 3958 
Q 1038 3666 1038 3163 
Q 1038 2656 1286 2365 
Q 1534 2075 1959 2075 
z
" id="DejaVuSans-39" transform="scale(0.015625)"/>
      </defs>
      <use xlink:href="#DejaVuSans-39"/>
     </g>
    </g>
   </g>
   <g id="text_11">
    <g clip-path="url(#p451a673c90)">
     <!-- 10 -->
     <g transform="translate(728.30413 769.445899)scale(0.12 -0.12)">
      <use xlink:href="#DejaVuSans-31"/>
      <use x="63.623047" xlink:href="#DejaVuSans-30"/>
     </g>
    </g>
   </g>
   <g id="text_12">
    <g clip-path="url(#p451a673c90)">
     <!-- 11 -->
     <g transform="translate(888.040644 934.034939)scale(0.12 -0.12)">
      <use xlink:href="#DejaVuSans-31"/>
      <use x="63.623047" xlink:href="#DejaVuSans-31"/>
     </g>
    </g>
   </g>
   <g id="text_13">
    <g clip-path="url(#p451a673c90)">
     <!-- 12 -->
     <g transform="translate(839.522684 829.42531)scale(0.12 -0.12)">
      <use xlink:href="#DejaVuSans-31"/>
      <use x="63.623047" xlink:href="#DejaVuSans-32"/>
     </g>
    </g>
   </g>
   <g id="text_14">
    <g clip-path="url(#p451a673c90)">
     <!-- 13 -->
     <g transform="translate(968.232638 942.42472)scale(0.12 -0.12)">
      <use xlink:href="#DejaVuSans-31"/>
      <use x="63.623047" xlink:href="#DejaVuSans-33"/>
     </g>
    </g>
   </g>
   <g id="text_15">
    <g clip-path="url(#p451a673c90)">
     <!-- 14 -->
     <g transform="translate(888.132522 1010.547942)scale(0.12 -0.12)">
      <use xlink:href="#DejaVuSans-31"/>
      <use x="63.623047" xlink:href="#DejaVuSans-34"/>
     </g>
    </g>
   </g>
   <g id="text_16">
    <g clip-path="url(#p451a673c90)">
     <!-- 15 -->
     <g transform="translate(1071.849613 927.58409)scale(0.12 -0.12)">
      <use xlink:href="#DejaVuSans-31"/>
      <use x="63.623047" xlink:href="#DejaVuSans-35"/>
     </g>
    </g>
   </g>
   <g id="text_17">
    <g clip-path="url(#p451a673c90)">
     <!-- 16 -->
     <g transform="translate(1116.505015 851.671929)scale(0.12 -0.12)">
      <use xlink:href="#DejaVuSans-31"/>
      <use x="63.623047" xlink:href="#DejaVuSans-36"/>
     </g>
    </g>
   </g>
   <g id="text_18">
    <g clip-path="url(#p451a673c90)">
     <!-- 17 -->
     <g transform="translate(1066.970385 1020.799376)scale(0.12 -0.12)">
      <use xlink:href="#DejaVuSans-31"/>
      <use x="63.623047" xlink:href="#DejaVuSans-37"/>
     </g>
    </g>
   </g>
   <g id="text_19">
    <g clip-path="url(#p451a673c90)">
     <!-- 18 -->
     <g transform="translate(1109.148448 753.532271)scale(0.12 -0.12)">
      <use xlink:href="#DejaVuSans-31"/>
      <use x="63.623047" xlink:href="#DejaVuSans-38"/>
     </g>
    </g>
   </g>
   <g id="text_20">
    <g clip-path="url(#p451a673c90)">
     <!-- 19 -->
     <g transform="translate(1188.615979 896.915087)scale(0.12 -0.12)">
      <use xlink:href="#DejaVuSans-31"/>
      <use x="63.623047" xlink:href="#DejaVuSans-39"/>
     </g>
    </g>
   </g>
   <g id="text_21">
    <g clip-path="url(#p451a673c90)">
     <!-- 20 -->
     <g transform="translate(1059.297933 661.397522)scale(0.12 -0.12)">
      <use xlink:href="#DejaVuSans-32"/>
      <use x="63.623047" xlink:href="#DejaVuSans-30"/>
     </g>
    </g>
   </g>
   <g id="text_22">
    <g clip-path="url(#p451a673c90)">
     <!-- 21 -->
     <g transform="translate(1191.522025 742.683519)scale(0.12 -0.12)">
      <use xlink:href="#DejaVuSans-32"/>
      <use x="63.623047" xlink:href="#DejaVuSans-31"/>
     </g>
    </g>
   </g>
   <g id="text_23">
    <g clip-path="url(#p451a673c90)">
     <!-- 22 -->
     <g transform="translate(980.754955 590.99688)scale(0.12 -0.12)">
      <use xlink:href="#DejaVuSans-32"/>
      <use x="63.623047" xlink:href="#DejaVuSans-32"/>
     </g>
    </g>
   </g>
   <g id="text_24">
    <g clip-path="url(#p451a673c90)">
     <!-- 23 -->
     <g transform="translate(1122.081174 609.085725)scale(0.12 -0.12)">
      <use xlink:href="#DejaVuSans-32"/>
      <use x="63.623047" xlink:href="#DejaVuSans-33"/>
     </g>
    </g>
   </g>
   <g id="text_25">
    <g clip-path="url(#p451a673c90)">
     <!-- 24 -->
     <g transform="translate(865.235952 501.516585)scale(0.12 -0.12)">
      <use xlink:href="#DejaVuSans-32"/>
      <use x="63.623047" xlink:href="#DejaVuSans-34"/>
     </g>
    </g>
   </g>
   <g id="text_26">
    <g clip-path="url(#p451a673c90)">
     <!-- 25 -->
     <g transform="translate(772.09474 468.482542)scale(0.12 -0.12)">
      <use xlink:href="#DejaVuSans-32"/>
      <use x="63.623047" xlink:href="#DejaVuSans-35"/>
     </g>
    </g>
   </g>
   <g id="text_27">
    <g clip-path="url(#p451a673c90)">
     <!-- 26 -->
     <g transform="translate(890.26188 427.876446)scale(0.12 -0.12)">
      <use xlink:href="#DejaVuSans-32"/>
      <use x="63.623047" xlink:href="#DejaVuSans-36"/>
     </g>
    </g>
   </g>
   <g id="text_28">
    <g clip-path="url(#p451a673c90)">
     <!-- 27 -->
     <g transform="translate(646.718578 433.439583)scale(0.12 -0.12)">
      <use xlink:href="#DejaVuSans-32"/>
      <use x="63.623047" xlink:href="#DejaVuSans-37"/>
     </g>
    </g>
   </g>
   <g id="text_29">
    <g clip-path="url(#p451a673c90)">
     <!-- 28 -->
     <g transform="translate(527.513815 410.374164)scale(0.12 -0.12)">
      <use xlink:href="#DejaVuSans-32"/>
      <use x="63.623047" xlink:href="#DejaVuSans-38"/>
     </g>
    </g>
   </g>
   <g id="text_30">
    <g clip-path="url(#p451a673c90)">
     <!-- 29 -->
     <g transform="translate(416.856683 390.821731)scale(0.12 -0.12)">
      <use xlink:href="#DejaVuSans-32"/>
      <use x="63.623047" xlink:href="#DejaVuSans-39"/>
     </g>
    </g>
   </g>
   <g id="text_31">
    <g clip-path="url(#p451a673c90)">
     <!-- 30 -->
     <g transform="translate(322.379921 337.037536)scale(0.12 -0.12)">
      <use xlink:href="#DejaVuSans-33"/>
      <use x="63.623047" xlink:href="#DejaVuSans-30"/>
     </g>
    </g>
   </g>
   <g id="text_32">
    <g clip-path="url(#p451a673c90)">
     <!-- 31 -->
     <g transform="translate(269.207975 332.843226)scale(0.12 -0.12)">
      <use xlink:href="#DejaVuSans-33"/>
      <use x="63.623047" xlink:href="#DejaVuSans-31"/>
     </g>
    </g>
   </g>
   <g id="text_33">
    <g clip-path="url(#p451a673c90)">
     <!-- 32 -->
     <g transform="translate(277.353639 272.329432)scale(0.12 -0.12)">
      <use xlink:href="#DejaVuSans-33"/>
      <use x="63.623047" xlink:href="#DejaVuSans-32"/>
     </g>
    </g>
   </g>
  </g>
 </g>
 <defs>
  <clipPath id="p451a673c90">
   <rect height="1108.8" width="1116" x="180" y="172.8"/>
  </clipPath>
 </defs>
</svg>
