<?xml version="1.0" encoding="utf-8" standalone="no"?>
<!DOCTYPE svg PUBLIC "-//W3C//DTD SVG 1.1//EN"
  "http://www.w3.org/Graphics/SVG/1.1/DTD/svg11.dtd">
<svg height="1440pt" version="1.1" viewBox="0 0 1440 1440" width="1440pt" xmlns="http://www.w3.org/2000/svg" xmlns:xlink="http://www.w3.org/1999/xlink">
 <metadata>
  <rdf:RDF xmlns:cc="http://creativecommons.org/ns#" xmlns:dc="http://purl.org/dc/elements/1.1/" xmlns:rdf="http://www.w3.org/1999/02/22-rdf-syntax-ns#">
   <cc:Work>
    <dc:type rdf:resource="http://purl.org/dc/dcmitype/StillImage"/>
    <dc:date>2021-10-17T05:44:24.225885</dc:date>
    <dc:format>image/svg+xml</dc:format>
    <dc:creator>
     <cc:Agent>
      <dc:title>Matplotlib v3.4.3, https://matplotlib.org/</dc:title>
     </cc:Agent>
    </dc:creator>
   </cc:Work>
  </rdf:RDF>
 </metadata>
 <defs>
  <style type="text/css">*{stroke-linecap:butt;stroke-linejoin:round;}</style>
 </defs>
 <g id="figure_1">
  <g id="patch_1">
   <path d="M 0 1440 
L 1440 1440 
L 1440 0 
L 0 0 
z
" style="fill:#ffffff;"/>
  </g>
  <g id="axes_1">
   <g id="patch_2">
    <path clip-path="url(#p5f8689313e)" d="M 414.6846 510.931775 
Q 383.296578 532.022793 353.764543 551.86669 
" style="fill:none;stroke:#ff0000;stroke-linecap:round;stroke-width:2;"/>
    <path clip-path="url(#p5f8689313e)" d="M 358.200093 551.295818 
L 353.764543 551.86669 
L 355.969175 547.975727 
L 358.200093 551.295818 
z
" style="fill:#ff0000;stroke:#ff0000;stroke-linecap:round;stroke-width:2;"/>
   </g>
   <g id="patch_3">
    <path clip-path="url(#p5f8689313e)" d="M 428.335114 500.339676 
Q 457.822633 474.04736 485.641178 449.243172 
" style="fill:none;stroke:#ff0000;stroke-linecap:round;stroke-width:2;"/>
    <path clip-path="url(#p5f8689313e)" d="M 481.324604 450.41244 
L 485.641178 449.243172 
L 483.986648 453.397992 
L 481.324604 450.41244 
z
" style="fill:#ff0000;stroke:#ff0000;stroke-linecap:round;stroke-width:2;"/>
   </g>
   <g id="patch_4">
    <path clip-path="url(#p5f8689313e)" d="M 419.816908 497.686404 
Q 417.068217 486.436635 414.584892 476.272952 
" style="fill:none;stroke:#000000;stroke-linecap:round;"/>
    <path clip-path="url(#p5f8689313e)" d="M 413.591449 480.63335 
L 414.584892 476.272952 
L 417.477144 479.683946 
L 413.591449 480.63335 
z
" style="stroke:#000000;stroke-linecap:round;"/>
   </g>
   <g id="patch_5">
    <path clip-path="url(#p5f8689313e)" d="M 336.788878 561.430405 
Q 312.38002 572.159408 288.994683 582.438518 
" style="fill:none;stroke:#000000;stroke-linecap:round;"/>
    <path clip-path="url(#p5f8689313e)" d="M 293.461337 582.659864 
L 288.994683 582.438518 
L 291.851753 578.998002 
L 293.461337 582.659864 
z
" style="stroke:#000000;stroke-linecap:round;"/>
   </g>
   <g id="patch_6">
    <path clip-path="url(#p5f8689313e)" d="M 339.57076 550.980177 
Q 322.695004 528.153368 306.483893 506.225585 
" style="fill:none;stroke:#000000;stroke-linecap:round;"/>
    <path clip-path="url(#p5f8689313e)" d="M 307.253576 510.630989 
L 306.483893 506.225585 
L 310.470026 508.253082 
L 307.253576 510.630989 
z
" style="stroke:#000000;stroke-linecap:round;"/>
   </g>
   <g id="patch_7">
    <path clip-path="url(#p5f8689313e)" d="M 336.396461 555.540055 
Q 310.779811 548.139624 286.237272 541.049495 
" style="fill:none;stroke:#000000;stroke-linecap:round;"/>
    <path clip-path="url(#p5f8689313e)" d="M 289.525042 544.08109 
L 286.237272 541.049495 
L 290.63521 540.238236 
L 289.525042 544.08109 
z
" style="stroke:#000000;stroke-linecap:round;"/>
   </g>
   <g id="patch_8">
    <path clip-path="url(#p5f8689313e)" d="M 344.12853 566.580466 
Q 342.377697 592.167969 340.703189 616.640047 
" style="fill:none;stroke:#000000;stroke-linecap:round;"/>
    <path clip-path="url(#p5f8689313e)" d="M 342.971586 612.785909 
L 340.703189 616.640047 
L 338.980917 612.512847 
L 342.971586 612.785909 
z
" style="stroke:#000000;stroke-linecap:round;"/>
   </g>
   <g id="patch_9">
    <path clip-path="url(#p5f8689313e)" d="M 340.035749 565.233103 
Q 322.979417 591.775566 306.527502 617.377456 
" style="fill:none;stroke:#000000;stroke-linecap:round;"/>
    <path clip-path="url(#p5f8689313e)" d="M 310.372483 615.093572 
L 306.527502 617.377456 
L 307.007384 612.931141 
L 310.372483 615.093572 
z
" style="stroke:#000000;stroke-linecap:round;"/>
   </g>
   <g id="patch_10">
    <path clip-path="url(#p5f8689313e)" d="M 501.069459 437.3225 
Q 532.118394 417.451801 561.283937 398.786435 
" style="fill:none;stroke:#ff0000;stroke-linecap:round;stroke-width:2;"/>
    <path clip-path="url(#p5f8689313e)" d="M 556.836737 399.258044 
L 561.283937 398.786435 
L 558.992904 402.62716 
L 556.836737 399.258044 
z
" style="fill:#ff0000;stroke:#ff0000;stroke-linecap:round;stroke-width:2;"/>
   </g>
   <g id="patch_11">
    <path clip-path="url(#p5f8689313e)" d="M 490.472563 433.983734 
Q 480.022213 408.642171 469.998098 384.334204 
" style="fill:none;stroke:#000000;stroke-linecap:round;"/>
    <path clip-path="url(#p5f8689313e)" d="M 469.674086 388.794587 
L 469.998098 384.334204 
L 473.371997 387.269643 
L 469.674086 388.794587 
z
" style="stroke:#000000;stroke-linecap:round;"/>
   </g>
   <g id="patch_12">
    <path clip-path="url(#p5f8689313e)" d="M 578.708015 390.259516 
Q 609.928099 380.215556 639.01956 370.856406 
" style="fill:none;stroke:#ff0000;stroke-linecap:round;stroke-width:2;"/>
    <path clip-path="url(#p5f8689313e)" d="M 634.599251 370.177532 
L 639.01956 370.856406 
L 635.824275 373.985328 
L 634.599251 370.177532 
z
" style="fill:#ff0000;stroke:#ff0000;stroke-linecap:round;stroke-width:2;"/>
   </g>
   <g id="patch_13">
    <path clip-path="url(#p5f8689313e)" d="M 569.489143 384.310183 
Q 566.293345 356.078495 563.223304 328.957746 
" style="fill:none;stroke:#000000;stroke-linecap:round;"/>
    <path clip-path="url(#p5f8689313e)" d="M 561.685919 333.157323 
L 563.223304 328.957746 
L 565.660534 332.7074 
L 561.685919 333.157323 
z
" style="stroke:#000000;stroke-linecap:round;"/>
   </g>
   <g id="patch_14">
    <path clip-path="url(#p5f8689313e)" d="M 657.903154 365.90631 
Q 703.798017 357.20831 748.5944 348.718494 
" style="fill:none;stroke:#000000;stroke-linecap:round;"/>
    <path clip-path="url(#p5f8689313e)" d="M 744.291946 347.498295 
L 748.5944 348.718494 
L 745.036768 351.428338 
L 744.291946 347.498295 
z
" style="stroke:#000000;stroke-linecap:round;"/>
   </g>
   <g id="patch_15">
    <path clip-path="url(#p5f8689313e)" d="M 766.858882 346.661635 
Q 812.540892 345.413386 857.105285 344.195676 
" style="fill:none;stroke:#000000;stroke-linecap:round;"/>
    <path clip-path="url(#p5f8689313e)" d="M 853.052148 342.30568 
L 857.105285 344.195676 
L 853.161407 346.304188 
L 853.052148 342.30568 
z
" style="stroke:#000000;stroke-linecap:round;"/>
   </g>
   <g id="patch_16">
    <path clip-path="url(#p5f8689313e)" d="M 874.447437 348.14758 
Q 902.111882 363.577068 927.823463 377.917371 
" style="fill:none;stroke:#ff0000;stroke-linecap:round;stroke-width:2;"/>
    <path clip-path="url(#p5f8689313e)" d="M 925.30427 374.222284 
L 927.823463 377.917371 
L 923.355878 377.715673 
L 925.30427 374.222284 
z
" style="fill:#ff0000;stroke:#ff0000;stroke-linecap:round;stroke-width:2;"/>
   </g>
   <g id="patch_17">
    <path clip-path="url(#p5f8689313e)" d="M 868.064135 335.346557 
Q 872.038837 306.47161 875.861077 278.704252 
" style="fill:none;stroke:#000000;stroke-linecap:round;"/>
    <path clip-path="url(#p5f8689313e)" d="M 873.334294 282.394153 
L 875.861077 278.704252 
L 877.296928 282.939619 
L 873.334294 282.394153 
z
" style="stroke:#000000;stroke-linecap:round;"/>
   </g>
   <g id="patch_18">
    <path clip-path="url(#p5f8689313e)" d="M 944.166939 388.560047 
Q 970.315402 408.996174 994.70204 428.05536 
" style="fill:none;stroke:#ff0000;stroke-linecap:round;stroke-width:2;"/>
    <path clip-path="url(#p5f8689313e)" d="M 992.781963 424.016387 
L 994.70204 428.05536 
L 990.318815 427.168037 
L 992.781963 424.016387 
z
" style="fill:#ff0000;stroke:#ff0000;stroke-linecap:round;stroke-width:2;"/>
   </g>
   <g id="patch_19">
    <path clip-path="url(#p5f8689313e)" d="M 1009.309507 440.993212 
Q 1046.734918 479.698369 1083.383158 517.599782 
" style="fill:none;stroke:#000000;stroke-linecap:round;"/>
    <path clip-path="url(#p5f8689313e)" d="M 1082.040452 513.333971 
L 1083.383158 517.599782 
L 1079.164886 516.11446 
L 1082.040452 513.333971 
z
" style="stroke:#000000;stroke-linecap:round;"/>
   </g>
   <g id="patch_20">
    <path clip-path="url(#p5f8689313e)" d="M 1093.421733 532.656742 
Q 1109.743812 573.073837 1125.228575 611.417552 
" style="fill:none;stroke:#ff0000;stroke-linecap:round;stroke-width:2;"/>
    <path clip-path="url(#p5f8689313e)" d="M 1125.585226 606.95966 
L 1125.228575 611.417552 
L 1121.876252 608.457496 
L 1125.585226 606.95966 
z
" style="fill:#ff0000;stroke:#ff0000;stroke-linecap:round;stroke-width:2;"/>
   </g>
   <g id="patch_21">
    <path clip-path="url(#p5f8689313e)" d="M 1095.957653 518.176574 
Q 1114.768685 497.17066 1132.83386 476.99763 
" style="fill:none;stroke:#000000;stroke-linecap:round;"/>
    <path clip-path="url(#p5f8689313e)" d="M 1128.67549 478.643218 
L 1132.83386 476.99763 
L 1131.655308 481.311679 
L 1128.67549 478.643218 
z
" style="stroke:#000000;stroke-linecap:round;"/>
   </g>
   <g id="patch_22">
    <path clip-path="url(#p5f8689313e)" d="M 1087.900354 516.270467 
Q 1083.005698 498.321906 1078.405193 481.451991 
" style="fill:none;stroke:#000000;stroke-linecap:round;"/>
    <path clip-path="url(#p5f8689313e)" d="M 1077.528043 485.837262 
L 1078.405193 481.451991 
L 1081.38712 484.784874 
L 1077.528043 485.837262 
z
" style="stroke:#000000;stroke-linecap:round;"/>
   </g>
   <g id="patch_23">
    <path clip-path="url(#p5f8689313e)" d="M 1126.969479 629.857512 
Q 1115.497937 670.739609 1104.630505 709.468789 
" style="fill:none;stroke:#ff0000;stroke-linecap:round;stroke-width:2;"/>
    <path clip-path="url(#p5f8689313e)" d="M 1107.636797 706.157866 
L 1104.630505 709.468789 
L 1103.785542 705.077202 
L 1107.636797 706.157866 
z
" style="fill:#ff0000;stroke:#ff0000;stroke-linecap:round;stroke-width:2;"/>
   </g>
   <g id="patch_24">
    <path clip-path="url(#p5f8689313e)" d="M 1136.072316 616.107861 
Q 1156.218465 599.984398 1175.491715 584.559538 
" style="fill:none;stroke:#000000;stroke-linecap:round;"/>
    <path clip-path="url(#p5f8689313e)" d="M 1171.119035 585.497447 
L 1175.491715 584.559538 
L 1173.618434 588.620427 
L 1171.119035 585.497447 
z
" style="stroke:#000000;stroke-linecap:round;"/>
   </g>
   <g id="patch_25">
    <path clip-path="url(#p5f8689313e)" d="M 1137.967293 621.737821 
Q 1164.231745 622.39574 1189.378515 623.02566 
" style="fill:none;stroke:#000000;stroke-linecap:round;"/>
    <path clip-path="url(#p5f8689313e)" d="M 1185.429853 620.92612 
L 1189.378515 623.02566 
L 1185.329685 624.924865 
L 1185.429853 620.92612 
z
" style="stroke:#000000;stroke-linecap:round;"/>
   </g>
   <g id="patch_26">
    <path clip-path="url(#p5f8689313e)" d="M 1135.757864 627.30302 
Q 1154.335692 643.959327 1172.081074 659.869289 
" style="fill:none;stroke:#000000;stroke-linecap:round;"/>
    <path clip-path="url(#p5f8689313e)" d="M 1170.437926 655.709954 
L 1172.081074 659.869289 
L 1167.767717 658.688206 
L 1170.437926 655.709954 
z
" style="stroke:#000000;stroke-linecap:round;"/>
   </g>
   <g id="patch_27">
    <path clip-path="url(#p5f8689313e)" d="M 1098.913841 728.16597 
Q 1079.668369 785.119518 1060.780816 841.013871 
" style="fill:none;stroke:#000000;stroke-linecap:round;"/>
    <path clip-path="url(#p5f8689313e)" d="M 1063.956089 837.864643 
L 1060.780816 841.013871 
L 1060.166597 836.584116 
L 1063.956089 837.864643 
z
" style="stroke:#000000;stroke-linecap:round;"/>
   </g>
   <g id="patch_28">
    <path clip-path="url(#p5f8689313e)" d="M 1054.303396 858.265844 
Q 1031.813266 911.945057 1009.755176 964.593085 
" style="fill:none;stroke:#000000;stroke-linecap:round;"/>
    <path clip-path="url(#p5f8689313e)" d="M 1013.145523 961.676659 
L 1009.755176 964.593085 
L 1009.456243 960.130951 
L 1013.145523 961.676659 
z
" style="stroke:#000000;stroke-linecap:round;"/>
   </g>
   <g id="patch_29">
    <path clip-path="url(#p5f8689313e)" d="M 1002.013331 981.314305 
Q 975.560487 1032.725581 949.619169 1083.142704 
" style="fill:none;stroke:#000000;stroke-linecap:round;"/>
    <path clip-path="url(#p5f8689313e)" d="M 953.227655 1080.500957 
L 949.619169 1083.142704 
L 949.670863 1078.670867 
L 953.227655 1080.500957 
z
" style="stroke:#000000;stroke-linecap:round;"/>
   </g>
   <g id="patch_30">
    <path clip-path="url(#p5f8689313e)" d="M 936.575792 1093.071687 
Q 906.164305 1097.452617 877.96604 1101.514722 
" style="fill:none;stroke:#ff0000;stroke-linecap:round;stroke-width:2;"/>
    <path clip-path="url(#p5f8689313e)" d="M 882.210338 1102.923954 
L 877.96604 1101.514722 
L 881.640005 1098.964823 
L 882.210338 1102.923954 
z
" style="fill:#ff0000;stroke:#ff0000;stroke-linecap:round;stroke-width:2;"/>
   </g>
   <g id="patch_31">
    <path clip-path="url(#p5f8689313e)" d="M 948.91519 1099.635144 
Q 962.822484 1128.404325 976.243183 1156.166915 
" style="fill:none;stroke:#000000;stroke-linecap:round;"/>
    <path clip-path="url(#p5f8689313e)" d="M 976.30293 1151.695179 
L 976.243183 1156.166915 
L 972.701642 1153.436075 
L 976.30293 1151.695179 
z
" style="stroke:#000000;stroke-linecap:round;"/>
   </g>
   <g id="patch_32">
    <path clip-path="url(#p5f8689313e)" d="M 944.468481 1100.466375 
Q 942.132831 1130.233068 939.884639 1158.885152 
" style="fill:none;stroke:#000000;stroke-linecap:round;"/>
    <path clip-path="url(#p5f8689313e)" d="M 942.191409 1155.053858 
L 939.884639 1158.885152 
L 938.203666 1154.740959 
L 942.191409 1155.053858 
z
" style="stroke:#000000;stroke-linecap:round;"/>
   </g>
   <g id="patch_33">
    <path clip-path="url(#p5f8689313e)" d="M 952.916667 1095.666269 
Q 973.454579 1105.786053 992.989594 1115.411673 
" style="fill:none;stroke:#000000;stroke-linecap:round;"/>
    <path clip-path="url(#p5f8689313e)" d="M 990.285509 1111.849661 
L 992.989594 1115.411673 
L 988.517534 1115.437734 
L 990.285509 1111.849661 
z
" style="stroke:#000000;stroke-linecap:round;"/>
   </g>
   <g id="patch_34">
    <path clip-path="url(#p5f8689313e)" d="M 858.554885 1103.797398 
Q 829.878276 1106.221759 803.429787 1108.457751 
" style="fill:none;stroke:#ff0000;stroke-linecap:round;stroke-width:2;"/>
    <path clip-path="url(#p5f8689313e)" d="M 807.58405 1110.113679 
L 803.429787 1108.457751 
L 807.247087 1106.127897 
L 807.58405 1110.113679 
z
" style="fill:#ff0000;stroke:#ff0000;stroke-linecap:round;stroke-width:2;"/>
   </g>
   <g id="patch_35">
    <path clip-path="url(#p5f8689313e)" d="M 783.909742 1109.257106 
Q 742.088448 1108.684187 701.385084 1108.126582 
" style="fill:none;stroke:#000000;stroke-linecap:round;"/>
    <path clip-path="url(#p5f8689313e)" d="M 705.357313 1110.181186 
L 701.385084 1108.126582 
L 705.412104 1106.181562 
L 705.357313 1110.181186 
z
" style="stroke:#000000;stroke-linecap:round;"/>
   </g>
   <g id="patch_36">
    <path clip-path="url(#p5f8689313e)" d="M 687.01594 1100.643657 
Q 672.333857 1077.132441 658.836166 1055.517857 
" style="fill:none;stroke:#ff0000;stroke-linecap:round;stroke-width:2;"/>
    <path clip-path="url(#p5f8689313e)" d="M 659.258473 1059.970009 
L 658.836166 1055.517857 
L 662.651272 1057.851303 
L 659.258473 1059.970009 
z
" style="fill:#ff0000;stroke:#ff0000;stroke-linecap:round;stroke-width:2;"/>
   </g>
   <g id="patch_37">
    <path clip-path="url(#p5f8689313e)" d="M 689.736445 1116.452326 
Q 683.057821 1146.686811 676.620351 1175.829579 
" style="fill:none;stroke:#000000;stroke-linecap:round;"/>
    <path clip-path="url(#p5f8689313e)" d="M 679.436051 1172.355124 
L 676.620351 1175.829579 
L 675.530207 1171.492346 
L 679.436051 1172.355124 
z
" style="stroke:#000000;stroke-linecap:round;"/>
   </g>
   <g id="patch_38">
    <path clip-path="url(#p5f8689313e)" d="M 684.040628 1112.203711 
Q 662.823144 1124.015308 642.582527 1135.283092 
" style="fill:none;stroke:#000000;stroke-linecap:round;"/>
    <path clip-path="url(#p5f8689313e)" d="M 647.050272 1135.084958 
L 642.582527 1135.283092 
L 645.104667 1131.590016 
L 647.050272 1135.084958 
z
" style="stroke:#000000;stroke-linecap:round;"/>
   </g>
   <g id="patch_39">
    <path clip-path="url(#p5f8689313e)" d="M 648.836206 1038.718167 
Q 638.031799 1019.408284 628.31924 1002.049777 
" style="fill:none;stroke:#ff0000;stroke-linecap:round;stroke-width:2;"/>
    <path clip-path="url(#p5f8689313e)" d="M 628.527034 1006.517083 
L 628.31924 1002.049777 
L 632.017761 1004.563926 
L 628.527034 1006.517083 
z
" style="fill:#ff0000;stroke:#ff0000;stroke-linecap:round;stroke-width:2;"/>
   </g>
   <g id="patch_40">
    <path clip-path="url(#p5f8689313e)" d="M 653.596781 1037.63512 
Q 654.395755 1024.621529 655.126215 1012.723871 
" style="fill:none;stroke:#000000;stroke-linecap:round;"/>
    <path clip-path="url(#p5f8689313e)" d="M 652.884854 1016.593793 
L 655.126215 1012.723871 
L 656.877337 1016.838913 
L 652.884854 1016.593793 
z
" style="stroke:#000000;stroke-linecap:round;"/>
   </g>
   <g id="PathCollection_1">
    <defs>
     <path d="M 0 8.660254 
C 2.296726 8.660254 4.499694 7.747755 6.123724 6.123724 
C 7.747755 4.499694 8.660254 2.296726 8.660254 0 
C 8.660254 -2.296726 7.747755 -4.499694 6.123724 -6.123724 
C 4.499694 -7.747755 2.296726 -8.660254 0 -8.660254 
C -2.296726 -8.660254 -4.499694 -7.747755 -6.123724 -6.123724 
C -7.747755 -4.499694 -8.660254 -2.296726 -8.660254 0 
C -8.660254 2.296726 -7.747755 4.499694 -6.123724 6.123724 
C -4.499694 7.747755 -2.296726 8.660254 0 8.660254 
z
" id="m55f30aa344" style="stroke:#1f78b4;"/>
    </defs>
    <g clip-path="url(#p5f8689313e)">
     <use style="fill:#1f78b4;stroke:#1f78b4;" x="421.87301" xlink:href="#m55f30aa344" y="506.101561"/>
     <use style="fill:#1f78b4;stroke:#1f78b4;" x="344.719448" xlink:href="#m55f30aa344" y="557.944494"/>
     <use style="fill:#1f78b4;stroke:#1f78b4;" x="280.043261" xlink:href="#m55f30aa344" y="586.373148"/>
     <use style="fill:#1f78b4;stroke:#1f78b4;" x="300.669264" xlink:href="#m55f30aa344" y="498.360489"/>
     <use style="fill:#1f78b4;stroke:#1f78b4;" x="276.842975" xlink:href="#m55f30aa344" y="538.335564"/>
     <use style="fill:#1f78b4;stroke:#1f78b4;" x="340.035552" xlink:href="#m55f30aa344" y="626.397211"/>
     <use style="fill:#1f78b4;stroke:#1f78b4;" x="301.241976" xlink:href="#m55f30aa344" y="625.602607"/>
     <use style="fill:#1f78b4;stroke:#1f78b4;" x="493.77462" xlink:href="#m55f30aa344" y="441.991052"/>
     <use style="fill:#1f78b4;stroke:#1f78b4;" x="412.264576" xlink:href="#m55f30aa344" y="466.776425"/>
     <use style="fill:#1f78b4;stroke:#1f78b4;" x="570.462872" xlink:href="#m55f30aa344" y="392.9121"/>
     <use style="fill:#1f78b4;stroke:#1f78b4;" x="466.270353" xlink:href="#m55f30aa344" y="375.294614"/>
     <use style="fill:#1f78b4;stroke:#1f78b4;" x="649.392718" xlink:href="#m55f30aa344" y="367.519208"/>
     <use style="fill:#1f78b4;stroke:#1f78b4;" x="562.12332" xlink:href="#m55f30aa344" y="319.240481"/>
     <use style="fill:#1f78b4;stroke:#1f78b4;" x="758.198788" xlink:href="#m55f30aa344" y="346.898269"/>
     <use style="fill:#1f78b4;stroke:#1f78b4;" x="866.882811" xlink:href="#m55f30aa344" y="343.928507"/>
     <use style="fill:#1f78b4;stroke:#1f78b4;" x="937.342638" xlink:href="#m55f30aa344" y="383.226568"/>
     <use style="fill:#1f78b4;stroke:#1f78b4;" x="877.194386" xlink:href="#m55f30aa344" y="269.018182"/>
     <use style="fill:#1f78b4;stroke:#1f78b4;" x="1003.287401" xlink:href="#m55f30aa344" y="434.765182"/>
     <use style="fill:#1f78b4;stroke:#1f78b4;" x="1090.179688" xlink:href="#m55f30aa344" y="524.628716"/>
     <use style="fill:#1f78b4;stroke:#1f78b4;" x="1129.308731" xlink:href="#m55f30aa344" y="621.520926"/>
     <use style="fill:#1f78b4;stroke:#1f78b4;" x="1139.356928" xlink:href="#m55f30aa344" y="469.713446"/>
     <use style="fill:#1f78b4;stroke:#1f78b4;" x="1075.832933" xlink:href="#m55f30aa344" y="472.019588"/>
     <use style="fill:#1f78b4;stroke:#1f78b4;" x="1101.686177" xlink:href="#m55f30aa344" y="719.961736"/>
     <use style="fill:#1f78b4;stroke:#1f78b4;" x="1183.128344" xlink:href="#m55f30aa344" y="578.447755"/>
     <use style="fill:#1f78b4;stroke:#1f78b4;" x="1199.157025" xlink:href="#m55f30aa344" y="623.27061"/>
     <use style="fill:#1f78b4;stroke:#1f78b4;" x="1179.362067" xlink:href="#m55f30aa344" y="666.397203"/>
     <use style="fill:#1f78b4;stroke:#1f78b4;" x="1057.651328" xlink:href="#m55f30aa344" y="850.275033"/>
     <use style="fill:#1f78b4;stroke:#1f78b4;" x="1005.976791" xlink:href="#m55f30aa344" y="973.611295"/>
     <use style="fill:#1f78b4;stroke:#1f78b4;" x="945.145573" xlink:href="#m55f30aa344" y="1091.837166"/>
     <use style="fill:#1f78b4;stroke:#1f78b4;" x="867.184831" xlink:href="#m55f30aa344" y="1103.067811"/>
     <use style="fill:#1f78b4;stroke:#1f78b4;" x="980.498405" xlink:href="#m55f30aa344" y="1164.969438"/>
     <use style="fill:#1f78b4;stroke:#1f78b4;" x="939.119778" xlink:href="#m55f30aa344" y="1168.632912"/>
     <use style="fill:#1f78b4;stroke:#1f78b4;" x="1001.758114" xlink:href="#m55f30aa344" y="1119.732244"/>
     <use style="fill:#1f78b4;stroke:#1f78b4;" x="792.571097" xlink:href="#m55f30aa344" y="1109.37576"/>
     <use style="fill:#1f78b4;stroke:#1f78b4;" x="691.605148" xlink:href="#m55f30aa344" y="1107.992605"/>
     <use style="fill:#1f78b4;stroke:#1f78b4;" x="653.066148" xlink:href="#m55f30aa344" y="1046.278014"/>
     <use style="fill:#1f78b4;stroke:#1f78b4;" x="674.510316" xlink:href="#m55f30aa344" y="1185.381818"/>
     <use style="fill:#1f78b4;stroke:#1f78b4;" x="634.040305" xlink:href="#m55f30aa344" y="1140.038477"/>
     <use style="fill:#1f78b4;stroke:#1f78b4;" x="622.999615" xlink:href="#m55f30aa344" y="992.542421"/>
     <use style="fill:#1f78b4;stroke:#1f78b4;" x="655.725645" xlink:href="#m55f30aa344" y="1002.960429"/>
    </g>
   </g>
   <g id="text_1">
    <g clip-path="url(#p5f8689313e)">
     <!-- 1 -->
     <g transform="translate(418.05551 509.412811)scale(0.12 -0.12)">
      <defs>
       <path d="M 794 531 
L 1825 531 
L 1825 4091 
L 703 3866 
L 703 4441 
L 1819 4666 
L 2450 4666 
L 2450 531 
L 3481 531 
L 3481 0 
L 794 0 
L 794 531 
z
" id="DejaVuSans-31" transform="scale(0.015625)"/>
      </defs>
      <use xlink:href="#DejaVuSans-31"/>
     </g>
    </g>
   </g>
   <g id="text_2">
    <g clip-path="url(#p5f8689313e)">
     <!-- 0 -->
     <g transform="translate(340.901948 561.255744)scale(0.12 -0.12)">
      <defs>
       <path d="M 2034 4250 
Q 1547 4250 1301 3770 
Q 1056 3291 1056 2328 
Q 1056 1369 1301 889 
Q 1547 409 2034 409 
Q 2525 409 2770 889 
Q 3016 1369 3016 2328 
Q 3016 3291 2770 3770 
Q 2525 4250 2034 4250 
z
M 2034 4750 
Q 2819 4750 3233 4129 
Q 3647 3509 3647 2328 
Q 3647 1150 3233 529 
Q 2819 -91 2034 -91 
Q 1250 -91 836 529 
Q 422 1150 422 2328 
Q 422 3509 836 4129 
Q 1250 4750 2034 4750 
z
" id="DejaVuSans-30" transform="scale(0.015625)"/>
      </defs>
      <use xlink:href="#DejaVuSans-30"/>
     </g>
    </g>
   </g>
   <g id="text_3">
    <g clip-path="url(#p5f8689313e)">
     <!-- 3 -->
     <g transform="translate(276.225761 589.684398)scale(0.12 -0.12)">
      <defs>
       <path d="M 2597 2516 
Q 3050 2419 3304 2112 
Q 3559 1806 3559 1356 
Q 3559 666 3084 287 
Q 2609 -91 1734 -91 
Q 1441 -91 1130 -33 
Q 819 25 488 141 
L 488 750 
Q 750 597 1062 519 
Q 1375 441 1716 441 
Q 2309 441 2620 675 
Q 2931 909 2931 1356 
Q 2931 1769 2642 2001 
Q 2353 2234 1838 2234 
L 1294 2234 
L 1294 2753 
L 1863 2753 
Q 2328 2753 2575 2939 
Q 2822 3125 2822 3475 
Q 2822 3834 2567 4026 
Q 2313 4219 1838 4219 
Q 1578 4219 1281 4162 
Q 984 4106 628 3988 
L 628 4550 
Q 988 4650 1302 4700 
Q 1616 4750 1894 4750 
Q 2613 4750 3031 4423 
Q 3450 4097 3450 3541 
Q 3450 3153 3228 2886 
Q 3006 2619 2597 2516 
z
" id="DejaVuSans-33" transform="scale(0.015625)"/>
      </defs>
      <use xlink:href="#DejaVuSans-33"/>
     </g>
    </g>
   </g>
   <g id="text_4">
    <g clip-path="url(#p5f8689313e)">
     <!-- 6 -->
     <g transform="translate(296.851764 501.671739)scale(0.12 -0.12)">
      <defs>
       <path d="M 2113 2584 
Q 1688 2584 1439 2293 
Q 1191 2003 1191 1497 
Q 1191 994 1439 701 
Q 1688 409 2113 409 
Q 2538 409 2786 701 
Q 3034 994 3034 1497 
Q 3034 2003 2786 2293 
Q 2538 2584 2113 2584 
z
M 3366 4563 
L 3366 3988 
Q 3128 4100 2886 4159 
Q 2644 4219 2406 4219 
Q 1781 4219 1451 3797 
Q 1122 3375 1075 2522 
Q 1259 2794 1537 2939 
Q 1816 3084 2150 3084 
Q 2853 3084 3261 2657 
Q 3669 2231 3669 1497 
Q 3669 778 3244 343 
Q 2819 -91 2113 -91 
Q 1303 -91 875 529 
Q 447 1150 447 2328 
Q 447 3434 972 4092 
Q 1497 4750 2381 4750 
Q 2619 4750 2861 4703 
Q 3103 4656 3366 4563 
z
" id="DejaVuSans-36" transform="scale(0.015625)"/>
      </defs>
      <use xlink:href="#DejaVuSans-36"/>
     </g>
    </g>
   </g>
   <g id="text_5">
    <g clip-path="url(#p5f8689313e)">
     <!-- 2 -->
     <g transform="translate(273.025475 541.646814)scale(0.12 -0.12)">
      <defs>
       <path d="M 1228 531 
L 3431 531 
L 3431 0 
L 469 0 
L 469 531 
Q 828 903 1448 1529 
Q 2069 2156 2228 2338 
Q 2531 2678 2651 2914 
Q 2772 3150 2772 3378 
Q 2772 3750 2511 3984 
Q 2250 4219 1831 4219 
Q 1534 4219 1204 4116 
Q 875 4013 500 3803 
L 500 4441 
Q 881 4594 1212 4672 
Q 1544 4750 1819 4750 
Q 2544 4750 2975 4387 
Q 3406 4025 3406 3419 
Q 3406 3131 3298 2873 
Q 3191 2616 2906 2266 
Q 2828 2175 2409 1742 
Q 1991 1309 1228 531 
z
" id="DejaVuSans-32" transform="scale(0.015625)"/>
      </defs>
      <use xlink:href="#DejaVuSans-32"/>
     </g>
    </g>
   </g>
   <g id="text_6">
    <g clip-path="url(#p5f8689313e)">
     <!-- 5 -->
     <g transform="translate(336.218052 629.708461)scale(0.12 -0.12)">
      <defs>
       <path d="M 691 4666 
L 3169 4666 
L 3169 4134 
L 1269 4134 
L 1269 2991 
Q 1406 3038 1543 3061 
Q 1681 3084 1819 3084 
Q 2600 3084 3056 2656 
Q 3513 2228 3513 1497 
Q 3513 744 3044 326 
Q 2575 -91 1722 -91 
Q 1428 -91 1123 -41 
Q 819 9 494 109 
L 494 744 
Q 775 591 1075 516 
Q 1375 441 1709 441 
Q 2250 441 2565 725 
Q 2881 1009 2881 1497 
Q 2881 1984 2565 2268 
Q 2250 2553 1709 2553 
Q 1456 2553 1204 2497 
Q 953 2441 691 2322 
L 691 4666 
z
" id="DejaVuSans-35" transform="scale(0.015625)"/>
      </defs>
      <use xlink:href="#DejaVuSans-35"/>
     </g>
    </g>
   </g>
   <g id="text_7">
    <g clip-path="url(#p5f8689313e)">
     <!-- 4 -->
     <g transform="translate(297.424476 628.913857)scale(0.12 -0.12)">
      <defs>
       <path d="M 2419 4116 
L 825 1625 
L 2419 1625 
L 2419 4116 
z
M 2253 4666 
L 3047 4666 
L 3047 1625 
L 3713 1625 
L 3713 1100 
L 3047 1100 
L 3047 0 
L 2419 0 
L 2419 1100 
L 313 1100 
L 313 1709 
L 2253 4666 
z
" id="DejaVuSans-34" transform="scale(0.015625)"/>
      </defs>
      <use xlink:href="#DejaVuSans-34"/>
     </g>
    </g>
   </g>
   <g id="text_8">
    <g clip-path="url(#p5f8689313e)">
     <!-- 7 -->
     <g transform="translate(489.95712 445.302302)scale(0.12 -0.12)">
      <defs>
       <path d="M 525 4666 
L 3525 4666 
L 3525 4397 
L 1831 0 
L 1172 0 
L 2766 4134 
L 525 4134 
L 525 4666 
z
" id="DejaVuSans-37" transform="scale(0.015625)"/>
      </defs>
      <use xlink:href="#DejaVuSans-37"/>
     </g>
    </g>
   </g>
   <g id="text_9">
    <g clip-path="url(#p5f8689313e)">
     <!-- 8 -->
     <g transform="translate(408.447076 470.087675)scale(0.12 -0.12)">
      <defs>
       <path d="M 2034 2216 
Q 1584 2216 1326 1975 
Q 1069 1734 1069 1313 
Q 1069 891 1326 650 
Q 1584 409 2034 409 
Q 2484 409 2743 651 
Q 3003 894 3003 1313 
Q 3003 1734 2745 1975 
Q 2488 2216 2034 2216 
z
M 1403 2484 
Q 997 2584 770 2862 
Q 544 3141 544 3541 
Q 544 4100 942 4425 
Q 1341 4750 2034 4750 
Q 2731 4750 3128 4425 
Q 3525 4100 3525 3541 
Q 3525 3141 3298 2862 
Q 3072 2584 2669 2484 
Q 3125 2378 3379 2068 
Q 3634 1759 3634 1313 
Q 3634 634 3220 271 
Q 2806 -91 2034 -91 
Q 1263 -91 848 271 
Q 434 634 434 1313 
Q 434 1759 690 2068 
Q 947 2378 1403 2484 
z
M 1172 3481 
Q 1172 3119 1398 2916 
Q 1625 2713 2034 2713 
Q 2441 2713 2670 2916 
Q 2900 3119 2900 3481 
Q 2900 3844 2670 4047 
Q 2441 4250 2034 4250 
Q 1625 4250 1398 4047 
Q 1172 3844 1172 3481 
z
" id="DejaVuSans-38" transform="scale(0.015625)"/>
      </defs>
      <use xlink:href="#DejaVuSans-38"/>
     </g>
    </g>
   </g>
   <g id="text_10">
    <g clip-path="url(#p5f8689313e)">
     <!-- 9 -->
     <g transform="translate(566.645372 396.22335)scale(0.12 -0.12)">
      <defs>
       <path d="M 703 97 
L 703 672 
Q 941 559 1184 500 
Q 1428 441 1663 441 
Q 2288 441 2617 861 
Q 2947 1281 2994 2138 
Q 2813 1869 2534 1725 
Q 2256 1581 1919 1581 
Q 1219 1581 811 2004 
Q 403 2428 403 3163 
Q 403 3881 828 4315 
Q 1253 4750 1959 4750 
Q 2769 4750 3195 4129 
Q 3622 3509 3622 2328 
Q 3622 1225 3098 567 
Q 2575 -91 1691 -91 
Q 1453 -91 1209 -44 
Q 966 3 703 97 
z
M 1959 2075 
Q 2384 2075 2632 2365 
Q 2881 2656 2881 3163 
Q 2881 3666 2632 3958 
Q 2384 4250 1959 4250 
Q 1534 4250 1286 3958 
Q 1038 3666 1038 3163 
Q 1038 2656 1286 2365 
Q 1534 2075 1959 2075 
z
" id="DejaVuSans-39" transform="scale(0.015625)"/>
      </defs>
      <use xlink:href="#DejaVuSans-39"/>
     </g>
    </g>
   </g>
   <g id="text_11">
    <g clip-path="url(#p5f8689313e)">
     <!-- 10 -->
     <g transform="translate(458.635353 378.605864)scale(0.12 -0.12)">
      <use xlink:href="#DejaVuSans-31"/>
      <use x="63.623047" xlink:href="#DejaVuSans-30"/>
     </g>
    </g>
   </g>
   <g id="text_12">
    <g clip-path="url(#p5f8689313e)">
     <!-- 11 -->
     <g transform="translate(641.757718 370.830458)scale(0.12 -0.12)">
      <use xlink:href="#DejaVuSans-31"/>
      <use x="63.623047" xlink:href="#DejaVuSans-31"/>
     </g>
    </g>
   </g>
   <g id="text_13">
    <g clip-path="url(#p5f8689313e)">
     <!-- 12 -->
     <g transform="translate(554.48832 322.551731)scale(0.12 -0.12)">
      <use xlink:href="#DejaVuSans-31"/>
      <use x="63.623047" xlink:href="#DejaVuSans-32"/>
     </g>
    </g>
   </g>
   <g id="text_14">
    <g clip-path="url(#p5f8689313e)">
     <!-- 13 -->
     <g transform="translate(750.563788 350.209519)scale(0.12 -0.12)">
      <use xlink:href="#DejaVuSans-31"/>
      <use x="63.623047" xlink:href="#DejaVuSans-33"/>
     </g>
    </g>
   </g>
   <g id="text_15">
    <g clip-path="url(#p5f8689313e)">
     <!-- 14 -->
     <g transform="translate(859.247811 347.239757)scale(0.12 -0.12)">
      <use xlink:href="#DejaVuSans-31"/>
      <use x="63.623047" xlink:href="#DejaVuSans-34"/>
     </g>
    </g>
   </g>
   <g id="text_16">
    <g clip-path="url(#p5f8689313e)">
     <!-- 15 -->
     <g transform="translate(929.707638 386.537818)scale(0.12 -0.12)">
      <use xlink:href="#DejaVuSans-31"/>
      <use x="63.623047" xlink:href="#DejaVuSans-35"/>
     </g>
    </g>
   </g>
   <g id="text_17">
    <g clip-path="url(#p5f8689313e)">
     <!-- 16 -->
     <g transform="translate(869.559386 272.329432)scale(0.12 -0.12)">
      <use xlink:href="#DejaVuSans-31"/>
      <use x="63.623047" xlink:href="#DejaVuSans-36"/>
     </g>
    </g>
   </g>
   <g id="text_18">
    <g clip-path="url(#p5f8689313e)">
     <!-- 17 -->
     <g transform="translate(995.652401 438.076432)scale(0.12 -0.12)">
      <use xlink:href="#DejaVuSans-31"/>
      <use x="63.623047" xlink:href="#DejaVuSans-37"/>
     </g>
    </g>
   </g>
   <g id="text_19">
    <g clip-path="url(#p5f8689313e)">
     <!-- 18 -->
     <g transform="translate(1082.544688 527.939966)scale(0.12 -0.12)">
      <use xlink:href="#DejaVuSans-31"/>
      <use x="63.623047" xlink:href="#DejaVuSans-38"/>
     </g>
    </g>
   </g>
   <g id="text_20">
    <g clip-path="url(#p5f8689313e)">
     <!-- 19 -->
     <g transform="translate(1121.673731 624.832176)scale(0.12 -0.12)">
      <use xlink:href="#DejaVuSans-31"/>
      <use x="63.623047" xlink:href="#DejaVuSans-39"/>
     </g>
    </g>
   </g>
   <g id="text_21">
    <g clip-path="url(#p5f8689313e)">
     <!-- 20 -->
     <g transform="translate(1131.721928 473.024696)scale(0.12 -0.12)">
      <use xlink:href="#DejaVuSans-32"/>
      <use x="63.623047" xlink:href="#DejaVuSans-30"/>
     </g>
    </g>
   </g>
   <g id="text_22">
    <g clip-path="url(#p5f8689313e)">
     <!-- 21 -->
     <g transform="translate(1068.197933 475.330838)scale(0.12 -0.12)">
      <use xlink:href="#DejaVuSans-32"/>
      <use x="63.623047" xlink:href="#DejaVuSans-31"/>
     </g>
    </g>
   </g>
   <g id="text_23">
    <g clip-path="url(#p5f8689313e)">
     <!-- 22 -->
     <g transform="translate(1094.051177 723.272986)scale(0.12 -0.12)">
      <use xlink:href="#DejaVuSans-32"/>
      <use x="63.623047" xlink:href="#DejaVuSans-32"/>
     </g>
    </g>
   </g>
   <g id="text_24">
    <g clip-path="url(#p5f8689313e)">
     <!-- 23 -->
     <g transform="translate(1175.493344 581.759005)scale(0.12 -0.12)">
      <use xlink:href="#DejaVuSans-32"/>
      <use x="63.623047" xlink:href="#DejaVuSans-33"/>
     </g>
    </g>
   </g>
   <g id="text_25">
    <g clip-path="url(#p5f8689313e)">
     <!-- 25 -->
     <g transform="translate(1191.522025 626.58186)scale(0.12 -0.12)">
      <use xlink:href="#DejaVuSans-32"/>
      <use x="63.623047" xlink:href="#DejaVuSans-35"/>
     </g>
    </g>
   </g>
   <g id="text_26">
    <g clip-path="url(#p5f8689313e)">
     <!-- 24 -->
     <g transform="translate(1171.727067 669.708453)scale(0.12 -0.12)">
      <use xlink:href="#DejaVuSans-32"/>
      <use x="63.623047" xlink:href="#DejaVuSans-34"/>
     </g>
    </g>
   </g>
   <g id="text_27">
    <g clip-path="url(#p5f8689313e)">
     <!-- 26 -->
     <g transform="translate(1050.016328 853.586283)scale(0.12 -0.12)">
      <use xlink:href="#DejaVuSans-32"/>
      <use x="63.623047" xlink:href="#DejaVuSans-36"/>
     </g>
    </g>
   </g>
   <g id="text_28">
    <g clip-path="url(#p5f8689313e)">
     <!-- 27 -->
     <g transform="translate(998.341791 976.922545)scale(0.12 -0.12)">
      <use xlink:href="#DejaVuSans-32"/>
      <use x="63.623047" xlink:href="#DejaVuSans-37"/>
     </g>
    </g>
   </g>
   <g id="text_29">
    <g clip-path="url(#p5f8689313e)">
     <!-- 28 -->
     <g transform="translate(937.510573 1095.148416)scale(0.12 -0.12)">
      <use xlink:href="#DejaVuSans-32"/>
      <use x="63.623047" xlink:href="#DejaVuSans-38"/>
     </g>
    </g>
   </g>
   <g id="text_30">
    <g clip-path="url(#p5f8689313e)">
     <!-- 29 -->
     <g transform="translate(859.549831 1106.379061)scale(0.12 -0.12)">
      <use xlink:href="#DejaVuSans-32"/>
      <use x="63.623047" xlink:href="#DejaVuSans-39"/>
     </g>
    </g>
   </g>
   <g id="text_31">
    <g clip-path="url(#p5f8689313e)">
     <!-- 30 -->
     <g transform="translate(972.863405 1168.280688)scale(0.12 -0.12)">
      <use xlink:href="#DejaVuSans-33"/>
      <use x="63.623047" xlink:href="#DejaVuSans-30"/>
     </g>
    </g>
   </g>
   <g id="text_32">
    <g clip-path="url(#p5f8689313e)">
     <!-- 31 -->
     <g transform="translate(931.484778 1171.944162)scale(0.12 -0.12)">
      <use xlink:href="#DejaVuSans-33"/>
      <use x="63.623047" xlink:href="#DejaVuSans-31"/>
     </g>
    </g>
   </g>
   <g id="text_33">
    <g clip-path="url(#p5f8689313e)">
     <!-- 32 -->
     <g transform="translate(994.123114 1123.043494)scale(0.12 -0.12)">
      <use xlink:href="#DejaVuSans-33"/>
      <use x="63.623047" xlink:href="#DejaVuSans-32"/>
     </g>
    </g>
   </g>
   <g id="text_34">
    <g clip-path="url(#p5f8689313e)">
     <!-- 33 -->
     <g transform="translate(784.936097 1112.68701)scale(0.12 -0.12)">
      <use xlink:href="#DejaVuSans-33"/>
      <use x="63.623047" xlink:href="#DejaVuSans-33"/>
     </g>
    </g>
   </g>
   <g id="text_35">
    <g clip-path="url(#p5f8689313e)">
     <!-- 34 -->
     <g transform="translate(683.970148 1111.303855)scale(0.12 -0.12)">
      <use xlink:href="#DejaVuSans-33"/>
      <use x="63.623047" xlink:href="#DejaVuSans-34"/>
     </g>
    </g>
   </g>
   <g id="text_36">
    <g clip-path="url(#p5f8689313e)">
     <!-- 35 -->
     <g transform="translate(645.431148 1049.589264)scale(0.12 -0.12)">
      <use xlink:href="#DejaVuSans-33"/>
      <use x="63.623047" xlink:href="#DejaVuSans-35"/>
     </g>
    </g>
   </g>
   <g id="text_37">
    <g clip-path="url(#p5f8689313e)">
     <!-- 37 -->
     <g transform="translate(666.875316 1188.693068)scale(0.12 -0.12)">
      <use xlink:href="#DejaVuSans-33"/>
      <use x="63.623047" xlink:href="#DejaVuSans-37"/>
     </g>
    </g>
   </g>
   <g id="text_38">
    <g clip-path="url(#p5f8689313e)">
     <!-- 36 -->
     <g transform="translate(626.405305 1143.349727)scale(0.12 -0.12)">
      <use xlink:href="#DejaVuSans-33"/>
      <use x="63.623047" xlink:href="#DejaVuSans-36"/>
     </g>
    </g>
   </g>
   <g id="text_39">
    <g clip-path="url(#p5f8689313e)">
     <!-- 38 -->
     <g transform="translate(615.364615 995.853671)scale(0.12 -0.12)">
      <use xlink:href="#DejaVuSans-33"/>
      <use x="63.623047" xlink:href="#DejaVuSans-38"/>
     </g>
    </g>
   </g>
   <g id="text_40">
    <g clip-path="url(#p5f8689313e)">
     <!-- 39 -->
     <g transform="translate(648.090645 1006.271679)scale(0.12 -0.12)">
      <use xlink:href="#DejaVuSans-33"/>
      <use x="63.623047" xlink:href="#DejaVuSans-39"/>
     </g>
    </g>
   </g>
  </g>
 </g>
 <defs>
  <clipPath id="p5f8689313e">
   <rect height="1108.8" width="1116" x="180" y="172.8"/>
  </clipPath>
 </defs>
</svg>
