<?xml version="1.0" encoding="utf-8" standalone="no"?>
<!DOCTYPE svg PUBLIC "-//W3C//DTD SVG 1.1//EN"
  "http://www.w3.org/Graphics/SVG/1.1/DTD/svg11.dtd">
<svg height="1440pt" version="1.1" viewBox="0 0 1440 1440" width="1440pt" xmlns="http://www.w3.org/2000/svg" xmlns:xlink="http://www.w3.org/1999/xlink">
 <metadata>
  <rdf:RDF xmlns:cc="http://creativecommons.org/ns#" xmlns:dc="http://purl.org/dc/elements/1.1/" xmlns:rdf="http://www.w3.org/1999/02/22-rdf-syntax-ns#">
   <cc:Work>
    <dc:type rdf:resource="http://purl.org/dc/dcmitype/StillImage"/>
    <dc:date>2021-10-17T05:44:24.973011</dc:date>
    <dc:format>image/svg+xml</dc:format>
    <dc:creator>
     <cc:Agent>
      <dc:title>Matplotlib v3.4.3, https://matplotlib.org/</dc:title>
     </cc:Agent>
    </dc:creator>
   </cc:Work>
  </rdf:RDF>
 </metadata>
 <defs>
  <style type="text/css">*{stroke-linecap:butt;stroke-linejoin:round;}</style>
 </defs>
 <g id="figure_1">
  <g id="patch_1">
   <path d="M 0 1440 
L 1440 1440 
L 1440 0 
L 0 0 
z
" style="fill:#ffffff;"/>
  </g>
  <g id="axes_1">
   <g id="patch_2">
    <path clip-path="url(#p8273be2a43)" d="M 1063.021675 480.283202 
Q 1092.31043 433.996065 1120.403543 389.598488 
" style="fill:none;stroke:#ff0000;stroke-linecap:round;stroke-width:2;"/>
    <path clip-path="url(#p8273be2a43)" d="M 1116.574638 391.909221 
L 1120.403543 389.598488 
L 1119.954786 394.048052 
L 1116.574638 391.909221 
z
" style="fill:#ff0000;stroke:#ff0000;stroke-linecap:round;stroke-width:2;"/>
   </g>
   <g id="patch_3">
    <path clip-path="url(#p8273be2a43)" d="M 1053.142606 494.492317 
Q 1020.695981 537.092345 989.604231 577.913522 
" style="fill:none;stroke:#ff0000;stroke-linecap:round;stroke-width:2;"/>
    <path clip-path="url(#p8273be2a43)" d="M 993.618959 575.943253 
L 989.604231 577.913522 
L 990.436853 573.519579 
L 993.618959 575.943253 
z
" style="fill:#ff0000;stroke:#ff0000;stroke-linecap:round;stroke-width:2;"/>
   </g>
   <g id="patch_4">
    <path clip-path="url(#p8273be2a43)" d="M 1065.565813 492.446615 
Q 1085.489503 505.897302 1104.48656 518.722409 
" style="fill:none;stroke:#000000;stroke-linecap:round;"/>
    <path clip-path="url(#p8273be2a43)" d="M 1102.290406 514.826654 
L 1104.48656 518.722409 
L 1100.052263 518.141879 
L 1102.290406 514.826654 
z
" style="stroke:#000000;stroke-linecap:round;"/>
   </g>
   <g id="patch_5">
    <path clip-path="url(#p8273be2a43)" d="M 1131.461986 373.484184 
Q 1156.336703 340.64987 1180.536283 308.706729 
" style="fill:none;stroke:#000000;stroke-linecap:round;"/>
    <path clip-path="url(#p8273be2a43)" d="M 1176.526659 310.687364 
L 1180.536283 308.706729 
L 1179.715017 313.102809 
L 1176.526659 310.687364 
z
" style="stroke:#000000;stroke-linecap:round;"/>
   </g>
   <g id="patch_6">
    <path clip-path="url(#p8273be2a43)" d="M 1125.40859 371.768627 
Q 1121.012016 325.664097 1116.721577 280.672552 
" style="fill:none;stroke:#000000;stroke-linecap:round;"/>
    <path clip-path="url(#p8273be2a43)" d="M 1115.11033 284.844349 
L 1116.721577 280.672552 
L 1119.092266 284.464627 
L 1115.11033 284.844349 
z
" style="stroke:#000000;stroke-linecap:round;"/>
   </g>
   <g id="patch_7">
    <path clip-path="url(#p8273be2a43)" d="M 1134.647655 378.339946 
Q 1162.695293 371.510473 1189.656636 364.945507 
" style="fill:none;stroke:#000000;stroke-linecap:round;"/>
    <path clip-path="url(#p8273be2a43)" d="M 1185.297025 363.948616 
L 1189.656636 364.945507 
L 1186.243357 367.835062 
L 1185.297025 363.948616 
z
" style="stroke:#000000;stroke-linecap:round;"/>
   </g>
   <g id="patch_8">
    <path clip-path="url(#p8273be2a43)" d="M 1128.189305 371.950268 
Q 1139.155184 324.701337 1149.868299 278.541493 
" style="fill:none;stroke:#000000;stroke-linecap:round;"/>
    <path clip-path="url(#p8273be2a43)" d="M 1147.015767 281.985773 
L 1149.868299 278.541493 
L 1150.912204 282.890086 
L 1147.015767 281.985773 
z
" style="stroke:#000000;stroke-linecap:round;"/>
   </g>
   <g id="patch_9">
    <path clip-path="url(#p8273be2a43)" d="M 1132.949191 385.847156 
Q 1154.23954 403.142156 1174.6621 419.732215 
" style="fill:none;stroke:#000000;stroke-linecap:round;"/>
    <path clip-path="url(#p8273be2a43)" d="M 1172.818436 415.657794 
L 1174.6621 419.732215 
L 1170.296365 418.762494 
L 1172.818436 415.657794 
z
" style="stroke:#000000;stroke-linecap:round;"/>
   </g>
   <g id="patch_10">
    <path clip-path="url(#p8273be2a43)" d="M 977.200926 593.008361 
Q 943.178891 630.70016 910.655124 666.732082 
" style="fill:none;stroke:#ff0000;stroke-linecap:round;stroke-width:2;"/>
    <path clip-path="url(#p8273be2a43)" d="M 914.819946 665.102895 
L 910.655124 666.732082 
L 911.850667 662.422712 
L 914.819946 665.102895 
z
" style="fill:#ff0000;stroke:#ff0000;stroke-linecap:round;stroke-width:2;"/>
   </g>
   <g id="patch_11">
    <path clip-path="url(#p8273be2a43)" d="M 989.309431 592.521395 
Q 1007.997369 610.126364 1025.871509 626.964695 
" style="fill:none;stroke:#000000;stroke-linecap:round;"/>
    <path clip-path="url(#p8273be2a43)" d="M 1024.331382 622.766123 
L 1025.871509 626.964695 
L 1021.588575 625.677653 
L 1024.331382 622.766123 
z
" style="stroke:#000000;stroke-linecap:round;"/>
   </g>
   <g id="patch_12">
    <path clip-path="url(#p8273be2a43)" d="M 901.230982 683.218297 
Q 888.238989 734.61244 875.795015 783.838709 
" style="fill:none;stroke:#ff0000;stroke-linecap:round;stroke-width:2;"/>
    <path clip-path="url(#p8273be2a43)" d="M 878.714347 780.450863 
L 875.795015 783.838709 
L 874.836337 779.470536 
L 878.714347 780.450863 
z
" style="fill:#ff0000;stroke:#ff0000;stroke-linecap:round;stroke-width:2;"/>
   </g>
   <g id="patch_13">
    <path clip-path="url(#p8273be2a43)" d="M 895.11248 672.156019 
Q 867.309152 663.165158 840.56962 654.5183 
" style="fill:none;stroke:#000000;stroke-linecap:round;"/>
    <path clip-path="url(#p8273be2a43)" d="M 843.7602 657.65202 
L 840.56962 654.5183 
L 844.990944 653.846068 
L 843.7602 657.65202 
z
" style="stroke:#000000;stroke-linecap:round;"/>
   </g>
   <g id="patch_14">
    <path clip-path="url(#p8273be2a43)" d="M 872.933643 803.060437 
Q 871.453173 870.361972 869.99729 936.545744 
" style="fill:none;stroke:#000000;stroke-linecap:round;"/>
    <path clip-path="url(#p8273be2a43)" d="M 872.084776 932.590695 
L 869.99729 936.545744 
L 868.085743 932.502726 
L 872.084776 932.590695 
z
" style="stroke:#000000;stroke-linecap:round;"/>
   </g>
   <g id="patch_15">
    <path clip-path="url(#p8273be2a43)" d="M 870.005423 954.983731 
Q 871.367653 1007.821906 872.701069 1059.542419 
" style="fill:none;stroke:#000000;stroke-linecap:round;"/>
    <path clip-path="url(#p8273be2a43)" d="M 874.597314 1055.492202 
L 872.701069 1059.542419 
L 870.598643 1055.595293 
L 874.597314 1055.492202 
z
" style="stroke:#000000;stroke-linecap:round;"/>
   </g>
   <g id="patch_16">
    <path clip-path="url(#p8273be2a43)" d="M 869.390895 1061.420055 
Q 856.343536 1032.496537 844.215641 1005.611298 
" style="fill:none;stroke:#ff0000;stroke-linecap:round;stroke-width:2;"/>
    <path clip-path="url(#p8273be2a43)" d="M 844.037337 1010.079878 
L 844.215641 1005.611298 
L 847.683523 1008.435089 
L 844.037337 1010.079878 
z
" style="fill:#ff0000;stroke:#ff0000;stroke-linecap:round;stroke-width:2;"/>
   </g>
   <g id="patch_17">
    <path clip-path="url(#p8273be2a43)" d="M 874.863423 1077.764434 
Q 886.076938 1127.351259 897.043849 1175.847585 
" style="fill:none;stroke:#000000;stroke-linecap:round;"/>
    <path clip-path="url(#p8273be2a43)" d="M 898.112314 1171.504961 
L 897.043849 1175.847585 
L 894.210828 1172.387239 
L 898.112314 1171.504961 
z
" style="stroke:#000000;stroke-linecap:round;"/>
   </g>
   <g id="patch_18">
    <path clip-path="url(#p8273be2a43)" d="M 837.266045 987.378175 
Q 823.424861 940.851276 810.221265 896.467617 
" style="fill:none;stroke:#ff0000;stroke-linecap:round;stroke-width:2;"/>
    <path clip-path="url(#p8273be2a43)" d="M 809.444844 900.871839 
L 810.221265 896.467617 
L 813.27879 899.731287 
L 809.444844 900.871839 
z
" style="fill:#ff0000;stroke:#ff0000;stroke-linecap:round;stroke-width:2;"/>
   </g>
   <g id="patch_19">
    <path clip-path="url(#p8273be2a43)" d="M 804.787793 877.683699 
Q 782.006063 796.018684 759.524756 715.430583 
" style="fill:none;stroke:#000000;stroke-linecap:round;"/>
    <path clip-path="url(#p8273be2a43)" d="M 758.673135 719.820884 
L 759.524756 715.430583 
L 762.526024 718.746061 
L 758.673135 719.820884 
z
" style="stroke:#000000;stroke-linecap:round;"/>
   </g>
   <g id="patch_20">
    <path clip-path="url(#p8273be2a43)" d="M 754.689925 697.634757 
Q 737.404746 632.034666 720.68931 568.596842 
" style="fill:none;stroke:#ff0000;stroke-linecap:round;stroke-width:2;"/>
    <path clip-path="url(#p8273be2a43)" d="M 719.774506 572.974414 
L 720.68931 568.596842 
L 723.642485 571.955228 
L 719.774506 572.974414 
z
" style="fill:#ff0000;stroke:#ff0000;stroke-linecap:round;stroke-width:2;"/>
   </g>
   <g id="patch_21">
    <path clip-path="url(#p8273be2a43)" d="M 764.286575 710.527473 
Q 784.103756 722.640823 802.967 734.171075 
" style="fill:none;stroke:#000000;stroke-linecap:round;"/>
    <path clip-path="url(#p8273be2a43)" d="M 800.59717 730.378463 
L 802.967 734.171075 
L 798.511013 733.791372 
L 800.59717 730.378463 
z
" style="stroke:#000000;stroke-linecap:round;"/>
   </g>
   <g id="patch_22">
    <path clip-path="url(#p8273be2a43)" d="M 753.664581 714.044495 
Q 740.804962 746.007701 728.36265 776.933673 
" style="fill:none;stroke:#000000;stroke-linecap:round;"/>
    <path clip-path="url(#p8273be2a43)" d="M 731.711111 773.96925 
L 728.36265 776.933673 
L 728.000188 772.47625 
L 731.711111 773.96925 
z
" style="stroke:#000000;stroke-linecap:round;"/>
   </g>
   <g id="patch_23">
    <path clip-path="url(#p8273be2a43)" d="M 711.242832 552.531311 
Q 682.789312 528.960401 656.057756 506.815969 
" style="fill:none;stroke:#ff0000;stroke-linecap:round;stroke-width:2;"/>
    <path clip-path="url(#p8273be2a43)" d="M 657.862222 510.9079 
L 656.057756 506.815969 
L 660.413981 507.827556 
L 657.862222 510.9079 
z
" style="fill:#ff0000;stroke:#ff0000;stroke-linecap:round;stroke-width:2;"/>
   </g>
   <g id="patch_24">
    <path clip-path="url(#p8273be2a43)" d="M 721.963561 550.399878 
Q 737.912312 520.263372 753.338098 491.11505 
" style="fill:none;stroke:#000000;stroke-linecap:round;"/>
    <path clip-path="url(#p8273be2a43)" d="M 749.699366 493.71498 
L 753.338098 491.11505 
L 753.234803 495.585993 
L 749.699366 493.71498 
z
" style="stroke:#000000;stroke-linecap:round;"/>
   </g>
   <g id="patch_25">
    <path clip-path="url(#p8273be2a43)" d="M 718.624458 549.427374 
Q 722.990232 496.564803 727.263984 444.816473 
" style="fill:none;stroke:#000000;stroke-linecap:round;"/>
    <path clip-path="url(#p8273be2a43)" d="M 724.941541 448.638287 
L 727.263984 444.816473 
L 728.92797 448.967516 
L 724.941541 448.638287 
z
" style="stroke:#000000;stroke-linecap:round;"/>
   </g>
   <g id="patch_26">
    <path clip-path="url(#p8273be2a43)" d="M 715.629031 549.701345 
Q 705.620948 513.074116 695.907556 477.525385 
" style="fill:none;stroke:#000000;stroke-linecap:round;"/>
    <path clip-path="url(#p8273be2a43)" d="M 695.032597 481.911095 
L 695.907556 477.525385 
L 698.891148 480.856778 
L 695.032597 481.911095 
z
" style="stroke:#000000;stroke-linecap:round;"/>
   </g>
   <g id="patch_27">
    <path clip-path="url(#p8273be2a43)" d="M 640.639586 494.805952 
Q 601.66621 466.748336 563.600191 439.343943 
" style="fill:none;stroke:#000000;stroke-linecap:round;"/>
    <path clip-path="url(#p8273be2a43)" d="M 565.677934 443.304117 
L 563.600191 439.343943 
L 568.014977 440.057853 
L 565.677934 443.304117 
z
" style="stroke:#000000;stroke-linecap:round;"/>
   </g>
   <g id="patch_28">
    <path clip-path="url(#p8273be2a43)" d="M 547.364947 431.15751 
Q 509.059079 419.745879 471.824708 408.653456 
" style="fill:none;stroke:#000000;stroke-linecap:round;"/>
    <path clip-path="url(#p8273be2a43)" d="M 475.087197 411.712241 
L 471.824708 408.653456 
L 476.22923 407.878736 
L 475.087197 411.712241 
z
" style="stroke:#000000;stroke-linecap:round;"/>
   </g>
   <g id="patch_29">
    <path clip-path="url(#p8273be2a43)" d="M 453.895015 407.19634 
Q 416.220518 413.071882 379.650702 418.775144 
" style="fill:none;stroke:#000000;stroke-linecap:round;"/>
    <path clip-path="url(#p8273be2a43)" d="M 383.911113 420.134886 
L 379.650702 418.775144 
L 383.294742 416.18266 
L 383.911113 420.134886 
z
" style="stroke:#000000;stroke-linecap:round;"/>
   </g>
   <g id="patch_30">
    <path clip-path="url(#p8273be2a43)" d="M 369.414895 428.925228 
Q 365.534778 487.11474 361.803433 543.073138 
" style="fill:none;stroke:#ff0000;stroke-linecap:round;stroke-width:2;"/>
    <path clip-path="url(#p8273be2a43)" d="M 364.065133 539.215067 
L 361.803433 543.073138 
L 360.073996 538.948935 
L 364.065133 539.215067 
z
" style="fill:#ff0000;stroke:#ff0000;stroke-linecap:round;stroke-width:2;"/>
   </g>
   <g id="patch_31">
    <path clip-path="url(#p8273be2a43)" d="M 361.833855 417.365301 
Q 337.721163 408.744974 314.661251 400.501017 
" style="fill:none;stroke:#000000;stroke-linecap:round;"/>
    <path clip-path="url(#p8273be2a43)" d="M 317.754518 403.73083 
L 314.661251 400.501017 
L 319.101062 399.964291 
L 317.754518 403.73083 
z
" style="stroke:#000000;stroke-linecap:round;"/>
   </g>
   <g id="patch_32">
    <path clip-path="url(#p8273be2a43)" d="M 365.820972 412.691665 
Q 345.279671 375.306503 325.276759 338.901207 
" style="fill:none;stroke:#000000;stroke-linecap:round;"/>
    <path clip-path="url(#p8273be2a43)" d="M 325.450117 343.369981 
L 325.276759 338.901207 
L 328.955794 341.443785 
L 325.450117 343.369981 
z
" style="stroke:#000000;stroke-linecap:round;"/>
   </g>
   <g id="patch_33">
    <path clip-path="url(#p8273be2a43)" d="M 369.145718 411.664211 
Q 364.362134 362.912049 359.687728 315.272576 
" style="fill:none;stroke:#000000;stroke-linecap:round;"/>
    <path clip-path="url(#p8273be2a43)" d="M 358.087892 319.448762 
L 359.687728 315.272576 
L 362.068775 319.058156 
L 358.087892 319.448762 
z
" style="stroke:#000000;stroke-linecap:round;"/>
   </g>
   <g id="patch_34">
    <path clip-path="url(#p8273be2a43)" d="M 360.562554 562.59207 
Q 356.961362 622.948697 353.493348 681.073224 
" style="fill:none;stroke:#ff0000;stroke-linecap:round;stroke-width:2;"/>
    <path clip-path="url(#p8273be2a43)" d="M 355.728035 677.199444 
L 353.493348 681.073224 
L 351.735136 676.961207 
L 355.728035 677.199444 
z
" style="fill:#ff0000;stroke:#ff0000;stroke-linecap:round;stroke-width:2;"/>
   </g>
   <g id="patch_35">
    <path clip-path="url(#p8273be2a43)" d="M 352.325156 700.594086 
Q 346.911848 790.715051 341.565576 879.719993 
" style="fill:none;stroke:#000000;stroke-linecap:round;"/>
    <path clip-path="url(#p8273be2a43)" d="M 343.801814 875.847108 
L 341.565576 879.719993 
L 339.809011 875.607272 
L 343.801814 875.847108 
z
" style="stroke:#000000;stroke-linecap:round;"/>
   </g>
   <g id="patch_36">
    <path clip-path="url(#p8273be2a43)" d="M 342.826433 897.940735 
Q 354.804529 952.809711 366.305714 1005.494067 
" style="fill:none;stroke:#ff0000;stroke-linecap:round;stroke-width:2;"/>
    <path clip-path="url(#p8273be2a43)" d="M 367.406574 1001.159542 
L 366.305714 1005.494067 
L 363.49861 1002.012665 
L 367.406574 1001.159542 
z
" style="fill:#ff0000;stroke:#ff0000;stroke-linecap:round;stroke-width:2;"/>
   </g>
   <g id="patch_37">
    <path clip-path="url(#p8273be2a43)" d="M 335.268233 895.993135 
Q 313.943768 920.313637 293.356395 943.793487 
" style="fill:none;stroke:#000000;stroke-linecap:round;"/>
    <path clip-path="url(#p8273be2a43)" d="M 297.497299 942.104431 
L 293.356395 943.793487 
L 294.489692 939.46733 
L 297.497299 942.104431 
z
" style="stroke:#000000;stroke-linecap:round;"/>
   </g>
   <g id="patch_38">
    <path clip-path="url(#p8273be2a43)" d="M 332.441659 888.030985 
Q 308.913004 884.038729 286.486629 880.233504 
" style="fill:none;stroke:#000000;stroke-linecap:round;"/>
    <path clip-path="url(#p8273be2a43)" d="M 290.095693 882.874462 
L 286.486629 880.233504 
L 290.764834 878.930828 
L 290.095693 882.874462 
z
" style="stroke:#000000;stroke-linecap:round;"/>
   </g>
   <g id="patch_39">
    <path clip-path="url(#p8273be2a43)" d="M 371.911812 1024.151345 
Q 387.117312 1061.273212 401.475243 1096.32587 
" style="fill:none;stroke:#ff0000;stroke-linecap:round;stroke-width:2;"/>
    <path clip-path="url(#p8273be2a43)" d="M 401.809821 1091.866267 
L 401.475243 1096.32587 
L 398.108308 1093.382446 
L 401.809821 1091.866267 
z
" style="fill:#ff0000;stroke:#ff0000;stroke-linecap:round;stroke-width:2;"/>
   </g>
   <g id="patch_40">
    <path clip-path="url(#p8273be2a43)" d="M 365.061635 1024.025212 
Q 347.82127 1062.144318 331.041634 1099.244734 
" style="fill:none;stroke:#000000;stroke-linecap:round;"/>
    <path clip-path="url(#p8273be2a43)" d="M 334.512277 1096.424336 
L 331.041634 1099.244734 
L 330.867702 1094.775981 
L 334.512277 1096.424336 
z
" style="stroke:#000000;stroke-linecap:round;"/>
   </g>
   <g id="patch_41">
    <path clip-path="url(#p8273be2a43)" d="M 407.842765 1114.780414 
Q 412.440653 1131.985825 415.595298 1143.790583 
" style="fill:none;stroke:#0000ff;stroke-linecap:round;stroke-width:5;"/>
    <path clip-path="url(#p8273be2a43)" d="M 416.494793 1139.40984 
L 415.595298 1143.790583 
L 412.6304 1140.442541 
L 416.494793 1139.40984 
z
" style="fill:#0000ff;stroke:#0000ff;stroke-linecap:round;stroke-width:5;"/>
   </g>
   <g id="PathCollection_1">
    <defs>
     <path d="M 0 8.660254 
C 2.296726 8.660254 4.499694 7.747755 6.123724 6.123724 
C 7.747755 4.499694 8.660254 2.296726 8.660254 0 
C 8.660254 -2.296726 7.747755 -4.499694 6.123724 -6.123724 
C 4.499694 -7.747755 2.296726 -8.660254 0 -8.660254 
C -2.296726 -8.660254 -4.499694 -7.747755 -6.123724 -6.123724 
C -7.747755 -4.499694 -8.660254 -2.296726 -8.660254 0 
C -8.660254 2.296726 -7.747755 4.499694 -6.123724 6.123724 
C -4.499694 7.747755 -2.296726 8.660254 0 8.660254 
z
" id="m3d28195945" style="stroke:#1f78b4;"/>
    </defs>
    <g clip-path="url(#p8273be2a43)">
     <use style="fill:#1f78b4;stroke:#1f78b4;" x="1058.390364" xlink:href="#m3d28195945" y="487.602397"/>
     <use style="fill:#1f78b4;stroke:#1f78b4;" x="1126.23068" xlink:href="#m3d28195945" y="380.389442"/>
     <use style="fill:#1f78b4;stroke:#1f78b4;" x="1186.441227" xlink:href="#m3d28195945" y="300.912277"/>
     <use style="fill:#1f78b4;stroke:#1f78b4;" x="1115.79355" xlink:href="#m3d28195945" y="270.940834"/>
     <use style="fill:#1f78b4;stroke:#1f78b4;" x="1199.157025" xlink:href="#m3d28195945" y="362.632205"/>
     <use style="fill:#1f78b4;stroke:#1f78b4;" x="1152.078539" xlink:href="#m3d28195945" y="269.018182"/>
     <use style="fill:#1f78b4;stroke:#1f78b4;" x="1182.249041" xlink:href="#m3d28195945" y="425.895389"/>
     <use style="fill:#1f78b4;stroke:#1f78b4;" x="983.003014" xlink:href="#m3d28195945" y="586.580435"/>
     <use style="fill:#1f78b4;stroke:#1f78b4;" x="1112.591634" xlink:href="#m3d28195945" y="524.194228"/>
     <use style="fill:#1f78b4;stroke:#1f78b4;" x="903.35374" xlink:href="#m3d28195945" y="674.821025"/>
     <use style="fill:#1f78b4;stroke:#1f78b4;" x="1032.990602" xlink:href="#m3d28195945" y="633.671236"/>
     <use style="fill:#1f78b4;stroke:#1f78b4;" x="873.12405" xlink:href="#m3d28195945" y="794.404595"/>
     <use style="fill:#1f78b4;stroke:#1f78b4;" x="831.263616" xlink:href="#m3d28195945" y="651.508984"/>
     <use style="fill:#1f78b4;stroke:#1f78b4;" x="869.78218" xlink:href="#m3d28195945" y="946.324587"/>
     <use style="fill:#1f78b4;stroke:#1f78b4;" x="872.953062" xlink:href="#m3d28195945" y="1069.316701"/>
     <use style="fill:#1f78b4;stroke:#1f78b4;" x="839.735913" xlink:href="#m3d28195945" y="995.680592"/>
     <use style="fill:#1f78b4;stroke:#1f78b4;" x="899.199911" xlink:href="#m3d28195945" y="1185.381818"/>
     <use style="fill:#1f78b4;stroke:#1f78b4;" x="807.114945" xlink:href="#m3d28195945" y="886.025778"/>
     <use style="fill:#1f78b4;stroke:#1f78b4;" x="756.896872" xlink:href="#m3d28195945" y="706.01048"/>
     <use style="fill:#1f78b4;stroke:#1f78b4;" x="717.91185" xlink:href="#m3d28195945" y="558.055928"/>
     <use style="fill:#1f78b4;stroke:#1f78b4;" x="811.311659" xlink:href="#m3d28195945" y="739.27179"/>
     <use style="fill:#1f78b4;stroke:#1f78b4;" x="724.713431" xlink:href="#m3d28195945" y="786.003983"/>
     <use style="fill:#1f78b4;stroke:#1f78b4;" x="647.667437" xlink:href="#m3d28195945" y="499.865424"/>
     <use style="fill:#1f78b4;stroke:#1f78b4;" x="757.913802" xlink:href="#m3d28195945" y="482.468872"/>
     <use style="fill:#1f78b4;stroke:#1f78b4;" x="728.068767" xlink:href="#m3d28195945" y="435.071823"/>
     <use style="fill:#1f78b4;stroke:#1f78b4;" x="693.329717" xlink:href="#m3d28195945" y="468.091103"/>
     <use style="fill:#1f78b4;stroke:#1f78b4;" x="555.662402" xlink:href="#m3d28195945" y="433.62939"/>
     <use style="fill:#1f78b4;stroke:#1f78b4;" x="462.453282" xlink:href="#m3d28195945" y="405.861632"/>
     <use style="fill:#1f78b4;stroke:#1f78b4;" x="369.991259" xlink:href="#m3d28195945" y="420.281587"/>
     <use style="fill:#1f78b4;stroke:#1f78b4;" x="361.078425" xlink:href="#m3d28195945" y="553.945975"/>
     <use style="fill:#1f78b4;stroke:#1f78b4;" x="305.456781" xlink:href="#m3d28195945" y="397.210403"/>
     <use style="fill:#1f78b4;stroke:#1f78b4;" x="320.56921" xlink:href="#m3d28195945" y="330.333468"/>
     <use style="fill:#1f78b4;stroke:#1f78b4;" x="358.732958" xlink:href="#m3d28195945" y="305.541989"/>
     <use style="fill:#1f78b4;stroke:#1f78b4;" x="352.844587" xlink:href="#m3d28195945" y="691.94659"/>
     <use style="fill:#1f78b4;stroke:#1f78b4;" x="340.979343" xlink:href="#m3d28195945" y="889.479628"/>
     <use style="fill:#1f78b4;stroke:#1f78b4;" x="368.629164" xlink:href="#m3d28195945" y="1016.137269"/>
     <use style="fill:#1f78b4;stroke:#1f78b4;" x="286.907788" xlink:href="#m3d28195945" y="951.148108"/>
     <use style="fill:#1f78b4;stroke:#1f78b4;" x="276.842975" xlink:href="#m3d28195945" y="878.597204"/>
     <use style="fill:#1f78b4;stroke:#1f78b4;" x="405.606069" xlink:href="#m3d28195945" y="1106.410641"/>
     <use style="fill:#1f78b4;stroke:#1f78b4;" x="327.012652" xlink:href="#m3d28195945" y="1108.152968"/>
     <use style="fill:#1f78b4;stroke:#1f78b4;" x="419.274861" xlink:href="#m3d28195945" y="1157.5596"/>
    </g>
   </g>
   <g id="text_1">
    <g clip-path="url(#p8273be2a43)">
     <!-- 1 -->
     <g transform="translate(1054.572864 490.913647)scale(0.12 -0.12)">
      <defs>
       <path d="M 794 531 
L 1825 531 
L 1825 4091 
L 703 3866 
L 703 4441 
L 1819 4666 
L 2450 4666 
L 2450 531 
L 3481 531 
L 3481 0 
L 794 0 
L 794 531 
z
" id="DejaVuSans-31" transform="scale(0.015625)"/>
      </defs>
      <use xlink:href="#DejaVuSans-31"/>
     </g>
    </g>
   </g>
   <g id="text_2">
    <g clip-path="url(#p8273be2a43)">
     <!-- 0 -->
     <g transform="translate(1122.41318 383.700692)scale(0.12 -0.12)">
      <defs>
       <path d="M 2034 4250 
Q 1547 4250 1301 3770 
Q 1056 3291 1056 2328 
Q 1056 1369 1301 889 
Q 1547 409 2034 409 
Q 2525 409 2770 889 
Q 3016 1369 3016 2328 
Q 3016 3291 2770 3770 
Q 2525 4250 2034 4250 
z
M 2034 4750 
Q 2819 4750 3233 4129 
Q 3647 3509 3647 2328 
Q 3647 1150 3233 529 
Q 2819 -91 2034 -91 
Q 1250 -91 836 529 
Q 422 1150 422 2328 
Q 422 3509 836 4129 
Q 1250 4750 2034 4750 
z
" id="DejaVuSans-30" transform="scale(0.015625)"/>
      </defs>
      <use xlink:href="#DejaVuSans-30"/>
     </g>
    </g>
   </g>
   <g id="text_3">
    <g clip-path="url(#p8273be2a43)">
     <!-- 3 -->
     <g transform="translate(1182.623727 304.223527)scale(0.12 -0.12)">
      <defs>
       <path d="M 2597 2516 
Q 3050 2419 3304 2112 
Q 3559 1806 3559 1356 
Q 3559 666 3084 287 
Q 2609 -91 1734 -91 
Q 1441 -91 1130 -33 
Q 819 25 488 141 
L 488 750 
Q 750 597 1062 519 
Q 1375 441 1716 441 
Q 2309 441 2620 675 
Q 2931 909 2931 1356 
Q 2931 1769 2642 2001 
Q 2353 2234 1838 2234 
L 1294 2234 
L 1294 2753 
L 1863 2753 
Q 2328 2753 2575 2939 
Q 2822 3125 2822 3475 
Q 2822 3834 2567 4026 
Q 2313 4219 1838 4219 
Q 1578 4219 1281 4162 
Q 984 4106 628 3988 
L 628 4550 
Q 988 4650 1302 4700 
Q 1616 4750 1894 4750 
Q 2613 4750 3031 4423 
Q 3450 4097 3450 3541 
Q 3450 3153 3228 2886 
Q 3006 2619 2597 2516 
z
" id="DejaVuSans-33" transform="scale(0.015625)"/>
      </defs>
      <use xlink:href="#DejaVuSans-33"/>
     </g>
    </g>
   </g>
   <g id="text_4">
    <g clip-path="url(#p8273be2a43)">
     <!-- 6 -->
     <g transform="translate(1111.97605 274.252084)scale(0.12 -0.12)">
      <defs>
       <path d="M 2113 2584 
Q 1688 2584 1439 2293 
Q 1191 2003 1191 1497 
Q 1191 994 1439 701 
Q 1688 409 2113 409 
Q 2538 409 2786 701 
Q 3034 994 3034 1497 
Q 3034 2003 2786 2293 
Q 2538 2584 2113 2584 
z
M 3366 4563 
L 3366 3988 
Q 3128 4100 2886 4159 
Q 2644 4219 2406 4219 
Q 1781 4219 1451 3797 
Q 1122 3375 1075 2522 
Q 1259 2794 1537 2939 
Q 1816 3084 2150 3084 
Q 2853 3084 3261 2657 
Q 3669 2231 3669 1497 
Q 3669 778 3244 343 
Q 2819 -91 2113 -91 
Q 1303 -91 875 529 
Q 447 1150 447 2328 
Q 447 3434 972 4092 
Q 1497 4750 2381 4750 
Q 2619 4750 2861 4703 
Q 3103 4656 3366 4563 
z
" id="DejaVuSans-36" transform="scale(0.015625)"/>
      </defs>
      <use xlink:href="#DejaVuSans-36"/>
     </g>
    </g>
   </g>
   <g id="text_5">
    <g clip-path="url(#p8273be2a43)">
     <!-- 2 -->
     <g transform="translate(1195.339525 365.943455)scale(0.12 -0.12)">
      <defs>
       <path d="M 1228 531 
L 3431 531 
L 3431 0 
L 469 0 
L 469 531 
Q 828 903 1448 1529 
Q 2069 2156 2228 2338 
Q 2531 2678 2651 2914 
Q 2772 3150 2772 3378 
Q 2772 3750 2511 3984 
Q 2250 4219 1831 4219 
Q 1534 4219 1204 4116 
Q 875 4013 500 3803 
L 500 4441 
Q 881 4594 1212 4672 
Q 1544 4750 1819 4750 
Q 2544 4750 2975 4387 
Q 3406 4025 3406 3419 
Q 3406 3131 3298 2873 
Q 3191 2616 2906 2266 
Q 2828 2175 2409 1742 
Q 1991 1309 1228 531 
z
" id="DejaVuSans-32" transform="scale(0.015625)"/>
      </defs>
      <use xlink:href="#DejaVuSans-32"/>
     </g>
    </g>
   </g>
   <g id="text_6">
    <g clip-path="url(#p8273be2a43)">
     <!-- 5 -->
     <g transform="translate(1148.261039 272.329432)scale(0.12 -0.12)">
      <defs>
       <path d="M 691 4666 
L 3169 4666 
L 3169 4134 
L 1269 4134 
L 1269 2991 
Q 1406 3038 1543 3061 
Q 1681 3084 1819 3084 
Q 2600 3084 3056 2656 
Q 3513 2228 3513 1497 
Q 3513 744 3044 326 
Q 2575 -91 1722 -91 
Q 1428 -91 1123 -41 
Q 819 9 494 109 
L 494 744 
Q 775 591 1075 516 
Q 1375 441 1709 441 
Q 2250 441 2565 725 
Q 2881 1009 2881 1497 
Q 2881 1984 2565 2268 
Q 2250 2553 1709 2553 
Q 1456 2553 1204 2497 
Q 953 2441 691 2322 
L 691 4666 
z
" id="DejaVuSans-35" transform="scale(0.015625)"/>
      </defs>
      <use xlink:href="#DejaVuSans-35"/>
     </g>
    </g>
   </g>
   <g id="text_7">
    <g clip-path="url(#p8273be2a43)">
     <!-- 4 -->
     <g transform="translate(1178.431541 429.206639)scale(0.12 -0.12)">
      <defs>
       <path d="M 2419 4116 
L 825 1625 
L 2419 1625 
L 2419 4116 
z
M 2253 4666 
L 3047 4666 
L 3047 1625 
L 3713 1625 
L 3713 1100 
L 3047 1100 
L 3047 0 
L 2419 0 
L 2419 1100 
L 313 1100 
L 313 1709 
L 2253 4666 
z
" id="DejaVuSans-34" transform="scale(0.015625)"/>
      </defs>
      <use xlink:href="#DejaVuSans-34"/>
     </g>
    </g>
   </g>
   <g id="text_8">
    <g clip-path="url(#p8273be2a43)">
     <!-- 7 -->
     <g transform="translate(979.185514 589.891685)scale(0.12 -0.12)">
      <defs>
       <path d="M 525 4666 
L 3525 4666 
L 3525 4397 
L 1831 0 
L 1172 0 
L 2766 4134 
L 525 4134 
L 525 4666 
z
" id="DejaVuSans-37" transform="scale(0.015625)"/>
      </defs>
      <use xlink:href="#DejaVuSans-37"/>
     </g>
    </g>
   </g>
   <g id="text_9">
    <g clip-path="url(#p8273be2a43)">
     <!-- 8 -->
     <g transform="translate(1108.774134 527.505478)scale(0.12 -0.12)">
      <defs>
       <path d="M 2034 2216 
Q 1584 2216 1326 1975 
Q 1069 1734 1069 1313 
Q 1069 891 1326 650 
Q 1584 409 2034 409 
Q 2484 409 2743 651 
Q 3003 894 3003 1313 
Q 3003 1734 2745 1975 
Q 2488 2216 2034 2216 
z
M 1403 2484 
Q 997 2584 770 2862 
Q 544 3141 544 3541 
Q 544 4100 942 4425 
Q 1341 4750 2034 4750 
Q 2731 4750 3128 4425 
Q 3525 4100 3525 3541 
Q 3525 3141 3298 2862 
Q 3072 2584 2669 2484 
Q 3125 2378 3379 2068 
Q 3634 1759 3634 1313 
Q 3634 634 3220 271 
Q 2806 -91 2034 -91 
Q 1263 -91 848 271 
Q 434 634 434 1313 
Q 434 1759 690 2068 
Q 947 2378 1403 2484 
z
M 1172 3481 
Q 1172 3119 1398 2916 
Q 1625 2713 2034 2713 
Q 2441 2713 2670 2916 
Q 2900 3119 2900 3481 
Q 2900 3844 2670 4047 
Q 2441 4250 2034 4250 
Q 1625 4250 1398 4047 
Q 1172 3844 1172 3481 
z
" id="DejaVuSans-38" transform="scale(0.015625)"/>
      </defs>
      <use xlink:href="#DejaVuSans-38"/>
     </g>
    </g>
   </g>
   <g id="text_10">
    <g clip-path="url(#p8273be2a43)">
     <!-- 9 -->
     <g transform="translate(899.53624 678.132275)scale(0.12 -0.12)">
      <defs>
       <path d="M 703 97 
L 703 672 
Q 941 559 1184 500 
Q 1428 441 1663 441 
Q 2288 441 2617 861 
Q 2947 1281 2994 2138 
Q 2813 1869 2534 1725 
Q 2256 1581 1919 1581 
Q 1219 1581 811 2004 
Q 403 2428 403 3163 
Q 403 3881 828 4315 
Q 1253 4750 1959 4750 
Q 2769 4750 3195 4129 
Q 3622 3509 3622 2328 
Q 3622 1225 3098 567 
Q 2575 -91 1691 -91 
Q 1453 -91 1209 -44 
Q 966 3 703 97 
z
M 1959 2075 
Q 2384 2075 2632 2365 
Q 2881 2656 2881 3163 
Q 2881 3666 2632 3958 
Q 2384 4250 1959 4250 
Q 1534 4250 1286 3958 
Q 1038 3666 1038 3163 
Q 1038 2656 1286 2365 
Q 1534 2075 1959 2075 
z
" id="DejaVuSans-39" transform="scale(0.015625)"/>
      </defs>
      <use xlink:href="#DejaVuSans-39"/>
     </g>
    </g>
   </g>
   <g id="text_11">
    <g clip-path="url(#p8273be2a43)">
     <!-- 10 -->
     <g transform="translate(1025.355602 636.982486)scale(0.12 -0.12)">
      <use xlink:href="#DejaVuSans-31"/>
      <use x="63.623047" xlink:href="#DejaVuSans-30"/>
     </g>
    </g>
   </g>
   <g id="text_12">
    <g clip-path="url(#p8273be2a43)">
     <!-- 11 -->
     <g transform="translate(865.48905 797.715845)scale(0.12 -0.12)">
      <use xlink:href="#DejaVuSans-31"/>
      <use x="63.623047" xlink:href="#DejaVuSans-31"/>
     </g>
    </g>
   </g>
   <g id="text_13">
    <g clip-path="url(#p8273be2a43)">
     <!-- 12 -->
     <g transform="translate(823.628616 654.820234)scale(0.12 -0.12)">
      <use xlink:href="#DejaVuSans-31"/>
      <use x="63.623047" xlink:href="#DejaVuSans-32"/>
     </g>
    </g>
   </g>
   <g id="text_14">
    <g clip-path="url(#p8273be2a43)">
     <!-- 13 -->
     <g transform="translate(862.14718 949.635837)scale(0.12 -0.12)">
      <use xlink:href="#DejaVuSans-31"/>
      <use x="63.623047" xlink:href="#DejaVuSans-33"/>
     </g>
    </g>
   </g>
   <g id="text_15">
    <g clip-path="url(#p8273be2a43)">
     <!-- 14 -->
     <g transform="translate(865.318062 1072.627951)scale(0.12 -0.12)">
      <use xlink:href="#DejaVuSans-31"/>
      <use x="63.623047" xlink:href="#DejaVuSans-34"/>
     </g>
    </g>
   </g>
   <g id="text_16">
    <g clip-path="url(#p8273be2a43)">
     <!-- 15 -->
     <g transform="translate(832.100913 998.991842)scale(0.12 -0.12)">
      <use xlink:href="#DejaVuSans-31"/>
      <use x="63.623047" xlink:href="#DejaVuSans-35"/>
     </g>
    </g>
   </g>
   <g id="text_17">
    <g clip-path="url(#p8273be2a43)">
     <!-- 16 -->
     <g transform="translate(891.564911 1188.693068)scale(0.12 -0.12)">
      <use xlink:href="#DejaVuSans-31"/>
      <use x="63.623047" xlink:href="#DejaVuSans-36"/>
     </g>
    </g>
   </g>
   <g id="text_18">
    <g clip-path="url(#p8273be2a43)">
     <!-- 17 -->
     <g transform="translate(799.479945 889.337028)scale(0.12 -0.12)">
      <use xlink:href="#DejaVuSans-31"/>
      <use x="63.623047" xlink:href="#DejaVuSans-37"/>
     </g>
    </g>
   </g>
   <g id="text_19">
    <g clip-path="url(#p8273be2a43)">
     <!-- 18 -->
     <g transform="translate(749.261872 709.32173)scale(0.12 -0.12)">
      <use xlink:href="#DejaVuSans-31"/>
      <use x="63.623047" xlink:href="#DejaVuSans-38"/>
     </g>
    </g>
   </g>
   <g id="text_20">
    <g clip-path="url(#p8273be2a43)">
     <!-- 19 -->
     <g transform="translate(710.27685 561.367178)scale(0.12 -0.12)">
      <use xlink:href="#DejaVuSans-31"/>
      <use x="63.623047" xlink:href="#DejaVuSans-39"/>
     </g>
    </g>
   </g>
   <g id="text_21">
    <g clip-path="url(#p8273be2a43)">
     <!-- 20 -->
     <g transform="translate(803.676659 742.58304)scale(0.12 -0.12)">
      <use xlink:href="#DejaVuSans-32"/>
      <use x="63.623047" xlink:href="#DejaVuSans-30"/>
     </g>
    </g>
   </g>
   <g id="text_22">
    <g clip-path="url(#p8273be2a43)">
     <!-- 21 -->
     <g transform="translate(717.078431 789.315233)scale(0.12 -0.12)">
      <use xlink:href="#DejaVuSans-32"/>
      <use x="63.623047" xlink:href="#DejaVuSans-31"/>
     </g>
    </g>
   </g>
   <g id="text_23">
    <g clip-path="url(#p8273be2a43)">
     <!-- 22 -->
     <g transform="translate(640.032437 503.176674)scale(0.12 -0.12)">
      <use xlink:href="#DejaVuSans-32"/>
      <use x="63.623047" xlink:href="#DejaVuSans-32"/>
     </g>
    </g>
   </g>
   <g id="text_24">
    <g clip-path="url(#p8273be2a43)">
     <!-- 23 -->
     <g transform="translate(750.278802 485.780122)scale(0.12 -0.12)">
      <use xlink:href="#DejaVuSans-32"/>
      <use x="63.623047" xlink:href="#DejaVuSans-33"/>
     </g>
    </g>
   </g>
   <g id="text_25">
    <g clip-path="url(#p8273be2a43)">
     <!-- 25 -->
     <g transform="translate(720.433767 438.383073)scale(0.12 -0.12)">
      <use xlink:href="#DejaVuSans-32"/>
      <use x="63.623047" xlink:href="#DejaVuSans-35"/>
     </g>
    </g>
   </g>
   <g id="text_26">
    <g clip-path="url(#p8273be2a43)">
     <!-- 24 -->
     <g transform="translate(685.694717 471.402353)scale(0.12 -0.12)">
      <use xlink:href="#DejaVuSans-32"/>
      <use x="63.623047" xlink:href="#DejaVuSans-34"/>
     </g>
    </g>
   </g>
   <g id="text_27">
    <g clip-path="url(#p8273be2a43)">
     <!-- 26 -->
     <g transform="translate(548.027402 436.94064)scale(0.12 -0.12)">
      <use xlink:href="#DejaVuSans-32"/>
      <use x="63.623047" xlink:href="#DejaVuSans-36"/>
     </g>
    </g>
   </g>
   <g id="text_28">
    <g clip-path="url(#p8273be2a43)">
     <!-- 27 -->
     <g transform="translate(454.818282 409.172882)scale(0.12 -0.12)">
      <use xlink:href="#DejaVuSans-32"/>
      <use x="63.623047" xlink:href="#DejaVuSans-37"/>
     </g>
    </g>
   </g>
   <g id="text_29">
    <g clip-path="url(#p8273be2a43)">
     <!-- 28 -->
     <g transform="translate(362.356259 423.592837)scale(0.12 -0.12)">
      <use xlink:href="#DejaVuSans-32"/>
      <use x="63.623047" xlink:href="#DejaVuSans-38"/>
     </g>
    </g>
   </g>
   <g id="text_30">
    <g clip-path="url(#p8273be2a43)">
     <!-- 29 -->
     <g transform="translate(353.443425 557.257225)scale(0.12 -0.12)">
      <use xlink:href="#DejaVuSans-32"/>
      <use x="63.623047" xlink:href="#DejaVuSans-39"/>
     </g>
    </g>
   </g>
   <g id="text_31">
    <g clip-path="url(#p8273be2a43)">
     <!-- 30 -->
     <g transform="translate(297.821781 400.521653)scale(0.12 -0.12)">
      <use xlink:href="#DejaVuSans-33"/>
      <use x="63.623047" xlink:href="#DejaVuSans-30"/>
     </g>
    </g>
   </g>
   <g id="text_32">
    <g clip-path="url(#p8273be2a43)">
     <!-- 31 -->
     <g transform="translate(312.93421 333.644718)scale(0.12 -0.12)">
      <use xlink:href="#DejaVuSans-33"/>
      <use x="63.623047" xlink:href="#DejaVuSans-31"/>
     </g>
    </g>
   </g>
   <g id="text_33">
    <g clip-path="url(#p8273be2a43)">
     <!-- 32 -->
     <g transform="translate(351.097958 308.853239)scale(0.12 -0.12)">
      <use xlink:href="#DejaVuSans-33"/>
      <use x="63.623047" xlink:href="#DejaVuSans-32"/>
     </g>
    </g>
   </g>
   <g id="text_34">
    <g clip-path="url(#p8273be2a43)">
     <!-- 33 -->
     <g transform="translate(345.209587 695.25784)scale(0.12 -0.12)">
      <use xlink:href="#DejaVuSans-33"/>
      <use x="63.623047" xlink:href="#DejaVuSans-33"/>
     </g>
    </g>
   </g>
   <g id="text_35">
    <g clip-path="url(#p8273be2a43)">
     <!-- 34 -->
     <g transform="translate(333.344343 892.790878)scale(0.12 -0.12)">
      <use xlink:href="#DejaVuSans-33"/>
      <use x="63.623047" xlink:href="#DejaVuSans-34"/>
     </g>
    </g>
   </g>
   <g id="text_36">
    <g clip-path="url(#p8273be2a43)">
     <!-- 35 -->
     <g transform="translate(360.994164 1019.448519)scale(0.12 -0.12)">
      <use xlink:href="#DejaVuSans-33"/>
      <use x="63.623047" xlink:href="#DejaVuSans-35"/>
     </g>
    </g>
   </g>
   <g id="text_37">
    <g clip-path="url(#p8273be2a43)">
     <!-- 37 -->
     <g transform="translate(279.272788 954.459358)scale(0.12 -0.12)">
      <use xlink:href="#DejaVuSans-33"/>
      <use x="63.623047" xlink:href="#DejaVuSans-37"/>
     </g>
    </g>
   </g>
   <g id="text_38">
    <g clip-path="url(#p8273be2a43)">
     <!-- 36 -->
     <g transform="translate(269.207975 881.908454)scale(0.12 -0.12)">
      <use xlink:href="#DejaVuSans-33"/>
      <use x="63.623047" xlink:href="#DejaVuSans-36"/>
     </g>
    </g>
   </g>
   <g id="text_39">
    <g clip-path="url(#p8273be2a43)">
     <!-- 38 -->
     <g transform="translate(397.971069 1109.721891)scale(0.12 -0.12)">
      <use xlink:href="#DejaVuSans-33"/>
      <use x="63.623047" xlink:href="#DejaVuSans-38"/>
     </g>
    </g>
   </g>
   <g id="text_40">
    <g clip-path="url(#p8273be2a43)">
     <!-- 39 -->
     <g transform="translate(319.377652 1111.464218)scale(0.12 -0.12)">
      <use xlink:href="#DejaVuSans-33"/>
      <use x="63.623047" xlink:href="#DejaVuSans-39"/>
     </g>
    </g>
   </g>
   <g id="text_41">
    <g clip-path="url(#p8273be2a43)">
     <!-- 40 -->
     <g transform="translate(411.639861 1160.87085)scale(0.12 -0.12)">
      <use xlink:href="#DejaVuSans-34"/>
      <use x="63.623047" xlink:href="#DejaVuSans-30"/>
     </g>
    </g>
   </g>
  </g>
 </g>
 <defs>
  <clipPath id="p8273be2a43">
   <rect height="1108.8" width="1116" x="180" y="172.8"/>
  </clipPath>
 </defs>
</svg>
