<?xml version="1.0" encoding="utf-8" standalone="no"?>
<!DOCTYPE svg PUBLIC "-//W3C//DTD SVG 1.1//EN"
  "http://www.w3.org/Graphics/SVG/1.1/DTD/svg11.dtd">
<svg height="1440pt" version="1.1" viewBox="0 0 1440 1440" width="1440pt" xmlns="http://www.w3.org/2000/svg" xmlns:xlink="http://www.w3.org/1999/xlink">
 <metadata>
  <rdf:RDF xmlns:cc="http://creativecommons.org/ns#" xmlns:dc="http://purl.org/dc/elements/1.1/" xmlns:rdf="http://www.w3.org/1999/02/22-rdf-syntax-ns#">
   <cc:Work>
    <dc:type rdf:resource="http://purl.org/dc/dcmitype/StillImage"/>
    <dc:date>2021-10-17T06:04:01.477092</dc:date>
    <dc:format>image/svg+xml</dc:format>
    <dc:creator>
     <cc:Agent>
      <dc:title>Matplotlib v3.4.3, https://matplotlib.org/</dc:title>
     </cc:Agent>
    </dc:creator>
   </cc:Work>
  </rdf:RDF>
 </metadata>
 <defs>
  <style type="text/css">*{stroke-linecap:butt;stroke-linejoin:round;}</style>
 </defs>
 <g id="figure_1">
  <g id="patch_1">
   <path d="M 0 1440 
L 1440 1440 
L 1440 0 
L 0 0 
z
" style="fill:#ffffff;"/>
  </g>
  <g id="axes_1">
   <g id="patch_2">
    <path clip-path="url(#pfa81c5e867)" d="M 1044.708092 650.189721 
Q 1076.724013 575.825536 1107.855709 503.515164 
" style="fill:none;stroke:#ff0000;stroke-linecap:round;stroke-width:2;"/>
    <path clip-path="url(#pfa81c5e867)" d="M 1104.436973 506.398261 
L 1107.855709 503.515164 
L 1108.110944 507.980011 
L 1104.436973 506.398261 
z
" style="fill:#ff0000;stroke:#ff0000;stroke-linecap:round;stroke-width:2;"/>
   </g>
   <g id="patch_3">
    <path clip-path="url(#pfa81c5e867)" d="M 1037.632562 665.998864 
Q 988.936676 770.763251 940.712047 874.513775 
" style="fill:none;stroke:#000000;stroke-linecap:round;"/>
    <path clip-path="url(#pfa81c5e867)" d="M 944.211719 871.729481 
L 940.712047 874.513775 
L 940.584415 870.043461 
L 944.211719 871.729481 
z
" style="stroke:#000000;stroke-linecap:round;"/>
   </g>
   <g id="patch_4">
    <path clip-path="url(#pfa81c5e867)" d="M 1112.115803 484.844295 
Q 1111.534455 381.260209 1110.959383 278.79414 
" style="fill:none;stroke:#000000;stroke-linecap:round;"/>
    <path clip-path="url(#pfa81c5e867)" d="M 1108.981863 282.805301 
L 1110.959383 278.79414 
L 1112.9818 282.782852 
L 1108.981863 282.805301 
z
" style="stroke:#000000;stroke-linecap:round;"/>
   </g>
   <g id="patch_5">
    <path clip-path="url(#pfa81c5e867)" d="M 1115.873974 485.678865 
Q 1148.031717 417.815713 1179.710699 350.962902 
" style="fill:none;stroke:#000000;stroke-linecap:round;"/>
    <path clip-path="url(#pfa81c5e867)" d="M 1176.190478 353.721171 
L 1179.710699 350.962902 
L 1179.805182 355.43404 
L 1176.190478 353.721171 
z
" style="stroke:#000000;stroke-linecap:round;"/>
   </g>
   <g id="patch_6">
    <path clip-path="url(#pfa81c5e867)" d="M 1119.478406 498.140338 
Q 1155.659375 521.059599 1190.895863 543.380568 
" style="fill:none;stroke:#000000;stroke-linecap:round;"/>
    <path clip-path="url(#pfa81c5e867)" d="M 1188.587042 539.550509 
L 1190.895863 543.380568 
L 1186.446524 542.92959 
L 1188.587042 539.550509 
z
" style="stroke:#000000;stroke-linecap:round;"/>
   </g>
   <g id="patch_7">
    <path clip-path="url(#pfa81c5e867)" d="M 929.847776 888.810705 
Q 887.507387 922.914744 846.908415 955.616118 
" style="fill:none;stroke:#ff0000;stroke-linecap:round;stroke-width:2;"/>
    <path clip-path="url(#pfa81c5e867)" d="M 851.278138 954.664527 
L 846.908415 955.616118 
L 848.768976 951.549386 
L 851.278138 954.664527 
z
" style="fill:#ff0000;stroke:#ff0000;stroke-linecap:round;stroke-width:2;"/>
   </g>
   <g id="patch_8">
    <path clip-path="url(#pfa81c5e867)" d="M 939.243515 891.620388 
Q 963.859108 968.11489 988.132219 1043.545107 
" style="fill:none;stroke:#000000;stroke-linecap:round;"/>
    <path clip-path="url(#pfa81c5e867)" d="M 988.810769 1039.124748 
L 988.132219 1043.545107 
L 985.003062 1040.350051 
L 988.810769 1039.124748 
z
" style="stroke:#000000;stroke-linecap:round;"/>
   </g>
   <g id="patch_9">
    <path clip-path="url(#pfa81c5e867)" d="M 830.15218 959.893158 
Q 770.496684 941.448439 711.909332 923.333977 
" style="fill:none;stroke:#000000;stroke-linecap:round;"/>
    <path clip-path="url(#pfa81c5e867)" d="M 715.140058 926.426292 
L 711.909332 923.333977 
L 716.321619 922.604785 
L 715.140058 926.426292 
z
" style="stroke:#000000;stroke-linecap:round;"/>
   </g>
   <g id="patch_10">
    <path clip-path="url(#pfa81c5e867)" d="M 838.333118 971.107757 
Q 837.260409 1073.914252 836.199364 1175.602773 
" style="fill:none;stroke:#000000;stroke-linecap:round;"/>
    <path clip-path="url(#pfa81c5e867)" d="M 838.24099 1171.623859 
L 836.199364 1175.602773 
L 834.241208 1171.582124 
L 838.24099 1171.623859 
z
" style="stroke:#000000;stroke-linecap:round;"/>
   </g>
   <g id="patch_11">
    <path clip-path="url(#pfa81c5e867)" d="M 698.185443 912.972825 
Q 651.046194 832.583109 604.472484 753.157844 
" style="fill:none;stroke:#000000;stroke-linecap:round;"/>
    <path clip-path="url(#pfa81c5e867)" d="M 604.770555 757.620035 
L 604.472484 753.157844 
L 608.22108 755.596702 
L 604.770555 757.620035 
z
" style="stroke:#000000;stroke-linecap:round;"/>
   </g>
   <g id="patch_12">
    <path clip-path="url(#pfa81c5e867)" d="M 700.123346 928.753318 
Q 676.725371 1008.289444 653.64293 1086.752985 
" style="fill:none;stroke:#000000;stroke-linecap:round;"/>
    <path clip-path="url(#pfa81c5e867)" d="M 656.690516 1083.480031 
L 653.64293 1086.752985 
L 652.853119 1082.351144 
L 656.690516 1083.480031 
z
" style="stroke:#000000;stroke-linecap:round;"/>
   </g>
   <g id="patch_13">
    <path clip-path="url(#pfa81c5e867)" d="M 595.620517 736.999797 
Q 554.746671 656.183178 514.377416 576.36425 
" style="fill:none;stroke:#000000;stroke-linecap:round;"/>
    <path clip-path="url(#pfa81c5e867)" d="M 514.397978 580.836338 
L 514.377416 576.36425 
L 517.967424 579.031054 
L 514.397978 580.836338 
z
" style="stroke:#000000;stroke-linecap:round;"/>
   </g>
   <g id="patch_14">
    <path clip-path="url(#pfa81c5e867)" d="M 505.929068 559.974441 
Q 468.351718 488.604478 431.295243 418.223801 
" style="fill:none;stroke:#000000;stroke-linecap:round;"/>
    <path clip-path="url(#pfa81c5e867)" d="M 431.389089 422.694952 
L 431.295243 418.223801 
L 434.928472 420.831415 
L 431.389089 422.694952 
z
" style="stroke:#000000;stroke-linecap:round;"/>
   </g>
   <g id="patch_15">
    <path clip-path="url(#pfa81c5e867)" d="M 421.247152 402.880996 
Q 385.25059 359.032898 349.963434 316.048943 
" style="fill:none;stroke:#000000;stroke-linecap:round;"/>
    <path clip-path="url(#pfa81c5e867)" d="M 350.955661 320.409618 
L 349.963434 316.048943 
L 354.04731 317.871566 
L 350.955661 320.409618 
z
" style="stroke:#000000;stroke-linecap:round;"/>
   </g>
   <g id="patch_16">
    <path clip-path="url(#pfa81c5e867)" d="M 336.159881 304.349695 
Q 310.304676 290.254431 285.431108 276.694319 
" style="fill:none;stroke:#000000;stroke-linecap:round;"/>
    <path clip-path="url(#pfa81c5e867)" d="M 287.985815 280.364941 
L 285.431108 276.694319 
L 289.900431 276.852927 
L 287.985815 280.364941 
z
" style="stroke:#000000;stroke-linecap:round;"/>
   </g>
   <g id="PathCollection_1">
    <defs>
     <path d="M 0 8.660254 
C 2.296726 8.660254 4.499694 7.747755 6.123724 6.123724 
C 7.747755 4.499694 8.660254 2.296726 8.660254 0 
C 8.660254 -2.296726 7.747755 -4.499694 6.123724 -6.123724 
C 4.499694 -7.747755 2.296726 -8.660254 0 -8.660254 
C -2.296726 -8.660254 -4.499694 -7.747755 -6.123724 -6.123724 
C -7.747755 -4.499694 -8.660254 -2.296726 -8.660254 0 
C -8.660254 2.296726 -7.747755 4.499694 -6.123724 6.123724 
C -4.499694 7.747755 -2.296726 8.660254 0 8.660254 
z
" id="m2bede67a91" style="stroke:#1f78b4;"/>
    </defs>
    <g clip-path="url(#pfa81c5e867)">
     <use style="fill:#1f78b4;stroke:#1f78b4;" x="1041.282765" xlink:href="#m2bede67a91" y="658.145813"/>
     <use style="fill:#1f78b4;stroke:#1f78b4;" x="1112.164422" xlink:href="#m2bede67a91" y="493.507209"/>
     <use style="fill:#1f78b4;stroke:#1f78b4;" x="1110.904517" xlink:href="#m2bede67a91" y="269.018182"/>
     <use style="fill:#1f78b4;stroke:#1f78b4;" x="1183.899211" xlink:href="#m2bede67a91" y="342.123799"/>
     <use style="fill:#1f78b4;stroke:#1f78b4;" x="1199.157025" xlink:href="#m2bede67a91" y="548.613698"/>
     <use style="fill:#1f78b4;stroke:#1f78b4;" x="936.591432" xlink:href="#m2bede67a91" y="883.378872"/>
     <use style="fill:#1f78b4;stroke:#1f78b4;" x="838.42345" xlink:href="#m2bede67a91" y="962.450529"/>
     <use style="fill:#1f78b4;stroke:#1f78b4;" x="991.127652" xlink:href="#m2bede67a91" y="1052.853602"/>
     <use style="fill:#1f78b4;stroke:#1f78b4;" x="702.567329" xlink:href="#m2bede67a91" y="920.445549"/>
     <use style="fill:#1f78b4;stroke:#1f78b4;" x="836.097327" xlink:href="#m2bede67a91" y="1185.381818"/>
     <use style="fill:#1f78b4;stroke:#1f78b4;" x="599.527746" xlink:href="#m2bede67a91" y="744.72525"/>
     <use style="fill:#1f78b4;stroke:#1f78b4;" x="650.883275" xlink:href="#m2bede67a91" y="1096.133808"/>
     <use style="fill:#1f78b4;stroke:#1f78b4;" x="509.963521" xlink:href="#m2bede67a91" y="567.637004"/>
     <use style="fill:#1f78b4;stroke:#1f78b4;" x="426.739744" xlink:href="#m2bede67a91" y="409.571626"/>
     <use style="fill:#1f78b4;stroke:#1f78b4;" x="343.760842" xlink:href="#m2bede67a91" y="308.493447"/>
     <use style="fill:#1f78b4;stroke:#1f78b4;" x="276.842975" xlink:href="#m2bede67a91" y="272.012399"/>
    </g>
   </g>
   <g id="text_1">
    <g clip-path="url(#pfa81c5e867)">
     <!-- 1 -->
     <g transform="translate(1037.465265 661.457063)scale(0.12 -0.12)">
      <defs>
       <path d="M 794 531 
L 1825 531 
L 1825 4091 
L 703 3866 
L 703 4441 
L 1819 4666 
L 2450 4666 
L 2450 531 
L 3481 531 
L 3481 0 
L 794 0 
L 794 531 
z
" id="DejaVuSans-31" transform="scale(0.015625)"/>
      </defs>
      <use xlink:href="#DejaVuSans-31"/>
     </g>
    </g>
   </g>
   <g id="text_2">
    <g clip-path="url(#pfa81c5e867)">
     <!-- 0 -->
     <g transform="translate(1108.346922 496.818459)scale(0.12 -0.12)">
      <defs>
       <path d="M 2034 4250 
Q 1547 4250 1301 3770 
Q 1056 3291 1056 2328 
Q 1056 1369 1301 889 
Q 1547 409 2034 409 
Q 2525 409 2770 889 
Q 3016 1369 3016 2328 
Q 3016 3291 2770 3770 
Q 2525 4250 2034 4250 
z
M 2034 4750 
Q 2819 4750 3233 4129 
Q 3647 3509 3647 2328 
Q 3647 1150 3233 529 
Q 2819 -91 2034 -91 
Q 1250 -91 836 529 
Q 422 1150 422 2328 
Q 422 3509 836 4129 
Q 1250 4750 2034 4750 
z
" id="DejaVuSans-30" transform="scale(0.015625)"/>
      </defs>
      <use xlink:href="#DejaVuSans-30"/>
     </g>
    </g>
   </g>
   <g id="text_3">
    <g clip-path="url(#pfa81c5e867)">
     <!-- 2 -->
     <g transform="translate(1107.087017 272.329432)scale(0.12 -0.12)">
      <defs>
       <path d="M 1228 531 
L 3431 531 
L 3431 0 
L 469 0 
L 469 531 
Q 828 903 1448 1529 
Q 2069 2156 2228 2338 
Q 2531 2678 2651 2914 
Q 2772 3150 2772 3378 
Q 2772 3750 2511 3984 
Q 2250 4219 1831 4219 
Q 1534 4219 1204 4116 
Q 875 4013 500 3803 
L 500 4441 
Q 881 4594 1212 4672 
Q 1544 4750 1819 4750 
Q 2544 4750 2975 4387 
Q 3406 4025 3406 3419 
Q 3406 3131 3298 2873 
Q 3191 2616 2906 2266 
Q 2828 2175 2409 1742 
Q 1991 1309 1228 531 
z
" id="DejaVuSans-32" transform="scale(0.015625)"/>
      </defs>
      <use xlink:href="#DejaVuSans-32"/>
     </g>
    </g>
   </g>
   <g id="text_4">
    <g clip-path="url(#pfa81c5e867)">
     <!-- 3 -->
     <g transform="translate(1180.081711 345.435049)scale(0.12 -0.12)">
      <defs>
       <path d="M 2597 2516 
Q 3050 2419 3304 2112 
Q 3559 1806 3559 1356 
Q 3559 666 3084 287 
Q 2609 -91 1734 -91 
Q 1441 -91 1130 -33 
Q 819 25 488 141 
L 488 750 
Q 750 597 1062 519 
Q 1375 441 1716 441 
Q 2309 441 2620 675 
Q 2931 909 2931 1356 
Q 2931 1769 2642 2001 
Q 2353 2234 1838 2234 
L 1294 2234 
L 1294 2753 
L 1863 2753 
Q 2328 2753 2575 2939 
Q 2822 3125 2822 3475 
Q 2822 3834 2567 4026 
Q 2313 4219 1838 4219 
Q 1578 4219 1281 4162 
Q 984 4106 628 3988 
L 628 4550 
Q 988 4650 1302 4700 
Q 1616 4750 1894 4750 
Q 2613 4750 3031 4423 
Q 3450 4097 3450 3541 
Q 3450 3153 3228 2886 
Q 3006 2619 2597 2516 
z
" id="DejaVuSans-33" transform="scale(0.015625)"/>
      </defs>
      <use xlink:href="#DejaVuSans-33"/>
     </g>
    </g>
   </g>
   <g id="text_5">
    <g clip-path="url(#pfa81c5e867)">
     <!-- 4 -->
     <g transform="translate(1195.339525 551.924948)scale(0.12 -0.12)">
      <defs>
       <path d="M 2419 4116 
L 825 1625 
L 2419 1625 
L 2419 4116 
z
M 2253 4666 
L 3047 4666 
L 3047 1625 
L 3713 1625 
L 3713 1100 
L 3047 1100 
L 3047 0 
L 2419 0 
L 2419 1100 
L 313 1100 
L 313 1709 
L 2253 4666 
z
" id="DejaVuSans-34" transform="scale(0.015625)"/>
      </defs>
      <use xlink:href="#DejaVuSans-34"/>
     </g>
    </g>
   </g>
   <g id="text_6">
    <g clip-path="url(#pfa81c5e867)">
     <!-- 5 -->
     <g transform="translate(932.773932 886.690122)scale(0.12 -0.12)">
      <defs>
       <path d="M 691 4666 
L 3169 4666 
L 3169 4134 
L 1269 4134 
L 1269 2991 
Q 1406 3038 1543 3061 
Q 1681 3084 1819 3084 
Q 2600 3084 3056 2656 
Q 3513 2228 3513 1497 
Q 3513 744 3044 326 
Q 2575 -91 1722 -91 
Q 1428 -91 1123 -41 
Q 819 9 494 109 
L 494 744 
Q 775 591 1075 516 
Q 1375 441 1709 441 
Q 2250 441 2565 725 
Q 2881 1009 2881 1497 
Q 2881 1984 2565 2268 
Q 2250 2553 1709 2553 
Q 1456 2553 1204 2497 
Q 953 2441 691 2322 
L 691 4666 
z
" id="DejaVuSans-35" transform="scale(0.015625)"/>
      </defs>
      <use xlink:href="#DejaVuSans-35"/>
     </g>
    </g>
   </g>
   <g id="text_7">
    <g clip-path="url(#pfa81c5e867)">
     <!-- 6 -->
     <g transform="translate(834.60595 965.761779)scale(0.12 -0.12)">
      <defs>
       <path d="M 2113 2584 
Q 1688 2584 1439 2293 
Q 1191 2003 1191 1497 
Q 1191 994 1439 701 
Q 1688 409 2113 409 
Q 2538 409 2786 701 
Q 3034 994 3034 1497 
Q 3034 2003 2786 2293 
Q 2538 2584 2113 2584 
z
M 3366 4563 
L 3366 3988 
Q 3128 4100 2886 4159 
Q 2644 4219 2406 4219 
Q 1781 4219 1451 3797 
Q 1122 3375 1075 2522 
Q 1259 2794 1537 2939 
Q 1816 3084 2150 3084 
Q 2853 3084 3261 2657 
Q 3669 2231 3669 1497 
Q 3669 778 3244 343 
Q 2819 -91 2113 -91 
Q 1303 -91 875 529 
Q 447 1150 447 2328 
Q 447 3434 972 4092 
Q 1497 4750 2381 4750 
Q 2619 4750 2861 4703 
Q 3103 4656 3366 4563 
z
" id="DejaVuSans-36" transform="scale(0.015625)"/>
      </defs>
      <use xlink:href="#DejaVuSans-36"/>
     </g>
    </g>
   </g>
   <g id="text_8">
    <g clip-path="url(#pfa81c5e867)">
     <!-- 7 -->
     <g transform="translate(987.310152 1056.164852)scale(0.12 -0.12)">
      <defs>
       <path d="M 525 4666 
L 3525 4666 
L 3525 4397 
L 1831 0 
L 1172 0 
L 2766 4134 
L 525 4134 
L 525 4666 
z
" id="DejaVuSans-37" transform="scale(0.015625)"/>
      </defs>
      <use xlink:href="#DejaVuSans-37"/>
     </g>
    </g>
   </g>
   <g id="text_9">
    <g clip-path="url(#pfa81c5e867)">
     <!-- 8 -->
     <g transform="translate(698.749829 923.756799)scale(0.12 -0.12)">
      <defs>
       <path d="M 2034 2216 
Q 1584 2216 1326 1975 
Q 1069 1734 1069 1313 
Q 1069 891 1326 650 
Q 1584 409 2034 409 
Q 2484 409 2743 651 
Q 3003 894 3003 1313 
Q 3003 1734 2745 1975 
Q 2488 2216 2034 2216 
z
M 1403 2484 
Q 997 2584 770 2862 
Q 544 3141 544 3541 
Q 544 4100 942 4425 
Q 1341 4750 2034 4750 
Q 2731 4750 3128 4425 
Q 3525 4100 3525 3541 
Q 3525 3141 3298 2862 
Q 3072 2584 2669 2484 
Q 3125 2378 3379 2068 
Q 3634 1759 3634 1313 
Q 3634 634 3220 271 
Q 2806 -91 2034 -91 
Q 1263 -91 848 271 
Q 434 634 434 1313 
Q 434 1759 690 2068 
Q 947 2378 1403 2484 
z
M 1172 3481 
Q 1172 3119 1398 2916 
Q 1625 2713 2034 2713 
Q 2441 2713 2670 2916 
Q 2900 3119 2900 3481 
Q 2900 3844 2670 4047 
Q 2441 4250 2034 4250 
Q 1625 4250 1398 4047 
Q 1172 3844 1172 3481 
z
" id="DejaVuSans-38" transform="scale(0.015625)"/>
      </defs>
      <use xlink:href="#DejaVuSans-38"/>
     </g>
    </g>
   </g>
   <g id="text_10">
    <g clip-path="url(#pfa81c5e867)">
     <!-- 9 -->
     <g transform="translate(832.279827 1188.693068)scale(0.12 -0.12)">
      <defs>
       <path d="M 703 97 
L 703 672 
Q 941 559 1184 500 
Q 1428 441 1663 441 
Q 2288 441 2617 861 
Q 2947 1281 2994 2138 
Q 2813 1869 2534 1725 
Q 2256 1581 1919 1581 
Q 1219 1581 811 2004 
Q 403 2428 403 3163 
Q 403 3881 828 4315 
Q 1253 4750 1959 4750 
Q 2769 4750 3195 4129 
Q 3622 3509 3622 2328 
Q 3622 1225 3098 567 
Q 2575 -91 1691 -91 
Q 1453 -91 1209 -44 
Q 966 3 703 97 
z
M 1959 2075 
Q 2384 2075 2632 2365 
Q 2881 2656 2881 3163 
Q 2881 3666 2632 3958 
Q 2384 4250 1959 4250 
Q 1534 4250 1286 3958 
Q 1038 3666 1038 3163 
Q 1038 2656 1286 2365 
Q 1534 2075 1959 2075 
z
" id="DejaVuSans-39" transform="scale(0.015625)"/>
      </defs>
      <use xlink:href="#DejaVuSans-39"/>
     </g>
    </g>
   </g>
   <g id="text_11">
    <g clip-path="url(#pfa81c5e867)">
     <!-- 10 -->
     <g transform="translate(591.892746 748.0365)scale(0.12 -0.12)">
      <use xlink:href="#DejaVuSans-31"/>
      <use x="63.623047" xlink:href="#DejaVuSans-30"/>
     </g>
    </g>
   </g>
   <g id="text_12">
    <g clip-path="url(#pfa81c5e867)">
     <!-- 11 -->
     <g transform="translate(643.248275 1099.445058)scale(0.12 -0.12)">
      <use xlink:href="#DejaVuSans-31"/>
      <use x="63.623047" xlink:href="#DejaVuSans-31"/>
     </g>
    </g>
   </g>
   <g id="text_13">
    <g clip-path="url(#pfa81c5e867)">
     <!-- 12 -->
     <g transform="translate(502.328521 570.948254)scale(0.12 -0.12)">
      <use xlink:href="#DejaVuSans-31"/>
      <use x="63.623047" xlink:href="#DejaVuSans-32"/>
     </g>
    </g>
   </g>
   <g id="text_14">
    <g clip-path="url(#pfa81c5e867)">
     <!-- 13 -->
     <g transform="translate(419.104744 412.882876)scale(0.12 -0.12)">
      <use xlink:href="#DejaVuSans-31"/>
      <use x="63.623047" xlink:href="#DejaVuSans-33"/>
     </g>
    </g>
   </g>
   <g id="text_15">
    <g clip-path="url(#pfa81c5e867)">
     <!-- 14 -->
     <g transform="translate(336.125842 311.804697)scale(0.12 -0.12)">
      <use xlink:href="#DejaVuSans-31"/>
      <use x="63.623047" xlink:href="#DejaVuSans-34"/>
     </g>
    </g>
   </g>
   <g id="text_16">
    <g clip-path="url(#pfa81c5e867)">
     <!-- 15 -->
     <g transform="translate(269.207975 275.323649)scale(0.12 -0.12)">
      <use xlink:href="#DejaVuSans-31"/>
      <use x="63.623047" xlink:href="#DejaVuSans-35"/>
     </g>
    </g>
   </g>
  </g>
 </g>
 <defs>
  <clipPath id="pfa81c5e867">
   <rect height="1108.8" width="1116" x="180" y="172.8"/>
  </clipPath>
 </defs>
</svg>
