<?xml version="1.0" encoding="utf-8" standalone="no"?>
<!DOCTYPE svg PUBLIC "-//W3C//DTD SVG 1.1//EN"
  "http://www.w3.org/Graphics/SVG/1.1/DTD/svg11.dtd">
<svg height="1440pt" version="1.1" viewBox="0 0 1440 1440" width="1440pt" xmlns="http://www.w3.org/2000/svg" xmlns:xlink="http://www.w3.org/1999/xlink">
 <metadata>
  <rdf:RDF xmlns:cc="http://creativecommons.org/ns#" xmlns:dc="http://purl.org/dc/elements/1.1/" xmlns:rdf="http://www.w3.org/1999/02/22-rdf-syntax-ns#">
   <cc:Work>
    <dc:type rdf:resource="http://purl.org/dc/dcmitype/StillImage"/>
    <dc:date>2021-10-17T06:04:00.880442</dc:date>
    <dc:format>image/svg+xml</dc:format>
    <dc:creator>
     <cc:Agent>
      <dc:title>Matplotlib v3.4.3, https://matplotlib.org/</dc:title>
     </cc:Agent>
    </dc:creator>
   </cc:Work>
  </rdf:RDF>
 </metadata>
 <defs>
  <style type="text/css">*{stroke-linecap:butt;stroke-linejoin:round;}</style>
 </defs>
 <g id="figure_1">
  <g id="patch_1">
   <path d="M 0 1440 
L 1440 1440 
L 1440 0 
L 0 0 
z
" style="fill:#ffffff;"/>
  </g>
  <g id="axes_1">
   <g id="patch_2">
    <path clip-path="url(#p1df953895c)" d="M 553.639664 392.220785 
Q 489.495865 398.885148 427.576162 405.318435 
" style="fill:none;stroke:#ff0000;stroke-linecap:round;stroke-width:2;"/>
    <path clip-path="url(#p1df953895c)" d="M 431.761428 406.894363 
L 427.576162 405.318435 
L 431.348064 402.915779 
L 431.761428 406.894363 
z
" style="fill:#ff0000;stroke:#ff0000;stroke-linecap:round;stroke-width:2;"/>
   </g>
   <g id="patch_3">
    <path clip-path="url(#p1df953895c)" d="M 570.895614 390.785049 
Q 666.522514 384.799537 761.033565 378.883868 
" style="fill:none;stroke:#000000;stroke-linecap:round;"/>
    <path clip-path="url(#p1df953895c)" d="M 756.916437 377.137655 
L 761.033565 378.883868 
L 757.166318 381.129842 
L 756.916437 377.137655 
z
" style="stroke:#000000;stroke-linecap:round;"/>
   </g>
   <g id="patch_4">
    <path clip-path="url(#p1df953895c)" d="M 411.037892 412.960745 
Q 377.46015 451.323992 344.618761 488.84594 
" style="fill:none;stroke:#000000;stroke-linecap:round;"/>
    <path clip-path="url(#p1df953895c)" d="M 348.75818 487.153247 
L 344.618761 488.84594 
L 345.748258 484.518789 
L 348.75818 487.153247 
z
" style="stroke:#000000;stroke-linecap:round;"/>
   </g>
   <g id="patch_5">
    <path clip-path="url(#p1df953895c)" d="M 408.087618 406.810531 
Q 346.79299 409.405799 286.615394 411.953771 
" style="fill:none;stroke:#000000;stroke-linecap:round;"/>
    <path clip-path="url(#p1df953895c)" d="M 290.696419 413.782769 
L 286.615394 411.953771 
L 290.527207 409.786349 
L 290.696419 413.782769 
z
" style="stroke:#000000;stroke-linecap:round;"/>
   </g>
   <g id="patch_6">
    <path clip-path="url(#p1df953895c)" d="M 410.755235 400.185846 
Q 374.116485 361.883138 338.250561 324.388353 
" style="fill:none;stroke:#000000;stroke-linecap:round;"/>
    <path clip-path="url(#p1df953895c)" d="M 339.570248 328.661341 
L 338.250561 324.388353 
L 342.460763 325.896396 
L 339.570248 328.661341 
z
" style="stroke:#000000;stroke-linecap:round;"/>
   </g>
   <g id="patch_7">
    <path clip-path="url(#p1df953895c)" d="M 779.152305 380.536164 
Q 844.647631 398.261555 907.984538 415.402801 
" style="fill:none;stroke:#ff0000;stroke-linecap:round;stroke-width:2;"/>
    <path clip-path="url(#p1df953895c)" d="M 904.645916 412.4273 
L 907.984538 415.402801 
L 903.600964 416.288398 
L 904.645916 412.4273 
z
" style="fill:#ff0000;stroke:#ff0000;stroke-linecap:round;stroke-width:2;"/>
   </g>
   <g id="patch_8">
    <path clip-path="url(#p1df953895c)" d="M 770.554554 369.614248 
Q 769.301889 323.643307 768.079677 278.789985 
" style="fill:none;stroke:#000000;stroke-linecap:round;"/>
    <path clip-path="url(#p1df953895c)" d="M 766.189375 282.842979 
L 768.079677 278.789985 
L 770.187891 282.734023 
L 766.189375 282.842979 
z
" style="stroke:#000000;stroke-linecap:round;"/>
   </g>
   <g id="patch_9">
    <path clip-path="url(#p1df953895c)" d="M 925.228751 423.701922 
Q 993.125102 478.723455 1060.15283 533.041076 
" style="fill:none;stroke:#000000;stroke-linecap:round;"/>
    <path clip-path="url(#p1df953895c)" d="M 1058.304341 528.968842 
L 1060.15283 533.041076 
L 1055.785949 532.076527 
L 1058.304341 528.968842 
z
" style="stroke:#000000;stroke-linecap:round;"/>
   </g>
   <g id="patch_10">
    <path clip-path="url(#p1df953895c)" d="M 924.623635 412.126994 
Q 961.362676 375.406023 997.310953 339.475426 
" style="fill:none;stroke:#000000;stroke-linecap:round;"/>
    <path clip-path="url(#p1df953895c)" d="M 993.067964 340.888596 
L 997.310953 339.475426 
L 995.895696 343.717719 
L 993.067964 340.888596 
z
" style="stroke:#000000;stroke-linecap:round;"/>
   </g>
   <g id="patch_11">
    <path clip-path="url(#p1df953895c)" d="M 1069.55479 547.662192 
Q 1084.370946 617.077472 1098.953723 685.399347 
" style="fill:none;stroke:#000000;stroke-linecap:round;"/>
    <path clip-path="url(#p1df953895c)" d="M 1100.074704 681.069982 
L 1098.953723 685.399347 
L 1096.16282 681.904944 
L 1100.074704 681.069982 
z
" style="stroke:#000000;stroke-linecap:round;"/>
   </g>
   <g id="patch_12">
    <path clip-path="url(#p1df953895c)" d="M 1076.22947 537.437097 
Q 1133.452232 525.572113 1189.580245 513.934121 
" style="fill:none;stroke:#000000;stroke-linecap:round;"/>
    <path clip-path="url(#p1df953895c)" d="M 1185.257496 512.787891 
L 1189.580245 513.934121 
L 1186.069612 516.704582 
L 1185.257496 512.787891 
z
" style="stroke:#000000;stroke-linecap:round;"/>
   </g>
   <g id="patch_13">
    <path clip-path="url(#p1df953895c)" d="M 1100.772231 703.622085 
Q 1099.089296 768.788052 1097.435224 832.836358 
" style="fill:none;stroke:#000000;stroke-linecap:round;"/>
    <path clip-path="url(#p1df953895c)" d="M 1099.537825 828.889324 
L 1097.435224 832.836358 
L 1095.539158 828.786057 
L 1099.537825 828.889324 
z
" style="stroke:#000000;stroke-linecap:round;"/>
   </g>
   <g id="patch_14">
    <path clip-path="url(#p1df953895c)" d="M 1094.553822 850.860111 
Q 1076.14176 908.632086 1058.069194 965.338818 
" style="fill:none;stroke:#000000;stroke-linecap:round;"/>
    <path clip-path="url(#p1df953895c)" d="M 1061.189375 962.134996 
L 1058.069194 965.338818 
L 1057.378245 960.920381 
L 1061.189375 962.134996 
z
" style="stroke:#000000;stroke-linecap:round;"/>
   </g>
   <g id="patch_15">
    <path clip-path="url(#p1df953895c)" d="M 1051.115619 982.344795 
Q 1025.367727 1032.02635 1000.134282 1080.71526 
" style="fill:none;stroke:#000000;stroke-linecap:round;"/>
    <path clip-path="url(#p1df953895c)" d="M 1003.75052 1078.084135 
L 1000.134282 1080.71526 
L 1000.199125 1076.243594 
L 1003.75052 1078.084135 
z
" style="stroke:#000000;stroke-linecap:round;"/>
   </g>
   <g id="patch_16">
    <path clip-path="url(#p1df953895c)" d="M 991.901195 1097.207355 
Q 972.692245 1137.388787 953.965509 1176.561522 
" style="fill:none;stroke:#000000;stroke-linecap:round;"/>
    <path clip-path="url(#p1df953895c)" d="M 957.49514 1173.815306 
L 953.965509 1176.561522 
L 953.886314 1172.090087 
L 957.49514 1173.815306 
z
" style="stroke:#000000;stroke-linecap:round;"/>
   </g>
   <g id="PathCollection_1">
    <defs>
     <path d="M 0 8.660254 
C 2.296726 8.660254 4.499694 7.747755 6.123724 6.123724 
C 7.747755 4.499694 8.660254 2.296726 8.660254 0 
C 8.660254 -2.296726 7.747755 -4.499694 6.123724 -6.123724 
C 4.499694 -7.747755 2.296726 -8.660254 0 -8.660254 
C -2.296726 -8.660254 -4.499694 -7.747755 -6.123724 -6.123724 
C -7.747755 -4.499694 -8.660254 -2.296726 -8.660254 0 
C -8.660254 2.296726 -7.747755 4.499694 -6.123724 6.123724 
C -4.499694 7.747755 -2.296726 8.660254 0 8.660254 
z
" id="mf971874eff" style="stroke:#1f78b4;"/>
    </defs>
    <g clip-path="url(#p1df953895c)">
     <use style="fill:#1f78b4;stroke:#1f78b4;" x="562.249911" xlink:href="#mf971874eff" y="391.326204"/>
     <use style="fill:#1f78b4;stroke:#1f78b4;" x="416.741628" xlink:href="#mf971874eff" y="406.444113"/>
     <use style="fill:#1f78b4;stroke:#1f78b4;" x="338.179205" xlink:href="#mf971874eff" y="496.203262"/>
     <use style="fill:#1f78b4;stroke:#1f78b4;" x="276.842975" xlink:href="#mf971874eff" y="412.367544"/>
     <use style="fill:#1f78b4;stroke:#1f78b4;" x="331.490814" xlink:href="#mf971874eff" y="317.32161"/>
     <use style="fill:#1f78b4;stroke:#1f78b4;" x="770.790501" xlink:href="#mf971874eff" y="378.273159"/>
     <use style="fill:#1f78b4;stroke:#1f78b4;" x="918.499176" xlink:href="#mf971874eff" y="418.24844"/>
     <use style="fill:#1f78b4;stroke:#1f78b4;" x="767.813405" xlink:href="#mf971874eff" y="269.018182"/>
     <use style="fill:#1f78b4;stroke:#1f78b4;" x="1067.747698" xlink:href="#mf971874eff" y="539.19577"/>
     <use style="fill:#1f78b4;stroke:#1f78b4;" x="1004.225902" xlink:href="#mf971874eff" y="332.563878"/>
     <use style="fill:#1f78b4;stroke:#1f78b4;" x="1100.995764" xlink:href="#mf971874eff" y="694.966528"/>
     <use style="fill:#1f78b4;stroke:#1f78b4;" x="1199.157025" xlink:href="#mf971874eff" y="511.948402"/>
     <use style="fill:#1f78b4;stroke:#1f78b4;" x="1097.182787" xlink:href="#mf971874eff" y="842.611144"/>
     <use style="fill:#1f78b4;stroke:#1f78b4;" x="1055.098802" xlink:href="#mf971874eff" y="974.659089"/>
     <use style="fill:#1f78b4;stroke:#1f78b4;" x="995.635959" xlink:href="#mf971874eff" y="1089.394947"/>
     <use style="fill:#1f78b4;stroke:#1f78b4;" x="949.748919" xlink:href="#mf971874eff" y="1185.381818"/>
    </g>
   </g>
   <g id="text_1">
    <g clip-path="url(#p1df953895c)">
     <!-- 1 -->
     <g transform="translate(558.432411 394.637454)scale(0.12 -0.12)">
      <defs>
       <path d="M 794 531 
L 1825 531 
L 1825 4091 
L 703 3866 
L 703 4441 
L 1819 4666 
L 2450 4666 
L 2450 531 
L 3481 531 
L 3481 0 
L 794 0 
L 794 531 
z
" id="DejaVuSans-31" transform="scale(0.015625)"/>
      </defs>
      <use xlink:href="#DejaVuSans-31"/>
     </g>
    </g>
   </g>
   <g id="text_2">
    <g clip-path="url(#p1df953895c)">
     <!-- 0 -->
     <g transform="translate(412.924128 409.755363)scale(0.12 -0.12)">
      <defs>
       <path d="M 2034 4250 
Q 1547 4250 1301 3770 
Q 1056 3291 1056 2328 
Q 1056 1369 1301 889 
Q 1547 409 2034 409 
Q 2525 409 2770 889 
Q 3016 1369 3016 2328 
Q 3016 3291 2770 3770 
Q 2525 4250 2034 4250 
z
M 2034 4750 
Q 2819 4750 3233 4129 
Q 3647 3509 3647 2328 
Q 3647 1150 3233 529 
Q 2819 -91 2034 -91 
Q 1250 -91 836 529 
Q 422 1150 422 2328 
Q 422 3509 836 4129 
Q 1250 4750 2034 4750 
z
" id="DejaVuSans-30" transform="scale(0.015625)"/>
      </defs>
      <use xlink:href="#DejaVuSans-30"/>
     </g>
    </g>
   </g>
   <g id="text_3">
    <g clip-path="url(#p1df953895c)">
     <!-- 2 -->
     <g transform="translate(334.361705 499.514512)scale(0.12 -0.12)">
      <defs>
       <path d="M 1228 531 
L 3431 531 
L 3431 0 
L 469 0 
L 469 531 
Q 828 903 1448 1529 
Q 2069 2156 2228 2338 
Q 2531 2678 2651 2914 
Q 2772 3150 2772 3378 
Q 2772 3750 2511 3984 
Q 2250 4219 1831 4219 
Q 1534 4219 1204 4116 
Q 875 4013 500 3803 
L 500 4441 
Q 881 4594 1212 4672 
Q 1544 4750 1819 4750 
Q 2544 4750 2975 4387 
Q 3406 4025 3406 3419 
Q 3406 3131 3298 2873 
Q 3191 2616 2906 2266 
Q 2828 2175 2409 1742 
Q 1991 1309 1228 531 
z
" id="DejaVuSans-32" transform="scale(0.015625)"/>
      </defs>
      <use xlink:href="#DejaVuSans-32"/>
     </g>
    </g>
   </g>
   <g id="text_4">
    <g clip-path="url(#p1df953895c)">
     <!-- 3 -->
     <g transform="translate(273.025475 415.678794)scale(0.12 -0.12)">
      <defs>
       <path d="M 2597 2516 
Q 3050 2419 3304 2112 
Q 3559 1806 3559 1356 
Q 3559 666 3084 287 
Q 2609 -91 1734 -91 
Q 1441 -91 1130 -33 
Q 819 25 488 141 
L 488 750 
Q 750 597 1062 519 
Q 1375 441 1716 441 
Q 2309 441 2620 675 
Q 2931 909 2931 1356 
Q 2931 1769 2642 2001 
Q 2353 2234 1838 2234 
L 1294 2234 
L 1294 2753 
L 1863 2753 
Q 2328 2753 2575 2939 
Q 2822 3125 2822 3475 
Q 2822 3834 2567 4026 
Q 2313 4219 1838 4219 
Q 1578 4219 1281 4162 
Q 984 4106 628 3988 
L 628 4550 
Q 988 4650 1302 4700 
Q 1616 4750 1894 4750 
Q 2613 4750 3031 4423 
Q 3450 4097 3450 3541 
Q 3450 3153 3228 2886 
Q 3006 2619 2597 2516 
z
" id="DejaVuSans-33" transform="scale(0.015625)"/>
      </defs>
      <use xlink:href="#DejaVuSans-33"/>
     </g>
    </g>
   </g>
   <g id="text_5">
    <g clip-path="url(#p1df953895c)">
     <!-- 4 -->
     <g transform="translate(327.673314 320.63286)scale(0.12 -0.12)">
      <defs>
       <path d="M 2419 4116 
L 825 1625 
L 2419 1625 
L 2419 4116 
z
M 2253 4666 
L 3047 4666 
L 3047 1625 
L 3713 1625 
L 3713 1100 
L 3047 1100 
L 3047 0 
L 2419 0 
L 2419 1100 
L 313 1100 
L 313 1709 
L 2253 4666 
z
" id="DejaVuSans-34" transform="scale(0.015625)"/>
      </defs>
      <use xlink:href="#DejaVuSans-34"/>
     </g>
    </g>
   </g>
   <g id="text_6">
    <g clip-path="url(#p1df953895c)">
     <!-- 5 -->
     <g transform="translate(766.973001 381.584409)scale(0.12 -0.12)">
      <defs>
       <path d="M 691 4666 
L 3169 4666 
L 3169 4134 
L 1269 4134 
L 1269 2991 
Q 1406 3038 1543 3061 
Q 1681 3084 1819 3084 
Q 2600 3084 3056 2656 
Q 3513 2228 3513 1497 
Q 3513 744 3044 326 
Q 2575 -91 1722 -91 
Q 1428 -91 1123 -41 
Q 819 9 494 109 
L 494 744 
Q 775 591 1075 516 
Q 1375 441 1709 441 
Q 2250 441 2565 725 
Q 2881 1009 2881 1497 
Q 2881 1984 2565 2268 
Q 2250 2553 1709 2553 
Q 1456 2553 1204 2497 
Q 953 2441 691 2322 
L 691 4666 
z
" id="DejaVuSans-35" transform="scale(0.015625)"/>
      </defs>
      <use xlink:href="#DejaVuSans-35"/>
     </g>
    </g>
   </g>
   <g id="text_7">
    <g clip-path="url(#p1df953895c)">
     <!-- 6 -->
     <g transform="translate(914.681676 421.55969)scale(0.12 -0.12)">
      <defs>
       <path d="M 2113 2584 
Q 1688 2584 1439 2293 
Q 1191 2003 1191 1497 
Q 1191 994 1439 701 
Q 1688 409 2113 409 
Q 2538 409 2786 701 
Q 3034 994 3034 1497 
Q 3034 2003 2786 2293 
Q 2538 2584 2113 2584 
z
M 3366 4563 
L 3366 3988 
Q 3128 4100 2886 4159 
Q 2644 4219 2406 4219 
Q 1781 4219 1451 3797 
Q 1122 3375 1075 2522 
Q 1259 2794 1537 2939 
Q 1816 3084 2150 3084 
Q 2853 3084 3261 2657 
Q 3669 2231 3669 1497 
Q 3669 778 3244 343 
Q 2819 -91 2113 -91 
Q 1303 -91 875 529 
Q 447 1150 447 2328 
Q 447 3434 972 4092 
Q 1497 4750 2381 4750 
Q 2619 4750 2861 4703 
Q 3103 4656 3366 4563 
z
" id="DejaVuSans-36" transform="scale(0.015625)"/>
      </defs>
      <use xlink:href="#DejaVuSans-36"/>
     </g>
    </g>
   </g>
   <g id="text_8">
    <g clip-path="url(#p1df953895c)">
     <!-- 7 -->
     <g transform="translate(763.995905 272.329432)scale(0.12 -0.12)">
      <defs>
       <path d="M 525 4666 
L 3525 4666 
L 3525 4397 
L 1831 0 
L 1172 0 
L 2766 4134 
L 525 4134 
L 525 4666 
z
" id="DejaVuSans-37" transform="scale(0.015625)"/>
      </defs>
      <use xlink:href="#DejaVuSans-37"/>
     </g>
    </g>
   </g>
   <g id="text_9">
    <g clip-path="url(#p1df953895c)">
     <!-- 8 -->
     <g transform="translate(1063.930198 542.50702)scale(0.12 -0.12)">
      <defs>
       <path d="M 2034 2216 
Q 1584 2216 1326 1975 
Q 1069 1734 1069 1313 
Q 1069 891 1326 650 
Q 1584 409 2034 409 
Q 2484 409 2743 651 
Q 3003 894 3003 1313 
Q 3003 1734 2745 1975 
Q 2488 2216 2034 2216 
z
M 1403 2484 
Q 997 2584 770 2862 
Q 544 3141 544 3541 
Q 544 4100 942 4425 
Q 1341 4750 2034 4750 
Q 2731 4750 3128 4425 
Q 3525 4100 3525 3541 
Q 3525 3141 3298 2862 
Q 3072 2584 2669 2484 
Q 3125 2378 3379 2068 
Q 3634 1759 3634 1313 
Q 3634 634 3220 271 
Q 2806 -91 2034 -91 
Q 1263 -91 848 271 
Q 434 634 434 1313 
Q 434 1759 690 2068 
Q 947 2378 1403 2484 
z
M 1172 3481 
Q 1172 3119 1398 2916 
Q 1625 2713 2034 2713 
Q 2441 2713 2670 2916 
Q 2900 3119 2900 3481 
Q 2900 3844 2670 4047 
Q 2441 4250 2034 4250 
Q 1625 4250 1398 4047 
Q 1172 3844 1172 3481 
z
" id="DejaVuSans-38" transform="scale(0.015625)"/>
      </defs>
      <use xlink:href="#DejaVuSans-38"/>
     </g>
    </g>
   </g>
   <g id="text_10">
    <g clip-path="url(#p1df953895c)">
     <!-- 9 -->
     <g transform="translate(1000.408402 335.875128)scale(0.12 -0.12)">
      <defs>
       <path d="M 703 97 
L 703 672 
Q 941 559 1184 500 
Q 1428 441 1663 441 
Q 2288 441 2617 861 
Q 2947 1281 2994 2138 
Q 2813 1869 2534 1725 
Q 2256 1581 1919 1581 
Q 1219 1581 811 2004 
Q 403 2428 403 3163 
Q 403 3881 828 4315 
Q 1253 4750 1959 4750 
Q 2769 4750 3195 4129 
Q 3622 3509 3622 2328 
Q 3622 1225 3098 567 
Q 2575 -91 1691 -91 
Q 1453 -91 1209 -44 
Q 966 3 703 97 
z
M 1959 2075 
Q 2384 2075 2632 2365 
Q 2881 2656 2881 3163 
Q 2881 3666 2632 3958 
Q 2384 4250 1959 4250 
Q 1534 4250 1286 3958 
Q 1038 3666 1038 3163 
Q 1038 2656 1286 2365 
Q 1534 2075 1959 2075 
z
" id="DejaVuSans-39" transform="scale(0.015625)"/>
      </defs>
      <use xlink:href="#DejaVuSans-39"/>
     </g>
    </g>
   </g>
   <g id="text_11">
    <g clip-path="url(#p1df953895c)">
     <!-- 10 -->
     <g transform="translate(1093.360764 698.277778)scale(0.12 -0.12)">
      <use xlink:href="#DejaVuSans-31"/>
      <use x="63.623047" xlink:href="#DejaVuSans-30"/>
     </g>
    </g>
   </g>
   <g id="text_12">
    <g clip-path="url(#p1df953895c)">
     <!-- 11 -->
     <g transform="translate(1191.522025 515.259652)scale(0.12 -0.12)">
      <use xlink:href="#DejaVuSans-31"/>
      <use x="63.623047" xlink:href="#DejaVuSans-31"/>
     </g>
    </g>
   </g>
   <g id="text_13">
    <g clip-path="url(#p1df953895c)">
     <!-- 12 -->
     <g transform="translate(1089.547787 845.922394)scale(0.12 -0.12)">
      <use xlink:href="#DejaVuSans-31"/>
      <use x="63.623047" xlink:href="#DejaVuSans-32"/>
     </g>
    </g>
   </g>
   <g id="text_14">
    <g clip-path="url(#p1df953895c)">
     <!-- 13 -->
     <g transform="translate(1047.463802 977.970339)scale(0.12 -0.12)">
      <use xlink:href="#DejaVuSans-31"/>
      <use x="63.623047" xlink:href="#DejaVuSans-33"/>
     </g>
    </g>
   </g>
   <g id="text_15">
    <g clip-path="url(#p1df953895c)">
     <!-- 14 -->
     <g transform="translate(988.000959 1092.706197)scale(0.12 -0.12)">
      <use xlink:href="#DejaVuSans-31"/>
      <use x="63.623047" xlink:href="#DejaVuSans-34"/>
     </g>
    </g>
   </g>
   <g id="text_16">
    <g clip-path="url(#p1df953895c)">
     <!-- 15 -->
     <g transform="translate(942.113919 1188.693068)scale(0.12 -0.12)">
      <use xlink:href="#DejaVuSans-31"/>
      <use x="63.623047" xlink:href="#DejaVuSans-35"/>
     </g>
    </g>
   </g>
  </g>
 </g>
 <defs>
  <clipPath id="p1df953895c">
   <rect height="1108.8" width="1116" x="180" y="172.8"/>
  </clipPath>
 </defs>
</svg>
