<?xml version="1.0" encoding="utf-8" standalone="no"?>
<!DOCTYPE svg PUBLIC "-//W3C//DTD SVG 1.1//EN"
  "http://www.w3.org/Graphics/SVG/1.1/DTD/svg11.dtd">
<svg height="1440pt" version="1.1" viewBox="0 0 1440 1440" width="1440pt" xmlns="http://www.w3.org/2000/svg" xmlns:xlink="http://www.w3.org/1999/xlink">
 <metadata>
  <rdf:RDF xmlns:cc="http://creativecommons.org/ns#" xmlns:dc="http://purl.org/dc/elements/1.1/" xmlns:rdf="http://www.w3.org/1999/02/22-rdf-syntax-ns#">
   <cc:Work>
    <dc:type rdf:resource="http://purl.org/dc/dcmitype/StillImage"/>
    <dc:date>2021-10-17T05:30:26.213818</dc:date>
    <dc:format>image/svg+xml</dc:format>
    <dc:creator>
     <cc:Agent>
      <dc:title>Matplotlib v3.4.3, https://matplotlib.org/</dc:title>
     </cc:Agent>
    </dc:creator>
   </cc:Work>
  </rdf:RDF>
 </metadata>
 <defs>
  <style type="text/css">*{stroke-linecap:butt;stroke-linejoin:round;}</style>
 </defs>
 <g id="figure_1">
  <g id="patch_1">
   <path d="M 0 1440 
L 1440 1440 
L 1440 0 
L 0 0 
z
" style="fill:#ffffff;"/>
  </g>
  <g id="axes_1">
   <g id="patch_2">
    <path clip-path="url(#p8ad00340a4)" d="M 938.791844 1034.777681 
Q 995.666993 1025.433871 1050.335652 1016.452558 
" style="fill:none;stroke:#ff0000;stroke-linecap:round;stroke-width:2;"/>
    <path clip-path="url(#p8ad00340a4)" d="M 1046.064337 1015.127466 
L 1050.335652 1016.452558 
L 1046.71279 1019.074555 
L 1046.064337 1015.127466 
z
" style="fill:#ff0000;stroke:#ff0000;stroke-linecap:round;stroke-width:2;"/>
   </g>
   <g id="patch_3">
    <path clip-path="url(#p8ad00340a4)" d="M 921.608913 1035.537437 
Q 828.438755 1028.580146 736.383526 1021.70611 
" style="fill:none;stroke:#000000;stroke-linecap:round;"/>
    <path clip-path="url(#p8ad00340a4)" d="M 740.223489 1023.99842 
L 736.383526 1021.70611 
L 740.521352 1020.009526 
L 740.223489 1023.99842 
z
" style="stroke:#000000;stroke-linecap:round;"/>
   </g>
   <g id="patch_4">
    <path clip-path="url(#p8ad00340a4)" d="M 1069.153987 1011.532043 
Q 1130.122666 987.696725 1190.050057 964.268493 
" style="fill:none;stroke:#000000;stroke-linecap:round;"/>
    <path clip-path="url(#p8ad00340a4)" d="M 1185.596414 963.862211 
L 1190.050057 964.268493 
L 1187.052846 967.587638 
L 1185.596414 963.862211 
z
" style="stroke:#000000;stroke-linecap:round;"/>
   </g>
   <g id="patch_5">
    <path clip-path="url(#p8ad00340a4)" d="M 719.899155 1015.530949 
Q 660.162906 967.202262 602.165045 920.279992 
" style="fill:none;stroke:#ff0000;stroke-linecap:round;stroke-width:2;"/>
    <path clip-path="url(#p8ad00340a4)" d="M 604.016832 924.350727 
L 602.165045 920.279992 
L 606.532705 921.241003 
L 604.016832 924.350727 
z
" style="fill:#ff0000;stroke:#ff0000;stroke-linecap:round;stroke-width:2;"/>
   </g>
   <g id="patch_6">
    <path clip-path="url(#p8ad00340a4)" d="M 726.52637 1029.635117 
Q 725.630368 1103.18085 724.747985 1175.608632 
" style="fill:none;stroke:#000000;stroke-linecap:round;"/>
    <path clip-path="url(#p8ad00340a4)" d="M 726.796565 1171.633293 
L 724.747985 1175.608632 
L 722.796861 1171.584565 
L 726.796565 1171.633293 
z
" style="stroke:#000000;stroke-linecap:round;"/>
   </g>
   <g id="patch_7">
    <path clip-path="url(#p8ad00340a4)" d="M 587.804664 907.069938 
Q 508.089405 821.015031 429.133926 735.780329 
" style="fill:none;stroke:#000000;stroke-linecap:round;"/>
    <path clip-path="url(#p8ad00340a4)" d="M 430.384972 740.073916 
L 429.133926 735.780329 
L 433.319423 737.355645 
L 430.384972 740.073916 
z
" style="stroke:#000000;stroke-linecap:round;"/>
   </g>
   <g id="patch_8">
    <path clip-path="url(#p8ad00340a4)" d="M 427.383155 721.465224 
Q 469.283208 660.32066 509.919268 601.020635 
" style="fill:none;stroke:#ff0000;stroke-linecap:round;stroke-width:2;"/>
    <path clip-path="url(#p8ad00340a4)" d="M 506.008364 603.189697 
L 509.919268 601.020635 
L 509.307976 605.450795 
L 506.008364 603.189697 
z
" style="fill:#ff0000;stroke:#ff0000;stroke-linecap:round;stroke-width:2;"/>
   </g>
   <g id="patch_9">
    <path clip-path="url(#p8ad00340a4)" d="M 418.296781 721.029859 
Q 382.705555 656.702454 347.655594 593.35333 
" style="fill:none;stroke:#000000;stroke-linecap:round;"/>
    <path clip-path="url(#p8ad00340a4)" d="M 347.842082 597.821576 
L 347.655594 593.35333 
L 351.342084 595.885087 
L 347.842082 597.821576 
z
" style="stroke:#000000;stroke-linecap:round;"/>
   </g>
   <g id="patch_10">
    <path clip-path="url(#p8ad00340a4)" d="M 414.430756 725.430569 
Q 349.665658 699.901027 285.940701 674.781494 
" style="fill:none;stroke:#000000;stroke-linecap:round;"/>
    <path clip-path="url(#p8ad00340a4)" d="M 288.928573 678.109048 
L 285.940701 674.781494 
L 290.395468 674.387729 
L 288.928573 678.109048 
z
" style="stroke:#000000;stroke-linecap:round;"/>
   </g>
   <g id="patch_11">
    <path clip-path="url(#p8ad00340a4)" d="M 414.437773 731.801366 
Q 349.888244 757.410799 286.377948 782.607925 
" style="fill:none;stroke:#000000;stroke-linecap:round;"/>
    <path clip-path="url(#p8ad00340a4)" d="M 290.833573 782.99185 
L 286.377948 782.607925 
L 289.358463 779.27378 
L 290.833573 782.99185 
z
" style="stroke:#000000;stroke-linecap:round;"/>
   </g>
   <g id="patch_12">
    <path clip-path="url(#p8ad00340a4)" d="M 418.559616 736.32357 
Q 386.900163 798.494335 355.748055 859.668807 
" style="fill:none;stroke:#000000;stroke-linecap:round;"/>
    <path clip-path="url(#p8ad00340a4)" d="M 359.345415 857.011929 
L 355.748055 859.668807 
L 355.780968 855.196792 
L 359.345415 857.011929 
z
" style="stroke:#000000;stroke-linecap:round;"/>
   </g>
   <g id="patch_13">
    <path clip-path="url(#p8ad00340a4)" d="M 522.112348 585.81261 
Q 589.920738 515.920177 656.950612 446.830186 
" style="fill:none;stroke:#000000;stroke-linecap:round;"/>
    <path clip-path="url(#p8ad00340a4)" d="M 652.729859 448.308441 
L 656.950612 446.830186 
L 655.600764 451.093742 
L 652.729859 448.308441 
z
" style="stroke:#000000;stroke-linecap:round;"/>
   </g>
   <g id="patch_14">
    <path clip-path="url(#p8ad00340a4)" d="M 671.980917 442.536351 
Q 721.383983 458.92403 768.6647 474.607697 
" style="fill:none;stroke:#ff0000;stroke-linecap:round;stroke-width:2;"/>
    <path clip-path="url(#p8ad00340a4)" d="M 765.497814 471.450034 
L 768.6647 474.607697 
L 764.238438 475.246608 
L 765.497814 471.450034 
z
" style="fill:#ff0000;stroke:#ff0000;stroke-linecap:round;stroke-width:2;"/>
   </g>
   <g id="patch_15">
    <path clip-path="url(#p8ad00340a4)" d="M 664.363909 431.170747 
Q 669.715566 354.412034 674.989463 278.768647 
" style="fill:none;stroke:#000000;stroke-linecap:round;"/>
    <path clip-path="url(#p8ad00340a4)" d="M 672.7161 282.619857 
L 674.989463 278.768647 
L 676.706413 282.898064 
L 672.7161 282.619857 
z
" style="stroke:#000000;stroke-linecap:round;"/>
   </g>
   <g id="patch_16">
    <path clip-path="url(#p8ad00340a4)" d="M 784.456778 484.773169 
Q 834.16496 546.211186 883.16991 606.780027 
" style="fill:none;stroke:#000000;stroke-linecap:round;"/>
    <path clip-path="url(#p8ad00340a4)" d="M 882.208782 602.412393 
L 883.16991 606.780027 
L 879.099126 604.928349 
L 882.208782 602.412393 
z
" style="stroke:#000000;stroke-linecap:round;"/>
   </g>
   <g id="patch_17">
    <path clip-path="url(#p8ad00340a4)" d="M 891.829935 622.677353 
Q 901.111922 653.368264 908.775639 678.708362 
" style="fill:none;stroke:#0000ff;stroke-linecap:round;stroke-width:5;"/>
    <path clip-path="url(#p8ad00340a4)" d="M 909.532065 674.300661 
L 908.775639 678.708362 
L 905.703334 675.458601 
L 909.532065 674.300661 
z
" style="fill:#0000ff;stroke:#0000ff;stroke-linecap:round;stroke-width:5;"/>
   </g>
   <g id="PathCollection_1">
    <defs>
     <path d="M 0 8.660254 
C 2.296726 8.660254 4.499694 7.747755 6.123724 6.123724 
C 7.747755 4.499694 8.660254 2.296726 8.660254 0 
C 8.660254 -2.296726 7.747755 -4.499694 6.123724 -6.123724 
C 4.499694 -7.747755 2.296726 -8.660254 0 -8.660254 
C -2.296726 -8.660254 -4.499694 -7.747755 -6.123724 -6.123724 
C -7.747755 -4.499694 -8.660254 -2.296726 -8.660254 0 
C -8.660254 2.296726 -7.747755 4.499694 -6.123724 6.123724 
C -4.499694 7.747755 -2.296726 8.660254 0 8.660254 
z
" id="m13192764c9" style="stroke:#1f78b4;"/>
    </defs>
    <g clip-path="url(#p8ad00340a4)">
     <use style="fill:#1f78b4;stroke:#1f78b4;" x="930.242871" xlink:href="#m13192764c9" y="1036.18216"/>
     <use style="fill:#1f78b4;stroke:#1f78b4;" x="1061.084891" xlink:href="#m13192764c9" y="1014.686605"/>
     <use style="fill:#1f78b4;stroke:#1f78b4;" x="1199.157025" xlink:href="#m13192764c9" y="960.708181"/>
     <use style="fill:#1f78b4;stroke:#1f78b4;" x="726.63184" xlink:href="#m13192764c9" y="1020.977923"/>
     <use style="fill:#1f78b4;stroke:#1f78b4;" x="593.690224" xlink:href="#m13192764c9" y="913.423569"/>
     <use style="fill:#1f78b4;stroke:#1f78b4;" x="724.628919" xlink:href="#m13192764c9" y="1185.381818"/>
     <use style="fill:#1f78b4;stroke:#1f78b4;" x="422.489119" xlink:href="#m13192764c9" y="728.607069"/>
     <use style="fill:#1f78b4;stroke:#1f78b4;" x="516.079879" xlink:href="#m13192764c9" y="592.030483"/>
     <use style="fill:#1f78b4;stroke:#1f78b4;" x="342.920901" xlink:href="#m13192764c9" y="584.795871"/>
     <use style="fill:#1f78b4;stroke:#1f78b4;" x="276.842975" xlink:href="#m13192764c9" y="671.195291"/>
     <use style="fill:#1f78b4;stroke:#1f78b4;" x="277.290166" xlink:href="#m13192764c9" y="786.213419"/>
     <use style="fill:#1f78b4;stroke:#1f78b4;" x="351.310598" xlink:href="#m13192764c9" y="868.382795"/>
     <use style="fill:#1f78b4;stroke:#1f78b4;" x="663.761583" xlink:href="#m13192764c9" y="439.809884"/>
     <use style="fill:#1f78b4;stroke:#1f78b4;" x="779.008101" xlink:href="#m13192764c9" y="478.038746"/>
     <use style="fill:#1f78b4;stroke:#1f78b4;" x="675.669271" xlink:href="#m13192764c9" y="269.018182"/>
     <use style="fill:#1f78b4;stroke:#1f78b4;" x="889.321512" xlink:href="#m13192764c9" y="614.383247"/>
     <use style="fill:#1f78b4;stroke:#1f78b4;" x="912.900399" xlink:href="#m13192764c9" y="692.34689"/>
    </g>
   </g>
   <g id="text_1">
    <g clip-path="url(#p8ad00340a4)">
     <!-- 1 -->
     <g transform="translate(926.425371 1039.49341)scale(0.12 -0.12)">
      <defs>
       <path d="M 794 531 
L 1825 531 
L 1825 4091 
L 703 3866 
L 703 4441 
L 1819 4666 
L 2450 4666 
L 2450 531 
L 3481 531 
L 3481 0 
L 794 0 
L 794 531 
z
" id="DejaVuSans-31" transform="scale(0.015625)"/>
      </defs>
      <use xlink:href="#DejaVuSans-31"/>
     </g>
    </g>
   </g>
   <g id="text_2">
    <g clip-path="url(#p8ad00340a4)">
     <!-- 0 -->
     <g transform="translate(1057.267391 1017.997855)scale(0.12 -0.12)">
      <defs>
       <path d="M 2034 4250 
Q 1547 4250 1301 3770 
Q 1056 3291 1056 2328 
Q 1056 1369 1301 889 
Q 1547 409 2034 409 
Q 2525 409 2770 889 
Q 3016 1369 3016 2328 
Q 3016 3291 2770 3770 
Q 2525 4250 2034 4250 
z
M 2034 4750 
Q 2819 4750 3233 4129 
Q 3647 3509 3647 2328 
Q 3647 1150 3233 529 
Q 2819 -91 2034 -91 
Q 1250 -91 836 529 
Q 422 1150 422 2328 
Q 422 3509 836 4129 
Q 1250 4750 2034 4750 
z
" id="DejaVuSans-30" transform="scale(0.015625)"/>
      </defs>
      <use xlink:href="#DejaVuSans-30"/>
     </g>
    </g>
   </g>
   <g id="text_3">
    <g clip-path="url(#p8ad00340a4)">
     <!-- 2 -->
     <g transform="translate(1195.339525 964.019431)scale(0.12 -0.12)">
      <defs>
       <path d="M 1228 531 
L 3431 531 
L 3431 0 
L 469 0 
L 469 531 
Q 828 903 1448 1529 
Q 2069 2156 2228 2338 
Q 2531 2678 2651 2914 
Q 2772 3150 2772 3378 
Q 2772 3750 2511 3984 
Q 2250 4219 1831 4219 
Q 1534 4219 1204 4116 
Q 875 4013 500 3803 
L 500 4441 
Q 881 4594 1212 4672 
Q 1544 4750 1819 4750 
Q 2544 4750 2975 4387 
Q 3406 4025 3406 3419 
Q 3406 3131 3298 2873 
Q 3191 2616 2906 2266 
Q 2828 2175 2409 1742 
Q 1991 1309 1228 531 
z
" id="DejaVuSans-32" transform="scale(0.015625)"/>
      </defs>
      <use xlink:href="#DejaVuSans-32"/>
     </g>
    </g>
   </g>
   <g id="text_4">
    <g clip-path="url(#p8ad00340a4)">
     <!-- 3 -->
     <g transform="translate(722.81434 1024.289173)scale(0.12 -0.12)">
      <defs>
       <path d="M 2597 2516 
Q 3050 2419 3304 2112 
Q 3559 1806 3559 1356 
Q 3559 666 3084 287 
Q 2609 -91 1734 -91 
Q 1441 -91 1130 -33 
Q 819 25 488 141 
L 488 750 
Q 750 597 1062 519 
Q 1375 441 1716 441 
Q 2309 441 2620 675 
Q 2931 909 2931 1356 
Q 2931 1769 2642 2001 
Q 2353 2234 1838 2234 
L 1294 2234 
L 1294 2753 
L 1863 2753 
Q 2328 2753 2575 2939 
Q 2822 3125 2822 3475 
Q 2822 3834 2567 4026 
Q 2313 4219 1838 4219 
Q 1578 4219 1281 4162 
Q 984 4106 628 3988 
L 628 4550 
Q 988 4650 1302 4700 
Q 1616 4750 1894 4750 
Q 2613 4750 3031 4423 
Q 3450 4097 3450 3541 
Q 3450 3153 3228 2886 
Q 3006 2619 2597 2516 
z
" id="DejaVuSans-33" transform="scale(0.015625)"/>
      </defs>
      <use xlink:href="#DejaVuSans-33"/>
     </g>
    </g>
   </g>
   <g id="text_5">
    <g clip-path="url(#p8ad00340a4)">
     <!-- 4 -->
     <g transform="translate(589.872724 916.734819)scale(0.12 -0.12)">
      <defs>
       <path d="M 2419 4116 
L 825 1625 
L 2419 1625 
L 2419 4116 
z
M 2253 4666 
L 3047 4666 
L 3047 1625 
L 3713 1625 
L 3713 1100 
L 3047 1100 
L 3047 0 
L 2419 0 
L 2419 1100 
L 313 1100 
L 313 1709 
L 2253 4666 
z
" id="DejaVuSans-34" transform="scale(0.015625)"/>
      </defs>
      <use xlink:href="#DejaVuSans-34"/>
     </g>
    </g>
   </g>
   <g id="text_6">
    <g clip-path="url(#p8ad00340a4)">
     <!-- 5 -->
     <g transform="translate(720.811419 1188.693068)scale(0.12 -0.12)">
      <defs>
       <path d="M 691 4666 
L 3169 4666 
L 3169 4134 
L 1269 4134 
L 1269 2991 
Q 1406 3038 1543 3061 
Q 1681 3084 1819 3084 
Q 2600 3084 3056 2656 
Q 3513 2228 3513 1497 
Q 3513 744 3044 326 
Q 2575 -91 1722 -91 
Q 1428 -91 1123 -41 
Q 819 9 494 109 
L 494 744 
Q 775 591 1075 516 
Q 1375 441 1709 441 
Q 2250 441 2565 725 
Q 2881 1009 2881 1497 
Q 2881 1984 2565 2268 
Q 2250 2553 1709 2553 
Q 1456 2553 1204 2497 
Q 953 2441 691 2322 
L 691 4666 
z
" id="DejaVuSans-35" transform="scale(0.015625)"/>
      </defs>
      <use xlink:href="#DejaVuSans-35"/>
     </g>
    </g>
   </g>
   <g id="text_7">
    <g clip-path="url(#p8ad00340a4)">
     <!-- 6 -->
     <g transform="translate(418.671619 731.918319)scale(0.12 -0.12)">
      <defs>
       <path d="M 2113 2584 
Q 1688 2584 1439 2293 
Q 1191 2003 1191 1497 
Q 1191 994 1439 701 
Q 1688 409 2113 409 
Q 2538 409 2786 701 
Q 3034 994 3034 1497 
Q 3034 2003 2786 2293 
Q 2538 2584 2113 2584 
z
M 3366 4563 
L 3366 3988 
Q 3128 4100 2886 4159 
Q 2644 4219 2406 4219 
Q 1781 4219 1451 3797 
Q 1122 3375 1075 2522 
Q 1259 2794 1537 2939 
Q 1816 3084 2150 3084 
Q 2853 3084 3261 2657 
Q 3669 2231 3669 1497 
Q 3669 778 3244 343 
Q 2819 -91 2113 -91 
Q 1303 -91 875 529 
Q 447 1150 447 2328 
Q 447 3434 972 4092 
Q 1497 4750 2381 4750 
Q 2619 4750 2861 4703 
Q 3103 4656 3366 4563 
z
" id="DejaVuSans-36" transform="scale(0.015625)"/>
      </defs>
      <use xlink:href="#DejaVuSans-36"/>
     </g>
    </g>
   </g>
   <g id="text_8">
    <g clip-path="url(#p8ad00340a4)">
     <!-- 7 -->
     <g transform="translate(512.262379 595.341733)scale(0.12 -0.12)">
      <defs>
       <path d="M 525 4666 
L 3525 4666 
L 3525 4397 
L 1831 0 
L 1172 0 
L 2766 4134 
L 525 4134 
L 525 4666 
z
" id="DejaVuSans-37" transform="scale(0.015625)"/>
      </defs>
      <use xlink:href="#DejaVuSans-37"/>
     </g>
    </g>
   </g>
   <g id="text_9">
    <g clip-path="url(#p8ad00340a4)">
     <!-- 9 -->
     <g transform="translate(339.103401 588.107121)scale(0.12 -0.12)">
      <defs>
       <path d="M 703 97 
L 703 672 
Q 941 559 1184 500 
Q 1428 441 1663 441 
Q 2288 441 2617 861 
Q 2947 1281 2994 2138 
Q 2813 1869 2534 1725 
Q 2256 1581 1919 1581 
Q 1219 1581 811 2004 
Q 403 2428 403 3163 
Q 403 3881 828 4315 
Q 1253 4750 1959 4750 
Q 2769 4750 3195 4129 
Q 3622 3509 3622 2328 
Q 3622 1225 3098 567 
Q 2575 -91 1691 -91 
Q 1453 -91 1209 -44 
Q 966 3 703 97 
z
M 1959 2075 
Q 2384 2075 2632 2365 
Q 2881 2656 2881 3163 
Q 2881 3666 2632 3958 
Q 2384 4250 1959 4250 
Q 1534 4250 1286 3958 
Q 1038 3666 1038 3163 
Q 1038 2656 1286 2365 
Q 1534 2075 1959 2075 
z
" id="DejaVuSans-39" transform="scale(0.015625)"/>
      </defs>
      <use xlink:href="#DejaVuSans-39"/>
     </g>
    </g>
   </g>
   <g id="text_10">
    <g clip-path="url(#p8ad00340a4)">
     <!-- 8 -->
     <g transform="translate(273.025475 674.506541)scale(0.12 -0.12)">
      <defs>
       <path d="M 2034 2216 
Q 1584 2216 1326 1975 
Q 1069 1734 1069 1313 
Q 1069 891 1326 650 
Q 1584 409 2034 409 
Q 2484 409 2743 651 
Q 3003 894 3003 1313 
Q 3003 1734 2745 1975 
Q 2488 2216 2034 2216 
z
M 1403 2484 
Q 997 2584 770 2862 
Q 544 3141 544 3541 
Q 544 4100 942 4425 
Q 1341 4750 2034 4750 
Q 2731 4750 3128 4425 
Q 3525 4100 3525 3541 
Q 3525 3141 3298 2862 
Q 3072 2584 2669 2484 
Q 3125 2378 3379 2068 
Q 3634 1759 3634 1313 
Q 3634 634 3220 271 
Q 2806 -91 2034 -91 
Q 1263 -91 848 271 
Q 434 634 434 1313 
Q 434 1759 690 2068 
Q 947 2378 1403 2484 
z
M 1172 3481 
Q 1172 3119 1398 2916 
Q 1625 2713 2034 2713 
Q 2441 2713 2670 2916 
Q 2900 3119 2900 3481 
Q 2900 3844 2670 4047 
Q 2441 4250 2034 4250 
Q 1625 4250 1398 4047 
Q 1172 3844 1172 3481 
z
" id="DejaVuSans-38" transform="scale(0.015625)"/>
      </defs>
      <use xlink:href="#DejaVuSans-38"/>
     </g>
    </g>
   </g>
   <g id="text_11">
    <g clip-path="url(#p8ad00340a4)">
     <!-- 11 -->
     <g transform="translate(269.655166 789.524669)scale(0.12 -0.12)">
      <use xlink:href="#DejaVuSans-31"/>
      <use x="63.623047" xlink:href="#DejaVuSans-31"/>
     </g>
    </g>
   </g>
   <g id="text_12">
    <g clip-path="url(#p8ad00340a4)">
     <!-- 10 -->
     <g transform="translate(343.675598 871.694045)scale(0.12 -0.12)">
      <use xlink:href="#DejaVuSans-31"/>
      <use x="63.623047" xlink:href="#DejaVuSans-30"/>
     </g>
    </g>
   </g>
   <g id="text_13">
    <g clip-path="url(#p8ad00340a4)">
     <!-- 12 -->
     <g transform="translate(656.126583 443.121134)scale(0.12 -0.12)">
      <use xlink:href="#DejaVuSans-31"/>
      <use x="63.623047" xlink:href="#DejaVuSans-32"/>
     </g>
    </g>
   </g>
   <g id="text_14">
    <g clip-path="url(#p8ad00340a4)">
     <!-- 13 -->
     <g transform="translate(771.373101 481.349996)scale(0.12 -0.12)">
      <use xlink:href="#DejaVuSans-31"/>
      <use x="63.623047" xlink:href="#DejaVuSans-33"/>
     </g>
    </g>
   </g>
   <g id="text_15">
    <g clip-path="url(#p8ad00340a4)">
     <!-- 14 -->
     <g transform="translate(668.034271 272.329432)scale(0.12 -0.12)">
      <use xlink:href="#DejaVuSans-31"/>
      <use x="63.623047" xlink:href="#DejaVuSans-34"/>
     </g>
    </g>
   </g>
   <g id="text_16">
    <g clip-path="url(#p8ad00340a4)">
     <!-- 15 -->
     <g transform="translate(881.686512 617.694497)scale(0.12 -0.12)">
      <use xlink:href="#DejaVuSans-31"/>
      <use x="63.623047" xlink:href="#DejaVuSans-35"/>
     </g>
    </g>
   </g>
   <g id="text_17">
    <g clip-path="url(#p8ad00340a4)">
     <!-- 16 -->
     <g transform="translate(905.265399 695.65814)scale(0.12 -0.12)">
      <use xlink:href="#DejaVuSans-31"/>
      <use x="63.623047" xlink:href="#DejaVuSans-36"/>
     </g>
    </g>
   </g>
  </g>
 </g>
 <defs>
  <clipPath id="p8ad00340a4">
   <rect height="1108.8" width="1116" x="180" y="172.8"/>
  </clipPath>
 </defs>
</svg>
