<?xml version="1.0" encoding="utf-8" standalone="no"?>
<!DOCTYPE svg PUBLIC "-//W3C//DTD SVG 1.1//EN"
  "http://www.w3.org/Graphics/SVG/1.1/DTD/svg11.dtd">
<svg height="1440pt" version="1.1" viewBox="0 0 1440 1440" width="1440pt" xmlns="http://www.w3.org/2000/svg" xmlns:xlink="http://www.w3.org/1999/xlink">
 <metadata>
  <rdf:RDF xmlns:cc="http://creativecommons.org/ns#" xmlns:dc="http://purl.org/dc/elements/1.1/" xmlns:rdf="http://www.w3.org/1999/02/22-rdf-syntax-ns#">
   <cc:Work>
    <dc:type rdf:resource="http://purl.org/dc/dcmitype/StillImage"/>
    <dc:date>2021-10-17T05:30:25.657785</dc:date>
    <dc:format>image/svg+xml</dc:format>
    <dc:creator>
     <cc:Agent>
      <dc:title>Matplotlib v3.4.3, https://matplotlib.org/</dc:title>
     </cc:Agent>
    </dc:creator>
   </cc:Work>
  </rdf:RDF>
 </metadata>
 <defs>
  <style type="text/css">*{stroke-linecap:butt;stroke-linejoin:round;}</style>
 </defs>
 <g id="figure_1">
  <g id="patch_1">
   <path d="M 0 1440 
L 1440 1440 
L 1440 0 
L 0 0 
z
" style="fill:#ffffff;"/>
  </g>
  <g id="axes_1">
   <g id="patch_2">
    <path clip-path="url(#p4aca75949d)" d="M 1046.309132 473.379977 
Q 1049.704347 431.046151 1052.920801 390.941237 
" style="fill:none;stroke:#ff0000;stroke-linecap:round;stroke-width:2;"/>
    <path clip-path="url(#p4aca75949d)" d="M 1050.607425 394.768545 
L 1052.920801 390.941237 
L 1054.594623 395.088323 
L 1050.607425 394.768545 
z
" style="fill:#ff0000;stroke:#ff0000;stroke-linecap:round;stroke-width:2;"/>
   </g>
   <g id="patch_3">
    <path clip-path="url(#p4aca75949d)" d="M 1043.914774 490.505715 
Q 1029.464993 562.613728 1015.234887 633.625501 
" style="fill:none;stroke:#000000;stroke-linecap:round;"/>
    <path clip-path="url(#p4aca75949d)" d="M 1017.981839 630.096442 
L 1015.234887 633.625501 
L 1014.059811 629.310504 
L 1017.981839 630.096442 
z
" style="stroke:#000000;stroke-linecap:round;"/>
   </g>
   <g id="patch_4">
    <path clip-path="url(#p4aca75949d)" d="M 1054.186498 371.429248 
Q 1056.325369 324.550745 1058.413282 278.789114 
" style="fill:none;stroke:#000000;stroke-linecap:round;"/>
    <path clip-path="url(#p4aca75949d)" d="M 1056.233047 282.6938 
L 1058.413282 278.789114 
L 1060.22889 282.876114 
L 1056.233047 282.6938 
z
" style="stroke:#000000;stroke-linecap:round;"/>
   </g>
   <g id="patch_5">
    <path clip-path="url(#p4aca75949d)" d="M 1013.81668 651.860921 
Q 1017.154856 709.11186 1020.362873 764.130523 
" style="fill:none;stroke:#ff0000;stroke-linecap:round;stroke-width:2;"/>
    <path clip-path="url(#p4aca75949d)" d="M 1022.126646 760.020887 
L 1020.362873 764.130523 
L 1018.133429 760.253723 
L 1022.126646 760.020887 
z
" style="fill:#ff0000;stroke:#ff0000;stroke-linecap:round;stroke-width:2;"/>
   </g>
   <g id="patch_6">
    <path clip-path="url(#p4aca75949d)" d="M 1005.908274 638.731789 
Q 959.658227 610.711941 914.364415 583.271413 
" style="fill:none;stroke:#000000;stroke-linecap:round;"/>
    <path clip-path="url(#p4aca75949d)" d="M 916.74923 587.05462 
L 914.364415 583.271413 
L 918.82187 583.633485 
L 916.74923 587.05462 
z
" style="stroke:#000000;stroke-linecap:round;"/>
   </g>
   <g id="patch_7">
    <path clip-path="url(#p4aca75949d)" d="M 1020.962335 783.673231 
Q 1020.604657 872.392326 1020.251485 959.993396 
" style="fill:none;stroke:#000000;stroke-linecap:round;"/>
    <path clip-path="url(#p4aca75949d)" d="M 1022.267595 956.001492 
L 1020.251485 959.993396 
L 1018.267628 955.985366 
L 1022.267595 956.001492 
z
" style="stroke:#000000;stroke-linecap:round;"/>
   </g>
   <g id="patch_8">
    <path clip-path="url(#p4aca75949d)" d="M 1011.84257 971.992014 
Q 927.777077 994.316874 845.872742 1016.067806 
" style="fill:none;stroke:#ff0000;stroke-linecap:round;stroke-width:2;"/>
    <path clip-path="url(#p4aca75949d)" d="M 850.252077 1016.974131 
L 845.872742 1016.067806 
L 849.225403 1013.108133 
L 850.252077 1016.974131 
z
" style="fill:#ff0000;stroke:#ff0000;stroke-linecap:round;stroke-width:2;"/>
   </g>
   <g id="patch_9">
    <path clip-path="url(#p4aca75949d)" d="M 1019.165825 978.36682 
Q 1013.269449 1026.81978 1007.508134 1074.162895 
" style="fill:none;stroke:#000000;stroke-linecap:round;"/>
    <path clip-path="url(#p4aca75949d)" d="M 1009.976694 1070.433791 
L 1007.508134 1074.162895 
L 1006.005987 1069.950585 
L 1009.976694 1070.433791 
z
" style="stroke:#000000;stroke-linecap:round;"/>
   </g>
   <g id="patch_10">
    <path clip-path="url(#p4aca75949d)" d="M 1028.722989 971.363658 
Q 1109.684097 986.52954 1189.546286 1001.48957 
" style="fill:none;stroke:#000000;stroke-linecap:round;"/>
    <path clip-path="url(#p4aca75949d)" d="M 1185.982912 998.787281 
L 1189.546286 1001.48957 
L 1185.24643 1002.718896 
L 1185.982912 998.787281 
z
" style="stroke:#000000;stroke-linecap:round;"/>
   </g>
   <g id="patch_11">
    <path clip-path="url(#p4aca75949d)" d="M 1028.333179 966.759504 
Q 1089.622854 944.044186 1149.86418 921.71741 
" style="fill:none;stroke:#000000;stroke-linecap:round;"/>
    <path clip-path="url(#p4aca75949d)" d="M 1145.418449 921.232154 
L 1149.86418 921.71741 
L 1146.808537 924.982841 
L 1145.418449 921.232154 
z
" style="stroke:#000000;stroke-linecap:round;"/>
   </g>
   <g id="patch_12">
    <path clip-path="url(#p4aca75949d)" d="M 1026.519094 975.707587 
Q 1075.206817 1021.548318 1123.08053 1066.622638 
" style="fill:none;stroke:#000000;stroke-linecap:round;"/>
    <path clip-path="url(#p4aca75949d)" d="M 1121.539236 1062.424494 
L 1123.08053 1066.622638 
L 1118.797238 1065.336787 
L 1121.539236 1062.424494 
z
" style="stroke:#000000;stroke-linecap:round;"/>
   </g>
   <g id="patch_13">
    <path clip-path="url(#p4aca75949d)" d="M 826.952621 1021.006351 
Q 715.321652 1049.507855 604.773965 1077.732777 
" style="fill:none;stroke:#000000;stroke-linecap:round;"/>
    <path clip-path="url(#p4aca75949d)" d="M 609.144403 1078.68108 
L 604.773965 1077.732777 
L 608.15487 1074.805409 
L 609.144403 1078.68108 
z
" style="stroke:#000000;stroke-linecap:round;"/>
   </g>
   <g id="patch_14">
    <path clip-path="url(#p4aca75949d)" d="M 586.654806 1079.717099 
Q 519.166474 1076.331517 453.911402 1073.057967 
" style="fill:none;stroke:#ff0000;stroke-linecap:round;stroke-width:2;"/>
    <path clip-path="url(#p4aca75949d)" d="M 457.806174 1075.255865 
L 453.911402 1073.057967 
L 458.006583 1071.260889 
L 457.806174 1075.255865 
z
" style="fill:#ff0000;stroke:#ff0000;stroke-linecap:round;stroke-width:2;"/>
   </g>
   <g id="patch_15">
    <path clip-path="url(#p4aca75949d)" d="M 590.698824 1087.488962 
Q 562.289667 1132.768292 534.474714 1177.100562 
" style="fill:none;stroke:#000000;stroke-linecap:round;"/>
    <path clip-path="url(#p4aca75949d)" d="M 538.294754 1174.775204 
L 534.474714 1177.100562 
L 534.906451 1172.649315 
L 538.294754 1174.775204 
z
" style="stroke:#000000;stroke-linecap:round;"/>
   </g>
   <g id="patch_16">
    <path clip-path="url(#p4aca75949d)" d="M 434.370525 1072.665785 
Q 359.935777 1073.986652 286.618887 1075.287683 
" style="fill:none;stroke:#000000;stroke-linecap:round;"/>
    <path clip-path="url(#p4aca75949d)" d="M 290.653743 1077.216398 
L 286.618887 1075.287683 
L 290.582773 1073.217028 
L 290.653743 1077.216398 
z
" style="stroke:#000000;stroke-linecap:round;"/>
   </g>
   <g id="PathCollection_1">
    <defs>
     <path d="M 0 8.660254 
C 2.296726 8.660254 4.499694 7.747755 6.123724 6.123724 
C 7.747755 4.499694 8.660254 2.296726 8.660254 0 
C 8.660254 -2.296726 7.747755 -4.499694 6.123724 -6.123724 
C 4.499694 -7.747755 2.296726 -8.660254 0 -8.660254 
C -2.296726 -8.660254 -4.499694 -7.747755 -6.123724 -6.123724 
C -7.747755 -4.499694 -8.660254 -2.296726 -8.660254 0 
C -8.660254 2.296726 -7.747755 4.499694 -6.123724 6.123724 
C -4.499694 7.747755 -2.296726 8.660254 0 8.660254 
z
" id="m291e3c7aac" style="stroke:#1f78b4;"/>
    </defs>
    <g clip-path="url(#p4aca75949d)">
     <use style="fill:#1f78b4;stroke:#1f78b4;" x="1045.616833" xlink:href="#m291e3c7aac" y="482.012016"/>
     <use style="fill:#1f78b4;stroke:#1f78b4;" x="1053.79169" xlink:href="#m291e3c7aac" y="380.082415"/>
     <use style="fill:#1f78b4;stroke:#1f78b4;" x="1058.859089" xlink:href="#m291e3c7aac" y="269.018182"/>
     <use style="fill:#1f78b4;stroke:#1f78b4;" x="1013.312709" xlink:href="#m291e3c7aac" y="643.217647"/>
     <use style="fill:#1f78b4;stroke:#1f78b4;" x="1020.99726" xlink:href="#m291e3c7aac" y="775.010478"/>
     <use style="fill:#1f78b4;stroke:#1f78b4;" x="906.002439" xlink:href="#m291e3c7aac" y="578.205445"/>
     <use style="fill:#1f78b4;stroke:#1f78b4;" x="1020.212073" xlink:href="#m291e3c7aac" y="969.769367"/>
     <use style="fill:#1f78b4;stroke:#1f78b4;" x="835.343951" xlink:href="#m291e3c7aac" y="1018.863886"/>
     <use style="fill:#1f78b4;stroke:#1f78b4;" x="1006.32651" xlink:href="#m291e3c7aac" y="1083.872791"/>
     <use style="fill:#1f78b4;stroke:#1f78b4;" x="1199.157025" xlink:href="#m291e3c7aac" y="1003.289883"/>
     <use style="fill:#1f78b4;stroke:#1f78b4;" x="1159.029178" xlink:href="#m291e3c7aac" y="918.320657"/>
     <use style="fill:#1f78b4;stroke:#1f78b4;" x="1130.200609" xlink:href="#m291e3c7aac" y="1073.326374"/>
     <use style="fill:#1f78b4;stroke:#1f78b4;" x="595.302851" xlink:href="#m291e3c7aac" y="1080.150932"/>
     <use style="fill:#1f78b4;stroke:#1f78b4;" x="443.030344" xlink:href="#m291e3c7aac" y="1072.512114"/>
     <use style="fill:#1f78b4;stroke:#1f78b4;" x="529.278888" xlink:href="#m291e3c7aac" y="1185.381818"/>
     <use style="fill:#1f78b4;stroke:#1f78b4;" x="276.842975" xlink:href="#m291e3c7aac" y="1075.46116"/>
    </g>
   </g>
   <g id="text_1">
    <g clip-path="url(#p4aca75949d)">
     <!-- 1 -->
     <g transform="translate(1041.799333 485.323266)scale(0.12 -0.12)">
      <defs>
       <path d="M 794 531 
L 1825 531 
L 1825 4091 
L 703 3866 
L 703 4441 
L 1819 4666 
L 2450 4666 
L 2450 531 
L 3481 531 
L 3481 0 
L 794 0 
L 794 531 
z
" id="DejaVuSans-31" transform="scale(0.015625)"/>
      </defs>
      <use xlink:href="#DejaVuSans-31"/>
     </g>
    </g>
   </g>
   <g id="text_2">
    <g clip-path="url(#p4aca75949d)">
     <!-- 0 -->
     <g transform="translate(1049.97419 383.393665)scale(0.12 -0.12)">
      <defs>
       <path d="M 2034 4250 
Q 1547 4250 1301 3770 
Q 1056 3291 1056 2328 
Q 1056 1369 1301 889 
Q 1547 409 2034 409 
Q 2525 409 2770 889 
Q 3016 1369 3016 2328 
Q 3016 3291 2770 3770 
Q 2525 4250 2034 4250 
z
M 2034 4750 
Q 2819 4750 3233 4129 
Q 3647 3509 3647 2328 
Q 3647 1150 3233 529 
Q 2819 -91 2034 -91 
Q 1250 -91 836 529 
Q 422 1150 422 2328 
Q 422 3509 836 4129 
Q 1250 4750 2034 4750 
z
" id="DejaVuSans-30" transform="scale(0.015625)"/>
      </defs>
      <use xlink:href="#DejaVuSans-30"/>
     </g>
    </g>
   </g>
   <g id="text_3">
    <g clip-path="url(#p4aca75949d)">
     <!-- 2 -->
     <g transform="translate(1055.041589 272.329432)scale(0.12 -0.12)">
      <defs>
       <path d="M 1228 531 
L 3431 531 
L 3431 0 
L 469 0 
L 469 531 
Q 828 903 1448 1529 
Q 2069 2156 2228 2338 
Q 2531 2678 2651 2914 
Q 2772 3150 2772 3378 
Q 2772 3750 2511 3984 
Q 2250 4219 1831 4219 
Q 1534 4219 1204 4116 
Q 875 4013 500 3803 
L 500 4441 
Q 881 4594 1212 4672 
Q 1544 4750 1819 4750 
Q 2544 4750 2975 4387 
Q 3406 4025 3406 3419 
Q 3406 3131 3298 2873 
Q 3191 2616 2906 2266 
Q 2828 2175 2409 1742 
Q 1991 1309 1228 531 
z
" id="DejaVuSans-32" transform="scale(0.015625)"/>
      </defs>
      <use xlink:href="#DejaVuSans-32"/>
     </g>
    </g>
   </g>
   <g id="text_4">
    <g clip-path="url(#p4aca75949d)">
     <!-- 3 -->
     <g transform="translate(1009.495209 646.528897)scale(0.12 -0.12)">
      <defs>
       <path d="M 2597 2516 
Q 3050 2419 3304 2112 
Q 3559 1806 3559 1356 
Q 3559 666 3084 287 
Q 2609 -91 1734 -91 
Q 1441 -91 1130 -33 
Q 819 25 488 141 
L 488 750 
Q 750 597 1062 519 
Q 1375 441 1716 441 
Q 2309 441 2620 675 
Q 2931 909 2931 1356 
Q 2931 1769 2642 2001 
Q 2353 2234 1838 2234 
L 1294 2234 
L 1294 2753 
L 1863 2753 
Q 2328 2753 2575 2939 
Q 2822 3125 2822 3475 
Q 2822 3834 2567 4026 
Q 2313 4219 1838 4219 
Q 1578 4219 1281 4162 
Q 984 4106 628 3988 
L 628 4550 
Q 988 4650 1302 4700 
Q 1616 4750 1894 4750 
Q 2613 4750 3031 4423 
Q 3450 4097 3450 3541 
Q 3450 3153 3228 2886 
Q 3006 2619 2597 2516 
z
" id="DejaVuSans-33" transform="scale(0.015625)"/>
      </defs>
      <use xlink:href="#DejaVuSans-33"/>
     </g>
    </g>
   </g>
   <g id="text_5">
    <g clip-path="url(#p4aca75949d)">
     <!-- 4 -->
     <g transform="translate(1017.17976 778.321728)scale(0.12 -0.12)">
      <defs>
       <path d="M 2419 4116 
L 825 1625 
L 2419 1625 
L 2419 4116 
z
M 2253 4666 
L 3047 4666 
L 3047 1625 
L 3713 1625 
L 3713 1100 
L 3047 1100 
L 3047 0 
L 2419 0 
L 2419 1100 
L 313 1100 
L 313 1709 
L 2253 4666 
z
" id="DejaVuSans-34" transform="scale(0.015625)"/>
      </defs>
      <use xlink:href="#DejaVuSans-34"/>
     </g>
    </g>
   </g>
   <g id="text_6">
    <g clip-path="url(#p4aca75949d)">
     <!-- 5 -->
     <g transform="translate(902.184939 581.516695)scale(0.12 -0.12)">
      <defs>
       <path d="M 691 4666 
L 3169 4666 
L 3169 4134 
L 1269 4134 
L 1269 2991 
Q 1406 3038 1543 3061 
Q 1681 3084 1819 3084 
Q 2600 3084 3056 2656 
Q 3513 2228 3513 1497 
Q 3513 744 3044 326 
Q 2575 -91 1722 -91 
Q 1428 -91 1123 -41 
Q 819 9 494 109 
L 494 744 
Q 775 591 1075 516 
Q 1375 441 1709 441 
Q 2250 441 2565 725 
Q 2881 1009 2881 1497 
Q 2881 1984 2565 2268 
Q 2250 2553 1709 2553 
Q 1456 2553 1204 2497 
Q 953 2441 691 2322 
L 691 4666 
z
" id="DejaVuSans-35" transform="scale(0.015625)"/>
      </defs>
      <use xlink:href="#DejaVuSans-35"/>
     </g>
    </g>
   </g>
   <g id="text_7">
    <g clip-path="url(#p4aca75949d)">
     <!-- 6 -->
     <g transform="translate(1016.394573 973.080617)scale(0.12 -0.12)">
      <defs>
       <path d="M 2113 2584 
Q 1688 2584 1439 2293 
Q 1191 2003 1191 1497 
Q 1191 994 1439 701 
Q 1688 409 2113 409 
Q 2538 409 2786 701 
Q 3034 994 3034 1497 
Q 3034 2003 2786 2293 
Q 2538 2584 2113 2584 
z
M 3366 4563 
L 3366 3988 
Q 3128 4100 2886 4159 
Q 2644 4219 2406 4219 
Q 1781 4219 1451 3797 
Q 1122 3375 1075 2522 
Q 1259 2794 1537 2939 
Q 1816 3084 2150 3084 
Q 2853 3084 3261 2657 
Q 3669 2231 3669 1497 
Q 3669 778 3244 343 
Q 2819 -91 2113 -91 
Q 1303 -91 875 529 
Q 447 1150 447 2328 
Q 447 3434 972 4092 
Q 1497 4750 2381 4750 
Q 2619 4750 2861 4703 
Q 3103 4656 3366 4563 
z
" id="DejaVuSans-36" transform="scale(0.015625)"/>
      </defs>
      <use xlink:href="#DejaVuSans-36"/>
     </g>
    </g>
   </g>
   <g id="text_8">
    <g clip-path="url(#p4aca75949d)">
     <!-- 7 -->
     <g transform="translate(831.526451 1022.175136)scale(0.12 -0.12)">
      <defs>
       <path d="M 525 4666 
L 3525 4666 
L 3525 4397 
L 1831 0 
L 1172 0 
L 2766 4134 
L 525 4134 
L 525 4666 
z
" id="DejaVuSans-37" transform="scale(0.015625)"/>
      </defs>
      <use xlink:href="#DejaVuSans-37"/>
     </g>
    </g>
   </g>
   <g id="text_9">
    <g clip-path="url(#p4aca75949d)">
     <!-- 9 -->
     <g transform="translate(1002.50901 1087.184041)scale(0.12 -0.12)">
      <defs>
       <path d="M 703 97 
L 703 672 
Q 941 559 1184 500 
Q 1428 441 1663 441 
Q 2288 441 2617 861 
Q 2947 1281 2994 2138 
Q 2813 1869 2534 1725 
Q 2256 1581 1919 1581 
Q 1219 1581 811 2004 
Q 403 2428 403 3163 
Q 403 3881 828 4315 
Q 1253 4750 1959 4750 
Q 2769 4750 3195 4129 
Q 3622 3509 3622 2328 
Q 3622 1225 3098 567 
Q 2575 -91 1691 -91 
Q 1453 -91 1209 -44 
Q 966 3 703 97 
z
M 1959 2075 
Q 2384 2075 2632 2365 
Q 2881 2656 2881 3163 
Q 2881 3666 2632 3958 
Q 2384 4250 1959 4250 
Q 1534 4250 1286 3958 
Q 1038 3666 1038 3163 
Q 1038 2656 1286 2365 
Q 1534 2075 1959 2075 
z
" id="DejaVuSans-39" transform="scale(0.015625)"/>
      </defs>
      <use xlink:href="#DejaVuSans-39"/>
     </g>
    </g>
   </g>
   <g id="text_10">
    <g clip-path="url(#p4aca75949d)">
     <!-- 8 -->
     <g transform="translate(1195.339525 1006.601133)scale(0.12 -0.12)">
      <defs>
       <path d="M 2034 2216 
Q 1584 2216 1326 1975 
Q 1069 1734 1069 1313 
Q 1069 891 1326 650 
Q 1584 409 2034 409 
Q 2484 409 2743 651 
Q 3003 894 3003 1313 
Q 3003 1734 2745 1975 
Q 2488 2216 2034 2216 
z
M 1403 2484 
Q 997 2584 770 2862 
Q 544 3141 544 3541 
Q 544 4100 942 4425 
Q 1341 4750 2034 4750 
Q 2731 4750 3128 4425 
Q 3525 4100 3525 3541 
Q 3525 3141 3298 2862 
Q 3072 2584 2669 2484 
Q 3125 2378 3379 2068 
Q 3634 1759 3634 1313 
Q 3634 634 3220 271 
Q 2806 -91 2034 -91 
Q 1263 -91 848 271 
Q 434 634 434 1313 
Q 434 1759 690 2068 
Q 947 2378 1403 2484 
z
M 1172 3481 
Q 1172 3119 1398 2916 
Q 1625 2713 2034 2713 
Q 2441 2713 2670 2916 
Q 2900 3119 2900 3481 
Q 2900 3844 2670 4047 
Q 2441 4250 2034 4250 
Q 1625 4250 1398 4047 
Q 1172 3844 1172 3481 
z
" id="DejaVuSans-38" transform="scale(0.015625)"/>
      </defs>
      <use xlink:href="#DejaVuSans-38"/>
     </g>
    </g>
   </g>
   <g id="text_11">
    <g clip-path="url(#p4aca75949d)">
     <!-- 11 -->
     <g transform="translate(1151.394178 921.631907)scale(0.12 -0.12)">
      <use xlink:href="#DejaVuSans-31"/>
      <use x="63.623047" xlink:href="#DejaVuSans-31"/>
     </g>
    </g>
   </g>
   <g id="text_12">
    <g clip-path="url(#p4aca75949d)">
     <!-- 10 -->
     <g transform="translate(1122.565609 1076.637624)scale(0.12 -0.12)">
      <use xlink:href="#DejaVuSans-31"/>
      <use x="63.623047" xlink:href="#DejaVuSans-30"/>
     </g>
    </g>
   </g>
   <g id="text_13">
    <g clip-path="url(#p4aca75949d)">
     <!-- 12 -->
     <g transform="translate(587.667851 1083.462182)scale(0.12 -0.12)">
      <use xlink:href="#DejaVuSans-31"/>
      <use x="63.623047" xlink:href="#DejaVuSans-32"/>
     </g>
    </g>
   </g>
   <g id="text_14">
    <g clip-path="url(#p4aca75949d)">
     <!-- 13 -->
     <g transform="translate(435.395344 1075.823364)scale(0.12 -0.12)">
      <use xlink:href="#DejaVuSans-31"/>
      <use x="63.623047" xlink:href="#DejaVuSans-33"/>
     </g>
    </g>
   </g>
   <g id="text_15">
    <g clip-path="url(#p4aca75949d)">
     <!-- 14 -->
     <g transform="translate(521.643888 1188.693068)scale(0.12 -0.12)">
      <use xlink:href="#DejaVuSans-31"/>
      <use x="63.623047" xlink:href="#DejaVuSans-34"/>
     </g>
    </g>
   </g>
   <g id="text_16">
    <g clip-path="url(#p4aca75949d)">
     <!-- 15 -->
     <g transform="translate(269.207975 1078.77241)scale(0.12 -0.12)">
      <use xlink:href="#DejaVuSans-31"/>
      <use x="63.623047" xlink:href="#DejaVuSans-35"/>
     </g>
    </g>
   </g>
  </g>
 </g>
 <defs>
  <clipPath id="p4aca75949d">
   <rect height="1108.8" width="1116" x="180" y="172.8"/>
  </clipPath>
 </defs>
</svg>
