<?xml version="1.0" encoding="utf-8" standalone="no"?>
<!DOCTYPE svg PUBLIC "-//W3C//DTD SVG 1.1//EN"
  "http://www.w3.org/Graphics/SVG/1.1/DTD/svg11.dtd">
<svg height="1440pt" version="1.1" viewBox="0 0 1440 1440" width="1440pt" xmlns="http://www.w3.org/2000/svg" xmlns:xlink="http://www.w3.org/1999/xlink">
 <metadata>
  <rdf:RDF xmlns:cc="http://creativecommons.org/ns#" xmlns:dc="http://purl.org/dc/elements/1.1/" xmlns:rdf="http://www.w3.org/1999/02/22-rdf-syntax-ns#">
   <cc:Work>
    <dc:type rdf:resource="http://purl.org/dc/dcmitype/StillImage"/>
    <dc:date>2021-10-17T05:24:24.675040</dc:date>
    <dc:format>image/svg+xml</dc:format>
    <dc:creator>
     <cc:Agent>
      <dc:title>Matplotlib v3.4.3, https://matplotlib.org/</dc:title>
     </cc:Agent>
    </dc:creator>
   </cc:Work>
  </rdf:RDF>
 </metadata>
 <defs>
  <style type="text/css">*{stroke-linecap:butt;stroke-linejoin:round;}</style>
 </defs>
 <g id="figure_1">
  <g id="patch_1">
   <path d="M 0 1440 
L 1440 1440 
L 1440 0 
L 0 0 
z
" style="fill:#ffffff;"/>
  </g>
  <g id="axes_1">
   <g id="patch_2">
    <path clip-path="url(#p9483dc68c4)" d="M 466.224516 1059.474857 
Q 425.827251 1083.95433 387.342345 1107.274974 
" style="fill:none;stroke:#ff0000;stroke-linecap:round;stroke-width:2;"/>
    <path clip-path="url(#p9483dc68c4)" d="M 391.799764 1106.912463 
L 387.342345 1107.274974 
L 389.726788 1103.491532 
L 391.799764 1106.912463 
z
" style="fill:#ff0000;stroke:#ff0000;stroke-linecap:round;stroke-width:2;"/>
   </g>
   <g id="patch_3">
    <path clip-path="url(#p9483dc68c4)" d="M 481.107622 1050.608622 
Q 548.424563 1011.18965 614.776711 972.335635 
" style="fill:none;stroke:#000000;stroke-linecap:round;"/>
    <path clip-path="url(#p9483dc68c4)" d="M 610.31434 972.63101 
L 614.776711 972.335635 
L 612.335589 976.082757 
L 610.31434 972.63101 
z
" style="stroke:#000000;stroke-linecap:round;"/>
   </g>
   <g id="patch_4">
    <path clip-path="url(#p9483dc68c4)" d="M 370.981961 1117.964851 
Q 327.433199 1149.151988 284.793421 1179.688163 
" style="fill:none;stroke:#000000;stroke-linecap:round;"/>
    <path clip-path="url(#p9483dc68c4)" d="M 289.209971 1178.98525 
L 284.793421 1179.688163 
L 286.88102 1175.733175 
L 289.209971 1178.98525 
z
" style="stroke:#000000;stroke-linecap:round;"/>
   </g>
   <g id="patch_5">
    <path clip-path="url(#p9483dc68c4)" d="M 621.897524 958.837553 
Q 613.164369 902.162882 604.601486 846.593204 
" style="fill:none;stroke:#000000;stroke-linecap:round;"/>
    <path clip-path="url(#p9483dc68c4)" d="M 603.233997 850.851135 
L 604.601486 846.593204 
L 607.187337 850.241954 
L 603.233997 850.851135 
z
" style="stroke:#000000;stroke-linecap:round;"/>
   </g>
   <g id="patch_6">
    <path clip-path="url(#p9483dc68c4)" d="M 631.752245 965.926032 
Q 709.734786 952.517082 786.615462 939.297595 
" style="fill:none;stroke:#000000;stroke-linecap:round;"/>
    <path clip-path="url(#p9483dc68c4)" d="M 782.334392 938.004366 
L 786.615462 939.297595 
L 783.012237 941.946513 
L 782.334392 938.004366 
z
" style="stroke:#000000;stroke-linecap:round;"/>
   </g>
   <g id="patch_7">
    <path clip-path="url(#p9483dc68c4)" d="M 804.20542 934.212086 
Q 880.819673 901.180129 956.407251 868.590818 
" style="fill:none;stroke:#000000;stroke-linecap:round;"/>
    <path clip-path="url(#p9483dc68c4)" d="M 951.942272 868.337909 
L 956.407251 868.590818 
L 953.525936 872.011056 
L 951.942272 868.337909 
z
" style="stroke:#000000;stroke-linecap:round;"/>
   </g>
   <g id="patch_8">
    <path clip-path="url(#p9483dc68c4)" d="M 970.748578 857.919047 
Q 1010.565421 807.429859 1048.997619 758.69645 
" style="fill:none;stroke:#ff0000;stroke-linecap:round;stroke-width:2;"/>
    <path clip-path="url(#p9483dc68c4)" d="M 1044.950275 760.598819 
L 1048.997619 758.69645 
L 1048.091108 763.075747 
L 1044.950275 760.598819 
z
" style="fill:#ff0000;stroke:#ff0000;stroke-linecap:round;stroke-width:2;"/>
   </g>
   <g id="patch_9">
    <path clip-path="url(#p9483dc68c4)" d="M 969.422322 872.380849 
Q 995.602479 922.0602 1021.261398 970.750455 
" style="fill:none;stroke:#000000;stroke-linecap:round;"/>
    <path clip-path="url(#p9483dc68c4)" d="M 1021.165915 966.279338 
L 1021.261398 970.750455 
L 1017.627215 968.144172 
L 1021.165915 966.279338 
z
" style="stroke:#000000;stroke-linecap:round;"/>
   </g>
   <g id="patch_10">
    <path clip-path="url(#p9483dc68c4)" d="M 1061.112442 756.940258 
Q 1096.751369 802.068215 1131.004451 845.441339 
" style="fill:none;stroke:#ff0000;stroke-linecap:round;stroke-width:2;"/>
    <path clip-path="url(#p9483dc68c4)" d="M 1130.094947 841.062663 
L 1131.004451 845.441339 
L 1126.955808 843.541737 
L 1130.094947 841.062663 
z
" style="fill:#ff0000;stroke:#ff0000;stroke-linecap:round;stroke-width:2;"/>
   </g>
   <g id="patch_11">
    <path clip-path="url(#p9483dc68c4)" d="M 1060.976931 743.246338 
Q 1097.752305 694.787335 1133.851799 647.218941 
" style="fill:none;stroke:#000000;stroke-linecap:round;"/>
    <path clip-path="url(#p9483dc68c4)" d="M 1129.840524 649.196231 
L 1133.851799 647.218941 
L 1133.026866 651.614335 
L 1129.840524 649.196231 
z
" style="stroke:#000000;stroke-linecap:round;"/>
   </g>
   <g id="patch_12">
    <path clip-path="url(#p9483dc68c4)" d="M 1064.311037 748.858139 
Q 1123.069052 740.052069 1180.721382 731.411707 
" style="fill:none;stroke:#000000;stroke-linecap:round;"/>
    <path clip-path="url(#p9483dc68c4)" d="M 1176.469132 730.026656 
L 1180.721382 731.411707 
L 1177.061991 733.982477 
L 1176.469132 730.026656 
z
" style="stroke:#000000;stroke-linecap:round;"/>
   </g>
   <g id="patch_13">
    <path clip-path="url(#p9483dc68c4)" d="M 1050.236135 743.455275 
Q 984.38062 663.499419 919.235908 584.406556 
" style="fill:none;stroke:#000000;stroke-linecap:round;"/>
    <path clip-path="url(#p9483dc68c4)" d="M 920.235186 588.765621 
L 919.235908 584.406556 
L 923.322726 586.222573 
L 920.235186 588.765621 
z
" style="stroke:#000000;stroke-linecap:round;"/>
   </g>
   <g id="patch_14">
    <path clip-path="url(#p9483dc68c4)" d="M 1141.275418 861.909488 
Q 1168.457764 923.090271 1195.18616 983.249325 
" style="fill:none;stroke:#000000;stroke-linecap:round;"/>
    <path clip-path="url(#p9483dc68c4)" d="M 1195.389785 978.781827 
L 1195.18616 983.249325 
L 1191.734337 980.405927 
L 1195.389785 978.781827 
z
" style="stroke:#000000;stroke-linecap:round;"/>
   </g>
   <g id="patch_15">
    <path clip-path="url(#p9483dc68c4)" d="M 906.53795 571.115685 
Q 833.429267 506.327948 761.157337 442.281727 
" style="fill:none;stroke:#000000;stroke-linecap:round;"/>
    <path clip-path="url(#p9483dc68c4)" d="M 762.824527 446.431483 
L 761.157337 442.281727 
L 765.477456 443.437828 
L 762.824527 446.431483 
z
" style="stroke:#000000;stroke-linecap:round;"/>
   </g>
   <g id="patch_16">
    <path clip-path="url(#p9483dc68c4)" d="M 755.753372 427.35035 
Q 769.02946 368.706676 782.058687 311.153442 
" style="fill:none;stroke:#000000;stroke-linecap:round;"/>
    <path clip-path="url(#p9483dc68c4)" d="M 779.224855 314.613124 
L 782.058687 311.153442 
L 783.126133 315.496317 
L 779.224855 314.613124 
z
" style="stroke:#000000;stroke-linecap:round;"/>
   </g>
   <g id="patch_17">
    <path clip-path="url(#p9483dc68c4)" d="M 745.357628 434.055965 
Q 658.93583 416.30888 573.609212 398.786694 
" style="fill:none;stroke:#000000;stroke-linecap:round;"/>
    <path clip-path="url(#p9483dc68c4)" d="M 577.125135 401.550439 
L 573.609212 398.786694 
L 577.929762 397.632203 
L 577.125135 401.550439 
z
" style="stroke:#000000;stroke-linecap:round;"/>
   </g>
   <g id="patch_18">
    <path clip-path="url(#p9483dc68c4)" d="M 560.526547 388.897902 
Q 535.781455 332.918302 511.488384 277.961285 
" style="fill:none;stroke:#000000;stroke-linecap:round;"/>
    <path clip-path="url(#p9483dc68c4)" d="M 511.276329 282.428391 
L 511.488384 277.961285 
L 514.934835 280.811193 
L 511.276329 282.428391 
z
" style="stroke:#000000;stroke-linecap:round;"/>
   </g>
   <g id="patch_19">
    <path clip-path="url(#p9483dc68c4)" d="M 559.021701 403.890264 
Q 522.788658 455.066888 487.201655 505.331026 
" style="fill:none;stroke:#000000;stroke-linecap:round;"/>
    <path clip-path="url(#p9483dc68c4)" d="M 491.145305 503.222087 
L 487.201655 505.331026 
L 487.880694 500.910743 
L 491.145305 503.222087 
z
" style="stroke:#000000;stroke-linecap:round;"/>
   </g>
   <g id="patch_20">
    <path clip-path="url(#p9483dc68c4)" d="M 555.482784 395.432814 
Q 500.82269 386.564993 447.266201 377.876217 
" style="fill:none;stroke:#000000;stroke-linecap:round;"/>
    <path clip-path="url(#p9483dc68c4)" d="M 450.894293 380.490972 
L 447.266201 377.876217 
L 451.534861 376.542596 
L 450.894293 380.490972 
z
" style="stroke:#000000;stroke-linecap:round;"/>
   </g>
   <g id="PathCollection_1">
    <defs>
     <path d="M 0 8.660254 
C 2.296726 8.660254 4.499694 7.747755 6.123724 6.123724 
C 7.747755 4.499694 8.660254 2.296726 8.660254 0 
C 8.660254 -2.296726 7.747755 -4.499694 6.123724 -6.123724 
C 4.499694 -7.747755 2.296726 -8.660254 0 -8.660254 
C -2.296726 -8.660254 -4.499694 -7.747755 -6.123724 -6.123724 
C -7.747755 -4.499694 -8.660254 -2.296726 -8.660254 0 
C -8.660254 2.296726 -7.747755 4.499694 -6.123724 6.123724 
C -4.499694 7.747755 -2.296726 8.660254 0 8.660254 
z
" id="m77263c36bd" style="stroke:#1f78b4;"/>
    </defs>
    <g clip-path="url(#p9483dc68c4)">
     <use style="fill:#1f78b4;stroke:#1f78b4;" x="473.63256" xlink:href="#m77263c36bd" y="1054.985816"/>
     <use style="fill:#1f78b4;stroke:#1f78b4;" x="378.025324" xlink:href="#m77263c36bd" y="1112.920796"/>
     <use style="fill:#1f78b4;stroke:#1f78b4;" x="276.842975" xlink:href="#m77263c36bd" y="1185.381818"/>
     <use style="fill:#1f78b4;stroke:#1f78b4;" x="623.215983" xlink:href="#m77263c36bd" y="967.393826"/>
     <use style="fill:#1f78b4;stroke:#1f78b4;" x="603.112083" xlink:href="#m77263c36bd" y="836.927578"/>
     <use style="fill:#1f78b4;stroke:#1f78b4;" x="796.254177" xlink:href="#m77263c36bd" y="937.640236"/>
     <use style="fill:#1f78b4;stroke:#1f78b4;" x="965.385193" xlink:href="#m77263c36bd" y="864.720011"/>
     <use style="fill:#1f78b4;stroke:#1f78b4;" x="1055.743745" xlink:href="#m77263c36bd" y="750.142121"/>
     <use style="fill:#1f78b4;stroke:#1f78b4;" x="1025.81856" xlink:href="#m77263c36bd" y="979.398104"/>
     <use style="fill:#1f78b4;stroke:#1f78b4;" x="1137.758414" xlink:href="#m77263c36bd" y="853.993576"/>
     <use style="fill:#1f78b4;stroke:#1f78b4;" x="1139.761898" xlink:href="#m77263c36bd" y="639.431189"/>
     <use style="fill:#1f78b4;stroke:#1f78b4;" x="1190.387889" xlink:href="#m77263c36bd" y="729.962987"/>
     <use style="fill:#1f78b4;stroke:#1f78b4;" x="1199.157025" xlink:href="#m77263c36bd" y="992.186766"/>
     <use style="fill:#1f78b4;stroke:#1f78b4;" x="913.020657" xlink:href="#m77263c36bd" y="576.860556"/>
     <use style="fill:#1f78b4;stroke:#1f78b4;" x="753.840934" xlink:href="#m77263c36bd" y="435.798049"/>
     <use style="fill:#1f78b4;stroke:#1f78b4;" x="784.217457" xlink:href="#m77263c36bd" y="301.617638"/>
     <use style="fill:#1f78b4;stroke:#1f78b4;" x="564.028042" xlink:href="#m77263c36bd" y="396.81916"/>
     <use style="fill:#1f78b4;stroke:#1f78b4;" x="507.535195" xlink:href="#m77263c36bd" y="269.018182"/>
     <use style="fill:#1f78b4;stroke:#1f78b4;" x="481.550535" xlink:href="#m77263c36bd" y="513.312836"/>
     <use style="fill:#1f78b4;stroke:#1f78b4;" x="437.612233" xlink:href="#m77263c36bd" y="376.309998"/>
    </g>
   </g>
   <g id="text_1">
    <g clip-path="url(#p9483dc68c4)">
     <!-- 1 -->
     <g transform="translate(469.81506 1058.297066)scale(0.12 -0.12)">
      <defs>
       <path d="M 794 531 
L 1825 531 
L 1825 4091 
L 703 3866 
L 703 4441 
L 1819 4666 
L 2450 4666 
L 2450 531 
L 3481 531 
L 3481 0 
L 794 0 
L 794 531 
z
" id="DejaVuSans-31" transform="scale(0.015625)"/>
      </defs>
      <use xlink:href="#DejaVuSans-31"/>
     </g>
    </g>
   </g>
   <g id="text_2">
    <g clip-path="url(#p9483dc68c4)">
     <!-- 0 -->
     <g transform="translate(374.207824 1116.232046)scale(0.12 -0.12)">
      <defs>
       <path d="M 2034 4250 
Q 1547 4250 1301 3770 
Q 1056 3291 1056 2328 
Q 1056 1369 1301 889 
Q 1547 409 2034 409 
Q 2525 409 2770 889 
Q 3016 1369 3016 2328 
Q 3016 3291 2770 3770 
Q 2525 4250 2034 4250 
z
M 2034 4750 
Q 2819 4750 3233 4129 
Q 3647 3509 3647 2328 
Q 3647 1150 3233 529 
Q 2819 -91 2034 -91 
Q 1250 -91 836 529 
Q 422 1150 422 2328 
Q 422 3509 836 4129 
Q 1250 4750 2034 4750 
z
" id="DejaVuSans-30" transform="scale(0.015625)"/>
      </defs>
      <use xlink:href="#DejaVuSans-30"/>
     </g>
    </g>
   </g>
   <g id="text_3">
    <g clip-path="url(#p9483dc68c4)">
     <!-- 2 -->
     <g transform="translate(273.025475 1188.693068)scale(0.12 -0.12)">
      <defs>
       <path d="M 1228 531 
L 3431 531 
L 3431 0 
L 469 0 
L 469 531 
Q 828 903 1448 1529 
Q 2069 2156 2228 2338 
Q 2531 2678 2651 2914 
Q 2772 3150 2772 3378 
Q 2772 3750 2511 3984 
Q 2250 4219 1831 4219 
Q 1534 4219 1204 4116 
Q 875 4013 500 3803 
L 500 4441 
Q 881 4594 1212 4672 
Q 1544 4750 1819 4750 
Q 2544 4750 2975 4387 
Q 3406 4025 3406 3419 
Q 3406 3131 3298 2873 
Q 3191 2616 2906 2266 
Q 2828 2175 2409 1742 
Q 1991 1309 1228 531 
z
" id="DejaVuSans-32" transform="scale(0.015625)"/>
      </defs>
      <use xlink:href="#DejaVuSans-32"/>
     </g>
    </g>
   </g>
   <g id="text_4">
    <g clip-path="url(#p9483dc68c4)">
     <!-- 3 -->
     <g transform="translate(619.398483 970.705076)scale(0.12 -0.12)">
      <defs>
       <path d="M 2597 2516 
Q 3050 2419 3304 2112 
Q 3559 1806 3559 1356 
Q 3559 666 3084 287 
Q 2609 -91 1734 -91 
Q 1441 -91 1130 -33 
Q 819 25 488 141 
L 488 750 
Q 750 597 1062 519 
Q 1375 441 1716 441 
Q 2309 441 2620 675 
Q 2931 909 2931 1356 
Q 2931 1769 2642 2001 
Q 2353 2234 1838 2234 
L 1294 2234 
L 1294 2753 
L 1863 2753 
Q 2328 2753 2575 2939 
Q 2822 3125 2822 3475 
Q 2822 3834 2567 4026 
Q 2313 4219 1838 4219 
Q 1578 4219 1281 4162 
Q 984 4106 628 3988 
L 628 4550 
Q 988 4650 1302 4700 
Q 1616 4750 1894 4750 
Q 2613 4750 3031 4423 
Q 3450 4097 3450 3541 
Q 3450 3153 3228 2886 
Q 3006 2619 2597 2516 
z
" id="DejaVuSans-33" transform="scale(0.015625)"/>
      </defs>
      <use xlink:href="#DejaVuSans-33"/>
     </g>
    </g>
   </g>
   <g id="text_5">
    <g clip-path="url(#p9483dc68c4)">
     <!-- 5 -->
     <g transform="translate(599.294583 840.238828)scale(0.12 -0.12)">
      <defs>
       <path d="M 691 4666 
L 3169 4666 
L 3169 4134 
L 1269 4134 
L 1269 2991 
Q 1406 3038 1543 3061 
Q 1681 3084 1819 3084 
Q 2600 3084 3056 2656 
Q 3513 2228 3513 1497 
Q 3513 744 3044 326 
Q 2575 -91 1722 -91 
Q 1428 -91 1123 -41 
Q 819 9 494 109 
L 494 744 
Q 775 591 1075 516 
Q 1375 441 1709 441 
Q 2250 441 2565 725 
Q 2881 1009 2881 1497 
Q 2881 1984 2565 2268 
Q 2250 2553 1709 2553 
Q 1456 2553 1204 2497 
Q 953 2441 691 2322 
L 691 4666 
z
" id="DejaVuSans-35" transform="scale(0.015625)"/>
      </defs>
      <use xlink:href="#DejaVuSans-35"/>
     </g>
    </g>
   </g>
   <g id="text_6">
    <g clip-path="url(#p9483dc68c4)">
     <!-- 4 -->
     <g transform="translate(792.436677 940.951486)scale(0.12 -0.12)">
      <defs>
       <path d="M 2419 4116 
L 825 1625 
L 2419 1625 
L 2419 4116 
z
M 2253 4666 
L 3047 4666 
L 3047 1625 
L 3713 1625 
L 3713 1100 
L 3047 1100 
L 3047 0 
L 2419 0 
L 2419 1100 
L 313 1100 
L 313 1709 
L 2253 4666 
z
" id="DejaVuSans-34" transform="scale(0.015625)"/>
      </defs>
      <use xlink:href="#DejaVuSans-34"/>
     </g>
    </g>
   </g>
   <g id="text_7">
    <g clip-path="url(#p9483dc68c4)">
     <!-- 6 -->
     <g transform="translate(961.567693 868.031261)scale(0.12 -0.12)">
      <defs>
       <path d="M 2113 2584 
Q 1688 2584 1439 2293 
Q 1191 2003 1191 1497 
Q 1191 994 1439 701 
Q 1688 409 2113 409 
Q 2538 409 2786 701 
Q 3034 994 3034 1497 
Q 3034 2003 2786 2293 
Q 2538 2584 2113 2584 
z
M 3366 4563 
L 3366 3988 
Q 3128 4100 2886 4159 
Q 2644 4219 2406 4219 
Q 1781 4219 1451 3797 
Q 1122 3375 1075 2522 
Q 1259 2794 1537 2939 
Q 1816 3084 2150 3084 
Q 2853 3084 3261 2657 
Q 3669 2231 3669 1497 
Q 3669 778 3244 343 
Q 2819 -91 2113 -91 
Q 1303 -91 875 529 
Q 447 1150 447 2328 
Q 447 3434 972 4092 
Q 1497 4750 2381 4750 
Q 2619 4750 2861 4703 
Q 3103 4656 3366 4563 
z
" id="DejaVuSans-36" transform="scale(0.015625)"/>
      </defs>
      <use xlink:href="#DejaVuSans-36"/>
     </g>
    </g>
   </g>
   <g id="text_8">
    <g clip-path="url(#p9483dc68c4)">
     <!-- 7 -->
     <g transform="translate(1051.926245 753.453371)scale(0.12 -0.12)">
      <defs>
       <path d="M 525 4666 
L 3525 4666 
L 3525 4397 
L 1831 0 
L 1172 0 
L 2766 4134 
L 525 4134 
L 525 4666 
z
" id="DejaVuSans-37" transform="scale(0.015625)"/>
      </defs>
      <use xlink:href="#DejaVuSans-37"/>
     </g>
    </g>
   </g>
   <g id="text_9">
    <g clip-path="url(#p9483dc68c4)">
     <!-- 8 -->
     <g transform="translate(1022.00106 982.709354)scale(0.12 -0.12)">
      <defs>
       <path d="M 2034 2216 
Q 1584 2216 1326 1975 
Q 1069 1734 1069 1313 
Q 1069 891 1326 650 
Q 1584 409 2034 409 
Q 2484 409 2743 651 
Q 3003 894 3003 1313 
Q 3003 1734 2745 1975 
Q 2488 2216 2034 2216 
z
M 1403 2484 
Q 997 2584 770 2862 
Q 544 3141 544 3541 
Q 544 4100 942 4425 
Q 1341 4750 2034 4750 
Q 2731 4750 3128 4425 
Q 3525 4100 3525 3541 
Q 3525 3141 3298 2862 
Q 3072 2584 2669 2484 
Q 3125 2378 3379 2068 
Q 3634 1759 3634 1313 
Q 3634 634 3220 271 
Q 2806 -91 2034 -91 
Q 1263 -91 848 271 
Q 434 634 434 1313 
Q 434 1759 690 2068 
Q 947 2378 1403 2484 
z
M 1172 3481 
Q 1172 3119 1398 2916 
Q 1625 2713 2034 2713 
Q 2441 2713 2670 2916 
Q 2900 3119 2900 3481 
Q 2900 3844 2670 4047 
Q 2441 4250 2034 4250 
Q 1625 4250 1398 4047 
Q 1172 3844 1172 3481 
z
" id="DejaVuSans-38" transform="scale(0.015625)"/>
      </defs>
      <use xlink:href="#DejaVuSans-38"/>
     </g>
    </g>
   </g>
   <g id="text_10">
    <g clip-path="url(#p9483dc68c4)">
     <!-- 9 -->
     <g transform="translate(1133.940914 857.304826)scale(0.12 -0.12)">
      <defs>
       <path d="M 703 97 
L 703 672 
Q 941 559 1184 500 
Q 1428 441 1663 441 
Q 2288 441 2617 861 
Q 2947 1281 2994 2138 
Q 2813 1869 2534 1725 
Q 2256 1581 1919 1581 
Q 1219 1581 811 2004 
Q 403 2428 403 3163 
Q 403 3881 828 4315 
Q 1253 4750 1959 4750 
Q 2769 4750 3195 4129 
Q 3622 3509 3622 2328 
Q 3622 1225 3098 567 
Q 2575 -91 1691 -91 
Q 1453 -91 1209 -44 
Q 966 3 703 97 
z
M 1959 2075 
Q 2384 2075 2632 2365 
Q 2881 2656 2881 3163 
Q 2881 3666 2632 3958 
Q 2384 4250 1959 4250 
Q 1534 4250 1286 3958 
Q 1038 3666 1038 3163 
Q 1038 2656 1286 2365 
Q 1534 2075 1959 2075 
z
" id="DejaVuSans-39" transform="scale(0.015625)"/>
      </defs>
      <use xlink:href="#DejaVuSans-39"/>
     </g>
    </g>
   </g>
   <g id="text_11">
    <g clip-path="url(#p9483dc68c4)">
     <!-- 10 -->
     <g transform="translate(1132.126898 642.742439)scale(0.12 -0.12)">
      <use xlink:href="#DejaVuSans-31"/>
      <use x="63.623047" xlink:href="#DejaVuSans-30"/>
     </g>
    </g>
   </g>
   <g id="text_12">
    <g clip-path="url(#p9483dc68c4)">
     <!-- 11 -->
     <g transform="translate(1182.752889 733.274237)scale(0.12 -0.12)">
      <use xlink:href="#DejaVuSans-31"/>
      <use x="63.623047" xlink:href="#DejaVuSans-31"/>
     </g>
    </g>
   </g>
   <g id="text_13">
    <g clip-path="url(#p9483dc68c4)">
     <!-- 13 -->
     <g transform="translate(1191.522025 995.498016)scale(0.12 -0.12)">
      <use xlink:href="#DejaVuSans-31"/>
      <use x="63.623047" xlink:href="#DejaVuSans-33"/>
     </g>
    </g>
   </g>
   <g id="text_14">
    <g clip-path="url(#p9483dc68c4)">
     <!-- 12 -->
     <g transform="translate(905.385657 580.171806)scale(0.12 -0.12)">
      <use xlink:href="#DejaVuSans-31"/>
      <use x="63.623047" xlink:href="#DejaVuSans-32"/>
     </g>
    </g>
   </g>
   <g id="text_15">
    <g clip-path="url(#p9483dc68c4)">
     <!-- 14 -->
     <g transform="translate(746.205934 439.109299)scale(0.12 -0.12)">
      <use xlink:href="#DejaVuSans-31"/>
      <use x="63.623047" xlink:href="#DejaVuSans-34"/>
     </g>
    </g>
   </g>
   <g id="text_16">
    <g clip-path="url(#p9483dc68c4)">
     <!-- 16 -->
     <g transform="translate(776.582457 304.928888)scale(0.12 -0.12)">
      <use xlink:href="#DejaVuSans-31"/>
      <use x="63.623047" xlink:href="#DejaVuSans-36"/>
     </g>
    </g>
   </g>
   <g id="text_17">
    <g clip-path="url(#p9483dc68c4)">
     <!-- 15 -->
     <g transform="translate(556.393042 400.13041)scale(0.12 -0.12)">
      <use xlink:href="#DejaVuSans-31"/>
      <use x="63.623047" xlink:href="#DejaVuSans-35"/>
     </g>
    </g>
   </g>
   <g id="text_18">
    <g clip-path="url(#p9483dc68c4)">
     <!-- 17 -->
     <g transform="translate(499.900195 272.329432)scale(0.12 -0.12)">
      <use xlink:href="#DejaVuSans-31"/>
      <use x="63.623047" xlink:href="#DejaVuSans-37"/>
     </g>
    </g>
   </g>
   <g id="text_19">
    <g clip-path="url(#p9483dc68c4)">
     <!-- 18 -->
     <g transform="translate(473.915535 516.624086)scale(0.12 -0.12)">
      <use xlink:href="#DejaVuSans-31"/>
      <use x="63.623047" xlink:href="#DejaVuSans-38"/>
     </g>
    </g>
   </g>
   <g id="text_20">
    <g clip-path="url(#p9483dc68c4)">
     <!-- 19 -->
     <g transform="translate(429.977233 379.621248)scale(0.12 -0.12)">
      <use xlink:href="#DejaVuSans-31"/>
      <use x="63.623047" xlink:href="#DejaVuSans-39"/>
     </g>
    </g>
   </g>
  </g>
 </g>
 <defs>
  <clipPath id="p9483dc68c4">
   <rect height="1108.8" width="1116" x="180" y="172.8"/>
  </clipPath>
 </defs>
</svg>
