<?xml version="1.0" encoding="utf-8" standalone="no"?>
<!DOCTYPE svg PUBLIC "-//W3C//DTD SVG 1.1//EN"
  "http://www.w3.org/Graphics/SVG/1.1/DTD/svg11.dtd">
<svg height="1440pt" version="1.1" viewBox="0 0 1440 1440" width="1440pt" xmlns="http://www.w3.org/2000/svg" xmlns:xlink="http://www.w3.org/1999/xlink">
 <metadata>
  <rdf:RDF xmlns:cc="http://creativecommons.org/ns#" xmlns:dc="http://purl.org/dc/elements/1.1/" xmlns:rdf="http://www.w3.org/1999/02/22-rdf-syntax-ns#">
   <cc:Work>
    <dc:type rdf:resource="http://purl.org/dc/dcmitype/StillImage"/>
    <dc:date>2021-10-17T05:24:24.096667</dc:date>
    <dc:format>image/svg+xml</dc:format>
    <dc:creator>
     <cc:Agent>
      <dc:title>Matplotlib v3.4.3, https://matplotlib.org/</dc:title>
     </cc:Agent>
    </dc:creator>
   </cc:Work>
  </rdf:RDF>
 </metadata>
 <defs>
  <style type="text/css">*{stroke-linecap:butt;stroke-linejoin:round;}</style>
 </defs>
 <g id="figure_1">
  <g id="patch_1">
   <path d="M 0 1440 
L 1440 1440 
L 1440 0 
L 0 0 
z
" style="fill:#ffffff;"/>
  </g>
  <g id="axes_1">
   <g id="patch_2">
    <path clip-path="url(#pce79163461)" d="M 405.271139 377.345027 
Q 379.07166 355.545924 354.591066 335.177007 
" style="fill:none;stroke:#ff0000;stroke-linecap:round;stroke-width:2;"/>
    <path clip-path="url(#pce79163461)" d="M 356.386703 339.272821 
L 354.591066 335.177007 
L 358.945099 336.197986 
L 356.386703 339.272821 
z
" style="fill:#ff0000;stroke:#ff0000;stroke-linecap:round;stroke-width:2;"/>
   </g>
   <g id="patch_3">
    <path clip-path="url(#pce79163461)" d="M 418.577033 388.430206 
Q 462.39248 424.979444 505.349379 460.812514 
" style="fill:none;stroke:#000000;stroke-linecap:round;"/>
    <path clip-path="url(#pce79163461)" d="M 503.558869 456.714457 
L 505.349379 460.812514 
L 500.996627 459.786088 
L 503.558869 456.714457 
z
" style="stroke:#000000;stroke-linecap:round;"/>
   </g>
   <g id="patch_4">
    <path clip-path="url(#pce79163461)" d="M 339.628469 322.588006 
Q 311.530389 298.614169 284.282831 275.366014 
" style="fill:none;stroke:#000000;stroke-linecap:round;"/>
    <path clip-path="url(#pce79163461)" d="M 286.02761 279.48375 
L 284.282831 275.366014 
L 288.623887 276.440832 
L 286.02761 279.48375 
z
" style="stroke:#000000;stroke-linecap:round;"/>
   </g>
   <g id="patch_5">
    <path clip-path="url(#pce79163461)" d="M 504.57597 469.615208 
Q 469.933871 480.240631 436.360656 490.538204 
" style="fill:none;stroke:#000000;stroke-linecap:round;"/>
    <path clip-path="url(#pce79163461)" d="M 440.771289 491.277338 
L 436.360656 490.538204 
L 439.598343 487.453179 
L 440.771289 491.277338 
z
" style="stroke:#000000;stroke-linecap:round;"/>
   </g>
   <g id="patch_6">
    <path clip-path="url(#pce79163461)" d="M 520.757723 470.626942 
Q 583.865594 498.997269 645.953734 526.909175 
" style="fill:none;stroke:#000000;stroke-linecap:round;"/>
    <path clip-path="url(#pce79163461)" d="M 643.125489 523.444925 
L 645.953734 526.909175 
L 641.485387 527.093221 
L 643.125489 523.444925 
z
" style="stroke:#000000;stroke-linecap:round;"/>
   </g>
   <g id="patch_7">
    <path clip-path="url(#pce79163461)" d="M 662.796244 534.40462 
Q 731.432574 564.600968 799.045531 594.347086 
" style="fill:none;stroke:#000000;stroke-linecap:round;"/>
    <path clip-path="url(#pce79163461)" d="M 796.189595 590.905629 
L 799.045531 594.347086 
L 794.578803 594.56696 
L 796.189595 590.905629 
z
" style="stroke:#000000;stroke-linecap:round;"/>
   </g>
   <g id="patch_8">
    <path clip-path="url(#pce79163461)" d="M 815.045057 603.314251 
Q 861.240624 636.274752 905.615951 667.936513 
" style="fill:none;stroke:#ff0000;stroke-linecap:round;stroke-width:2;"/>
    <path clip-path="url(#pce79163461)" d="M 903.521434 663.985184 
L 905.615951 667.936513 
L 901.198178 667.241329 
L 903.521434 663.985184 
z
" style="fill:#ff0000;stroke:#ff0000;stroke-linecap:round;stroke-width:2;"/>
   </g>
   <g id="patch_9">
    <path clip-path="url(#pce79163461)" d="M 807.978414 589.627543 
Q 807.913896 558.286074 807.85168 528.062636 
" style="fill:none;stroke:#000000;stroke-linecap:round;"/>
    <path clip-path="url(#pce79163461)" d="M 805.859918 532.066745 
L 807.85168 528.062636 
L 809.85991 532.058511 
L 805.859918 532.066745 
z
" style="stroke:#000000;stroke-linecap:round;"/>
   </g>
   <g id="patch_10">
    <path clip-path="url(#pce79163461)" d="M 921.006203 668.56838 
Q 950.297707 642.977076 977.905294 618.85697 
" style="fill:none;stroke:#ff0000;stroke-linecap:round;stroke-width:2;"/>
    <path clip-path="url(#pce79163461)" d="M 973.577132 619.98259 
L 977.905294 618.85697 
L 976.208892 622.994871 
L 973.577132 619.98259 
z
" style="fill:#ff0000;stroke:#ff0000;stroke-linecap:round;stroke-width:2;"/>
   </g>
   <g id="patch_11">
    <path clip-path="url(#pce79163461)" d="M 923.019215 675.734247 
Q 960.522242 682.190783 996.923444 688.457628 
" style="fill:none;stroke:#000000;stroke-linecap:round;"/>
    <path clip-path="url(#pce79163461)" d="M 993.320766 685.807967 
L 996.923444 688.457628 
L 992.642108 689.749974 
L 993.320766 685.807967 
z
" style="stroke:#000000;stroke-linecap:round;"/>
   </g>
   <g id="patch_12">
    <path clip-path="url(#pce79163461)" d="M 907.784495 679.74448 
Q 883.734143 699.409435 860.549324 718.36668 
" style="fill:none;stroke:#000000;stroke-linecap:round;"/>
    <path clip-path="url(#pce79163461)" d="M 864.911937 717.383013 
L 860.549324 718.36668 
L 862.379959 714.286389 
L 864.911937 717.383013 
z
" style="stroke:#000000;stroke-linecap:round;"/>
   </g>
   <g id="patch_13">
    <path clip-path="url(#pce79163461)" d="M 917.617475 682.339437 
Q 944.222299 750.933381 970.422828 818.484951 
" style="fill:none;stroke:#000000;stroke-linecap:round;"/>
    <path clip-path="url(#pce79163461)" d="M 970.841034 814.032412 
L 970.422828 818.484951 
L 967.111721 815.478863 
L 970.841034 814.032412 
z
" style="stroke:#000000;stroke-linecap:round;"/>
   </g>
   <g id="patch_14">
    <path clip-path="url(#pce79163461)" d="M 993.011862 606.454301 
Q 1026.672742 580.926903 1059.442786 556.075088 
" style="fill:none;stroke:#000000;stroke-linecap:round;"/>
    <path clip-path="url(#pce79163461)" d="M 1055.047117 556.898552 
L 1059.442786 556.075088 
L 1057.464156 560.085702 
L 1055.047117 556.898552 
z
" style="stroke:#000000;stroke-linecap:round;"/>
   </g>
   <g id="patch_15">
    <path clip-path="url(#pce79163461)" d="M 976.877715 835.753961 
Q 1000.054997 900.485767 1022.855396 964.164977 
" style="fill:none;stroke:#000000;stroke-linecap:round;"/>
    <path clip-path="url(#pce79163461)" d="M 1023.38996 959.724905 
L 1022.855396 964.164977 
L 1019.624077 961.073283 
L 1023.38996 959.724905 
z
" style="stroke:#000000;stroke-linecap:round;"/>
   </g>
   <g id="patch_16">
    <path clip-path="url(#pce79163461)" d="M 1020.092165 979.56065 
Q 998.650888 1001.47152 977.99157 1022.583305 
" style="fill:none;stroke:#000000;stroke-linecap:round;"/>
    <path clip-path="url(#pce79163461)" d="M 982.218644 1021.123221 
L 977.99157 1022.583305 
L 979.359747 1018.325596 
L 982.218644 1021.123221 
z
" style="stroke:#000000;stroke-linecap:round;"/>
   </g>
   <g id="patch_17">
    <path clip-path="url(#pce79163461)" d="M 1030.47449 980.869086 
Q 1062.987399 1037.268504 1094.941927 1092.699309 
" style="fill:none;stroke:#000000;stroke-linecap:round;"/>
    <path clip-path="url(#pce79163461)" d="M 1094.676906 1088.235032 
L 1094.941927 1092.699309 
L 1091.211493 1090.232759 
L 1094.676906 1088.235032 
z
" style="stroke:#000000;stroke-linecap:round;"/>
   </g>
   <g id="patch_18">
    <path clip-path="url(#pce79163461)" d="M 1104.186678 1108.650748 
Q 1124.194186 1142.966479 1143.638559 1176.316353 
" style="fill:none;stroke:#000000;stroke-linecap:round;"/>
    <path clip-path="url(#pce79163461)" d="M 1143.351604 1171.853433 
L 1143.638559 1176.316353 
L 1139.89605 1173.868166 
L 1143.351604 1171.853433 
z
" style="stroke:#000000;stroke-linecap:round;"/>
   </g>
   <g id="patch_19">
    <path clip-path="url(#pce79163461)" d="M 1108.260465 1103.131614 
Q 1149.490965 1112.726943 1189.63253 1122.068851 
" style="fill:none;stroke:#000000;stroke-linecap:round;"/>
    <path clip-path="url(#pce79163461)" d="M 1186.189974 1119.214239 
L 1189.63253 1122.068851 
L 1185.283307 1123.110129 
L 1186.189974 1119.214239 
z
" style="stroke:#000000;stroke-linecap:round;"/>
   </g>
   <g id="patch_20">
    <path clip-path="url(#pce79163461)" d="M 1096.439393 1109.137814 
Q 1081.941181 1143.275201 1067.880018 1176.383517 
" style="fill:none;stroke:#000000;stroke-linecap:round;"/>
    <path clip-path="url(#pce79163461)" d="M 1071.28451 1173.483615 
L 1067.880018 1176.383517 
L 1067.602791 1171.919982 
L 1071.28451 1173.483615 
z
" style="stroke:#000000;stroke-linecap:round;"/>
   </g>
   <g id="PathCollection_1">
    <defs>
     <path d="M 0 8.660254 
C 2.296726 8.660254 4.499694 7.747755 6.123724 6.123724 
C 7.747755 4.499694 8.660254 2.296726 8.660254 0 
C 8.660254 -2.296726 7.747755 -4.499694 6.123724 -6.123724 
C 4.499694 -7.747755 2.296726 -8.660254 0 -8.660254 
C -2.296726 -8.660254 -4.499694 -7.747755 -6.123724 -6.123724 
C -7.747755 -4.499694 -8.660254 -2.296726 -8.660254 0 
C -8.660254 2.296726 -7.747755 4.499694 -6.123724 6.123724 
C -4.499694 7.747755 -2.296726 8.660254 0 8.660254 
z
" id="mc32ee59199" style="stroke:#1f78b4;"/>
    </defs>
    <g clip-path="url(#pce79163461)">
     <use style="fill:#1f78b4;stroke:#1f78b4;" x="411.927004" xlink:href="#mc32ee59199" y="382.882995"/>
     <use style="fill:#1f78b4;stroke:#1f78b4;" x="346.214626" xlink:href="#mc32ee59199" y="328.207446"/>
     <use style="fill:#1f78b4;stroke:#1f78b4;" x="276.842975" xlink:href="#mc32ee59199" y="269.018182"/>
     <use style="fill:#1f78b4;stroke:#1f78b4;" x="512.857136" xlink:href="#mc32ee59199" y="467.07521"/>
     <use style="fill:#1f78b4;stroke:#1f78b4;" x="427.011753" xlink:href="#mc32ee59199" y="493.405699"/>
     <use style="fill:#1f78b4;stroke:#1f78b4;" x="654.868343" xlink:href="#mc32ee59199" y="530.916763"/>
     <use style="fill:#1f78b4;stroke:#1f78b4;" x="807.996235" xlink:href="#mc32ee59199" y="598.284922"/>
     <use style="fill:#1f78b4;stroke:#1f78b4;" x="914.485775" xlink:href="#mc32ee59199" y="674.265126"/>
     <use style="fill:#1f78b4;stroke:#1f78b4;" x="807.831549" xlink:href="#mc32ee59199" y="518.283516"/>
     <use style="fill:#1f78b4;stroke:#1f78b4;" x="986.11212" xlink:href="#mc32ee59199" y="611.686857"/>
     <use style="fill:#1f78b4;stroke:#1f78b4;" x="1006.558129" xlink:href="#mc32ee59199" y="690.116339"/>
     <use style="fill:#1f78b4;stroke:#1f78b4;" x="852.976654" xlink:href="#mc32ee59199" y="724.558531"/>
     <use style="fill:#1f78b4;stroke:#1f78b4;" x="1067.235456" xlink:href="#mc32ee59199" y="550.165363"/>
     <use style="fill:#1f78b4;stroke:#1f78b4;" x="973.958114" xlink:href="#mc32ee59199" y="827.59981"/>
     <use style="fill:#1f78b4;stroke:#1f78b4;" x="1026.150961" xlink:href="#mc32ee59199" y="973.369157"/>
     <use style="fill:#1f78b4;stroke:#1f78b4;" x="971.155216" xlink:href="#mc32ee59199" y="1029.569385"/>
     <use style="fill:#1f78b4;stroke:#1f78b4;" x="1099.824076" xlink:href="#mc32ee59199" y="1101.168263"/>
     <use style="fill:#1f78b4;stroke:#1f78b4;" x="1148.563842" xlink:href="#mc32ee59199" y="1184.763915"/>
     <use style="fill:#1f78b4;stroke:#1f78b4;" x="1199.157025" xlink:href="#mc32ee59199" y="1124.28543"/>
     <use style="fill:#1f78b4;stroke:#1f78b4;" x="1064.058423" xlink:href="#mc32ee59199" y="1185.381818"/>
    </g>
   </g>
   <g id="text_1">
    <g clip-path="url(#pce79163461)">
     <!-- 1 -->
     <g transform="translate(408.109504 386.194245)scale(0.12 -0.12)">
      <defs>
       <path d="M 794 531 
L 1825 531 
L 1825 4091 
L 703 3866 
L 703 4441 
L 1819 4666 
L 2450 4666 
L 2450 531 
L 3481 531 
L 3481 0 
L 794 0 
L 794 531 
z
" id="DejaVuSans-31" transform="scale(0.015625)"/>
      </defs>
      <use xlink:href="#DejaVuSans-31"/>
     </g>
    </g>
   </g>
   <g id="text_2">
    <g clip-path="url(#pce79163461)">
     <!-- 0 -->
     <g transform="translate(342.397126 331.518696)scale(0.12 -0.12)">
      <defs>
       <path d="M 2034 4250 
Q 1547 4250 1301 3770 
Q 1056 3291 1056 2328 
Q 1056 1369 1301 889 
Q 1547 409 2034 409 
Q 2525 409 2770 889 
Q 3016 1369 3016 2328 
Q 3016 3291 2770 3770 
Q 2525 4250 2034 4250 
z
M 2034 4750 
Q 2819 4750 3233 4129 
Q 3647 3509 3647 2328 
Q 3647 1150 3233 529 
Q 2819 -91 2034 -91 
Q 1250 -91 836 529 
Q 422 1150 422 2328 
Q 422 3509 836 4129 
Q 1250 4750 2034 4750 
z
" id="DejaVuSans-30" transform="scale(0.015625)"/>
      </defs>
      <use xlink:href="#DejaVuSans-30"/>
     </g>
    </g>
   </g>
   <g id="text_3">
    <g clip-path="url(#pce79163461)">
     <!-- 2 -->
     <g transform="translate(273.025475 272.329432)scale(0.12 -0.12)">
      <defs>
       <path d="M 1228 531 
L 3431 531 
L 3431 0 
L 469 0 
L 469 531 
Q 828 903 1448 1529 
Q 2069 2156 2228 2338 
Q 2531 2678 2651 2914 
Q 2772 3150 2772 3378 
Q 2772 3750 2511 3984 
Q 2250 4219 1831 4219 
Q 1534 4219 1204 4116 
Q 875 4013 500 3803 
L 500 4441 
Q 881 4594 1212 4672 
Q 1544 4750 1819 4750 
Q 2544 4750 2975 4387 
Q 3406 4025 3406 3419 
Q 3406 3131 3298 2873 
Q 3191 2616 2906 2266 
Q 2828 2175 2409 1742 
Q 1991 1309 1228 531 
z
" id="DejaVuSans-32" transform="scale(0.015625)"/>
      </defs>
      <use xlink:href="#DejaVuSans-32"/>
     </g>
    </g>
   </g>
   <g id="text_4">
    <g clip-path="url(#pce79163461)">
     <!-- 3 -->
     <g transform="translate(509.039636 470.38646)scale(0.12 -0.12)">
      <defs>
       <path d="M 2597 2516 
Q 3050 2419 3304 2112 
Q 3559 1806 3559 1356 
Q 3559 666 3084 287 
Q 2609 -91 1734 -91 
Q 1441 -91 1130 -33 
Q 819 25 488 141 
L 488 750 
Q 750 597 1062 519 
Q 1375 441 1716 441 
Q 2309 441 2620 675 
Q 2931 909 2931 1356 
Q 2931 1769 2642 2001 
Q 2353 2234 1838 2234 
L 1294 2234 
L 1294 2753 
L 1863 2753 
Q 2328 2753 2575 2939 
Q 2822 3125 2822 3475 
Q 2822 3834 2567 4026 
Q 2313 4219 1838 4219 
Q 1578 4219 1281 4162 
Q 984 4106 628 3988 
L 628 4550 
Q 988 4650 1302 4700 
Q 1616 4750 1894 4750 
Q 2613 4750 3031 4423 
Q 3450 4097 3450 3541 
Q 3450 3153 3228 2886 
Q 3006 2619 2597 2516 
z
" id="DejaVuSans-33" transform="scale(0.015625)"/>
      </defs>
      <use xlink:href="#DejaVuSans-33"/>
     </g>
    </g>
   </g>
   <g id="text_5">
    <g clip-path="url(#pce79163461)">
     <!-- 5 -->
     <g transform="translate(423.194253 496.716949)scale(0.12 -0.12)">
      <defs>
       <path d="M 691 4666 
L 3169 4666 
L 3169 4134 
L 1269 4134 
L 1269 2991 
Q 1406 3038 1543 3061 
Q 1681 3084 1819 3084 
Q 2600 3084 3056 2656 
Q 3513 2228 3513 1497 
Q 3513 744 3044 326 
Q 2575 -91 1722 -91 
Q 1428 -91 1123 -41 
Q 819 9 494 109 
L 494 744 
Q 775 591 1075 516 
Q 1375 441 1709 441 
Q 2250 441 2565 725 
Q 2881 1009 2881 1497 
Q 2881 1984 2565 2268 
Q 2250 2553 1709 2553 
Q 1456 2553 1204 2497 
Q 953 2441 691 2322 
L 691 4666 
z
" id="DejaVuSans-35" transform="scale(0.015625)"/>
      </defs>
      <use xlink:href="#DejaVuSans-35"/>
     </g>
    </g>
   </g>
   <g id="text_6">
    <g clip-path="url(#pce79163461)">
     <!-- 4 -->
     <g transform="translate(651.050843 534.228013)scale(0.12 -0.12)">
      <defs>
       <path d="M 2419 4116 
L 825 1625 
L 2419 1625 
L 2419 4116 
z
M 2253 4666 
L 3047 4666 
L 3047 1625 
L 3713 1625 
L 3713 1100 
L 3047 1100 
L 3047 0 
L 2419 0 
L 2419 1100 
L 313 1100 
L 313 1709 
L 2253 4666 
z
" id="DejaVuSans-34" transform="scale(0.015625)"/>
      </defs>
      <use xlink:href="#DejaVuSans-34"/>
     </g>
    </g>
   </g>
   <g id="text_7">
    <g clip-path="url(#pce79163461)">
     <!-- 6 -->
     <g transform="translate(804.178735 601.596172)scale(0.12 -0.12)">
      <defs>
       <path d="M 2113 2584 
Q 1688 2584 1439 2293 
Q 1191 2003 1191 1497 
Q 1191 994 1439 701 
Q 1688 409 2113 409 
Q 2538 409 2786 701 
Q 3034 994 3034 1497 
Q 3034 2003 2786 2293 
Q 2538 2584 2113 2584 
z
M 3366 4563 
L 3366 3988 
Q 3128 4100 2886 4159 
Q 2644 4219 2406 4219 
Q 1781 4219 1451 3797 
Q 1122 3375 1075 2522 
Q 1259 2794 1537 2939 
Q 1816 3084 2150 3084 
Q 2853 3084 3261 2657 
Q 3669 2231 3669 1497 
Q 3669 778 3244 343 
Q 2819 -91 2113 -91 
Q 1303 -91 875 529 
Q 447 1150 447 2328 
Q 447 3434 972 4092 
Q 1497 4750 2381 4750 
Q 2619 4750 2861 4703 
Q 3103 4656 3366 4563 
z
" id="DejaVuSans-36" transform="scale(0.015625)"/>
      </defs>
      <use xlink:href="#DejaVuSans-36"/>
     </g>
    </g>
   </g>
   <g id="text_8">
    <g clip-path="url(#pce79163461)">
     <!-- 7 -->
     <g transform="translate(910.668275 677.576376)scale(0.12 -0.12)">
      <defs>
       <path d="M 525 4666 
L 3525 4666 
L 3525 4397 
L 1831 0 
L 1172 0 
L 2766 4134 
L 525 4134 
L 525 4666 
z
" id="DejaVuSans-37" transform="scale(0.015625)"/>
      </defs>
      <use xlink:href="#DejaVuSans-37"/>
     </g>
    </g>
   </g>
   <g id="text_9">
    <g clip-path="url(#pce79163461)">
     <!-- 8 -->
     <g transform="translate(804.014049 521.594766)scale(0.12 -0.12)">
      <defs>
       <path d="M 2034 2216 
Q 1584 2216 1326 1975 
Q 1069 1734 1069 1313 
Q 1069 891 1326 650 
Q 1584 409 2034 409 
Q 2484 409 2743 651 
Q 3003 894 3003 1313 
Q 3003 1734 2745 1975 
Q 2488 2216 2034 2216 
z
M 1403 2484 
Q 997 2584 770 2862 
Q 544 3141 544 3541 
Q 544 4100 942 4425 
Q 1341 4750 2034 4750 
Q 2731 4750 3128 4425 
Q 3525 4100 3525 3541 
Q 3525 3141 3298 2862 
Q 3072 2584 2669 2484 
Q 3125 2378 3379 2068 
Q 3634 1759 3634 1313 
Q 3634 634 3220 271 
Q 2806 -91 2034 -91 
Q 1263 -91 848 271 
Q 434 634 434 1313 
Q 434 1759 690 2068 
Q 947 2378 1403 2484 
z
M 1172 3481 
Q 1172 3119 1398 2916 
Q 1625 2713 2034 2713 
Q 2441 2713 2670 2916 
Q 2900 3119 2900 3481 
Q 2900 3844 2670 4047 
Q 2441 4250 2034 4250 
Q 1625 4250 1398 4047 
Q 1172 3844 1172 3481 
z
" id="DejaVuSans-38" transform="scale(0.015625)"/>
      </defs>
      <use xlink:href="#DejaVuSans-38"/>
     </g>
    </g>
   </g>
   <g id="text_10">
    <g clip-path="url(#pce79163461)">
     <!-- 9 -->
     <g transform="translate(982.29462 614.998107)scale(0.12 -0.12)">
      <defs>
       <path d="M 703 97 
L 703 672 
Q 941 559 1184 500 
Q 1428 441 1663 441 
Q 2288 441 2617 861 
Q 2947 1281 2994 2138 
Q 2813 1869 2534 1725 
Q 2256 1581 1919 1581 
Q 1219 1581 811 2004 
Q 403 2428 403 3163 
Q 403 3881 828 4315 
Q 1253 4750 1959 4750 
Q 2769 4750 3195 4129 
Q 3622 3509 3622 2328 
Q 3622 1225 3098 567 
Q 2575 -91 1691 -91 
Q 1453 -91 1209 -44 
Q 966 3 703 97 
z
M 1959 2075 
Q 2384 2075 2632 2365 
Q 2881 2656 2881 3163 
Q 2881 3666 2632 3958 
Q 2384 4250 1959 4250 
Q 1534 4250 1286 3958 
Q 1038 3666 1038 3163 
Q 1038 2656 1286 2365 
Q 1534 2075 1959 2075 
z
" id="DejaVuSans-39" transform="scale(0.015625)"/>
      </defs>
      <use xlink:href="#DejaVuSans-39"/>
     </g>
    </g>
   </g>
   <g id="text_11">
    <g clip-path="url(#pce79163461)">
     <!-- 10 -->
     <g transform="translate(998.923129 693.427589)scale(0.12 -0.12)">
      <use xlink:href="#DejaVuSans-31"/>
      <use x="63.623047" xlink:href="#DejaVuSans-30"/>
     </g>
    </g>
   </g>
   <g id="text_12">
    <g clip-path="url(#pce79163461)">
     <!-- 11 -->
     <g transform="translate(845.341654 727.869781)scale(0.12 -0.12)">
      <use xlink:href="#DejaVuSans-31"/>
      <use x="63.623047" xlink:href="#DejaVuSans-31"/>
     </g>
    </g>
   </g>
   <g id="text_13">
    <g clip-path="url(#pce79163461)">
     <!-- 13 -->
     <g transform="translate(1059.600456 553.476613)scale(0.12 -0.12)">
      <use xlink:href="#DejaVuSans-31"/>
      <use x="63.623047" xlink:href="#DejaVuSans-33"/>
     </g>
    </g>
   </g>
   <g id="text_14">
    <g clip-path="url(#pce79163461)">
     <!-- 12 -->
     <g transform="translate(966.323114 830.91106)scale(0.12 -0.12)">
      <use xlink:href="#DejaVuSans-31"/>
      <use x="63.623047" xlink:href="#DejaVuSans-32"/>
     </g>
    </g>
   </g>
   <g id="text_15">
    <g clip-path="url(#pce79163461)">
     <!-- 14 -->
     <g transform="translate(1018.515961 976.680407)scale(0.12 -0.12)">
      <use xlink:href="#DejaVuSans-31"/>
      <use x="63.623047" xlink:href="#DejaVuSans-34"/>
     </g>
    </g>
   </g>
   <g id="text_16">
    <g clip-path="url(#pce79163461)">
     <!-- 16 -->
     <g transform="translate(963.520216 1032.880635)scale(0.12 -0.12)">
      <use xlink:href="#DejaVuSans-31"/>
      <use x="63.623047" xlink:href="#DejaVuSans-36"/>
     </g>
    </g>
   </g>
   <g id="text_17">
    <g clip-path="url(#pce79163461)">
     <!-- 15 -->
     <g transform="translate(1092.189076 1104.479513)scale(0.12 -0.12)">
      <use xlink:href="#DejaVuSans-31"/>
      <use x="63.623047" xlink:href="#DejaVuSans-35"/>
     </g>
    </g>
   </g>
   <g id="text_18">
    <g clip-path="url(#pce79163461)">
     <!-- 17 -->
     <g transform="translate(1140.928842 1188.075165)scale(0.12 -0.12)">
      <use xlink:href="#DejaVuSans-31"/>
      <use x="63.623047" xlink:href="#DejaVuSans-37"/>
     </g>
    </g>
   </g>
   <g id="text_19">
    <g clip-path="url(#pce79163461)">
     <!-- 18 -->
     <g transform="translate(1191.522025 1127.59668)scale(0.12 -0.12)">
      <use xlink:href="#DejaVuSans-31"/>
      <use x="63.623047" xlink:href="#DejaVuSans-38"/>
     </g>
    </g>
   </g>
   <g id="text_20">
    <g clip-path="url(#pce79163461)">
     <!-- 19 -->
     <g transform="translate(1056.423423 1188.693068)scale(0.12 -0.12)">
      <use xlink:href="#DejaVuSans-31"/>
      <use x="63.623047" xlink:href="#DejaVuSans-39"/>
     </g>
    </g>
   </g>
  </g>
 </g>
 <defs>
  <clipPath id="pce79163461">
   <rect height="1108.8" width="1116" x="180" y="172.8"/>
  </clipPath>
 </defs>
</svg>
