<?xml version="1.0" encoding="utf-8" standalone="no"?>
<!DOCTYPE svg PUBLIC "-//W3C//DTD SVG 1.1//EN"
  "http://www.w3.org/Graphics/SVG/1.1/DTD/svg11.dtd">
<svg height="1440pt" version="1.1" viewBox="0 0 1440 1440" width="1440pt" xmlns="http://www.w3.org/2000/svg" xmlns:xlink="http://www.w3.org/1999/xlink">
 <metadata>
  <rdf:RDF xmlns:cc="http://creativecommons.org/ns#" xmlns:dc="http://purl.org/dc/elements/1.1/" xmlns:rdf="http://www.w3.org/1999/02/22-rdf-syntax-ns#">
   <cc:Work>
    <dc:type rdf:resource="http://purl.org/dc/dcmitype/StillImage"/>
    <dc:date>2021-10-17T05:52:41.837770</dc:date>
    <dc:format>image/svg+xml</dc:format>
    <dc:creator>
     <cc:Agent>
      <dc:title>Matplotlib v3.4.3, https://matplotlib.org/</dc:title>
     </cc:Agent>
    </dc:creator>
   </cc:Work>
  </rdf:RDF>
 </metadata>
 <defs>
  <style type="text/css">*{stroke-linecap:butt;stroke-linejoin:round;}</style>
 </defs>
 <g id="figure_1">
  <g id="patch_1">
   <path d="M 0 1440 
L 1440 1440 
L 1440 0 
L 0 0 
z
" style="fill:#ffffff;"/>
  </g>
  <g id="axes_1">
   <g id="patch_2">
    <path clip-path="url(#pa0c6d0f172)" d="M 985.980873 946.981721 
Q 1013.099508 958.999445 1038.173819 970.111219 
" style="fill:none;stroke:#ff0000;stroke-linecap:round;stroke-width:2;"/>
    <path clip-path="url(#pa0c6d0f172)" d="M 1035.327129 966.66211 
L 1038.173819 970.111219 
L 1033.706518 970.319106 
L 1035.327129 966.66211 
z
" style="fill:#ff0000;stroke:#ff0000;stroke-linecap:round;stroke-width:2;"/>
   </g>
   <g id="patch_3">
    <path clip-path="url(#pa0c6d0f172)" d="M 969.949723 940.451088 
Q 929.944825 925.550686 890.987645 911.040522 
" style="fill:none;stroke:#000000;stroke-linecap:round;"/>
    <path clip-path="url(#pa0c6d0f172)" d="M 894.037998 914.310896 
L 890.987645 911.040522 
L 895.434156 910.562463 
L 894.037998 914.310896 
z
" style="stroke:#000000;stroke-linecap:round;"/>
   </g>
   <g id="patch_4">
    <path clip-path="url(#pa0c6d0f172)" d="M 1056.263238 971.532411 
Q 1084.148139 961.262936 1110.983892 951.379841 
" style="fill:none;stroke:#000000;stroke-linecap:round;"/>
    <path clip-path="url(#pa0c6d0f172)" d="M 1106.53917 950.885428 
L 1110.983892 951.379841 
L 1107.921528 954.638971 
L 1106.53917 950.885428 
z
" style="stroke:#000000;stroke-linecap:round;"/>
   </g>
   <g id="patch_5">
    <path clip-path="url(#pa0c6d0f172)" d="M 1050.244149 982.922013 
Q 1057.289854 1010.975603 1064.06322 1037.944836 
" style="fill:none;stroke:#000000;stroke-linecap:round;"/>
    <path clip-path="url(#pa0c6d0f172)" d="M 1065.028631 1033.578146 
L 1064.06322 1037.944836 
L 1061.149115 1034.552493 
L 1065.028631 1033.578146 
z
" style="stroke:#000000;stroke-linecap:round;"/>
   </g>
   <g id="patch_6">
    <path clip-path="url(#pa0c6d0f172)" d="M 1052.745492 967.196864 
Q 1066.387637 945.509285 1079.434485 924.768078 
" style="fill:none;stroke:#000000;stroke-linecap:round;"/>
    <path clip-path="url(#pa0c6d0f172)" d="M 1075.611762 927.089024 
L 1079.434485 924.768078 
L 1078.997608 929.218824 
L 1075.611762 927.089024 
z
" style="stroke:#000000;stroke-linecap:round;"/>
   </g>
   <g id="patch_7">
    <path clip-path="url(#pa0c6d0f172)" d="M 1044.318859 982.300522 
Q 1033.517759 1004.303702 1023.20933 1025.303251 
" style="fill:none;stroke:#000000;stroke-linecap:round;"/>
    <path clip-path="url(#pa0c6d0f172)" d="M 1026.767312 1022.593867 
L 1023.20933 1025.303251 
L 1023.176612 1020.831235 
L 1026.767312 1022.593867 
z
" style="stroke:#000000;stroke-linecap:round;"/>
   </g>
   <g id="patch_8">
    <path clip-path="url(#pa0c6d0f172)" d="M 1055.160907 979.588738 
Q 1075.555209 994.28612 1095.042472 1008.329836 
" style="fill:none;stroke:#000000;stroke-linecap:round;"/>
    <path clip-path="url(#pa0c6d0f172)" d="M 1092.966669 1004.368644 
L 1095.042472 1008.329836 
L 1090.628037 1007.613764 
L 1092.966669 1004.368644 
z
" style="stroke:#000000;stroke-linecap:round;"/>
   </g>
   <g id="patch_9">
    <path clip-path="url(#pa0c6d0f172)" d="M 873.479623 905.309887 
Q 849.435699 898.631495 827.546278 892.551534 
" style="fill:none;stroke:#ff0000;stroke-linecap:round;stroke-width:2;"/>
    <path clip-path="url(#pa0c6d0f172)" d="M 830.865117 895.549084 
L 827.546278 892.551534 
L 831.935622 891.694993 
L 830.865117 895.549084 
z
" style="fill:#ff0000;stroke:#ff0000;stroke-linecap:round;stroke-width:2;"/>
   </g>
   <g id="patch_10">
    <path clip-path="url(#pa0c6d0f172)" d="M 874.932188 912.8708 
Q 863.386855 921.650394 852.731468 929.753233 
" style="fill:none;stroke:#000000;stroke-linecap:round;"/>
    <path clip-path="url(#pa0c6d0f172)" d="M 857.12605 928.923984 
L 852.731468 929.753233 
L 854.704818 925.740018 
L 857.12605 928.923984 
z
" style="stroke:#000000;stroke-linecap:round;"/>
   </g>
   <g id="patch_11">
    <path clip-path="url(#pa0c6d0f172)" d="M 816.513349 880.990331 
Q 814.006832 840.302834 811.569059 800.731256 
" style="fill:none;stroke:#000000;stroke-linecap:round;"/>
    <path clip-path="url(#pa0c6d0f172)" d="M 809.818794 804.846663 
L 811.569059 800.731256 
L 813.811225 804.600712 
L 809.818794 804.846663 
z
" style="stroke:#000000;stroke-linecap:round;"/>
   </g>
   <g id="patch_12">
    <path clip-path="url(#pa0c6d0f172)" d="M 813.297441 897.441616 
Q 792.351439 941.064418 771.889379 983.67935 
" style="fill:none;stroke:#000000;stroke-linecap:round;"/>
    <path clip-path="url(#pa0c6d0f172)" d="M 775.423709 980.939185 
L 771.889379 983.67935 
L 771.817845 979.207786 
L 775.423709 980.939185 
z
" style="stroke:#000000;stroke-linecap:round;"/>
   </g>
   <g id="patch_13">
    <path clip-path="url(#pa0c6d0f172)" d="M 812.019748 782.374452 
Q 815.790655 751.564904 819.425734 721.865109 
" style="fill:none;stroke:#000000;stroke-linecap:round;"/>
    <path clip-path="url(#pa0c6d0f172)" d="M 816.954598 725.592505 
L 819.425734 721.865109 
L 820.92497 726.078455 
L 816.954598 725.592505 
z
" style="stroke:#000000;stroke-linecap:round;"/>
   </g>
   <g id="patch_14">
    <path clip-path="url(#pa0c6d0f172)" d="M 766.34732 1001.051468 
Q 761.638513 1031.813921 757.268041 1060.366051 
" style="fill:none;stroke:#ff0000;stroke-linecap:round;stroke-width:2;"/>
    <path clip-path="url(#pa0c6d0f172)" d="M 759.850245 1056.714719 
L 757.268041 1060.366051 
L 755.896298 1056.109489 
L 759.850245 1056.714719 
z
" style="fill:#ff0000;stroke:#ff0000;stroke-linecap:round;stroke-width:2;"/>
   </g>
   <g id="patch_15">
    <path clip-path="url(#pa0c6d0f172)" d="M 761.015835 1077.906306 
Q 779.552131 1101.162599 796.69472 1122.670299 
" style="fill:none;stroke:#ff0000;stroke-linecap:round;stroke-width:2;"/>
    <path clip-path="url(#pa0c6d0f172)" d="M 795.765571 1118.295749 
L 796.69472 1122.670299 
L 792.637591 1120.788888 
L 795.765571 1118.295749 
z
" style="fill:#ff0000;stroke:#ff0000;stroke-linecap:round;stroke-width:2;"/>
   </g>
   <g id="patch_16">
    <path clip-path="url(#pa0c6d0f172)" d="M 748.813255 1076.485536 
Q 725.885271 1094.506753 703.836298 1111.837073 
" style="fill:none;stroke:#000000;stroke-linecap:round;"/>
    <path clip-path="url(#pa0c6d0f172)" d="M 708.21706 1110.937671 
L 703.836298 1111.837073 
L 705.745234 1107.792822 
L 708.21706 1110.937671 
z
" style="stroke:#000000;stroke-linecap:round;"/>
   </g>
   <g id="patch_17">
    <path clip-path="url(#pa0c6d0f172)" d="M 811.371608 1134.776134 
Q 848.760562 1151.766959 885.131652 1168.295232 
" style="fill:none;stroke:#000000;stroke-linecap:round;"/>
    <path clip-path="url(#pa0c6d0f172)" d="M 882.317472 1164.819546 
L 885.131652 1168.295232 
L 880.662595 1168.461165 
L 882.317472 1164.819546 
z
" style="stroke:#000000;stroke-linecap:round;"/>
   </g>
   <g id="patch_18">
    <path clip-path="url(#pa0c6d0f172)" d="M 902.669554 1171.744836 
Q 946.970978 1168.691168 990.157015 1165.714382 
" style="fill:none;stroke:#000000;stroke-linecap:round;"/>
    <path clip-path="url(#pa0c6d0f172)" d="M 986.028951 1163.994181 
L 990.157015 1165.714382 
L 986.304016 1167.984712 
L 986.028951 1163.994181 
z
" style="stroke:#000000;stroke-linecap:round;"/>
   </g>
   <g id="patch_19">
    <path clip-path="url(#pa0c6d0f172)" d="M 1007.326966 1160.573807 
Q 1050.939189 1134.29671 1093.593771 1108.596607 
" style="fill:none;stroke:#000000;stroke-linecap:round;"/>
    <path clip-path="url(#pa0c6d0f172)" d="M 1089.135449 1108.947846 
L 1093.593771 1108.596607 
L 1091.199769 1112.374008 
L 1089.135449 1108.947846 
z
" style="stroke:#000000;stroke-linecap:round;"/>
   </g>
   <g id="patch_20">
    <path clip-path="url(#pa0c6d0f172)" d="M 1105.112922 1095.478949 
Q 1122.226644 1051.515728 1138.529216 1009.636262 
" style="fill:none;stroke:#ff0000;stroke-linecap:round;stroke-width:2;"/>
    <path clip-path="url(#pa0c6d0f172)" d="M 1135.214418 1012.638281 
L 1138.529216 1009.636262 
L 1138.941952 1014.089311 
L 1135.214418 1012.638281 
z
" style="fill:#ff0000;stroke:#ff0000;stroke-linecap:round;stroke-width:2;"/>
   </g>
   <g id="patch_21">
    <path clip-path="url(#pa0c6d0f172)" d="M 1105.570393 1111.427995 
Q 1120.661183 1144.466631 1135.28746 1176.488297 
" style="fill:none;stroke:#000000;stroke-linecap:round;"/>
    <path clip-path="url(#pa0c6d0f172)" d="M 1135.444778 1172.018929 
L 1135.28746 1176.488297 
L 1131.806356 1173.680821 
L 1135.444778 1172.018929 
z
" style="stroke:#000000;stroke-linecap:round;"/>
   </g>
   <g id="patch_22">
    <path clip-path="url(#pa0c6d0f172)" d="M 1150.552435 1002.62002 
Q 1170.818686 1010.501791 1189.000927 1017.573067 
" style="fill:none;stroke:#ff0000;stroke-linecap:round;stroke-width:2;"/>
    <path clip-path="url(#pa0c6d0f172)" d="M 1185.997865 1014.259215 
L 1189.000927 1017.573067 
L 1184.548007 1017.987205 
L 1185.997865 1014.259215 
z
" style="fill:#ff0000;stroke:#ff0000;stroke-linecap:round;stroke-width:2;"/>
   </g>
   <g id="patch_23">
    <path clip-path="url(#pa0c6d0f172)" d="M 1141.310821 990.898462 
Q 1130.790113 913.812465 1120.420592 837.834232 
" style="fill:none;stroke:#000000;stroke-linecap:round;"/>
    <path clip-path="url(#pa0c6d0f172)" d="M 1118.979869 842.067944 
L 1120.420592 837.834232 
L 1122.943127 841.527038 
L 1118.979869 842.067944 
z
" style="stroke:#000000;stroke-linecap:round;"/>
   </g>
   <g id="patch_24">
    <path clip-path="url(#pa0c6d0f172)" d="M 1116.546249 819.869814 
Q 1094.737977 749.146167 1073.259152 679.490913 
" style="fill:none;stroke:#000000;stroke-linecap:round;"/>
    <path clip-path="url(#pa0c6d0f172)" d="M 1072.526624 683.902648 
L 1073.259152 679.490913 
L 1076.349023 682.723977 
L 1072.526624 683.902648 
z
" style="stroke:#000000;stroke-linecap:round;"/>
   </g>
   <g id="patch_25">
    <path clip-path="url(#pa0c6d0f172)" d="M 1066.694588 662.304551 
Q 1036.261354 597.503898 1006.303392 533.715231 
" style="fill:none;stroke:#000000;stroke-linecap:round;"/>
    <path clip-path="url(#pa0c6d0f172)" d="M 1006.193486 538.186016 
L 1006.303392 533.715231 
L 1009.814077 536.485627 
L 1006.193486 538.186016 
z
" style="stroke:#000000;stroke-linecap:round;"/>
   </g>
   <g id="patch_26">
    <path clip-path="url(#pa0c6d0f172)" d="M 996.057902 518.705902 
Q 964.05802 486.340564 933.630274 455.565317 
" style="fill:none;stroke:#ff0000;stroke-linecap:round;stroke-width:2;"/>
    <path clip-path="url(#pa0c6d0f172)" d="M 935.020376 459.815919 
L 933.630274 455.565317 
L 937.864817 457.003597 
L 935.020376 459.815919 
z
" style="fill:#ff0000;stroke:#ff0000;stroke-linecap:round;stroke-width:2;"/>
   </g>
   <g id="patch_27">
    <path clip-path="url(#pa0c6d0f172)" d="M 1008.197396 518.668115 
Q 1028.194513 498.191951 1047.410473 478.515658 
" style="fill:none;stroke:#000000;stroke-linecap:round;"/>
    <path clip-path="url(#pa0c6d0f172)" d="M 1043.184868 479.979986 
L 1047.410473 478.515658 
L 1046.046572 482.774739 
L 1043.184868 479.979986 
z
" style="stroke:#000000;stroke-linecap:round;"/>
   </g>
   <g id="patch_28">
    <path clip-path="url(#pa0c6d0f172)" d="M 919.126561 442.505457 
Q 867.490527 402.426488 816.737697 363.033047 
" style="fill:none;stroke:#000000;stroke-linecap:round;"/>
    <path clip-path="url(#pa0c6d0f172)" d="M 818.671238 367.065592 
L 816.737697 363.033047 
L 821.123858 363.905741 
L 818.671238 367.065592 
z
" style="stroke:#000000;stroke-linecap:round;"/>
   </g>
   <g id="patch_29">
    <path clip-path="url(#pa0c6d0f172)" d="M 800.503686 358.635791 
Q 761.236812 365.997668 724.167713 372.947498 
" style="fill:none;stroke:#ff0000;stroke-linecap:round;stroke-width:2;"/>
    <path clip-path="url(#pa0c6d0f172)" d="M 728.467758 374.176159 
L 724.167713 372.947498 
L 727.730668 370.244658 
L 728.467758 374.176159 
z
" style="fill:#ff0000;stroke:#ff0000;stroke-linecap:round;stroke-width:2;"/>
   </g>
   <g id="patch_30">
    <path clip-path="url(#pa0c6d0f172)" d="M 806.026917 348.913765 
Q 795.251725 319.623328 784.862538 291.382176 
" style="fill:none;stroke:#000000;stroke-linecap:round;"/>
    <path clip-path="url(#pa0c6d0f172)" d="M 784.366532 295.826721 
L 784.862538 291.382176 
L 788.12057 294.445708 
L 784.366532 295.826721 
z
" style="stroke:#000000;stroke-linecap:round;"/>
   </g>
   <g id="patch_31">
    <path clip-path="url(#pa0c6d0f172)" d="M 810.279179 348.473508 
Q 815.504399 313.030438 820.566556 278.693448 
" style="fill:none;stroke:#000000;stroke-linecap:round;"/>
    <path clip-path="url(#pa0c6d0f172)" d="M 818.004545 282.358976 
L 820.566556 278.693448 
L 821.961772 282.942373 
L 818.004545 282.358976 
z
" style="stroke:#000000;stroke-linecap:round;"/>
   </g>
   <g id="patch_32">
    <path clip-path="url(#pa0c6d0f172)" d="M 814.461884 350.300524 
Q 832.336982 328.178878 849.509398 306.926851 
" style="fill:none;stroke:#000000;stroke-linecap:round;"/>
    <path clip-path="url(#pa0c6d0f172)" d="M 845.43978 308.781093 
L 849.509398 306.926851 
L 848.551022 311.29509 
L 845.43978 308.781093 
z
" style="stroke:#000000;stroke-linecap:round;"/>
   </g>
   <g id="patch_33">
    <path clip-path="url(#pa0c6d0f172)" d="M 705.769289 378.940627 
Q 673.890882 395.466837 643.997639 410.963911 
" style="fill:none;stroke:#ff0000;stroke-linecap:round;stroke-width:2;"/>
    <path clip-path="url(#pa0c6d0f172)" d="M 648.469297 410.89852 
L 643.997639 410.963911 
L 646.628321 407.34735 
L 648.469297 410.89852 
z
" style="fill:#ff0000;stroke:#ff0000;stroke-linecap:round;stroke-width:2;"/>
   </g>
   <g id="patch_34">
    <path clip-path="url(#pa0c6d0f172)" d="M 707.780424 368.414101 
Q 690.47227 348.464304 673.896794 329.359009 
" style="fill:none;stroke:#000000;stroke-linecap:round;"/>
    <path clip-path="url(#pa0c6d0f172)" d="M 675.00741 333.691044 
L 673.896794 329.359009 
L 678.028792 331.069737 
L 675.00741 333.691044 
z
" style="stroke:#000000;stroke-linecap:round;"/>
   </g>
   <g id="patch_35">
    <path clip-path="url(#pa0c6d0f172)" d="M 627.320058 421.068186 
Q 586.368592 450.824226 546.321602 479.923057 
" style="fill:none;stroke:#000000;stroke-linecap:round;"/>
    <path clip-path="url(#pa0c6d0f172)" d="M 550.733204 479.189734 
L 546.321602 479.923057 
L 548.381905 475.953781 
L 550.733204 479.189734 
z
" style="stroke:#000000;stroke-linecap:round;"/>
   </g>
   <g id="patch_36">
    <path clip-path="url(#pa0c6d0f172)" d="M 532.735968 492.220069 
Q 500.208009 529.763718 468.412158 566.46237 
" style="fill:none;stroke:#000000;stroke-linecap:round;"/>
    <path clip-path="url(#pa0c6d0f172)" d="M 472.543001 564.748855 
L 468.412158 566.46237 
L 469.519851 562.129586 
L 472.543001 564.748855 
z
" style="stroke:#000000;stroke-linecap:round;"/>
   </g>
   <g id="patch_37">
    <path clip-path="url(#pa0c6d0f172)" d="M 458.001274 581.527311 
Q 434.632915 626.271352 411.782132 670.024375 
" style="fill:none;stroke:#000000;stroke-linecap:round;"/>
    <path clip-path="url(#pa0c6d0f172)" d="M 415.406654 667.404673 
L 411.782132 670.024375 
L 411.861084 665.552936 
L 415.406654 667.404673 
z
" style="stroke:#000000;stroke-linecap:round;"/>
   </g>
   <g id="patch_38">
    <path clip-path="url(#pa0c6d0f172)" d="M 403.779148 686.624355 
Q 383.751528 732.326368 364.172658 777.004359 
" style="fill:none;stroke:#000000;stroke-linecap:round;"/>
    <path clip-path="url(#pa0c6d0f172)" d="M 367.609981 774.143448 
L 364.172658 777.004359 
L 363.946324 772.537954 
L 367.609981 774.143448 
z
" style="stroke:#000000;stroke-linecap:round;"/>
   </g>
   <g id="patch_39">
    <path clip-path="url(#pa0c6d0f172)" d="M 364.137014 793.696319 
Q 368.161887 801.699371 371.68443 808.703591 
" style="fill:none;stroke:#000000;stroke-linecap:round;"/>
    <path clip-path="url(#pa0c6d0f172)" d="M 371.674005 804.231467 
L 371.68443 808.703591 
L 368.100476 806.028656 
L 371.674005 804.231467 
z
" style="stroke:#000000;stroke-linecap:round;"/>
   </g>
   <g id="patch_40">
    <path clip-path="url(#pa0c6d0f172)" d="M 357.350366 794.120357 
Q 344.357703 830.711242 331.739146 866.24854 
" style="fill:none;stroke:#000000;stroke-linecap:round;"/>
    <path clip-path="url(#pa0c6d0f172)" d="M 334.962303 863.148337 
L 331.739146 866.24854 
L 331.192878 861.809892 
L 334.962303 863.148337 
z
" style="stroke:#000000;stroke-linecap:round;"/>
   </g>
   <g id="patch_41">
    <path clip-path="url(#pa0c6d0f172)" d="M 372.270117 809.65734 
Q 361.033435 786.691996 350.288129 764.730918 
" style="fill:none;stroke:#000000;stroke-linecap:round;"/>
    <path clip-path="url(#pa0c6d0f172)" d="M 350.249643 769.202888 
L 350.288129 764.730918 
L 353.842614 767.444888 
L 350.249643 769.202888 
z
" style="stroke:#000000;stroke-linecap:round;"/>
   </g>
   <g id="patch_42">
    <path clip-path="url(#pa0c6d0f172)" d="M 347.748496 747.469366 
Q 350.534743 734.032291 352.866988 722.784708 
" style="fill:none;stroke:#ff0000;stroke-linecap:round;stroke-width:2;"/>
    <path clip-path="url(#pa0c6d0f172)" d="M 350.096501 726.295321 
L 352.866988 722.784708 
L 354.013185 727.107466 
L 350.096501 726.295321 
z
" style="fill:#ff0000;stroke:#ff0000;stroke-linecap:round;stroke-width:2;"/>
   </g>
   <g id="patch_43">
    <path clip-path="url(#pa0c6d0f172)" d="M 337.334405 755.776745 
Q 311.417682 755.265459 286.618775 754.776225 
" style="fill:none;stroke:#000000;stroke-linecap:round;"/>
    <path clip-path="url(#pa0c6d0f172)" d="M 290.578549 756.854733 
L 286.618775 754.776225 
L 290.657446 752.855511 
L 290.578549 756.854733 
z
" style="stroke:#000000;stroke-linecap:round;"/>
   </g>
   <g id="PathCollection_1">
    <defs>
     <path d="M 0 8.660254 
C 2.296726 8.660254 4.499694 7.747755 6.123724 6.123724 
C 7.747755 4.499694 8.660254 2.296726 8.660254 0 
C 8.660254 -2.296726 7.747755 -4.499694 6.123724 -6.123724 
C 4.499694 -7.747755 2.296726 -8.660254 0 -8.660254 
C -2.296726 -8.660254 -4.499694 -7.747755 -6.123724 -6.123724 
C -7.747755 -4.499694 -8.660254 -2.296726 -8.660254 0 
C -8.660254 2.296726 -7.747755 4.499694 -6.123724 6.123724 
C -4.499694 7.747755 -2.296726 8.660254 0 8.660254 
z
" id="me5bf2aadc9" style="stroke:#1f78b4;"/>
    </defs>
    <g clip-path="url(#pa0c6d0f172)">
     <use style="fill:#1f78b4;stroke:#1f78b4;" x="978.064541" xlink:href="#me5bf2aadc9" y="943.473569"/>
     <use style="fill:#1f78b4;stroke:#1f78b4;" x="1048.13541" xlink:href="#me5bf2aadc9" y="974.525735"/>
     <use style="fill:#1f78b4;stroke:#1f78b4;" x="1120.156142" xlink:href="#me5bf2aadc9" y="948.001877"/>
     <use style="fill:#1f78b4;stroke:#1f78b4;" x="1066.444672" xlink:href="#me5bf2aadc9" y="1047.426963"/>
     <use style="fill:#1f78b4;stroke:#1f78b4;" x="1084.641732" xlink:href="#me5bf2aadc9" y="916.489864"/>
     <use style="fill:#1f78b4;stroke:#1f78b4;" x="1018.901951" xlink:href="#me5bf2aadc9" y="1034.077916"/>
     <use style="fill:#1f78b4;stroke:#1f78b4;" x="1102.973777" xlink:href="#me5bf2aadc9" y="1014.045619"/>
     <use style="fill:#1f78b4;stroke:#1f78b4;" x="881.826264" xlink:href="#me5bf2aadc9" y="907.628233"/>
     <use style="fill:#1f78b4;stroke:#1f78b4;" x="817.045894" xlink:href="#me5bf2aadc9" y="889.634968"/>
     <use style="fill:#1f78b4;stroke:#1f78b4;" x="844.949824" xlink:href="#me5bf2aadc9" y="935.670747"/>
     <use style="fill:#1f78b4;stroke:#1f78b4;" x="810.967719" xlink:href="#me5bf2aadc9" y="790.96988"/>
     <use style="fill:#1f78b4;stroke:#1f78b4;" x="767.657346" xlink:href="#me5bf2aadc9" y="992.493116"/>
     <use style="fill:#1f78b4;stroke:#1f78b4;" x="755.619504" xlink:href="#me5bf2aadc9" y="1071.135878"/>
     <use style="fill:#1f78b4;stroke:#1f78b4;" x="820.613187" xlink:href="#me5bf2aadc9" y="712.163223"/>
     <use style="fill:#1f78b4;stroke:#1f78b4;" x="803.488203" xlink:href="#me5bf2aadc9" y="1131.193644"/>
     <use style="fill:#1f78b4;stroke:#1f78b4;" x="696.145594" xlink:href="#me5bf2aadc9" y="1117.881907"/>
     <use style="fill:#1f78b4;stroke:#1f78b4;" x="894.03269" xlink:href="#me5bf2aadc9" y="1172.340169"/>
     <use style="fill:#1f78b4;stroke:#1f78b4;" x="999.91101" xlink:href="#me5bf2aadc9" y="1165.042046"/>
     <use style="fill:#1f78b4;stroke:#1f78b4;" x="1101.971512" xlink:href="#me5bf2aadc9" y="1103.548877"/>
     <use style="fill:#1f78b4;stroke:#1f78b4;" x="1142.482226" xlink:href="#me5bf2aadc9" y="999.481426"/>
     <use style="fill:#1f78b4;stroke:#1f78b4;" x="1139.349682" xlink:href="#me5bf2aadc9" y="1185.381818"/>
     <use style="fill:#1f78b4;stroke:#1f78b4;" x="1199.157025" xlink:href="#me5bf2aadc9" y="1021.522887"/>
     <use style="fill:#1f78b4;stroke:#1f78b4;" x="1119.098384" xlink:href="#me5bf2aadc9" y="828.146318"/>
     <use style="fill:#1f78b4;stroke:#1f78b4;" x="1070.378114" xlink:href="#me5bf2aadc9" y="670.147783"/>
     <use style="fill:#1f78b4;stroke:#1f78b4;" x="1002.146465" xlink:href="#me5bf2aadc9" y="524.864"/>
     <use style="fill:#1f78b4;stroke:#1f78b4;" x="925.968524" xlink:href="#me5bf2aadc9" y="447.816066"/>
     <use style="fill:#1f78b4;stroke:#1f78b4;" x="1054.242336" xlink:href="#me5bf2aadc9" y="471.520133"/>
     <use style="fill:#1f78b4;stroke:#1f78b4;" x="809.016283" xlink:href="#me5bf2aadc9" y="357.039823"/>
     <use style="fill:#1f78b4;stroke:#1f78b4;" x="713.455893" xlink:href="#me5bf2aadc9" y="374.955784"/>
     <use style="fill:#1f78b4;stroke:#1f78b4;" x="781.485213" xlink:href="#me5bf2aadc9" y="282.201522"/>
     <use style="fill:#1f78b4;stroke:#1f78b4;" x="821.992939" xlink:href="#me5bf2aadc9" y="269.018182"/>
     <use style="fill:#1f78b4;stroke:#1f78b4;" x="855.655444" xlink:href="#me5bf2aadc9" y="299.320702"/>
     <use style="fill:#1f78b4;stroke:#1f78b4;" x="634.324679" xlink:href="#me5bf2aadc9" y="415.978508"/>
     <use style="fill:#1f78b4;stroke:#1f78b4;" x="667.491045" xlink:href="#me5bf2aadc9" y="321.975588"/>
     <use style="fill:#1f78b4;stroke:#1f78b4;" x="538.408503" xlink:href="#me5bf2aadc9" y="485.672851"/>
     <use style="fill:#1f78b4;stroke:#1f78b4;" x="462.009969" xlink:href="#me5bf2aadc9" y="573.851752"/>
     <use style="fill:#1f78b4;stroke:#1f78b4;" x="407.255101" xlink:href="#me5bf2aadc9" y="678.692408"/>
     <use style="fill:#1f78b4;stroke:#1f78b4;" x="360.247255" xlink:href="#me5bf2aadc9" y="785.961928"/>
     <use style="fill:#1f78b4;stroke:#1f78b4;" x="376.076814" xlink:href="#me5bf2aadc9" y="817.437402"/>
     <use style="fill:#1f78b4;stroke:#1f78b4;" x="328.467792" xlink:href="#me5bf2aadc9" y="875.461567"/>
     <use style="fill:#1f78b4;stroke:#1f78b4;" x="345.990508" xlink:href="#me5bf2aadc9" y="755.947513"/>
     <use style="fill:#1f78b4;stroke:#1f78b4;" x="355.079454" xlink:href="#me5bf2aadc9" y="712.114774"/>
     <use style="fill:#1f78b4;stroke:#1f78b4;" x="276.842975" xlink:href="#me5bf2aadc9" y="754.583368"/>
    </g>
   </g>
   <g id="text_1">
    <g clip-path="url(#pa0c6d0f172)">
     <!-- 1 -->
     <g transform="translate(974.247041 946.784819)scale(0.12 -0.12)">
      <defs>
       <path d="M 794 531 
L 1825 531 
L 1825 4091 
L 703 3866 
L 703 4441 
L 1819 4666 
L 2450 4666 
L 2450 531 
L 3481 531 
L 3481 0 
L 794 0 
L 794 531 
z
" id="DejaVuSans-31" transform="scale(0.015625)"/>
      </defs>
      <use xlink:href="#DejaVuSans-31"/>
     </g>
    </g>
   </g>
   <g id="text_2">
    <g clip-path="url(#pa0c6d0f172)">
     <!-- 0 -->
     <g transform="translate(1044.31791 977.836985)scale(0.12 -0.12)">
      <defs>
       <path d="M 2034 4250 
Q 1547 4250 1301 3770 
Q 1056 3291 1056 2328 
Q 1056 1369 1301 889 
Q 1547 409 2034 409 
Q 2525 409 2770 889 
Q 3016 1369 3016 2328 
Q 3016 3291 2770 3770 
Q 2525 4250 2034 4250 
z
M 2034 4750 
Q 2819 4750 3233 4129 
Q 3647 3509 3647 2328 
Q 3647 1150 3233 529 
Q 2819 -91 2034 -91 
Q 1250 -91 836 529 
Q 422 1150 422 2328 
Q 422 3509 836 4129 
Q 1250 4750 2034 4750 
z
" id="DejaVuSans-30" transform="scale(0.015625)"/>
      </defs>
      <use xlink:href="#DejaVuSans-30"/>
     </g>
    </g>
   </g>
   <g id="text_3">
    <g clip-path="url(#pa0c6d0f172)">
     <!-- 3 -->
     <g transform="translate(1116.338642 951.313127)scale(0.12 -0.12)">
      <defs>
       <path d="M 2597 2516 
Q 3050 2419 3304 2112 
Q 3559 1806 3559 1356 
Q 3559 666 3084 287 
Q 2609 -91 1734 -91 
Q 1441 -91 1130 -33 
Q 819 25 488 141 
L 488 750 
Q 750 597 1062 519 
Q 1375 441 1716 441 
Q 2309 441 2620 675 
Q 2931 909 2931 1356 
Q 2931 1769 2642 2001 
Q 2353 2234 1838 2234 
L 1294 2234 
L 1294 2753 
L 1863 2753 
Q 2328 2753 2575 2939 
Q 2822 3125 2822 3475 
Q 2822 3834 2567 4026 
Q 2313 4219 1838 4219 
Q 1578 4219 1281 4162 
Q 984 4106 628 3988 
L 628 4550 
Q 988 4650 1302 4700 
Q 1616 4750 1894 4750 
Q 2613 4750 3031 4423 
Q 3450 4097 3450 3541 
Q 3450 3153 3228 2886 
Q 3006 2619 2597 2516 
z
" id="DejaVuSans-33" transform="scale(0.015625)"/>
      </defs>
      <use xlink:href="#DejaVuSans-33"/>
     </g>
    </g>
   </g>
   <g id="text_4">
    <g clip-path="url(#pa0c6d0f172)">
     <!-- 5 -->
     <g transform="translate(1062.627172 1050.738213)scale(0.12 -0.12)">
      <defs>
       <path d="M 691 4666 
L 3169 4666 
L 3169 4134 
L 1269 4134 
L 1269 2991 
Q 1406 3038 1543 3061 
Q 1681 3084 1819 3084 
Q 2600 3084 3056 2656 
Q 3513 2228 3513 1497 
Q 3513 744 3044 326 
Q 2575 -91 1722 -91 
Q 1428 -91 1123 -41 
Q 819 9 494 109 
L 494 744 
Q 775 591 1075 516 
Q 1375 441 1709 441 
Q 2250 441 2565 725 
Q 2881 1009 2881 1497 
Q 2881 1984 2565 2268 
Q 2250 2553 1709 2553 
Q 1456 2553 1204 2497 
Q 953 2441 691 2322 
L 691 4666 
z
" id="DejaVuSans-35" transform="scale(0.015625)"/>
      </defs>
      <use xlink:href="#DejaVuSans-35"/>
     </g>
    </g>
   </g>
   <g id="text_5">
    <g clip-path="url(#pa0c6d0f172)">
     <!-- 2 -->
     <g transform="translate(1080.824232 919.801114)scale(0.12 -0.12)">
      <defs>
       <path d="M 1228 531 
L 3431 531 
L 3431 0 
L 469 0 
L 469 531 
Q 828 903 1448 1529 
Q 2069 2156 2228 2338 
Q 2531 2678 2651 2914 
Q 2772 3150 2772 3378 
Q 2772 3750 2511 3984 
Q 2250 4219 1831 4219 
Q 1534 4219 1204 4116 
Q 875 4013 500 3803 
L 500 4441 
Q 881 4594 1212 4672 
Q 1544 4750 1819 4750 
Q 2544 4750 2975 4387 
Q 3406 4025 3406 3419 
Q 3406 3131 3298 2873 
Q 3191 2616 2906 2266 
Q 2828 2175 2409 1742 
Q 1991 1309 1228 531 
z
" id="DejaVuSans-32" transform="scale(0.015625)"/>
      </defs>
      <use xlink:href="#DejaVuSans-32"/>
     </g>
    </g>
   </g>
   <g id="text_6">
    <g clip-path="url(#pa0c6d0f172)">
     <!-- 6 -->
     <g transform="translate(1015.084451 1037.389166)scale(0.12 -0.12)">
      <defs>
       <path d="M 2113 2584 
Q 1688 2584 1439 2293 
Q 1191 2003 1191 1497 
Q 1191 994 1439 701 
Q 1688 409 2113 409 
Q 2538 409 2786 701 
Q 3034 994 3034 1497 
Q 3034 2003 2786 2293 
Q 2538 2584 2113 2584 
z
M 3366 4563 
L 3366 3988 
Q 3128 4100 2886 4159 
Q 2644 4219 2406 4219 
Q 1781 4219 1451 3797 
Q 1122 3375 1075 2522 
Q 1259 2794 1537 2939 
Q 1816 3084 2150 3084 
Q 2853 3084 3261 2657 
Q 3669 2231 3669 1497 
Q 3669 778 3244 343 
Q 2819 -91 2113 -91 
Q 1303 -91 875 529 
Q 447 1150 447 2328 
Q 447 3434 972 4092 
Q 1497 4750 2381 4750 
Q 2619 4750 2861 4703 
Q 3103 4656 3366 4563 
z
" id="DejaVuSans-36" transform="scale(0.015625)"/>
      </defs>
      <use xlink:href="#DejaVuSans-36"/>
     </g>
    </g>
   </g>
   <g id="text_7">
    <g clip-path="url(#pa0c6d0f172)">
     <!-- 4 -->
     <g transform="translate(1099.156277 1017.356869)scale(0.12 -0.12)">
      <defs>
       <path d="M 2419 4116 
L 825 1625 
L 2419 1625 
L 2419 4116 
z
M 2253 4666 
L 3047 4666 
L 3047 1625 
L 3713 1625 
L 3713 1100 
L 3047 1100 
L 3047 0 
L 2419 0 
L 2419 1100 
L 313 1100 
L 313 1709 
L 2253 4666 
z
" id="DejaVuSans-34" transform="scale(0.015625)"/>
      </defs>
      <use xlink:href="#DejaVuSans-34"/>
     </g>
    </g>
   </g>
   <g id="text_8">
    <g clip-path="url(#pa0c6d0f172)">
     <!-- 7 -->
     <g transform="translate(878.008764 910.939483)scale(0.12 -0.12)">
      <defs>
       <path d="M 525 4666 
L 3525 4666 
L 3525 4397 
L 1831 0 
L 1172 0 
L 2766 4134 
L 525 4134 
L 525 4666 
z
" id="DejaVuSans-37" transform="scale(0.015625)"/>
      </defs>
      <use xlink:href="#DejaVuSans-37"/>
     </g>
    </g>
   </g>
   <g id="text_9">
    <g clip-path="url(#pa0c6d0f172)">
     <!-- 8 -->
     <g transform="translate(813.228394 892.946218)scale(0.12 -0.12)">
      <defs>
       <path d="M 2034 2216 
Q 1584 2216 1326 1975 
Q 1069 1734 1069 1313 
Q 1069 891 1326 650 
Q 1584 409 2034 409 
Q 2484 409 2743 651 
Q 3003 894 3003 1313 
Q 3003 1734 2745 1975 
Q 2488 2216 2034 2216 
z
M 1403 2484 
Q 997 2584 770 2862 
Q 544 3141 544 3541 
Q 544 4100 942 4425 
Q 1341 4750 2034 4750 
Q 2731 4750 3128 4425 
Q 3525 4100 3525 3541 
Q 3525 3141 3298 2862 
Q 3072 2584 2669 2484 
Q 3125 2378 3379 2068 
Q 3634 1759 3634 1313 
Q 3634 634 3220 271 
Q 2806 -91 2034 -91 
Q 1263 -91 848 271 
Q 434 634 434 1313 
Q 434 1759 690 2068 
Q 947 2378 1403 2484 
z
M 1172 3481 
Q 1172 3119 1398 2916 
Q 1625 2713 2034 2713 
Q 2441 2713 2670 2916 
Q 2900 3119 2900 3481 
Q 2900 3844 2670 4047 
Q 2441 4250 2034 4250 
Q 1625 4250 1398 4047 
Q 1172 3844 1172 3481 
z
" id="DejaVuSans-38" transform="scale(0.015625)"/>
      </defs>
      <use xlink:href="#DejaVuSans-38"/>
     </g>
    </g>
   </g>
   <g id="text_10">
    <g clip-path="url(#pa0c6d0f172)">
     <!-- 9 -->
     <g transform="translate(841.132324 938.981997)scale(0.12 -0.12)">
      <defs>
       <path d="M 703 97 
L 703 672 
Q 941 559 1184 500 
Q 1428 441 1663 441 
Q 2288 441 2617 861 
Q 2947 1281 2994 2138 
Q 2813 1869 2534 1725 
Q 2256 1581 1919 1581 
Q 1219 1581 811 2004 
Q 403 2428 403 3163 
Q 403 3881 828 4315 
Q 1253 4750 1959 4750 
Q 2769 4750 3195 4129 
Q 3622 3509 3622 2328 
Q 3622 1225 3098 567 
Q 2575 -91 1691 -91 
Q 1453 -91 1209 -44 
Q 966 3 703 97 
z
M 1959 2075 
Q 2384 2075 2632 2365 
Q 2881 2656 2881 3163 
Q 2881 3666 2632 3958 
Q 2384 4250 1959 4250 
Q 1534 4250 1286 3958 
Q 1038 3666 1038 3163 
Q 1038 2656 1286 2365 
Q 1534 2075 1959 2075 
z
" id="DejaVuSans-39" transform="scale(0.015625)"/>
      </defs>
      <use xlink:href="#DejaVuSans-39"/>
     </g>
    </g>
   </g>
   <g id="text_11">
    <g clip-path="url(#pa0c6d0f172)">
     <!-- 11 -->
     <g transform="translate(803.332719 794.28113)scale(0.12 -0.12)">
      <use xlink:href="#DejaVuSans-31"/>
      <use x="63.623047" xlink:href="#DejaVuSans-31"/>
     </g>
    </g>
   </g>
   <g id="text_12">
    <g clip-path="url(#pa0c6d0f172)">
     <!-- 10 -->
     <g transform="translate(760.022346 995.804366)scale(0.12 -0.12)">
      <use xlink:href="#DejaVuSans-31"/>
      <use x="63.623047" xlink:href="#DejaVuSans-30"/>
     </g>
    </g>
   </g>
   <g id="text_13">
    <g clip-path="url(#pa0c6d0f172)">
     <!-- 12 -->
     <g transform="translate(747.984504 1074.447128)scale(0.12 -0.12)">
      <use xlink:href="#DejaVuSans-31"/>
      <use x="63.623047" xlink:href="#DejaVuSans-32"/>
     </g>
    </g>
   </g>
   <g id="text_14">
    <g clip-path="url(#pa0c6d0f172)">
     <!-- 13 -->
     <g transform="translate(812.978187 715.474473)scale(0.12 -0.12)">
      <use xlink:href="#DejaVuSans-31"/>
      <use x="63.623047" xlink:href="#DejaVuSans-33"/>
     </g>
    </g>
   </g>
   <g id="text_15">
    <g clip-path="url(#pa0c6d0f172)">
     <!-- 14 -->
     <g transform="translate(795.853203 1134.504894)scale(0.12 -0.12)">
      <use xlink:href="#DejaVuSans-31"/>
      <use x="63.623047" xlink:href="#DejaVuSans-34"/>
     </g>
    </g>
   </g>
   <g id="text_16">
    <g clip-path="url(#pa0c6d0f172)">
     <!-- 15 -->
     <g transform="translate(688.510594 1121.193157)scale(0.12 -0.12)">
      <use xlink:href="#DejaVuSans-31"/>
      <use x="63.623047" xlink:href="#DejaVuSans-35"/>
     </g>
    </g>
   </g>
   <g id="text_17">
    <g clip-path="url(#pa0c6d0f172)">
     <!-- 16 -->
     <g transform="translate(886.39769 1175.651419)scale(0.12 -0.12)">
      <use xlink:href="#DejaVuSans-31"/>
      <use x="63.623047" xlink:href="#DejaVuSans-36"/>
     </g>
    </g>
   </g>
   <g id="text_18">
    <g clip-path="url(#pa0c6d0f172)">
     <!-- 17 -->
     <g transform="translate(992.27601 1168.353296)scale(0.12 -0.12)">
      <use xlink:href="#DejaVuSans-31"/>
      <use x="63.623047" xlink:href="#DejaVuSans-37"/>
     </g>
    </g>
   </g>
   <g id="text_19">
    <g clip-path="url(#pa0c6d0f172)">
     <!-- 18 -->
     <g transform="translate(1094.336512 1106.860127)scale(0.12 -0.12)">
      <use xlink:href="#DejaVuSans-31"/>
      <use x="63.623047" xlink:href="#DejaVuSans-38"/>
     </g>
    </g>
   </g>
   <g id="text_20">
    <g clip-path="url(#pa0c6d0f172)">
     <!-- 19 -->
     <g transform="translate(1134.847226 1002.792676)scale(0.12 -0.12)">
      <use xlink:href="#DejaVuSans-31"/>
      <use x="63.623047" xlink:href="#DejaVuSans-39"/>
     </g>
    </g>
   </g>
   <g id="text_21">
    <g clip-path="url(#pa0c6d0f172)">
     <!-- 20 -->
     <g transform="translate(1131.714682 1188.693068)scale(0.12 -0.12)">
      <use xlink:href="#DejaVuSans-32"/>
      <use x="63.623047" xlink:href="#DejaVuSans-30"/>
     </g>
    </g>
   </g>
   <g id="text_22">
    <g clip-path="url(#pa0c6d0f172)">
     <!-- 21 -->
     <g transform="translate(1191.522025 1024.834137)scale(0.12 -0.12)">
      <use xlink:href="#DejaVuSans-32"/>
      <use x="63.623047" xlink:href="#DejaVuSans-31"/>
     </g>
    </g>
   </g>
   <g id="text_23">
    <g clip-path="url(#pa0c6d0f172)">
     <!-- 22 -->
     <g transform="translate(1111.463384 831.457568)scale(0.12 -0.12)">
      <use xlink:href="#DejaVuSans-32"/>
      <use x="63.623047" xlink:href="#DejaVuSans-32"/>
     </g>
    </g>
   </g>
   <g id="text_24">
    <g clip-path="url(#pa0c6d0f172)">
     <!-- 23 -->
     <g transform="translate(1062.743114 673.459033)scale(0.12 -0.12)">
      <use xlink:href="#DejaVuSans-32"/>
      <use x="63.623047" xlink:href="#DejaVuSans-33"/>
     </g>
    </g>
   </g>
   <g id="text_25">
    <g clip-path="url(#pa0c6d0f172)">
     <!-- 24 -->
     <g transform="translate(994.511465 528.17525)scale(0.12 -0.12)">
      <use xlink:href="#DejaVuSans-32"/>
      <use x="63.623047" xlink:href="#DejaVuSans-34"/>
     </g>
    </g>
   </g>
   <g id="text_26">
    <g clip-path="url(#pa0c6d0f172)">
     <!-- 25 -->
     <g transform="translate(918.333524 451.127316)scale(0.12 -0.12)">
      <use xlink:href="#DejaVuSans-32"/>
      <use x="63.623047" xlink:href="#DejaVuSans-35"/>
     </g>
    </g>
   </g>
   <g id="text_27">
    <g clip-path="url(#pa0c6d0f172)">
     <!-- 26 -->
     <g transform="translate(1046.607336 474.831383)scale(0.12 -0.12)">
      <use xlink:href="#DejaVuSans-32"/>
      <use x="63.623047" xlink:href="#DejaVuSans-36"/>
     </g>
    </g>
   </g>
   <g id="text_28">
    <g clip-path="url(#pa0c6d0f172)">
     <!-- 27 -->
     <g transform="translate(801.381283 360.351073)scale(0.12 -0.12)">
      <use xlink:href="#DejaVuSans-32"/>
      <use x="63.623047" xlink:href="#DejaVuSans-37"/>
     </g>
    </g>
   </g>
   <g id="text_29">
    <g clip-path="url(#pa0c6d0f172)">
     <!-- 28 -->
     <g transform="translate(705.820893 378.267034)scale(0.12 -0.12)">
      <use xlink:href="#DejaVuSans-32"/>
      <use x="63.623047" xlink:href="#DejaVuSans-38"/>
     </g>
    </g>
   </g>
   <g id="text_30">
    <g clip-path="url(#pa0c6d0f172)">
     <!-- 29 -->
     <g transform="translate(773.850213 285.512772)scale(0.12 -0.12)">
      <use xlink:href="#DejaVuSans-32"/>
      <use x="63.623047" xlink:href="#DejaVuSans-39"/>
     </g>
    </g>
   </g>
   <g id="text_31">
    <g clip-path="url(#pa0c6d0f172)">
     <!-- 31 -->
     <g transform="translate(814.357939 272.329432)scale(0.12 -0.12)">
      <use xlink:href="#DejaVuSans-33"/>
      <use x="63.623047" xlink:href="#DejaVuSans-31"/>
     </g>
    </g>
   </g>
   <g id="text_32">
    <g clip-path="url(#pa0c6d0f172)">
     <!-- 30 -->
     <g transform="translate(848.020444 302.631952)scale(0.12 -0.12)">
      <use xlink:href="#DejaVuSans-33"/>
      <use x="63.623047" xlink:href="#DejaVuSans-30"/>
     </g>
    </g>
   </g>
   <g id="text_33">
    <g clip-path="url(#pa0c6d0f172)">
     <!-- 32 -->
     <g transform="translate(626.689679 419.289758)scale(0.12 -0.12)">
      <use xlink:href="#DejaVuSans-33"/>
      <use x="63.623047" xlink:href="#DejaVuSans-32"/>
     </g>
    </g>
   </g>
   <g id="text_34">
    <g clip-path="url(#pa0c6d0f172)">
     <!-- 33 -->
     <g transform="translate(659.856045 325.286838)scale(0.12 -0.12)">
      <use xlink:href="#DejaVuSans-33"/>
      <use x="63.623047" xlink:href="#DejaVuSans-33"/>
     </g>
    </g>
   </g>
   <g id="text_35">
    <g clip-path="url(#pa0c6d0f172)">
     <!-- 34 -->
     <g transform="translate(530.773503 488.984101)scale(0.12 -0.12)">
      <use xlink:href="#DejaVuSans-33"/>
      <use x="63.623047" xlink:href="#DejaVuSans-34"/>
     </g>
    </g>
   </g>
   <g id="text_36">
    <g clip-path="url(#pa0c6d0f172)">
     <!-- 35 -->
     <g transform="translate(454.374969 577.163002)scale(0.12 -0.12)">
      <use xlink:href="#DejaVuSans-33"/>
      <use x="63.623047" xlink:href="#DejaVuSans-35"/>
     </g>
    </g>
   </g>
   <g id="text_37">
    <g clip-path="url(#pa0c6d0f172)">
     <!-- 36 -->
     <g transform="translate(399.620101 682.003658)scale(0.12 -0.12)">
      <use xlink:href="#DejaVuSans-33"/>
      <use x="63.623047" xlink:href="#DejaVuSans-36"/>
     </g>
    </g>
   </g>
   <g id="text_38">
    <g clip-path="url(#pa0c6d0f172)">
     <!-- 37 -->
     <g transform="translate(352.612255 789.273178)scale(0.12 -0.12)">
      <use xlink:href="#DejaVuSans-33"/>
      <use x="63.623047" xlink:href="#DejaVuSans-37"/>
     </g>
    </g>
   </g>
   <g id="text_39">
    <g clip-path="url(#pa0c6d0f172)">
     <!-- 38 -->
     <g transform="translate(368.441814 820.748652)scale(0.12 -0.12)">
      <use xlink:href="#DejaVuSans-33"/>
      <use x="63.623047" xlink:href="#DejaVuSans-38"/>
     </g>
    </g>
   </g>
   <g id="text_40">
    <g clip-path="url(#pa0c6d0f172)">
     <!-- 39 -->
     <g transform="translate(320.832792 878.772817)scale(0.12 -0.12)">
      <use xlink:href="#DejaVuSans-33"/>
      <use x="63.623047" xlink:href="#DejaVuSans-39"/>
     </g>
    </g>
   </g>
   <g id="text_41">
    <g clip-path="url(#pa0c6d0f172)">
     <!-- 40 -->
     <g transform="translate(338.355508 759.258763)scale(0.12 -0.12)">
      <use xlink:href="#DejaVuSans-34"/>
      <use x="63.623047" xlink:href="#DejaVuSans-30"/>
     </g>
    </g>
   </g>
   <g id="text_42">
    <g clip-path="url(#pa0c6d0f172)">
     <!-- 41 -->
     <g transform="translate(347.444454 715.426024)scale(0.12 -0.12)">
      <use xlink:href="#DejaVuSans-34"/>
      <use x="63.623047" xlink:href="#DejaVuSans-31"/>
     </g>
    </g>
   </g>
   <g id="text_43">
    <g clip-path="url(#pa0c6d0f172)">
     <!-- 42 -->
     <g transform="translate(269.207975 757.894618)scale(0.12 -0.12)">
      <use xlink:href="#DejaVuSans-34"/>
      <use x="63.623047" xlink:href="#DejaVuSans-32"/>
     </g>
    </g>
   </g>
  </g>
 </g>
 <defs>
  <clipPath id="pa0c6d0f172">
   <rect height="1108.8" width="1116" x="180" y="172.8"/>
  </clipPath>
 </defs>
</svg>
