<?xml version="1.0" encoding="utf-8" standalone="no"?>
<!DOCTYPE svg PUBLIC "-//W3C//DTD SVG 1.1//EN"
  "http://www.w3.org/Graphics/SVG/1.1/DTD/svg11.dtd">
<svg height="1440pt" version="1.1" viewBox="0 0 1440 1440" width="1440pt" xmlns="http://www.w3.org/2000/svg" xmlns:xlink="http://www.w3.org/1999/xlink">
 <metadata>
  <rdf:RDF xmlns:cc="http://creativecommons.org/ns#" xmlns:dc="http://purl.org/dc/elements/1.1/" xmlns:rdf="http://www.w3.org/1999/02/22-rdf-syntax-ns#">
   <cc:Work>
    <dc:type rdf:resource="http://purl.org/dc/dcmitype/StillImage"/>
    <dc:date>2021-10-17T06:05:36.539314</dc:date>
    <dc:format>image/svg+xml</dc:format>
    <dc:creator>
     <cc:Agent>
      <dc:title>Matplotlib v3.4.3, https://matplotlib.org/</dc:title>
     </cc:Agent>
    </dc:creator>
   </cc:Work>
  </rdf:RDF>
 </metadata>
 <defs>
  <style type="text/css">*{stroke-linecap:butt;stroke-linejoin:round;}</style>
 </defs>
 <g id="figure_1">
  <g id="patch_1">
   <path d="M 0 1440 
L 1440 1440 
L 1440 0 
L 0 0 
z
" style="fill:#ffffff;"/>
  </g>
  <g id="axes_1">
   <g id="patch_2">
    <path clip-path="url(#pe40deacc1e)" d="M 477.455381 989.281409 
Q 500.033313 1034.717607 521.61619 1078.15134 
" style="fill:none;stroke:#ff0000;stroke-linecap:round;stroke-width:2;"/>
    <path clip-path="url(#pe40deacc1e)" d="M 521.627241 1073.679218 
L 521.61619 1078.15134 
L 518.045123 1075.459226 
L 521.627241 1073.679218 
z
" style="fill:#ff0000;stroke:#ff0000;stroke-linecap:round;stroke-width:2;"/>
   </g>
   <g id="patch_3">
    <path clip-path="url(#pe40deacc1e)" d="M 470.733289 973.356105 
Q 449.21679 912.067687 428.070639 851.834182 
" style="fill:none;stroke:#000000;stroke-linecap:round;"/>
    <path clip-path="url(#pe40deacc1e)" d="M 427.50855 856.270854 
L 428.070639 851.834182 
L 431.282723 854.945856 
L 427.50855 856.270854 
z
" style="stroke:#000000;stroke-linecap:round;"/>
   </g>
   <g id="patch_4">
    <path clip-path="url(#pe40deacc1e)" d="M 465.066764 980.05986 
Q 438.765672 975.543912 413.566488 971.217163 
" style="fill:none;stroke:#000000;stroke-linecap:round;"/>
    <path clip-path="url(#pe40deacc1e)" d="M 417.170347 973.86522 
L 413.566488 971.217163 
L 417.847249 969.922911 
L 417.170347 973.86522 
z
" style="stroke:#000000;stroke-linecap:round;"/>
   </g>
   <g id="patch_5">
    <path clip-path="url(#pe40deacc1e)" d="M 523.142295 1095.903895 
Q 513.206115 1119.803401 503.69914 1142.670538 
" style="fill:none;stroke:#000000;stroke-linecap:round;"/>
    <path clip-path="url(#pe40deacc1e)" d="M 507.081467 1139.744813 
L 503.69914 1142.670538 
L 503.387956 1138.209242 
L 507.081467 1139.744813 
z
" style="stroke:#000000;stroke-linecap:round;"/>
   </g>
   <g id="patch_6">
    <path clip-path="url(#pe40deacc1e)" d="M 520.689498 1094.360004 
Q 494.156179 1123.987356 468.368744 1152.781847 
" style="fill:none;stroke:#000000;stroke-linecap:round;"/>
    <path clip-path="url(#pe40deacc1e)" d="M 472.527166 1151.136391 
L 468.368744 1152.781847 
L 469.547432 1148.467836 
L 472.527166 1151.136391 
z
" style="stroke:#000000;stroke-linecap:round;"/>
   </g>
   <g id="patch_7">
    <path clip-path="url(#pe40deacc1e)" d="M 527.469072 1079.308155 
Q 529.710821 1060.091003 531.823026 1041.984353 
" style="fill:none;stroke:#000000;stroke-linecap:round;"/>
    <path clip-path="url(#pe40deacc1e)" d="M 529.373025 1045.725676 
L 531.823026 1041.984353 
L 533.346084 1046.189148 
L 529.373025 1045.725676 
z
" style="stroke:#000000;stroke-linecap:round;"/>
   </g>
   <g id="patch_8">
    <path clip-path="url(#pe40deacc1e)" d="M 533.624651 1083.031832 
Q 555.116216 1068.386437 575.683872 1054.370639 
" style="fill:none;stroke:#000000;stroke-linecap:round;"/>
    <path clip-path="url(#pe40deacc1e)" d="M 571.252137 1054.970413 
L 575.683872 1054.370639 
L 573.50465 1058.275891 
L 571.252137 1054.970413 
z
" style="stroke:#000000;stroke-linecap:round;"/>
   </g>
   <g id="patch_9">
    <path clip-path="url(#pe40deacc1e)" d="M 525.830275 1096.545603 
Q 522.879948 1136.646338 520.011657 1175.632052 
" style="fill:none;stroke:#000000;stroke-linecap:round;"/>
    <path clip-path="url(#pe40deacc1e)" d="M 522.299764 1171.789584 
L 520.011657 1175.632052 
L 518.310546 1171.496085 
L 522.299764 1171.789584 
z
" style="stroke:#000000;stroke-linecap:round;"/>
   </g>
   <g id="patch_10">
    <path clip-path="url(#pe40deacc1e)" d="M 518.325751 1090.862627 
Q 486.477853 1102.413645 455.680993 1113.583458 
" style="fill:none;stroke:#000000;stroke-linecap:round;"/>
    <path clip-path="url(#pe40deacc1e)" d="M 460.123225 1114.099774 
L 455.680993 1113.583458 
L 458.759385 1110.339463 
L 460.123225 1114.099774 
z
" style="stroke:#000000;stroke-linecap:round;"/>
   </g>
   <g id="patch_11">
    <path clip-path="url(#pe40deacc1e)" d="M 518.157288 1085.472976 
Q 495.000959 1078.679669 472.917452 1072.201092 
" style="fill:none;stroke:#000000;stroke-linecap:round;"/>
    <path clip-path="url(#pe40deacc1e)" d="M 476.192685 1075.246227 
L 472.917452 1072.201092 
L 477.318699 1071.407986 
L 476.192685 1075.246227 
z
" style="stroke:#000000;stroke-linecap:round;"/>
   </g>
   <g id="patch_12">
    <path clip-path="url(#pe40deacc1e)" d="M 534.520055 1091.094136 
Q 567.900828 1104.288922 600.24185 1117.072715 
" style="fill:none;stroke:#000000;stroke-linecap:round;"/>
    <path clip-path="url(#pe40deacc1e)" d="M 597.257129 1113.742333 
L 600.24185 1117.072715 
L 595.786712 1117.462262 
L 597.257129 1113.742333 
z
" style="stroke:#000000;stroke-linecap:round;"/>
   </g>
   <g id="patch_13">
    <path clip-path="url(#pe40deacc1e)" d="M 532.547927 1094.074803 
Q 557.290027 1119.150915 581.246875 1143.431176 
" style="fill:none;stroke:#000000;stroke-linecap:round;"/>
    <path clip-path="url(#pe40deacc1e)" d="M 579.861138 1139.179149 
L 581.246875 1143.431176 
L 577.013812 1141.988549 
L 579.861138 1139.179149 
z
" style="stroke:#000000;stroke-linecap:round;"/>
   </g>
   <g id="patch_14">
    <path clip-path="url(#pe40deacc1e)" d="M 529.508009 1096.018703 
Q 542.106453 1129.594832 554.312127 1162.12419 
" style="fill:none;stroke:#000000;stroke-linecap:round;"/>
    <path clip-path="url(#pe40deacc1e)" d="M 554.779433 1157.676536 
L 554.312127 1162.12419 
L 551.034387 1159.081753 
L 554.779433 1157.676536 
z
" style="stroke:#000000;stroke-linecap:round;"/>
   </g>
   <g id="patch_15">
    <path clip-path="url(#pe40deacc1e)" d="M 535.100572 1087.280811 
Q 568.160631 1084.870507 600.105616 1082.541499 
" style="fill:none;stroke:#000000;stroke-linecap:round;"/>
    <path clip-path="url(#pe40deacc1e)" d="M 595.970777 1080.837648 
L 600.105616 1082.541499 
L 596.261632 1084.82706 
L 595.970777 1080.837648 
z
" style="stroke:#000000;stroke-linecap:round;"/>
   </g>
   <g id="patch_16">
    <path clip-path="url(#pe40deacc1e)" d="M 422.352184 834.311009 
Q 404.662013 775.118333 387.291984 716.996876 
" style="fill:none;stroke:#000000;stroke-linecap:round;"/>
    <path clip-path="url(#pe40deacc1e)" d="M 386.521103 721.402071 
L 387.291984 716.996876 
L 390.353612 720.256697 
L 386.521103 721.402071 
z
" style="stroke:#000000;stroke-linecap:round;"/>
   </g>
   <g id="patch_17">
    <path clip-path="url(#pe40deacc1e)" d="M 382.550141 699.182324 
Q 368.833087 639.517614 355.366536 580.942513 
" style="fill:none;stroke:#000000;stroke-linecap:round;"/>
    <path clip-path="url(#pe40deacc1e)" d="M 354.313613 585.288931 
L 355.366536 580.942513 
L 358.211917 584.392702 
L 354.313613 585.288931 
z
" style="stroke:#000000;stroke-linecap:round;"/>
   </g>
   <g id="patch_18">
    <path clip-path="url(#pe40deacc1e)" d="M 357.141483 563.711127 
Q 374.572565 529.871569 390.97969 498.019854 
" style="fill:none;stroke:#ff0000;stroke-linecap:round;stroke-width:2;"/>
    <path clip-path="url(#pe40deacc1e)" d="M 387.370002 500.659958 
L 390.97969 498.019854 
L 390.925961 502.491667 
L 387.370002 500.659958 
z
" style="fill:#ff0000;stroke:#ff0000;stroke-linecap:round;stroke-width:2;"/>
   </g>
   <g id="patch_19">
    <path clip-path="url(#pe40deacc1e)" d="M 345.022483 574.335824 
Q 319.664319 583.433226 295.358517 592.153086 
" style="fill:none;stroke:#000000;stroke-linecap:round;"/>
    <path clip-path="url(#pe40deacc1e)" d="M 299.798922 592.684874 
L 295.358517 592.153086 
L 298.44819 588.919835 
L 299.798922 592.684874 
z
" style="stroke:#000000;stroke-linecap:round;"/>
   </g>
   <g id="patch_20">
    <path clip-path="url(#pe40deacc1e)" d="M 349.04582 563.795608 
Q 338.906944 545.097632 329.301007 527.382496 
" style="fill:none;stroke:#000000;stroke-linecap:round;"/>
    <path clip-path="url(#pe40deacc1e)" d="M 329.449552 531.852164 
L 329.301007 527.382496 
L 332.965869 529.945461 
L 329.449552 531.852164 
z
" style="stroke:#000000;stroke-linecap:round;"/>
   </g>
   <g id="patch_21">
    <path clip-path="url(#pe40deacc1e)" d="M 344.970804 568.633398 
Q 315.008946 558.489889 286.106081 548.7049 
" style="fill:none;stroke:#000000;stroke-linecap:round;"/>
    <path clip-path="url(#pe40deacc1e)" d="M 289.253508 551.881959 
L 286.106081 548.7049 
L 290.536185 548.093194 
L 289.253508 551.881959 
z
" style="stroke:#000000;stroke-linecap:round;"/>
   </g>
   <g id="patch_22">
    <path clip-path="url(#pe40deacc1e)" d="M 400.676491 481.061142 
Q 430.138481 435.545731 458.992939 390.968885 
" style="fill:none;stroke:#000000;stroke-linecap:round;"/>
    <path clip-path="url(#pe40deacc1e)" d="M 455.140412 393.240016 
L 458.992939 390.968885 
L 458.498328 395.413585 
L 455.140412 393.240016 
z
" style="stroke:#000000;stroke-linecap:round;"/>
   </g>
   <g id="patch_23">
    <path clip-path="url(#pe40deacc1e)" d="M 471.93706 378.662951 
Q 502.837066 362.0675 531.767135 346.530041 
" style="fill:none;stroke:#ff0000;stroke-linecap:round;stroke-width:2;"/>
    <path clip-path="url(#pe40deacc1e)" d="M 527.296907 346.660672 
L 531.767135 346.530041 
L 529.189503 350.184602 
L 527.296907 346.660672 
z
" style="fill:#ff0000;stroke:#ff0000;stroke-linecap:round;stroke-width:2;"/>
   </g>
   <g id="patch_24">
    <path clip-path="url(#pe40deacc1e)" d="M 458.831999 376.053957 
Q 440.844172 354.00996 423.563192 332.8322 
" style="fill:none;stroke:#000000;stroke-linecap:round;"/>
    <path clip-path="url(#pe40deacc1e)" d="M 424.542511 337.195792 
L 423.563192 332.8322 
L 427.641657 334.6669 
L 424.542511 337.195792 
z
" style="stroke:#000000;stroke-linecap:round;"/>
   </g>
   <g id="patch_25">
    <path clip-path="url(#pe40deacc1e)" d="M 539.866491 332.845318 
Q 534.993614 305.195593 530.314784 278.646933 
" style="fill:none;stroke:#000000;stroke-linecap:round;"/>
    <path clip-path="url(#pe40deacc1e)" d="M 529.039383 282.933348 
L 530.314784 278.646933 
L 532.978676 282.239103 
L 529.039383 282.933348 
z
" style="stroke:#000000;stroke-linecap:round;"/>
   </g>
   <g id="patch_26">
    <path clip-path="url(#pe40deacc1e)" d="M 550.027185 341.26612 
Q 601.911994 340.625766 652.678854 339.999209 
" style="fill:none;stroke:#000000;stroke-linecap:round;"/>
    <path clip-path="url(#pe40deacc1e)" d="M 648.654477 338.048725 
L 652.678854 339.999209 
L 648.703841 342.048421 
L 648.654477 338.048725 
z
" style="stroke:#000000;stroke-linecap:round;"/>
   </g>
   <g id="patch_27">
    <path clip-path="url(#pe40deacc1e)" d="M 671.057265 340.854972 
Q 722.67121 346.712114 773.174252 352.44319 
" style="fill:none;stroke:#000000;stroke-linecap:round;"/>
    <path clip-path="url(#pe40deacc1e)" d="M 769.425273 350.00492 
L 773.174252 352.44319 
L 768.974249 353.979411 
L 769.425273 350.00492 
z
" style="stroke:#000000;stroke-linecap:round;"/>
   </g>
   <g id="patch_28">
    <path clip-path="url(#pe40deacc1e)" d="M 789.137217 347.55256 
Q 799.765341 337.358634 808.779706 328.712539 
" style="fill:none;stroke:#ff0000;stroke-linecap:round;stroke-width:2;"/>
    <path clip-path="url(#pe40deacc1e)" d="M 804.508504 330.037994 
L 808.779706 328.712539 
L 807.277348 332.924774 
L 804.508504 330.037994 
z
" style="fill:#ff0000;stroke:#ff0000;stroke-linecap:round;stroke-width:2;"/>
   </g>
   <g id="patch_29">
    <path clip-path="url(#pe40deacc1e)" d="M 789.355746 359.305888 
Q 827.351953 393.150657 864.513298 426.25178 
" style="fill:none;stroke:#000000;stroke-linecap:round;"/>
    <path clip-path="url(#pe40deacc1e)" d="M 862.85668 422.097792 
L 864.513298 426.25178 
L 860.196137 425.084681 
L 862.85668 422.097792 
z
" style="stroke:#000000;stroke-linecap:round;"/>
   </g>
   <g id="patch_30">
    <path clip-path="url(#pe40deacc1e)" d="M 784.06484 344.967729 
Q 788.126809 315.33771 792.036927 286.815366 
" style="fill:none;stroke:#000000;stroke-linecap:round;"/>
    <path clip-path="url(#pe40deacc1e)" d="M 789.512182 290.506662 
L 792.036927 286.815366 
L 793.475117 291.049939 
L 789.512182 290.506662 
z
" style="stroke:#000000;stroke-linecap:round;"/>
   </g>
   <g id="patch_31">
    <path clip-path="url(#pe40deacc1e)" d="M 877.724922 439.082185 
Q 911.527903 475.26546 944.567644 510.631751 
" style="fill:none;stroke:#000000;stroke-linecap:round;"/>
    <path clip-path="url(#pe40deacc1e)" d="M 943.298461 506.343491 
L 944.567644 510.631751 
L 940.375526 509.074142 
L 943.298461 506.343491 
z
" style="stroke:#000000;stroke-linecap:round;"/>
   </g>
   <g id="patch_32">
    <path clip-path="url(#pe40deacc1e)" d="M 957.410481 523.856177 
Q 970.045833 536.310331 981.088668 547.194806 
" style="fill:none;stroke:#ff0000;stroke-linecap:round;stroke-width:2;"/>
    <path clip-path="url(#pe40deacc1e)" d="M 979.643852 542.962489 
L 981.088668 547.194806 
L 976.835925 545.811269 
L 979.643852 542.962489 
z
" style="fill:#ff0000;stroke:#ff0000;stroke-linecap:round;stroke-width:2;"/>
   </g>
   <g id="patch_33">
    <path clip-path="url(#pe40deacc1e)" d="M 957.523842 523.739427 
Q 982.799917 547.733575 1007.265128 570.957984 
" style="fill:none;stroke:#000000;stroke-linecap:round;"/>
    <path clip-path="url(#pe40deacc1e)" d="M 1005.741044 566.753561 
L 1007.265128 570.957984 
L 1002.98714 569.654598 
L 1005.741044 566.753561 
z
" style="stroke:#000000;stroke-linecap:round;"/>
   </g>
   <g id="patch_34">
    <path clip-path="url(#pe40deacc1e)" d="M 997.012369 551.940718 
Q 1012.963226 546.263876 1027.860769 540.961904 
" style="fill:none;stroke:#000000;stroke-linecap:round;"/>
    <path clip-path="url(#pe40deacc1e)" d="M 1023.421727 540.418854 
L 1027.860769 540.961904 
L 1024.762903 544.187308 
L 1023.421727 540.418854 
z
" style="stroke:#000000;stroke-linecap:round;"/>
   </g>
   <g id="patch_35">
    <path clip-path="url(#pe40deacc1e)" d="M 1044.937272 534.055782 
Q 1066.182659 524.255843 1085.397584 515.392503 
" style="fill:none;stroke:#ff0000;stroke-linecap:round;stroke-width:2;"/>
    <path clip-path="url(#pe40deacc1e)" d="M 1080.92766 515.251841 
L 1085.397584 515.392503 
L 1082.6031 518.884045 
L 1080.92766 515.251841 
z
" style="fill:#ff0000;stroke:#ff0000;stroke-linecap:round;stroke-width:2;"/>
   </g>
   <g id="patch_36">
    <path clip-path="url(#pe40deacc1e)" d="M 1029.880762 542.513635 
Q 1004.210124 559.753525 979.467637 576.370087 
" style="fill:none;stroke:#000000;stroke-linecap:round;"/>
    <path clip-path="url(#pe40deacc1e)" d="M 983.903331 575.800329 
L 979.467637 576.370087 
L 981.673247 572.479677 
L 983.903331 575.800329 
z
" style="stroke:#000000;stroke-linecap:round;"/>
   </g>
   <g id="patch_37">
    <path clip-path="url(#pe40deacc1e)" d="M 1103.269908 507.45993 
Q 1134.338349 494.341962 1164.376803 481.658883 
" style="fill:none;stroke:#000000;stroke-linecap:round;"/>
    <path clip-path="url(#pe40deacc1e)" d="M 1159.91386 481.372294 
L 1164.376803 481.658883 
L 1161.469766 485.057284 
L 1159.91386 481.372294 
z
" style="stroke:#000000;stroke-linecap:round;"/>
   </g>
   <g id="patch_38">
    <path clip-path="url(#pe40deacc1e)" d="M 1180.651568 473.136147 
Q 1186.273007 469.484742 1187.20644 468.87843 
" style="fill:none;stroke:#0000ff;stroke-linecap:round;stroke-width:5;"/>
    <path clip-path="url(#pe40deacc1e)" d="M 1182.76253 469.38009 
L 1187.20644 468.87843 
L 1184.941422 472.734554 
L 1182.76253 469.38009 
z
" style="fill:#0000ff;stroke:#0000ff;stroke-linecap:round;stroke-width:5;"/>
   </g>
   <g id="PathCollection_1">
    <defs>
     <path d="M 0 8.660254 
C 2.296726 8.660254 4.499694 7.747755 6.123724 6.123724 
C 7.747755 4.499694 8.660254 2.296726 8.660254 0 
C 8.660254 -2.296726 7.747755 -4.499694 6.123724 -6.123724 
C 4.499694 -7.747755 2.296726 -8.660254 0 -8.660254 
C -2.296726 -8.660254 -4.499694 -7.747755 -6.123724 -6.123724 
C -7.747755 -4.499694 -8.660254 -2.296726 -8.660254 0 
C -8.660254 2.296726 -7.747755 4.499694 -6.123724 6.123724 
C -4.499694 7.747755 -2.296726 8.660254 0 8.660254 
z
" id="med21059632" style="stroke:#1f78b4;"/>
    </defs>
    <g clip-path="url(#pe40deacc1e)">
     <use style="fill:#1f78b4;stroke:#1f78b4;" x="473.601225" xlink:href="#med21059632" y="981.525244"/>
     <use style="fill:#1f78b4;stroke:#1f78b4;" x="526.465595" xlink:href="#med21059632" y="1087.91036"/>
     <use style="fill:#1f78b4;stroke:#1f78b4;" x="499.943952" xlink:href="#med21059632" y="1151.702897"/>
     <use style="fill:#1f78b4;stroke:#1f78b4;" x="461.845885" xlink:href="#med21059632" y="1160.065332"/>
     <use style="fill:#1f78b4;stroke:#1f78b4;" x="532.956308" xlink:href="#med21059632" y="1032.269412"/>
     <use style="fill:#1f78b4;stroke:#1f78b4;" x="583.766025" xlink:href="#med21059632" y="1048.863068"/>
     <use style="fill:#1f78b4;stroke:#1f78b4;" x="519.294339" xlink:href="#med21059632" y="1185.381818"/>
     <use style="fill:#1f78b4;stroke:#1f78b4;" x="446.487661" xlink:href="#med21059632" y="1116.917818"/>
     <use style="fill:#1f78b4;stroke:#1f78b4;" x="463.532957" xlink:href="#med21059632" y="1069.44799"/>
     <use style="fill:#1f78b4;stroke:#1f78b4;" x="609.331708" xlink:href="#med21059632" y="1120.665763"/>
     <use style="fill:#1f78b4;stroke:#1f78b4;" x="588.112942" xlink:href="#med21059632" y="1150.389932"/>
     <use style="fill:#1f78b4;stroke:#1f78b4;" x="557.747" xlink:href="#med21059632" y="1171.278475"/>
     <use style="fill:#1f78b4;stroke:#1f78b4;" x="609.858147" xlink:href="#med21059632" y="1081.830472"/>
     <use style="fill:#1f78b4;stroke:#1f78b4;" x="424.832918" xlink:href="#med21059632" y="842.611735"/>
     <use style="fill:#1f78b4;stroke:#1f78b4;" x="403.930764" xlink:href="#med21059632" y="969.562691"/>
     <use style="fill:#1f78b4;stroke:#1f78b4;" x="384.49114" xlink:href="#med21059632" y="707.625035"/>
     <use style="fill:#1f78b4;stroke:#1f78b4;" x="353.175215" xlink:href="#med21059632" y="571.41098"/>
     <use style="fill:#1f78b4;stroke:#1f78b4;" x="395.969646" xlink:href="#med21059632" y="488.332682"/>
     <use style="fill:#1f78b4;stroke:#1f78b4;" x="286.153457" xlink:href="#med21059632" y="595.45546"/>
     <use style="fill:#1f78b4;stroke:#1f78b4;" x="324.64042" xlink:href="#med21059632" y="518.787507"/>
     <use style="fill:#1f78b4;stroke:#1f78b4;" x="276.842975" xlink:href="#med21059632" y="545.568899"/>
     <use style="fill:#1f78b4;stroke:#1f78b4;" x="464.305456" xlink:href="#med21059632" y="382.761652"/>
     <use style="fill:#1f78b4;stroke:#1f78b4;" x="541.369371" xlink:href="#med21059632" y="341.372973"/>
     <use style="fill:#1f78b4;stroke:#1f78b4;" x="417.378653" xlink:href="#med21059632" y="325.253078"/>
     <use style="fill:#1f78b4;stroke:#1f78b4;" x="528.617852" xlink:href="#med21059632" y="269.018182"/>
     <use style="fill:#1f78b4;stroke:#1f78b4;" x="662.453135" xlink:href="#med21059632" y="339.878577"/>
     <use style="fill:#1f78b4;stroke:#1f78b4;" x="782.888902" xlink:href="#med21059632" y="353.545607"/>
     <use style="fill:#1f78b4;stroke:#1f78b4;" x="816.641748" xlink:href="#med21059632" y="321.171691"/>
     <use style="fill:#1f78b4;stroke:#1f78b4;" x="871.81276" xlink:href="#med21059632" y="432.753709"/>
     <use style="fill:#1f78b4;stroke:#1f78b4;" x="793.365559" xlink:href="#med21059632" y="277.123662"/>
     <use style="fill:#1f78b4;stroke:#1f78b4;" x="951.242732" xlink:href="#med21059632" y="517.776877"/>
     <use style="fill:#1f78b4;stroke:#1f78b4;" x="988.850621" xlink:href="#med21059632" y="554.845449"/>
     <use style="fill:#1f78b4;stroke:#1f78b4;" x="1014.358154" xlink:href="#med21059632" y="577.691273"/>
     <use style="fill:#1f78b4;stroke:#1f78b4;" x="1037.073509" xlink:href="#med21059632" y="537.683129"/>
     <use style="fill:#1f78b4;stroke:#1f78b4;" x="1095.293066" xlink:href="#med21059632" y="510.827977"/>
     <use style="fill:#1f78b4;stroke:#1f78b4;" x="971.347921" xlink:href="#med21059632" y="581.823126"/>
     <use style="fill:#1f78b4;stroke:#1f78b4;" x="1173.388419" xlink:href="#med21059632" y="477.853925"/>
     <use style="fill:#1f78b4;stroke:#1f78b4;" x="1199.157025" xlink:href="#med21059632" y="461.115928"/>
    </g>
   </g>
   <g id="text_1">
    <g clip-path="url(#pe40deacc1e)">
     <!-- 1 -->
     <g transform="translate(469.783725 984.836494)scale(0.12 -0.12)">
      <defs>
       <path d="M 794 531 
L 1825 531 
L 1825 4091 
L 703 3866 
L 703 4441 
L 1819 4666 
L 2450 4666 
L 2450 531 
L 3481 531 
L 3481 0 
L 794 0 
L 794 531 
z
" id="DejaVuSans-31" transform="scale(0.015625)"/>
      </defs>
      <use xlink:href="#DejaVuSans-31"/>
     </g>
    </g>
   </g>
   <g id="text_2">
    <g clip-path="url(#pe40deacc1e)">
     <!-- 0 -->
     <g transform="translate(522.648095 1091.22161)scale(0.12 -0.12)">
      <defs>
       <path d="M 2034 4250 
Q 1547 4250 1301 3770 
Q 1056 3291 1056 2328 
Q 1056 1369 1301 889 
Q 1547 409 2034 409 
Q 2525 409 2770 889 
Q 3016 1369 3016 2328 
Q 3016 3291 2770 3770 
Q 2525 4250 2034 4250 
z
M 2034 4750 
Q 2819 4750 3233 4129 
Q 3647 3509 3647 2328 
Q 3647 1150 3233 529 
Q 2819 -91 2034 -91 
Q 1250 -91 836 529 
Q 422 1150 422 2328 
Q 422 3509 836 4129 
Q 1250 4750 2034 4750 
z
" id="DejaVuSans-30" transform="scale(0.015625)"/>
      </defs>
      <use xlink:href="#DejaVuSans-30"/>
     </g>
    </g>
   </g>
   <g id="text_3">
    <g clip-path="url(#pe40deacc1e)">
     <!-- 12 -->
     <g transform="translate(492.308952 1155.014147)scale(0.12 -0.12)">
      <defs>
       <path d="M 1228 531 
L 3431 531 
L 3431 0 
L 469 0 
L 469 531 
Q 828 903 1448 1529 
Q 2069 2156 2228 2338 
Q 2531 2678 2651 2914 
Q 2772 3150 2772 3378 
Q 2772 3750 2511 3984 
Q 2250 4219 1831 4219 
Q 1534 4219 1204 4116 
Q 875 4013 500 3803 
L 500 4441 
Q 881 4594 1212 4672 
Q 1544 4750 1819 4750 
Q 2544 4750 2975 4387 
Q 3406 4025 3406 3419 
Q 3406 3131 3298 2873 
Q 3191 2616 2906 2266 
Q 2828 2175 2409 1742 
Q 1991 1309 1228 531 
z
" id="DejaVuSans-32" transform="scale(0.015625)"/>
      </defs>
      <use xlink:href="#DejaVuSans-31"/>
      <use x="63.623047" xlink:href="#DejaVuSans-32"/>
     </g>
    </g>
   </g>
   <g id="text_4">
    <g clip-path="url(#pe40deacc1e)">
     <!-- 3 -->
     <g transform="translate(458.028385 1163.376582)scale(0.12 -0.12)">
      <defs>
       <path d="M 2597 2516 
Q 3050 2419 3304 2112 
Q 3559 1806 3559 1356 
Q 3559 666 3084 287 
Q 2609 -91 1734 -91 
Q 1441 -91 1130 -33 
Q 819 25 488 141 
L 488 750 
Q 750 597 1062 519 
Q 1375 441 1716 441 
Q 2309 441 2620 675 
Q 2931 909 2931 1356 
Q 2931 1769 2642 2001 
Q 2353 2234 1838 2234 
L 1294 2234 
L 1294 2753 
L 1863 2753 
Q 2328 2753 2575 2939 
Q 2822 3125 2822 3475 
Q 2822 3834 2567 4026 
Q 2313 4219 1838 4219 
Q 1578 4219 1281 4162 
Q 984 4106 628 3988 
L 628 4550 
Q 988 4650 1302 4700 
Q 1616 4750 1894 4750 
Q 2613 4750 3031 4423 
Q 3450 4097 3450 3541 
Q 3450 3153 3228 2886 
Q 3006 2619 2597 2516 
z
" id="DejaVuSans-33" transform="scale(0.015625)"/>
      </defs>
      <use xlink:href="#DejaVuSans-33"/>
     </g>
    </g>
   </g>
   <g id="text_5">
    <g clip-path="url(#pe40deacc1e)">
     <!-- 7 -->
     <g transform="translate(529.138808 1035.580662)scale(0.12 -0.12)">
      <defs>
       <path d="M 525 4666 
L 3525 4666 
L 3525 4397 
L 1831 0 
L 1172 0 
L 2766 4134 
L 525 4134 
L 525 4666 
z
" id="DejaVuSans-37" transform="scale(0.015625)"/>
      </defs>
      <use xlink:href="#DejaVuSans-37"/>
     </g>
    </g>
   </g>
   <g id="text_6">
    <g clip-path="url(#pe40deacc1e)">
     <!-- 4 -->
     <g transform="translate(579.948525 1052.174318)scale(0.12 -0.12)">
      <defs>
       <path d="M 2419 4116 
L 825 1625 
L 2419 1625 
L 2419 4116 
z
M 2253 4666 
L 3047 4666 
L 3047 1625 
L 3713 1625 
L 3713 1100 
L 3047 1100 
L 3047 0 
L 2419 0 
L 2419 1100 
L 313 1100 
L 313 1709 
L 2253 4666 
z
" id="DejaVuSans-34" transform="scale(0.015625)"/>
      </defs>
      <use xlink:href="#DejaVuSans-34"/>
     </g>
    </g>
   </g>
   <g id="text_7">
    <g clip-path="url(#pe40deacc1e)">
     <!-- 9 -->
     <g transform="translate(515.476839 1188.693068)scale(0.12 -0.12)">
      <defs>
       <path d="M 703 97 
L 703 672 
Q 941 559 1184 500 
Q 1428 441 1663 441 
Q 2288 441 2617 861 
Q 2947 1281 2994 2138 
Q 2813 1869 2534 1725 
Q 2256 1581 1919 1581 
Q 1219 1581 811 2004 
Q 403 2428 403 3163 
Q 403 3881 828 4315 
Q 1253 4750 1959 4750 
Q 2769 4750 3195 4129 
Q 3622 3509 3622 2328 
Q 3622 1225 3098 567 
Q 2575 -91 1691 -91 
Q 1453 -91 1209 -44 
Q 966 3 703 97 
z
M 1959 2075 
Q 2384 2075 2632 2365 
Q 2881 2656 2881 3163 
Q 2881 3666 2632 3958 
Q 2384 4250 1959 4250 
Q 1534 4250 1286 3958 
Q 1038 3666 1038 3163 
Q 1038 2656 1286 2365 
Q 1534 2075 1959 2075 
z
" id="DejaVuSans-39" transform="scale(0.015625)"/>
      </defs>
      <use xlink:href="#DejaVuSans-39"/>
     </g>
    </g>
   </g>
   <g id="text_8">
    <g clip-path="url(#pe40deacc1e)">
     <!-- 2 -->
     <g transform="translate(442.670161 1120.229068)scale(0.12 -0.12)">
      <use xlink:href="#DejaVuSans-32"/>
     </g>
    </g>
   </g>
   <g id="text_9">
    <g clip-path="url(#pe40deacc1e)">
     <!-- 11 -->
     <g transform="translate(455.897957 1072.75924)scale(0.12 -0.12)">
      <use xlink:href="#DejaVuSans-31"/>
      <use x="63.623047" xlink:href="#DejaVuSans-31"/>
     </g>
    </g>
   </g>
   <g id="text_10">
    <g clip-path="url(#pe40deacc1e)">
     <!-- 10 -->
     <g transform="translate(601.696708 1123.977013)scale(0.12 -0.12)">
      <use xlink:href="#DejaVuSans-31"/>
      <use x="63.623047" xlink:href="#DejaVuSans-30"/>
     </g>
    </g>
   </g>
   <g id="text_11">
    <g clip-path="url(#pe40deacc1e)">
     <!-- 6 -->
     <g transform="translate(584.295442 1153.701182)scale(0.12 -0.12)">
      <defs>
       <path d="M 2113 2584 
Q 1688 2584 1439 2293 
Q 1191 2003 1191 1497 
Q 1191 994 1439 701 
Q 1688 409 2113 409 
Q 2538 409 2786 701 
Q 3034 994 3034 1497 
Q 3034 2003 2786 2293 
Q 2538 2584 2113 2584 
z
M 3366 4563 
L 3366 3988 
Q 3128 4100 2886 4159 
Q 2644 4219 2406 4219 
Q 1781 4219 1451 3797 
Q 1122 3375 1075 2522 
Q 1259 2794 1537 2939 
Q 1816 3084 2150 3084 
Q 2853 3084 3261 2657 
Q 3669 2231 3669 1497 
Q 3669 778 3244 343 
Q 2819 -91 2113 -91 
Q 1303 -91 875 529 
Q 447 1150 447 2328 
Q 447 3434 972 4092 
Q 1497 4750 2381 4750 
Q 2619 4750 2861 4703 
Q 3103 4656 3366 4563 
z
" id="DejaVuSans-36" transform="scale(0.015625)"/>
      </defs>
      <use xlink:href="#DejaVuSans-36"/>
     </g>
    </g>
   </g>
   <g id="text_12">
    <g clip-path="url(#pe40deacc1e)">
     <!-- 5 -->
     <g transform="translate(553.9295 1174.589725)scale(0.12 -0.12)">
      <defs>
       <path d="M 691 4666 
L 3169 4666 
L 3169 4134 
L 1269 4134 
L 1269 2991 
Q 1406 3038 1543 3061 
Q 1681 3084 1819 3084 
Q 2600 3084 3056 2656 
Q 3513 2228 3513 1497 
Q 3513 744 3044 326 
Q 2575 -91 1722 -91 
Q 1428 -91 1123 -41 
Q 819 9 494 109 
L 494 744 
Q 775 591 1075 516 
Q 1375 441 1709 441 
Q 2250 441 2565 725 
Q 2881 1009 2881 1497 
Q 2881 1984 2565 2268 
Q 2250 2553 1709 2553 
Q 1456 2553 1204 2497 
Q 953 2441 691 2322 
L 691 4666 
z
" id="DejaVuSans-35" transform="scale(0.015625)"/>
      </defs>
      <use xlink:href="#DejaVuSans-35"/>
     </g>
    </g>
   </g>
   <g id="text_13">
    <g clip-path="url(#pe40deacc1e)">
     <!-- 8 -->
     <g transform="translate(606.040647 1085.141722)scale(0.12 -0.12)">
      <defs>
       <path d="M 2034 2216 
Q 1584 2216 1326 1975 
Q 1069 1734 1069 1313 
Q 1069 891 1326 650 
Q 1584 409 2034 409 
Q 2484 409 2743 651 
Q 3003 894 3003 1313 
Q 3003 1734 2745 1975 
Q 2488 2216 2034 2216 
z
M 1403 2484 
Q 997 2584 770 2862 
Q 544 3141 544 3541 
Q 544 4100 942 4425 
Q 1341 4750 2034 4750 
Q 2731 4750 3128 4425 
Q 3525 4100 3525 3541 
Q 3525 3141 3298 2862 
Q 3072 2584 2669 2484 
Q 3125 2378 3379 2068 
Q 3634 1759 3634 1313 
Q 3634 634 3220 271 
Q 2806 -91 2034 -91 
Q 1263 -91 848 271 
Q 434 634 434 1313 
Q 434 1759 690 2068 
Q 947 2378 1403 2484 
z
M 1172 3481 
Q 1172 3119 1398 2916 
Q 1625 2713 2034 2713 
Q 2441 2713 2670 2916 
Q 2900 3119 2900 3481 
Q 2900 3844 2670 4047 
Q 2441 4250 2034 4250 
Q 1625 4250 1398 4047 
Q 1172 3844 1172 3481 
z
" id="DejaVuSans-38" transform="scale(0.015625)"/>
      </defs>
      <use xlink:href="#DejaVuSans-38"/>
     </g>
    </g>
   </g>
   <g id="text_14">
    <g clip-path="url(#pe40deacc1e)">
     <!-- 13 -->
     <g transform="translate(417.197918 845.922985)scale(0.12 -0.12)">
      <use xlink:href="#DejaVuSans-31"/>
      <use x="63.623047" xlink:href="#DejaVuSans-33"/>
     </g>
    </g>
   </g>
   <g id="text_15">
    <g clip-path="url(#pe40deacc1e)">
     <!-- 14 -->
     <g transform="translate(396.295764 972.873941)scale(0.12 -0.12)">
      <use xlink:href="#DejaVuSans-31"/>
      <use x="63.623047" xlink:href="#DejaVuSans-34"/>
     </g>
    </g>
   </g>
   <g id="text_16">
    <g clip-path="url(#pe40deacc1e)">
     <!-- 15 -->
     <g transform="translate(376.85614 710.936285)scale(0.12 -0.12)">
      <use xlink:href="#DejaVuSans-31"/>
      <use x="63.623047" xlink:href="#DejaVuSans-35"/>
     </g>
    </g>
   </g>
   <g id="text_17">
    <g clip-path="url(#pe40deacc1e)">
     <!-- 16 -->
     <g transform="translate(345.540215 574.72223)scale(0.12 -0.12)">
      <use xlink:href="#DejaVuSans-31"/>
      <use x="63.623047" xlink:href="#DejaVuSans-36"/>
     </g>
    </g>
   </g>
   <g id="text_18">
    <g clip-path="url(#pe40deacc1e)">
     <!-- 17 -->
     <g transform="translate(388.334646 491.643932)scale(0.12 -0.12)">
      <use xlink:href="#DejaVuSans-31"/>
      <use x="63.623047" xlink:href="#DejaVuSans-37"/>
     </g>
    </g>
   </g>
   <g id="text_19">
    <g clip-path="url(#pe40deacc1e)">
     <!-- 20 -->
     <g transform="translate(278.518457 598.76671)scale(0.12 -0.12)">
      <use xlink:href="#DejaVuSans-32"/>
      <use x="63.623047" xlink:href="#DejaVuSans-30"/>
     </g>
    </g>
   </g>
   <g id="text_20">
    <g clip-path="url(#pe40deacc1e)">
     <!-- 18 -->
     <g transform="translate(317.00542 522.098757)scale(0.12 -0.12)">
      <use xlink:href="#DejaVuSans-31"/>
      <use x="63.623047" xlink:href="#DejaVuSans-38"/>
     </g>
    </g>
   </g>
   <g id="text_21">
    <g clip-path="url(#pe40deacc1e)">
     <!-- 19 -->
     <g transform="translate(269.207975 548.880149)scale(0.12 -0.12)">
      <use xlink:href="#DejaVuSans-31"/>
      <use x="63.623047" xlink:href="#DejaVuSans-39"/>
     </g>
    </g>
   </g>
   <g id="text_22">
    <g clip-path="url(#pe40deacc1e)">
     <!-- 21 -->
     <g transform="translate(456.670456 386.072902)scale(0.12 -0.12)">
      <use xlink:href="#DejaVuSans-32"/>
      <use x="63.623047" xlink:href="#DejaVuSans-31"/>
     </g>
    </g>
   </g>
   <g id="text_23">
    <g clip-path="url(#pe40deacc1e)">
     <!-- 22 -->
     <g transform="translate(533.734371 344.684223)scale(0.12 -0.12)">
      <use xlink:href="#DejaVuSans-32"/>
      <use x="63.623047" xlink:href="#DejaVuSans-32"/>
     </g>
    </g>
   </g>
   <g id="text_24">
    <g clip-path="url(#pe40deacc1e)">
     <!-- 23 -->
     <g transform="translate(409.743653 328.564328)scale(0.12 -0.12)">
      <use xlink:href="#DejaVuSans-32"/>
      <use x="63.623047" xlink:href="#DejaVuSans-33"/>
     </g>
    </g>
   </g>
   <g id="text_25">
    <g clip-path="url(#pe40deacc1e)">
     <!-- 25 -->
     <g transform="translate(520.982852 272.329432)scale(0.12 -0.12)">
      <use xlink:href="#DejaVuSans-32"/>
      <use x="63.623047" xlink:href="#DejaVuSans-35"/>
     </g>
    </g>
   </g>
   <g id="text_26">
    <g clip-path="url(#pe40deacc1e)">
     <!-- 24 -->
     <g transform="translate(654.818135 343.189827)scale(0.12 -0.12)">
      <use xlink:href="#DejaVuSans-32"/>
      <use x="63.623047" xlink:href="#DejaVuSans-34"/>
     </g>
    </g>
   </g>
   <g id="text_27">
    <g clip-path="url(#pe40deacc1e)">
     <!-- 26 -->
     <g transform="translate(775.253902 356.856857)scale(0.12 -0.12)">
      <use xlink:href="#DejaVuSans-32"/>
      <use x="63.623047" xlink:href="#DejaVuSans-36"/>
     </g>
    </g>
   </g>
   <g id="text_28">
    <g clip-path="url(#pe40deacc1e)">
     <!-- 29 -->
     <g transform="translate(809.006748 324.482941)scale(0.12 -0.12)">
      <use xlink:href="#DejaVuSans-32"/>
      <use x="63.623047" xlink:href="#DejaVuSans-39"/>
     </g>
    </g>
   </g>
   <g id="text_29">
    <g clip-path="url(#pe40deacc1e)">
     <!-- 28 -->
     <g transform="translate(864.17776 436.064959)scale(0.12 -0.12)">
      <use xlink:href="#DejaVuSans-32"/>
      <use x="63.623047" xlink:href="#DejaVuSans-38"/>
     </g>
    </g>
   </g>
   <g id="text_30">
    <g clip-path="url(#pe40deacc1e)">
     <!-- 27 -->
     <g transform="translate(785.730559 280.434912)scale(0.12 -0.12)">
      <use xlink:href="#DejaVuSans-32"/>
      <use x="63.623047" xlink:href="#DejaVuSans-37"/>
     </g>
    </g>
   </g>
   <g id="text_31">
    <g clip-path="url(#pe40deacc1e)">
     <!-- 30 -->
     <g transform="translate(943.607732 521.088127)scale(0.12 -0.12)">
      <use xlink:href="#DejaVuSans-33"/>
      <use x="63.623047" xlink:href="#DejaVuSans-30"/>
     </g>
    </g>
   </g>
   <g id="text_32">
    <g clip-path="url(#pe40deacc1e)">
     <!-- 31 -->
     <g transform="translate(981.215621 558.156699)scale(0.12 -0.12)">
      <use xlink:href="#DejaVuSans-33"/>
      <use x="63.623047" xlink:href="#DejaVuSans-31"/>
     </g>
    </g>
   </g>
   <g id="text_33">
    <g clip-path="url(#pe40deacc1e)">
     <!-- 32 -->
     <g transform="translate(1006.723154 581.002523)scale(0.12 -0.12)">
      <use xlink:href="#DejaVuSans-33"/>
      <use x="63.623047" xlink:href="#DejaVuSans-32"/>
     </g>
    </g>
   </g>
   <g id="text_34">
    <g clip-path="url(#pe40deacc1e)">
     <!-- 33 -->
     <g transform="translate(1029.438509 540.994379)scale(0.12 -0.12)">
      <use xlink:href="#DejaVuSans-33"/>
      <use x="63.623047" xlink:href="#DejaVuSans-33"/>
     </g>
    </g>
   </g>
   <g id="text_35">
    <g clip-path="url(#pe40deacc1e)">
     <!-- 34 -->
     <g transform="translate(1087.658066 514.139227)scale(0.12 -0.12)">
      <use xlink:href="#DejaVuSans-33"/>
      <use x="63.623047" xlink:href="#DejaVuSans-34"/>
     </g>
    </g>
   </g>
   <g id="text_36">
    <g clip-path="url(#pe40deacc1e)">
     <!-- 35 -->
     <g transform="translate(963.712921 585.134376)scale(0.12 -0.12)">
      <use xlink:href="#DejaVuSans-33"/>
      <use x="63.623047" xlink:href="#DejaVuSans-35"/>
     </g>
    </g>
   </g>
   <g id="text_37">
    <g clip-path="url(#pe40deacc1e)">
     <!-- 36 -->
     <g transform="translate(1165.753419 481.165175)scale(0.12 -0.12)">
      <use xlink:href="#DejaVuSans-33"/>
      <use x="63.623047" xlink:href="#DejaVuSans-36"/>
     </g>
    </g>
   </g>
   <g id="text_38">
    <g clip-path="url(#pe40deacc1e)">
     <!-- 37 -->
     <g transform="translate(1191.522025 464.427178)scale(0.12 -0.12)">
      <use xlink:href="#DejaVuSans-33"/>
      <use x="63.623047" xlink:href="#DejaVuSans-37"/>
     </g>
    </g>
   </g>
  </g>
 </g>
 <defs>
  <clipPath id="pe40deacc1e">
   <rect height="1108.8" width="1116" x="180" y="172.8"/>
  </clipPath>
 </defs>
</svg>
