<?xml version="1.0" encoding="utf-8" standalone="no"?>
<!DOCTYPE svg PUBLIC "-//W3C//DTD SVG 1.1//EN"
  "http://www.w3.org/Graphics/SVG/1.1/DTD/svg11.dtd">
<svg height="1440pt" version="1.1" viewBox="0 0 1440 1440" width="1440pt" xmlns="http://www.w3.org/2000/svg" xmlns:xlink="http://www.w3.org/1999/xlink">
 <metadata>
  <rdf:RDF xmlns:cc="http://creativecommons.org/ns#" xmlns:dc="http://purl.org/dc/elements/1.1/" xmlns:rdf="http://www.w3.org/1999/02/22-rdf-syntax-ns#">
   <cc:Work>
    <dc:type rdf:resource="http://purl.org/dc/dcmitype/StillImage"/>
    <dc:date>2021-10-17T06:10:01.229676</dc:date>
    <dc:format>image/svg+xml</dc:format>
    <dc:creator>
     <cc:Agent>
      <dc:title>Matplotlib v3.4.3, https://matplotlib.org/</dc:title>
     </cc:Agent>
    </dc:creator>
   </cc:Work>
  </rdf:RDF>
 </metadata>
 <defs>
  <style type="text/css">*{stroke-linecap:butt;stroke-linejoin:round;}</style>
 </defs>
 <g id="figure_1">
  <g id="patch_1">
   <path d="M 0 1440 
L 1440 1440 
L 1440 0 
L 0 0 
z
" style="fill:#ffffff;"/>
  </g>
  <g id="axes_1">
   <g id="patch_2">
    <path clip-path="url(#pd44edbe649)" d="M 647.443182 467.986203 
Q 628.10611 418.849407 609.587884 371.793354 
" style="fill:none;stroke:#ff0000;stroke-linecap:round;stroke-width:2;"/>
    <path clip-path="url(#pd44edbe649)" d="M 609.191607 376.247898 
L 609.587884 371.793354 
L 612.913753 374.783102 
L 609.191607 376.247898 
z
" style="fill:#ff0000;stroke:#ff0000;stroke-linecap:round;stroke-width:2;"/>
   </g>
   <g id="patch_3">
    <path clip-path="url(#pd44edbe649)" d="M 655.050643 483.485064 
Q 692.117425 545.647847 728.611607 606.850354 
" style="fill:none;stroke:#000000;stroke-linecap:round;"/>
    <path clip-path="url(#pd44edbe649)" d="M 728.280809 602.390469 
L 728.611607 606.850354 
L 724.84522 604.439061 
L 728.280809 602.390469 
z
" style="stroke:#000000;stroke-linecap:round;"/>
   </g>
   <g id="patch_4">
    <path clip-path="url(#pd44edbe649)" d="M 643.843536 481.444445 
Q 622.947908 498.099906 602.926562 514.058494 
" style="fill:none;stroke:#000000;stroke-linecap:round;"/>
    <path clip-path="url(#pd44edbe649)" d="M 607.301092 513.129254 
L 602.926562 514.058494 
L 604.807888 510.001326 
L 607.301092 513.129254 
z
" style="stroke:#000000;stroke-linecap:round;"/>
   </g>
   <g id="patch_5">
    <path clip-path="url(#pd44edbe649)" d="M 608.49086 353.490604 
Q 621.669788 316.291609 634.475355 280.146465 
" style="fill:none;stroke:#000000;stroke-linecap:round;"/>
    <path clip-path="url(#pd44edbe649)" d="M 631.254395 283.24895 
L 634.475355 280.146465 
L 635.024767 284.584724 
L 631.254395 283.24895 
z
" style="stroke:#000000;stroke-linecap:round;"/>
   </g>
   <g id="patch_6">
    <path clip-path="url(#pd44edbe649)" d="M 603.583872 353.233557 
Q 594.519627 315.336895 585.71546 278.527597 
" style="fill:none;stroke:#000000;stroke-linecap:round;"/>
    <path clip-path="url(#pd44edbe649)" d="M 584.700813 282.883109 
L 585.71546 278.527597 
L 588.591082 281.952622 
L 584.700813 282.883109 
z
" style="stroke:#000000;stroke-linecap:round;"/>
   </g>
   <g id="patch_7">
    <path clip-path="url(#pd44edbe649)" d="M 597.53204 358.503137 
Q 548.364429 339.288601 500.238159 320.481017 
" style="fill:none;stroke:#000000;stroke-linecap:round;"/>
    <path clip-path="url(#pd44edbe649)" d="M 503.235793 323.79978 
L 500.238159 320.481017 
L 504.69175 320.074168 
L 503.235793 323.79978 
z
" style="stroke:#000000;stroke-linecap:round;"/>
   </g>
   <g id="patch_8">
    <path clip-path="url(#pd44edbe649)" d="M 614.005994 359.57283 
Q 658.764804 348.486372 702.438375 337.66872 
" style="fill:none;stroke:#000000;stroke-linecap:round;"/>
    <path clip-path="url(#pd44edbe649)" d="M 698.074852 336.689097 
L 702.438375 337.66872 
L 699.036563 340.571765 
L 698.074852 336.689097 
z
" style="stroke:#000000;stroke-linecap:round;"/>
   </g>
   <g id="patch_9">
    <path clip-path="url(#pd44edbe649)" d="M 612.195941 356.044232 
Q 644.385509 328.668017 675.7234 302.016128 
" style="fill:none;stroke:#000000;stroke-linecap:round;"/>
    <path clip-path="url(#pd44edbe649)" d="M 671.380636 303.084024 
L 675.7234 302.016128 
L 673.972059 306.131077 
L 671.380636 303.084024 
z
" style="stroke:#000000;stroke-linecap:round;"/>
   </g>
   <g id="patch_10">
    <path clip-path="url(#pd44edbe649)" d="M 596.95448 361.168772 
Q 556.78116 358.907188 517.724107 356.708445 
" style="fill:none;stroke:#000000;stroke-linecap:round;"/>
    <path clip-path="url(#pd44edbe649)" d="M 521.605371 358.93011 
L 517.724107 356.708445 
L 521.830197 354.936433 
L 521.605371 358.93011 
z
" style="stroke:#000000;stroke-linecap:round;"/>
   </g>
   <g id="patch_11">
    <path clip-path="url(#pd44edbe649)" d="M 599.665275 355.342354 
Q 570.441719 324.24672 541.983828 293.965801 
" style="fill:none;stroke:#000000;stroke-linecap:round;"/>
    <path clip-path="url(#pd44edbe649)" d="M 543.265749 298.25027 
L 541.983828 293.965801 
L 546.180556 295.510946 
L 543.265749 298.25027 
z
" style="stroke:#000000;stroke-linecap:round;"/>
   </g>
   <g id="patch_12">
    <path clip-path="url(#pd44edbe649)" d="M 597.670375 365.141221 
Q 561.008187 381.261427 525.369468 396.931619 
" style="fill:none;stroke:#000000;stroke-linecap:round;"/>
    <path clip-path="url(#pd44edbe649)" d="M 529.836149 397.152434 
L 525.369468 396.931619 
L 528.226128 393.490763 
L 529.836149 397.152434 
z
" style="stroke:#000000;stroke-linecap:round;"/>
   </g>
   <g id="patch_13">
    <path clip-path="url(#pd44edbe649)" d="M 613.951081 363.936121 
Q 646.606085 372.852559 678.182538 381.474501 
" style="fill:none;stroke:#000000;stroke-linecap:round;"/>
    <path clip-path="url(#pd44edbe649)" d="M 674.850612 378.491503 
L 678.182538 381.474501 
L 673.796985 382.350243 
L 674.850612 378.491503 
z
" style="stroke:#000000;stroke-linecap:round;"/>
   </g>
   <g id="patch_14">
    <path clip-path="url(#pd44edbe649)" d="M 738.081123 622.661614 
Q 773.689427 681.823419 808.721183 740.027313 
" style="fill:none;stroke:#000000;stroke-linecap:round;"/>
    <path clip-path="url(#pd44edbe649)" d="M 808.372028 735.568828 
L 808.721183 740.027313 
L 804.944902 737.631546 
L 808.372028 735.568828 
z
" style="stroke:#000000;stroke-linecap:round;"/>
   </g>
   <g id="patch_15">
    <path clip-path="url(#pd44edbe649)" d="M 818.144239 755.868712 
Q 852.423764 814.272822 886.137354 871.712712 
" style="fill:none;stroke:#000000;stroke-linecap:round;"/>
    <path clip-path="url(#pd44edbe649)" d="M 885.837448 867.250644 
L 886.137354 871.712712 
L 882.387755 869.275395 
L 885.837448 867.250644 
z
" style="stroke:#000000;stroke-linecap:round;"/>
   </g>
   <g id="patch_16">
    <path clip-path="url(#pd44edbe649)" d="M 890.027338 888.743831 
Q 886.165498 920.103432 882.440307 950.353382 
" style="fill:none;stroke:#000000;stroke-linecap:round;"/>
    <path clip-path="url(#pd44edbe649)" d="M 884.914207 946.627819 
L 882.440307 950.353382 
L 880.944197 946.138924 
L 884.914207 946.627819 
z
" style="stroke:#000000;stroke-linecap:round;"/>
   </g>
   <g id="patch_17">
    <path clip-path="url(#pd44edbe649)" d="M 898.149952 885.147842 
Q 948.236245 920.624751 997.410188 955.455427 
" style="fill:none;stroke:#000000;stroke-linecap:round;"/>
    <path clip-path="url(#pd44edbe649)" d="M 995.302078 951.511333 
L 997.410188 955.455427 
L 992.990047 954.775459 
L 995.302078 951.511333 
z
" style="stroke:#000000;stroke-linecap:round;"/>
   </g>
   <g id="patch_18">
    <path clip-path="url(#pd44edbe649)" d="M 1012.891126 965.425586 
Q 1057.233139 990.951948 1100.606202 1015.920514 
" style="fill:none;stroke:#000000;stroke-linecap:round;"/>
    <path clip-path="url(#pd44edbe649)" d="M 1098.137395 1012.191574 
L 1100.606202 1015.920514 
L 1096.141766 1015.658196 
L 1098.137395 1012.191574 
z
" style="stroke:#000000;stroke-linecap:round;"/>
   </g>
   <g id="patch_19">
    <path clip-path="url(#pd44edbe649)" d="M 1101.006381 1017.664597 
Q 1079.978977 1009.50157 1061.036078 1002.147766 
" style="fill:none;stroke:#ff0000;stroke-linecap:round;stroke-width:2;"/>
    <path clip-path="url(#pd44edbe649)" d="M 1064.041161 1005.459786 
L 1061.036078 1002.147766 
L 1065.488744 1001.730911 
L 1064.041161 1005.459786 
z
" style="fill:#ff0000;stroke:#ff0000;stroke-linecap:round;stroke-width:2;"/>
   </g>
   <g id="patch_20">
    <path clip-path="url(#pd44edbe649)" d="M 1116.731372 1024.85382 
Q 1154.11697 1044.667761 1190.514698 1063.958142 
" style="fill:none;stroke:#000000;stroke-linecap:round;"/>
    <path clip-path="url(#pd44edbe649)" d="M 1187.916961 1060.317844 
L 1190.514698 1063.958142 
L 1186.043818 1063.852153 
L 1187.916961 1060.317844 
z
" style="stroke:#000000;stroke-linecap:round;"/>
   </g>
   <g id="patch_21">
    <path clip-path="url(#pd44edbe649)" d="M 1042.879867 994.872153 
Q 992.770613 973.995659 943.693407 953.549135 
" style="fill:none;stroke:#000000;stroke-linecap:round;"/>
    <path clip-path="url(#pd44edbe649)" d="M 946.61662 956.933633 
L 943.693407 953.549135 
L 948.154933 953.241264 
L 946.61662 956.933633 
z
" style="stroke:#000000;stroke-linecap:round;"/>
   </g>
   <g id="patch_22">
    <path clip-path="url(#pd44edbe649)" d="M 926.003968 949.753313 
Q 873.883894 949.543245 823.999869 949.34219 
" style="fill:none;stroke:#ff0000;stroke-linecap:round;stroke-width:2;"/>
    <path clip-path="url(#pd44edbe649)" d="M 827.991776 951.358295 
L 823.999869 949.34219 
L 828.007898 947.358328 
L 827.991776 951.358295 
z
" style="fill:#ff0000;stroke:#ff0000;stroke-linecap:round;stroke-width:2;"/>
   </g>
   <g id="patch_23">
    <path clip-path="url(#pd44edbe649)" d="M 942.578848 946.273819 
Q 981.892822 928.812495 1020.185012 911.804997 
" style="fill:none;stroke:#000000;stroke-linecap:round;"/>
    <path clip-path="url(#pd44edbe649)" d="M 1015.717539 911.600831 
L 1020.185012 911.804997 
L 1017.341196 915.256476 
L 1015.717539 911.600831 
z
" style="stroke:#000000;stroke-linecap:round;"/>
   </g>
   <g id="patch_24">
    <path clip-path="url(#pd44edbe649)" d="M 804.452697 949.543742 
Q 734.914074 951.51639 666.493036 953.457335 
" style="fill:none;stroke:#000000;stroke-linecap:round;"/>
    <path clip-path="url(#pd44edbe649)" d="M 670.54814 955.343105 
L 666.493036 953.457335 
L 670.434715 951.344714 
L 670.54814 955.343105 
z
" style="stroke:#000000;stroke-linecap:round;"/>
   </g>
   <g id="patch_25">
    <path clip-path="url(#pd44edbe649)" d="M 648.09769 954.598235 
Q 583.375799 961.084187 519.76637 967.458656 
" style="fill:none;stroke:#000000;stroke-linecap:round;"/>
    <path clip-path="url(#pd44edbe649)" d="M 523.945861 969.049836 
L 519.76637 967.458656 
L 523.547009 965.069771 
L 523.945861 969.049836 
z
" style="stroke:#000000;stroke-linecap:round;"/>
   </g>
   <g id="patch_26">
    <path clip-path="url(#pd44edbe649)" d="M 501.729816 970.870704 
Q 446.641246 987.030768 392.625503 1002.876122 
" style="fill:none;stroke:#000000;stroke-linecap:round;"/>
    <path clip-path="url(#pd44edbe649)" d="M 397.026736 1003.66931 
L 392.625503 1002.876122 
L 395.900793 999.831049 
L 397.026736 1003.66931 
z
" style="stroke:#000000;stroke-linecap:round;"/>
   </g>
   <g id="patch_27">
    <path clip-path="url(#pd44edbe649)" d="M 374.605729 1006.305894 
Q 330.039959 1009.797309 286.588809 1013.201402 
" style="fill:none;stroke:#000000;stroke-linecap:round;"/>
    <path clip-path="url(#pd44edbe649)" d="M 290.732797 1014.882877 
L 286.588809 1013.201402 
L 290.420382 1010.895096 
L 290.732797 1014.882877 
z
" style="stroke:#000000;stroke-linecap:round;"/>
   </g>
   <g id="patch_28">
    <path clip-path="url(#pd44edbe649)" d="M 385.789894 1013.909559 
Q 393.309118 1038.320329 400.499215 1061.662607 
" style="fill:none;stroke:#000000;stroke-linecap:round;"/>
    <path clip-path="url(#pd44edbe649)" d="M 401.233073 1057.251093 
L 400.499215 1061.662607 
L 397.410319 1058.428612 
L 401.233073 1057.251093 
z
" style="stroke:#000000;stroke-linecap:round;"/>
   </g>
   <g id="patch_29">
    <path clip-path="url(#pd44edbe649)" d="M 411.284368 1074.540315 
Q 445.151679 1089.670889 477.998197 1104.345413 
" style="fill:none;stroke:#000000;stroke-linecap:round;"/>
    <path clip-path="url(#pd44edbe649)" d="M 475.161903 1100.887749 
L 477.998197 1104.345413 
L 473.530289 1104.539849 
L 475.161903 1100.887749 
z
" style="stroke:#000000;stroke-linecap:round;"/>
   </g>
   <g id="patch_30">
    <path clip-path="url(#pd44edbe649)" d="M 495.32125 1106.208939 
Q 530.636282 1097.272197 564.867447 1088.609736 
" style="fill:none;stroke:#000000;stroke-linecap:round;"/>
    <path clip-path="url(#pd44edbe649)" d="M 560.499033 1087.652152 
L 564.867447 1088.609736 
L 561.480332 1091.529916 
L 560.499033 1087.652152 
z
" style="stroke:#000000;stroke-linecap:round;"/>
   </g>
   <g id="patch_31">
    <path clip-path="url(#pd44edbe649)" d="M 483.233334 1116.165892 
Q 468.767376 1146.855534 454.778115 1176.53386 
" style="fill:none;stroke:#000000;stroke-linecap:round;"/>
    <path clip-path="url(#pd44edbe649)" d="M 458.292695 1173.768407 
L 454.778115 1176.53386 
L 454.674501 1172.062925 
L 458.292695 1173.768407 
z
" style="stroke:#000000;stroke-linecap:round;"/>
   </g>
   <g id="PathCollection_1">
    <defs>
     <path d="M 0 8.660254 
C 2.296726 8.660254 4.499694 7.747755 6.123724 6.123724 
C 7.747755 4.499694 8.660254 2.296726 8.660254 0 
C 8.660254 -2.296726 7.747755 -4.499694 6.123724 -6.123724 
C 4.499694 -7.747755 2.296726 -8.660254 0 -8.660254 
C -2.296726 -8.660254 -4.499694 -7.747755 -6.123724 -6.123724 
C -7.747755 -4.499694 -8.660254 -2.296726 -8.660254 0 
C -8.660254 2.296726 -7.747755 4.499694 -6.123724 6.123724 
C -4.499694 7.747755 -2.296726 8.660254 0 8.660254 
z
" id="m202406c119" style="stroke:#1f78b4;"/>
    </defs>
    <g clip-path="url(#pd44edbe649)">
     <use style="fill:#1f78b4;stroke:#1f78b4;" x="650.615315" xlink:href="#m202406c119" y="476.046805"/>
     <use style="fill:#1f78b4;stroke:#1f78b4;" x="605.59823" xlink:href="#m202406c119" y="361.655377"/>
     <use style="fill:#1f78b4;stroke:#1f78b4;" x="637.739877" xlink:href="#m202406c119" y="270.931989"/>
     <use style="fill:#1f78b4;stroke:#1f78b4;" x="583.440968" xlink:href="#m202406c119" y="269.018182"/>
     <use style="fill:#1f78b4;stroke:#1f78b4;" x="491.127505" xlink:href="#m202406c119" y="316.920604"/>
     <use style="fill:#1f78b4;stroke:#1f78b4;" x="711.929992" xlink:href="#m202406c119" y="335.317709"/>
     <use style="fill:#1f78b4;stroke:#1f78b4;" x="683.170457" xlink:href="#m202406c119" y="295.682641"/>
     <use style="fill:#1f78b4;stroke:#1f78b4;" x="507.963482" xlink:href="#m202406c119" y="356.158964"/>
     <use style="fill:#1f78b4;stroke:#1f78b4;" x="535.28681" xlink:href="#m202406c119" y="286.839768"/>
     <use style="fill:#1f78b4;stroke:#1f78b4;" x="516.418705" xlink:href="#m202406c119" y="400.867231"/>
     <use style="fill:#1f78b4;stroke:#1f78b4;" x="687.61987" xlink:href="#m202406c119" y="384.051361"/>
     <use style="fill:#1f78b4;stroke:#1f78b4;" x="733.617498" xlink:href="#m202406c119" y="615.245475"/>
     <use style="fill:#1f78b4;stroke:#1f78b4;" x="595.279245" xlink:href="#m202406c119" y="520.154008"/>
     <use style="fill:#1f78b4;stroke:#1f78b4;" x="813.762193" xlink:href="#m202406c119" y="748.402754"/>
     <use style="fill:#1f78b4;stroke:#1f78b4;" x="891.086313" xlink:href="#m202406c119" y="880.144556"/>
     <use style="fill:#1f78b4;stroke:#1f78b4;" x="881.244994" xlink:href="#m202406c119" y="960.059773"/>
     <use style="fill:#1f78b4;stroke:#1f78b4;" x="1005.388193" xlink:href="#m202406c119" y="961.106373"/>
     <use style="fill:#1f78b4;stroke:#1f78b4;" x="1109.081194" xlink:href="#m202406c119" y="1020.799313"/>
     <use style="fill:#1f78b4;stroke:#1f78b4;" x="1050.877173" xlink:href="#m202406c119" y="998.203988"/>
     <use style="fill:#1f78b4;stroke:#1f78b4;" x="1199.157025" xlink:href="#m202406c119" y="1068.538476"/>
     <use style="fill:#1f78b4;stroke:#1f78b4;" x="934.666202" xlink:href="#m202406c119" y="949.788225"/>
     <use style="fill:#1f78b4;stroke:#1f78b4;" x="813.105565" xlink:href="#m202406c119" y="949.298281"/>
     <use style="fill:#1f78b4;stroke:#1f78b4;" x="1029.122149" xlink:href="#m202406c119" y="907.835563"/>
     <use style="fill:#1f78b4;stroke:#1f78b4;" x="656.714402" xlink:href="#m202406c119" y="953.734731"/>
     <use style="fill:#1f78b4;stroke:#1f78b4;" x="510.037805" xlink:href="#m202406c119" y="968.433581"/>
     <use style="fill:#1f78b4;stroke:#1f78b4;" x="383.239399" xlink:href="#m202406c119" y="1005.629507"/>
     <use style="fill:#1f78b4;stroke:#1f78b4;" x="276.842975" xlink:href="#m202406c119" y="1013.964919"/>
     <use style="fill:#1f78b4;stroke:#1f78b4;" x="403.377868" xlink:href="#m202406c119" y="1071.008004"/>
     <use style="fill:#1f78b4;stroke:#1f78b4;" x="486.925171" xlink:href="#m202406c119" y="1108.333632"/>
     <use style="fill:#1f78b4;stroke:#1f78b4;" x="574.348975" xlink:href="#m202406c119" y="1086.210362"/>
     <use style="fill:#1f78b4;stroke:#1f78b4;" x="450.607516" xlink:href="#m202406c119" y="1185.381818"/>
    </g>
   </g>
   <g id="text_1">
    <g clip-path="url(#pd44edbe649)">
     <!-- 1 -->
     <g transform="translate(646.797815 479.358055)scale(0.12 -0.12)">
      <defs>
       <path d="M 794 531 
L 1825 531 
L 1825 4091 
L 703 3866 
L 703 4441 
L 1819 4666 
L 2450 4666 
L 2450 531 
L 3481 531 
L 3481 0 
L 794 0 
L 794 531 
z
" id="DejaVuSans-31" transform="scale(0.015625)"/>
      </defs>
      <use xlink:href="#DejaVuSans-31"/>
     </g>
    </g>
   </g>
   <g id="text_2">
    <g clip-path="url(#pd44edbe649)">
     <!-- 0 -->
     <g transform="translate(601.78073 364.966627)scale(0.12 -0.12)">
      <defs>
       <path d="M 2034 4250 
Q 1547 4250 1301 3770 
Q 1056 3291 1056 2328 
Q 1056 1369 1301 889 
Q 1547 409 2034 409 
Q 2525 409 2770 889 
Q 3016 1369 3016 2328 
Q 3016 3291 2770 3770 
Q 2525 4250 2034 4250 
z
M 2034 4750 
Q 2819 4750 3233 4129 
Q 3647 3509 3647 2328 
Q 3647 1150 3233 529 
Q 2819 -91 2034 -91 
Q 1250 -91 836 529 
Q 422 1150 422 2328 
Q 422 3509 836 4129 
Q 1250 4750 2034 4750 
z
" id="DejaVuSans-30" transform="scale(0.015625)"/>
      </defs>
      <use xlink:href="#DejaVuSans-30"/>
     </g>
    </g>
   </g>
   <g id="text_3">
    <g clip-path="url(#pd44edbe649)">
     <!-- 10 -->
     <g transform="translate(630.104877 274.243239)scale(0.12 -0.12)">
      <use xlink:href="#DejaVuSans-31"/>
      <use x="63.623047" xlink:href="#DejaVuSans-30"/>
     </g>
    </g>
   </g>
   <g id="text_4">
    <g clip-path="url(#pd44edbe649)">
     <!-- 3 -->
     <g transform="translate(579.623468 272.329432)scale(0.12 -0.12)">
      <defs>
       <path d="M 2597 2516 
Q 3050 2419 3304 2112 
Q 3559 1806 3559 1356 
Q 3559 666 3084 287 
Q 2609 -91 1734 -91 
Q 1441 -91 1130 -33 
Q 819 25 488 141 
L 488 750 
Q 750 597 1062 519 
Q 1375 441 1716 441 
Q 2309 441 2620 675 
Q 2931 909 2931 1356 
Q 2931 1769 2642 2001 
Q 2353 2234 1838 2234 
L 1294 2234 
L 1294 2753 
L 1863 2753 
Q 2328 2753 2575 2939 
Q 2822 3125 2822 3475 
Q 2822 3834 2567 4026 
Q 2313 4219 1838 4219 
Q 1578 4219 1281 4162 
Q 984 4106 628 3988 
L 628 4550 
Q 988 4650 1302 4700 
Q 1616 4750 1894 4750 
Q 2613 4750 3031 4423 
Q 3450 4097 3450 3541 
Q 3450 3153 3228 2886 
Q 3006 2619 2597 2516 
z
" id="DejaVuSans-33" transform="scale(0.015625)"/>
      </defs>
      <use xlink:href="#DejaVuSans-33"/>
     </g>
    </g>
   </g>
   <g id="text_5">
    <g clip-path="url(#pd44edbe649)">
     <!-- 9 -->
     <g transform="translate(487.310005 320.231854)scale(0.12 -0.12)">
      <defs>
       <path d="M 703 97 
L 703 672 
Q 941 559 1184 500 
Q 1428 441 1663 441 
Q 2288 441 2617 861 
Q 2947 1281 2994 2138 
Q 2813 1869 2534 1725 
Q 2256 1581 1919 1581 
Q 1219 1581 811 2004 
Q 403 2428 403 3163 
Q 403 3881 828 4315 
Q 1253 4750 1959 4750 
Q 2769 4750 3195 4129 
Q 3622 3509 3622 2328 
Q 3622 1225 3098 567 
Q 2575 -91 1691 -91 
Q 1453 -91 1209 -44 
Q 966 3 703 97 
z
M 1959 2075 
Q 2384 2075 2632 2365 
Q 2881 2656 2881 3163 
Q 2881 3666 2632 3958 
Q 2384 4250 1959 4250 
Q 1534 4250 1286 3958 
Q 1038 3666 1038 3163 
Q 1038 2656 1286 2365 
Q 1534 2075 1959 2075 
z
" id="DejaVuSans-39" transform="scale(0.015625)"/>
      </defs>
      <use xlink:href="#DejaVuSans-39"/>
     </g>
    </g>
   </g>
   <g id="text_6">
    <g clip-path="url(#pd44edbe649)">
     <!-- 6 -->
     <g transform="translate(708.112492 338.628959)scale(0.12 -0.12)">
      <defs>
       <path d="M 2113 2584 
Q 1688 2584 1439 2293 
Q 1191 2003 1191 1497 
Q 1191 994 1439 701 
Q 1688 409 2113 409 
Q 2538 409 2786 701 
Q 3034 994 3034 1497 
Q 3034 2003 2786 2293 
Q 2538 2584 2113 2584 
z
M 3366 4563 
L 3366 3988 
Q 3128 4100 2886 4159 
Q 2644 4219 2406 4219 
Q 1781 4219 1451 3797 
Q 1122 3375 1075 2522 
Q 1259 2794 1537 2939 
Q 1816 3084 2150 3084 
Q 2853 3084 3261 2657 
Q 3669 2231 3669 1497 
Q 3669 778 3244 343 
Q 2819 -91 2113 -91 
Q 1303 -91 875 529 
Q 447 1150 447 2328 
Q 447 3434 972 4092 
Q 1497 4750 2381 4750 
Q 2619 4750 2861 4703 
Q 3103 4656 3366 4563 
z
" id="DejaVuSans-36" transform="scale(0.015625)"/>
      </defs>
      <use xlink:href="#DejaVuSans-36"/>
     </g>
    </g>
   </g>
   <g id="text_7">
    <g clip-path="url(#pd44edbe649)">
     <!-- 8 -->
     <g transform="translate(679.352957 298.993891)scale(0.12 -0.12)">
      <defs>
       <path d="M 2034 2216 
Q 1584 2216 1326 1975 
Q 1069 1734 1069 1313 
Q 1069 891 1326 650 
Q 1584 409 2034 409 
Q 2484 409 2743 651 
Q 3003 894 3003 1313 
Q 3003 1734 2745 1975 
Q 2488 2216 2034 2216 
z
M 1403 2484 
Q 997 2584 770 2862 
Q 544 3141 544 3541 
Q 544 4100 942 4425 
Q 1341 4750 2034 4750 
Q 2731 4750 3128 4425 
Q 3525 4100 3525 3541 
Q 3525 3141 3298 2862 
Q 3072 2584 2669 2484 
Q 3125 2378 3379 2068 
Q 3634 1759 3634 1313 
Q 3634 634 3220 271 
Q 2806 -91 2034 -91 
Q 1263 -91 848 271 
Q 434 634 434 1313 
Q 434 1759 690 2068 
Q 947 2378 1403 2484 
z
M 1172 3481 
Q 1172 3119 1398 2916 
Q 1625 2713 2034 2713 
Q 2441 2713 2670 2916 
Q 2900 3119 2900 3481 
Q 2900 3844 2670 4047 
Q 2441 4250 2034 4250 
Q 1625 4250 1398 4047 
Q 1172 3844 1172 3481 
z
" id="DejaVuSans-38" transform="scale(0.015625)"/>
      </defs>
      <use xlink:href="#DejaVuSans-38"/>
     </g>
    </g>
   </g>
   <g id="text_8">
    <g clip-path="url(#pd44edbe649)">
     <!-- 4 -->
     <g transform="translate(504.145982 359.470214)scale(0.12 -0.12)">
      <defs>
       <path d="M 2419 4116 
L 825 1625 
L 2419 1625 
L 2419 4116 
z
M 2253 4666 
L 3047 4666 
L 3047 1625 
L 3713 1625 
L 3713 1100 
L 3047 1100 
L 3047 0 
L 2419 0 
L 2419 1100 
L 313 1100 
L 313 1709 
L 2253 4666 
z
" id="DejaVuSans-34" transform="scale(0.015625)"/>
      </defs>
      <use xlink:href="#DejaVuSans-34"/>
     </g>
    </g>
   </g>
   <g id="text_9">
    <g clip-path="url(#pd44edbe649)">
     <!-- 5 -->
     <g transform="translate(531.46931 290.151018)scale(0.12 -0.12)">
      <defs>
       <path d="M 691 4666 
L 3169 4666 
L 3169 4134 
L 1269 4134 
L 1269 2991 
Q 1406 3038 1543 3061 
Q 1681 3084 1819 3084 
Q 2600 3084 3056 2656 
Q 3513 2228 3513 1497 
Q 3513 744 3044 326 
Q 2575 -91 1722 -91 
Q 1428 -91 1123 -41 
Q 819 9 494 109 
L 494 744 
Q 775 591 1075 516 
Q 1375 441 1709 441 
Q 2250 441 2565 725 
Q 2881 1009 2881 1497 
Q 2881 1984 2565 2268 
Q 2250 2553 1709 2553 
Q 1456 2553 1204 2497 
Q 953 2441 691 2322 
L 691 4666 
z
" id="DejaVuSans-35" transform="scale(0.015625)"/>
      </defs>
      <use xlink:href="#DejaVuSans-35"/>
     </g>
    </g>
   </g>
   <g id="text_10">
    <g clip-path="url(#pd44edbe649)">
     <!-- 7 -->
     <g transform="translate(512.601205 404.178481)scale(0.12 -0.12)">
      <defs>
       <path d="M 525 4666 
L 3525 4666 
L 3525 4397 
L 1831 0 
L 1172 0 
L 2766 4134 
L 525 4134 
L 525 4666 
z
" id="DejaVuSans-37" transform="scale(0.015625)"/>
      </defs>
      <use xlink:href="#DejaVuSans-37"/>
     </g>
    </g>
   </g>
   <g id="text_11">
    <g clip-path="url(#pd44edbe649)">
     <!-- 2 -->
     <g transform="translate(683.80237 387.362611)scale(0.12 -0.12)">
      <defs>
       <path d="M 1228 531 
L 3431 531 
L 3431 0 
L 469 0 
L 469 531 
Q 828 903 1448 1529 
Q 2069 2156 2228 2338 
Q 2531 2678 2651 2914 
Q 2772 3150 2772 3378 
Q 2772 3750 2511 3984 
Q 2250 4219 1831 4219 
Q 1534 4219 1204 4116 
Q 875 4013 500 3803 
L 500 4441 
Q 881 4594 1212 4672 
Q 1544 4750 1819 4750 
Q 2544 4750 2975 4387 
Q 3406 4025 3406 3419 
Q 3406 3131 3298 2873 
Q 3191 2616 2906 2266 
Q 2828 2175 2409 1742 
Q 1991 1309 1228 531 
z
" id="DejaVuSans-32" transform="scale(0.015625)"/>
      </defs>
      <use xlink:href="#DejaVuSans-32"/>
     </g>
    </g>
   </g>
   <g id="text_12">
    <g clip-path="url(#pd44edbe649)">
     <!-- 11 -->
     <g transform="translate(725.982498 618.556725)scale(0.12 -0.12)">
      <use xlink:href="#DejaVuSans-31"/>
      <use x="63.623047" xlink:href="#DejaVuSans-31"/>
     </g>
    </g>
   </g>
   <g id="text_13">
    <g clip-path="url(#pd44edbe649)">
     <!-- 12 -->
     <g transform="translate(587.644245 523.465258)scale(0.12 -0.12)">
      <use xlink:href="#DejaVuSans-31"/>
      <use x="63.623047" xlink:href="#DejaVuSans-32"/>
     </g>
    </g>
   </g>
   <g id="text_14">
    <g clip-path="url(#pd44edbe649)">
     <!-- 13 -->
     <g transform="translate(806.127193 751.714004)scale(0.12 -0.12)">
      <use xlink:href="#DejaVuSans-31"/>
      <use x="63.623047" xlink:href="#DejaVuSans-33"/>
     </g>
    </g>
   </g>
   <g id="text_15">
    <g clip-path="url(#pd44edbe649)">
     <!-- 14 -->
     <g transform="translate(883.451313 883.455806)scale(0.12 -0.12)">
      <use xlink:href="#DejaVuSans-31"/>
      <use x="63.623047" xlink:href="#DejaVuSans-34"/>
     </g>
    </g>
   </g>
   <g id="text_16">
    <g clip-path="url(#pd44edbe649)">
     <!-- 16 -->
     <g transform="translate(873.609994 963.371023)scale(0.12 -0.12)">
      <use xlink:href="#DejaVuSans-31"/>
      <use x="63.623047" xlink:href="#DejaVuSans-36"/>
     </g>
    </g>
   </g>
   <g id="text_17">
    <g clip-path="url(#pd44edbe649)">
     <!-- 15 -->
     <g transform="translate(997.753193 964.417623)scale(0.12 -0.12)">
      <use xlink:href="#DejaVuSans-31"/>
      <use x="63.623047" xlink:href="#DejaVuSans-35"/>
     </g>
    </g>
   </g>
   <g id="text_18">
    <g clip-path="url(#pd44edbe649)">
     <!-- 17 -->
     <g transform="translate(1101.446194 1024.110563)scale(0.12 -0.12)">
      <use xlink:href="#DejaVuSans-31"/>
      <use x="63.623047" xlink:href="#DejaVuSans-37"/>
     </g>
    </g>
   </g>
   <g id="text_19">
    <g clip-path="url(#pd44edbe649)">
     <!-- 19 -->
     <g transform="translate(1043.242173 1001.515238)scale(0.12 -0.12)">
      <use xlink:href="#DejaVuSans-31"/>
      <use x="63.623047" xlink:href="#DejaVuSans-39"/>
     </g>
    </g>
   </g>
   <g id="text_20">
    <g clip-path="url(#pd44edbe649)">
     <!-- 18 -->
     <g transform="translate(1191.522025 1071.849726)scale(0.12 -0.12)">
      <use xlink:href="#DejaVuSans-31"/>
      <use x="63.623047" xlink:href="#DejaVuSans-38"/>
     </g>
    </g>
   </g>
   <g id="text_21">
    <g clip-path="url(#pd44edbe649)">
     <!-- 20 -->
     <g transform="translate(927.031202 953.099475)scale(0.12 -0.12)">
      <use xlink:href="#DejaVuSans-32"/>
      <use x="63.623047" xlink:href="#DejaVuSans-30"/>
     </g>
    </g>
   </g>
   <g id="text_22">
    <g clip-path="url(#pd44edbe649)">
     <!-- 21 -->
     <g transform="translate(805.470565 952.609531)scale(0.12 -0.12)">
      <use xlink:href="#DejaVuSans-32"/>
      <use x="63.623047" xlink:href="#DejaVuSans-31"/>
     </g>
    </g>
   </g>
   <g id="text_23">
    <g clip-path="url(#pd44edbe649)">
     <!-- 22 -->
     <g transform="translate(1021.487149 911.146813)scale(0.12 -0.12)">
      <use xlink:href="#DejaVuSans-32"/>
      <use x="63.623047" xlink:href="#DejaVuSans-32"/>
     </g>
    </g>
   </g>
   <g id="text_24">
    <g clip-path="url(#pd44edbe649)">
     <!-- 23 -->
     <g transform="translate(649.079402 957.045981)scale(0.12 -0.12)">
      <use xlink:href="#DejaVuSans-32"/>
      <use x="63.623047" xlink:href="#DejaVuSans-33"/>
     </g>
    </g>
   </g>
   <g id="text_25">
    <g clip-path="url(#pd44edbe649)">
     <!-- 24 -->
     <g transform="translate(502.402805 971.744831)scale(0.12 -0.12)">
      <use xlink:href="#DejaVuSans-32"/>
      <use x="63.623047" xlink:href="#DejaVuSans-34"/>
     </g>
    </g>
   </g>
   <g id="text_26">
    <g clip-path="url(#pd44edbe649)">
     <!-- 25 -->
     <g transform="translate(375.604399 1008.940757)scale(0.12 -0.12)">
      <use xlink:href="#DejaVuSans-32"/>
      <use x="63.623047" xlink:href="#DejaVuSans-35"/>
     </g>
    </g>
   </g>
   <g id="text_27">
    <g clip-path="url(#pd44edbe649)">
     <!-- 27 -->
     <g transform="translate(269.207975 1017.276169)scale(0.12 -0.12)">
      <use xlink:href="#DejaVuSans-32"/>
      <use x="63.623047" xlink:href="#DejaVuSans-37"/>
     </g>
    </g>
   </g>
   <g id="text_28">
    <g clip-path="url(#pd44edbe649)">
     <!-- 26 -->
     <g transform="translate(395.742868 1074.319254)scale(0.12 -0.12)">
      <use xlink:href="#DejaVuSans-32"/>
      <use x="63.623047" xlink:href="#DejaVuSans-36"/>
     </g>
    </g>
   </g>
   <g id="text_29">
    <g clip-path="url(#pd44edbe649)">
     <!-- 28 -->
     <g transform="translate(479.290171 1111.644882)scale(0.12 -0.12)">
      <use xlink:href="#DejaVuSans-32"/>
      <use x="63.623047" xlink:href="#DejaVuSans-38"/>
     </g>
    </g>
   </g>
   <g id="text_30">
    <g clip-path="url(#pd44edbe649)">
     <!-- 29 -->
     <g transform="translate(566.713975 1089.521612)scale(0.12 -0.12)">
      <use xlink:href="#DejaVuSans-32"/>
      <use x="63.623047" xlink:href="#DejaVuSans-39"/>
     </g>
    </g>
   </g>
   <g id="text_31">
    <g clip-path="url(#pd44edbe649)">
     <!-- 30 -->
     <g transform="translate(442.972516 1188.693068)scale(0.12 -0.12)">
      <use xlink:href="#DejaVuSans-33"/>
      <use x="63.623047" xlink:href="#DejaVuSans-30"/>
     </g>
    </g>
   </g>
  </g>
 </g>
 <defs>
  <clipPath id="pd44edbe649">
   <rect height="1108.8" width="1116" x="180" y="172.8"/>
  </clipPath>
 </defs>
</svg>
