<?xml version="1.0" encoding="utf-8" standalone="no"?>
<!DOCTYPE svg PUBLIC "-//W3C//DTD SVG 1.1//EN"
  "http://www.w3.org/Graphics/SVG/1.1/DTD/svg11.dtd">
<svg height="1440pt" version="1.1" viewBox="0 0 1440 1440" width="1440pt" xmlns="http://www.w3.org/2000/svg" xmlns:xlink="http://www.w3.org/1999/xlink">
 <metadata>
  <rdf:RDF xmlns:cc="http://creativecommons.org/ns#" xmlns:dc="http://purl.org/dc/elements/1.1/" xmlns:rdf="http://www.w3.org/1999/02/22-rdf-syntax-ns#">
   <cc:Work>
    <dc:type rdf:resource="http://purl.org/dc/dcmitype/StillImage"/>
    <dc:date>2021-10-17T05:26:54.294772</dc:date>
    <dc:format>image/svg+xml</dc:format>
    <dc:creator>
     <cc:Agent>
      <dc:title>Matplotlib v3.4.3, https://matplotlib.org/</dc:title>
     </cc:Agent>
    </dc:creator>
   </cc:Work>
  </rdf:RDF>
 </metadata>
 <defs>
  <style type="text/css">*{stroke-linecap:butt;stroke-linejoin:round;}</style>
 </defs>
 <g id="figure_1">
  <g id="patch_1">
   <path d="M 0 1440 
L 1440 1440 
L 1440 0 
L 0 0 
z
" style="fill:#ffffff;"/>
  </g>
  <g id="axes_1">
   <g id="patch_2">
    <path clip-path="url(#p202454013d)" d="M 1008.730277 459.50819 
Q 1041.854997 419.030969 1073.563576 380.284222 
" style="fill:none;stroke:#ff0000;stroke-linecap:round;stroke-width:2;"/>
    <path clip-path="url(#p202454013d)" d="M 1069.482521 382.113153 
L 1073.563576 380.284222 
L 1072.578088 384.646425 
L 1069.482521 382.113153 
z
" style="fill:#ff0000;stroke:#ff0000;stroke-linecap:round;stroke-width:2;"/>
   </g>
   <g id="patch_3">
    <path clip-path="url(#p202454013d)" d="M 997.691625 472.855154 
Q 951.147944 528.541189 905.321271 583.369378 
" style="fill:none;stroke:#000000;stroke-linecap:round;"/>
    <path clip-path="url(#p202454013d)" d="M 909.421078 581.582877 
L 905.321271 583.369378 
L 906.351954 579.017632 
L 909.421078 581.582877 
z
" style="stroke:#000000;stroke-linecap:round;"/>
   </g>
   <g id="patch_4">
    <path clip-path="url(#p202454013d)" d="M 1088.88518 369.83195 
Q 1139.809517 357.612305 1189.646682 345.653535 
" style="fill:none;stroke:#000000;stroke-linecap:round;"/>
    <path clip-path="url(#p202454013d)" d="M 1185.290428 344.642074 
L 1189.646682 345.653535 
L 1186.223762 348.531662 
L 1185.290428 344.642074 
z
" style="stroke:#000000;stroke-linecap:round;"/>
   </g>
   <g id="patch_5">
    <path clip-path="url(#p202454013d)" d="M 1088.17242 375.799943 
Q 1128.179975 396.284666 1167.192362 416.259842 
" style="fill:none;stroke:#000000;stroke-linecap:round;"/>
    <path clip-path="url(#p202454013d)" d="M 1164.543444 412.656616 
L 1167.192362 416.259842 
L 1162.720431 416.217041 
L 1164.543444 412.656616 
z
" style="stroke:#000000;stroke-linecap:round;"/>
   </g>
   <g id="patch_6">
    <path clip-path="url(#p202454013d)" d="M 1085.736854 364.979028 
Q 1115.204014 326.569062 1143.990643 289.046157 
" style="fill:none;stroke:#000000;stroke-linecap:round;"/>
    <path clip-path="url(#p202454013d)" d="M 1139.969078 291.002433 
L 1143.990643 289.046157 
L 1143.142725 293.437174 
L 1139.969078 291.002433 
z
" style="stroke:#000000;stroke-linecap:round;"/>
   </g>
   <g id="patch_7">
    <path clip-path="url(#p202454013d)" d="M 1072.900107 367.629543 
Q 1034.98743 346.459752 998.050916 325.835034 
" style="fill:none;stroke:#000000;stroke-linecap:round;"/>
    <path clip-path="url(#p202454013d)" d="M 1000.568288 329.531361 
L 998.050916 325.835034 
L 1002.518401 326.038932 
L 1000.568288 329.531361 
z
" style="stroke:#000000;stroke-linecap:round;"/>
   </g>
   <g id="patch_8">
    <path clip-path="url(#p202454013d)" d="M 1078.966524 363.319859 
Q 1071.44324 320.435446 1064.113143 278.65225 
" style="fill:none;stroke:#000000;stroke-linecap:round;"/>
    <path clip-path="url(#p202454013d)" d="M 1062.834398 282.937668 
L 1064.113143 278.65225 
L 1066.774231 282.246497 
L 1062.834398 282.937668 
z
" style="stroke:#000000;stroke-linecap:round;"/>
   </g>
   <g id="patch_9">
    <path clip-path="url(#p202454013d)" d="M 893.548356 597.565951 
Q 847.976847 653.009575 803.115264 707.589483 
" style="fill:none;stroke:#000000;stroke-linecap:round;"/>
    <path clip-path="url(#p202454013d)" d="M 807.200234 705.769312 
L 803.115264 707.589483 
L 804.110109 703.229405 
L 807.200234 705.769312 
z
" style="stroke:#000000;stroke-linecap:round;"/>
   </g>
   <g id="patch_10">
    <path clip-path="url(#p202454013d)" d="M 789.929921 720.276525 
Q 747.879174 751.212136 707.629591 780.822679 
" style="fill:none;stroke:#ff0000;stroke-linecap:round;stroke-width:2;"/>
    <path clip-path="url(#p202454013d)" d="M 712.03679 780.063335 
L 707.629591 780.822679 
L 709.666435 776.841314 
L 712.03679 780.063335 
z
" style="fill:#ff0000;stroke:#ff0000;stroke-linecap:round;stroke-width:2;"/>
   </g>
   <g id="patch_11">
    <path clip-path="url(#p202454013d)" d="M 804.183461 719.833009 
Q 836.403841 740.584357 867.684263 760.73033 
" style="fill:none;stroke:#000000;stroke-linecap:round;"/>
    <path clip-path="url(#p202454013d)" d="M 865.404293 756.883028 
L 867.684263 760.73033 
L 863.238439 760.245924 
L 865.404293 756.883028 
z
" style="stroke:#000000;stroke-linecap:round;"/>
   </g>
   <g id="patch_12">
    <path clip-path="url(#p202454013d)" d="M 694.104948 794.520945 
Q 669.162595 832.554085 645.446495 868.717384 
" style="fill:none;stroke:#ff0000;stroke-linecap:round;stroke-width:2;"/>
    <path clip-path="url(#p202454013d)" d="M 649.312519 866.469305 
L 645.446495 868.717384 
L 645.967646 864.275718 
L 649.312519 866.469305 
z
" style="fill:#ff0000;stroke:#ff0000;stroke-linecap:round;stroke-width:2;"/>
   </g>
   <g id="patch_13">
    <path clip-path="url(#p202454013d)" d="M 690.846062 783.974936 
Q 651.431049 767.719419 613.049619 751.890173 
" style="fill:none;stroke:#000000;stroke-linecap:round;"/>
    <path clip-path="url(#p202454013d)" d="M 615.984944 755.264171 
L 613.049619 751.890173 
L 617.510013 751.566312 
L 615.984944 755.264171 
z
" style="stroke:#000000;stroke-linecap:round;"/>
   </g>
   <g id="patch_14">
    <path clip-path="url(#p202454013d)" d="M 634.655925 885.029401 
Q 611.707384 919.345891 590.001847 951.803634 
" style="fill:none;stroke:#ff0000;stroke-linecap:round;stroke-width:2;"/>
    <path clip-path="url(#p202454013d)" d="M 593.887914 949.590382 
L 590.001847 951.803634 
L 590.562886 947.366829 
L 593.887914 949.590382 
z
" style="fill:#ff0000;stroke:#ff0000;stroke-linecap:round;stroke-width:2;"/>
   </g>
   <g id="patch_15">
    <path clip-path="url(#p202454013d)" d="M 578.886701 967.893421 
Q 547.06761 1012.131174 515.901358 1055.461292 
" style="fill:none;stroke:#000000;stroke-linecap:round;"/>
    <path clip-path="url(#p202454013d)" d="M 519.860653 1053.381872 
L 515.901358 1055.461292 
L 516.613399 1051.046205 
L 519.860653 1053.381872 
z
" style="stroke:#000000;stroke-linecap:round;"/>
   </g>
   <g id="patch_16">
    <path clip-path="url(#p202454013d)" d="M 504.160296 1069.615603 
Q 470.275741 1104.534583 437.169781 1138.651199 
" style="fill:none;stroke:#000000;stroke-linecap:round;"/>
    <path clip-path="url(#p202454013d)" d="M 441.390683 1137.173367 
L 437.169781 1138.651199 
L 438.520056 1134.387779 
L 441.390683 1137.173367 
z
" style="stroke:#000000;stroke-linecap:round;"/>
   </g>
   <g id="patch_17">
    <path clip-path="url(#p202454013d)" d="M 422.366949 1148.991142 
Q 382.608219 1165.523424 343.881832 1181.626441 
" style="fill:none;stroke:#000000;stroke-linecap:round;"/>
    <path clip-path="url(#p202454013d)" d="M 348.343145 1181.937372 
L 343.881832 1181.626441 
L 346.807364 1178.243948 
L 348.343145 1181.937372 
z
" style="stroke:#000000;stroke-linecap:round;"/>
   </g>
   <g id="patch_18">
    <path clip-path="url(#p202454013d)" d="M 328.566088 1179.417574 
Q 305.844097 1157.853081 283.933061 1137.058232 
" style="fill:none;stroke:#000000;stroke-linecap:round;"/>
    <path clip-path="url(#p202454013d)" d="M 285.457642 1141.262474 
L 283.933061 1137.058232 
L 288.211203 1138.361112 
L 285.457642 1141.262474 
z
" style="stroke:#000000;stroke-linecap:round;"/>
   </g>
   <g id="PathCollection_1">
    <defs>
     <path d="M 0 8.660254 
C 2.296726 8.660254 4.499694 7.747755 6.123724 6.123724 
C 7.747755 4.499694 8.660254 2.296726 8.660254 0 
C 8.660254 -2.296726 7.747755 -4.499694 6.123724 -6.123724 
C 4.499694 -7.747755 2.296726 -8.660254 0 -8.660254 
C -2.296726 -8.660254 -4.499694 -7.747755 -6.123724 -6.123724 
C -7.747755 -4.499694 -8.660254 -2.296726 -8.660254 0 
C -8.660254 2.296726 -7.747755 4.499694 -6.123724 6.123724 
C -4.499694 7.747755 -2.296726 8.660254 0 8.660254 
z
" id="mfc4a45cbcf" style="stroke:#1f78b4;"/>
    </defs>
    <g clip-path="url(#p202454013d)">
     <use style="fill:#1f78b4;stroke:#1f78b4;" x="1003.246779" xlink:href="#mfc4a45cbcf" y="466.208827"/>
     <use style="fill:#1f78b4;stroke:#1f78b4;" x="1080.463472" xlink:href="#mfc4a45cbcf" y="371.852797"/>
     <use style="fill:#1f78b4;stroke:#1f78b4;" x="1199.157025" xlink:href="#mfc4a45cbcf" y="343.371463"/>
     <use style="fill:#1f78b4;stroke:#1f78b4;" x="1175.894831" xlink:href="#mfc4a45cbcf" y="420.715692"/>
     <use style="fill:#1f78b4;stroke:#1f78b4;" x="1149.944049" xlink:href="#mfc4a45cbcf" y="281.285989"/>
     <use style="fill:#1f78b4;stroke:#1f78b4;" x="989.514356" xlink:href="#mfc4a45cbcf" y="321.068365"/>
     <use style="fill:#1f78b4;stroke:#1f78b4;" x="1062.423023" xlink:href="#mfc4a45cbcf" y="269.018182"/>
     <use style="fill:#1f78b4;stroke:#1f78b4;" x="899.050269" xlink:href="#mfc4a45cbcf" y="590.872164"/>
     <use style="fill:#1f78b4;stroke:#1f78b4;" x="796.904846" xlink:href="#mfc4a45cbcf" y="715.145259"/>
     <use style="fill:#1f78b4;stroke:#1f78b4;" x="698.854943" xlink:href="#mfc4a45cbcf" y="787.277954"/>
     <use style="fill:#1f78b4;stroke:#1f78b4;" x="875.906392" xlink:href="#mfc4a45cbcf" y="766.025745"/>
     <use style="fill:#1f78b4;stroke:#1f78b4;" x="639.470033" xlink:href="#mfc4a45cbcf" y="877.830543"/>
     <use style="fill:#1f78b4;stroke:#1f78b4;" x="604.010338" xlink:href="#mfc4a45cbcf" y="748.162198"/>
     <use style="fill:#1f78b4;stroke:#1f78b4;" x="583.944269" xlink:href="#mfc4a45cbcf" y="960.861936"/>
     <use style="fill:#1f78b4;stroke:#1f78b4;" x="510.189751" xlink:href="#mfc4a45cbcf" y="1063.402082"/>
     <use style="fill:#1f78b4;stroke:#1f78b4;" x="430.36221" xlink:href="#mfc4a45cbcf" y="1145.666592"/>
     <use style="fill:#1f78b4;stroke:#1f78b4;" x="334.850469" xlink:href="#mfc4a45cbcf" y="1185.381818"/>
     <use style="fill:#1f78b4;stroke:#1f78b4;" x="276.842975" xlink:href="#mfc4a45cbcf" y="1130.329328"/>
    </g>
   </g>
   <g id="text_1">
    <g clip-path="url(#p202454013d)">
     <!-- 1 -->
     <g transform="translate(999.429279 469.520077)scale(0.12 -0.12)">
      <defs>
       <path d="M 794 531 
L 1825 531 
L 1825 4091 
L 703 3866 
L 703 4441 
L 1819 4666 
L 2450 4666 
L 2450 531 
L 3481 531 
L 3481 0 
L 794 0 
L 794 531 
z
" id="DejaVuSans-31" transform="scale(0.015625)"/>
      </defs>
      <use xlink:href="#DejaVuSans-31"/>
     </g>
    </g>
   </g>
   <g id="text_2">
    <g clip-path="url(#p202454013d)">
     <!-- 0 -->
     <g transform="translate(1076.645972 375.164047)scale(0.12 -0.12)">
      <defs>
       <path d="M 2034 4250 
Q 1547 4250 1301 3770 
Q 1056 3291 1056 2328 
Q 1056 1369 1301 889 
Q 1547 409 2034 409 
Q 2525 409 2770 889 
Q 3016 1369 3016 2328 
Q 3016 3291 2770 3770 
Q 2525 4250 2034 4250 
z
M 2034 4750 
Q 2819 4750 3233 4129 
Q 3647 3509 3647 2328 
Q 3647 1150 3233 529 
Q 2819 -91 2034 -91 
Q 1250 -91 836 529 
Q 422 1150 422 2328 
Q 422 3509 836 4129 
Q 1250 4750 2034 4750 
z
" id="DejaVuSans-30" transform="scale(0.015625)"/>
      </defs>
      <use xlink:href="#DejaVuSans-30"/>
     </g>
    </g>
   </g>
   <g id="text_3">
    <g clip-path="url(#p202454013d)">
     <!-- 4 -->
     <g transform="translate(1195.339525 346.682713)scale(0.12 -0.12)">
      <defs>
       <path d="M 2419 4116 
L 825 1625 
L 2419 1625 
L 2419 4116 
z
M 2253 4666 
L 3047 4666 
L 3047 1625 
L 3713 1625 
L 3713 1100 
L 3047 1100 
L 3047 0 
L 2419 0 
L 2419 1100 
L 313 1100 
L 313 1709 
L 2253 4666 
z
" id="DejaVuSans-34" transform="scale(0.015625)"/>
      </defs>
      <use xlink:href="#DejaVuSans-34"/>
     </g>
    </g>
   </g>
   <g id="text_4">
    <g clip-path="url(#p202454013d)">
     <!-- 3 -->
     <g transform="translate(1172.077331 424.026942)scale(0.12 -0.12)">
      <defs>
       <path d="M 2597 2516 
Q 3050 2419 3304 2112 
Q 3559 1806 3559 1356 
Q 3559 666 3084 287 
Q 2609 -91 1734 -91 
Q 1441 -91 1130 -33 
Q 819 25 488 141 
L 488 750 
Q 750 597 1062 519 
Q 1375 441 1716 441 
Q 2309 441 2620 675 
Q 2931 909 2931 1356 
Q 2931 1769 2642 2001 
Q 2353 2234 1838 2234 
L 1294 2234 
L 1294 2753 
L 1863 2753 
Q 2328 2753 2575 2939 
Q 2822 3125 2822 3475 
Q 2822 3834 2567 4026 
Q 2313 4219 1838 4219 
Q 1578 4219 1281 4162 
Q 984 4106 628 3988 
L 628 4550 
Q 988 4650 1302 4700 
Q 1616 4750 1894 4750 
Q 2613 4750 3031 4423 
Q 3450 4097 3450 3541 
Q 3450 3153 3228 2886 
Q 3006 2619 2597 2516 
z
" id="DejaVuSans-33" transform="scale(0.015625)"/>
      </defs>
      <use xlink:href="#DejaVuSans-33"/>
     </g>
    </g>
   </g>
   <g id="text_5">
    <g clip-path="url(#p202454013d)">
     <!-- 6 -->
     <g transform="translate(1146.126549 284.597239)scale(0.12 -0.12)">
      <defs>
       <path d="M 2113 2584 
Q 1688 2584 1439 2293 
Q 1191 2003 1191 1497 
Q 1191 994 1439 701 
Q 1688 409 2113 409 
Q 2538 409 2786 701 
Q 3034 994 3034 1497 
Q 3034 2003 2786 2293 
Q 2538 2584 2113 2584 
z
M 3366 4563 
L 3366 3988 
Q 3128 4100 2886 4159 
Q 2644 4219 2406 4219 
Q 1781 4219 1451 3797 
Q 1122 3375 1075 2522 
Q 1259 2794 1537 2939 
Q 1816 3084 2150 3084 
Q 2853 3084 3261 2657 
Q 3669 2231 3669 1497 
Q 3669 778 3244 343 
Q 2819 -91 2113 -91 
Q 1303 -91 875 529 
Q 447 1150 447 2328 
Q 447 3434 972 4092 
Q 1497 4750 2381 4750 
Q 2619 4750 2861 4703 
Q 3103 4656 3366 4563 
z
" id="DejaVuSans-36" transform="scale(0.015625)"/>
      </defs>
      <use xlink:href="#DejaVuSans-36"/>
     </g>
    </g>
   </g>
   <g id="text_6">
    <g clip-path="url(#p202454013d)">
     <!-- 5 -->
     <g transform="translate(985.696856 324.379615)scale(0.12 -0.12)">
      <defs>
       <path d="M 691 4666 
L 3169 4666 
L 3169 4134 
L 1269 4134 
L 1269 2991 
Q 1406 3038 1543 3061 
Q 1681 3084 1819 3084 
Q 2600 3084 3056 2656 
Q 3513 2228 3513 1497 
Q 3513 744 3044 326 
Q 2575 -91 1722 -91 
Q 1428 -91 1123 -41 
Q 819 9 494 109 
L 494 744 
Q 775 591 1075 516 
Q 1375 441 1709 441 
Q 2250 441 2565 725 
Q 2881 1009 2881 1497 
Q 2881 1984 2565 2268 
Q 2250 2553 1709 2553 
Q 1456 2553 1204 2497 
Q 953 2441 691 2322 
L 691 4666 
z
" id="DejaVuSans-35" transform="scale(0.015625)"/>
      </defs>
      <use xlink:href="#DejaVuSans-35"/>
     </g>
    </g>
   </g>
   <g id="text_7">
    <g clip-path="url(#p202454013d)">
     <!-- 2 -->
     <g transform="translate(1058.605523 272.329432)scale(0.12 -0.12)">
      <defs>
       <path d="M 1228 531 
L 3431 531 
L 3431 0 
L 469 0 
L 469 531 
Q 828 903 1448 1529 
Q 2069 2156 2228 2338 
Q 2531 2678 2651 2914 
Q 2772 3150 2772 3378 
Q 2772 3750 2511 3984 
Q 2250 4219 1831 4219 
Q 1534 4219 1204 4116 
Q 875 4013 500 3803 
L 500 4441 
Q 881 4594 1212 4672 
Q 1544 4750 1819 4750 
Q 2544 4750 2975 4387 
Q 3406 4025 3406 3419 
Q 3406 3131 3298 2873 
Q 3191 2616 2906 2266 
Q 2828 2175 2409 1742 
Q 1991 1309 1228 531 
z
" id="DejaVuSans-32" transform="scale(0.015625)"/>
      </defs>
      <use xlink:href="#DejaVuSans-32"/>
     </g>
    </g>
   </g>
   <g id="text_8">
    <g clip-path="url(#p202454013d)">
     <!-- 7 -->
     <g transform="translate(895.232769 594.183414)scale(0.12 -0.12)">
      <defs>
       <path d="M 525 4666 
L 3525 4666 
L 3525 4397 
L 1831 0 
L 1172 0 
L 2766 4134 
L 525 4134 
L 525 4666 
z
" id="DejaVuSans-37" transform="scale(0.015625)"/>
      </defs>
      <use xlink:href="#DejaVuSans-37"/>
     </g>
    </g>
   </g>
   <g id="text_9">
    <g clip-path="url(#p202454013d)">
     <!-- 8 -->
     <g transform="translate(793.087346 718.456509)scale(0.12 -0.12)">
      <defs>
       <path d="M 2034 2216 
Q 1584 2216 1326 1975 
Q 1069 1734 1069 1313 
Q 1069 891 1326 650 
Q 1584 409 2034 409 
Q 2484 409 2743 651 
Q 3003 894 3003 1313 
Q 3003 1734 2745 1975 
Q 2488 2216 2034 2216 
z
M 1403 2484 
Q 997 2584 770 2862 
Q 544 3141 544 3541 
Q 544 4100 942 4425 
Q 1341 4750 2034 4750 
Q 2731 4750 3128 4425 
Q 3525 4100 3525 3541 
Q 3525 3141 3298 2862 
Q 3072 2584 2669 2484 
Q 3125 2378 3379 2068 
Q 3634 1759 3634 1313 
Q 3634 634 3220 271 
Q 2806 -91 2034 -91 
Q 1263 -91 848 271 
Q 434 634 434 1313 
Q 434 1759 690 2068 
Q 947 2378 1403 2484 
z
M 1172 3481 
Q 1172 3119 1398 2916 
Q 1625 2713 2034 2713 
Q 2441 2713 2670 2916 
Q 2900 3119 2900 3481 
Q 2900 3844 2670 4047 
Q 2441 4250 2034 4250 
Q 1625 4250 1398 4047 
Q 1172 3844 1172 3481 
z
" id="DejaVuSans-38" transform="scale(0.015625)"/>
      </defs>
      <use xlink:href="#DejaVuSans-38"/>
     </g>
    </g>
   </g>
   <g id="text_10">
    <g clip-path="url(#p202454013d)">
     <!-- 9 -->
     <g transform="translate(695.037443 790.589204)scale(0.12 -0.12)">
      <defs>
       <path d="M 703 97 
L 703 672 
Q 941 559 1184 500 
Q 1428 441 1663 441 
Q 2288 441 2617 861 
Q 2947 1281 2994 2138 
Q 2813 1869 2534 1725 
Q 2256 1581 1919 1581 
Q 1219 1581 811 2004 
Q 403 2428 403 3163 
Q 403 3881 828 4315 
Q 1253 4750 1959 4750 
Q 2769 4750 3195 4129 
Q 3622 3509 3622 2328 
Q 3622 1225 3098 567 
Q 2575 -91 1691 -91 
Q 1453 -91 1209 -44 
Q 966 3 703 97 
z
M 1959 2075 
Q 2384 2075 2632 2365 
Q 2881 2656 2881 3163 
Q 2881 3666 2632 3958 
Q 2384 4250 1959 4250 
Q 1534 4250 1286 3958 
Q 1038 3666 1038 3163 
Q 1038 2656 1286 2365 
Q 1534 2075 1959 2075 
z
" id="DejaVuSans-39" transform="scale(0.015625)"/>
      </defs>
      <use xlink:href="#DejaVuSans-39"/>
     </g>
    </g>
   </g>
   <g id="text_11">
    <g clip-path="url(#p202454013d)">
     <!-- 10 -->
     <g transform="translate(868.271392 769.336995)scale(0.12 -0.12)">
      <use xlink:href="#DejaVuSans-31"/>
      <use x="63.623047" xlink:href="#DejaVuSans-30"/>
     </g>
    </g>
   </g>
   <g id="text_12">
    <g clip-path="url(#p202454013d)">
     <!-- 11 -->
     <g transform="translate(631.835033 881.141793)scale(0.12 -0.12)">
      <use xlink:href="#DejaVuSans-31"/>
      <use x="63.623047" xlink:href="#DejaVuSans-31"/>
     </g>
    </g>
   </g>
   <g id="text_13">
    <g clip-path="url(#p202454013d)">
     <!-- 12 -->
     <g transform="translate(596.375338 751.473448)scale(0.12 -0.12)">
      <use xlink:href="#DejaVuSans-31"/>
      <use x="63.623047" xlink:href="#DejaVuSans-32"/>
     </g>
    </g>
   </g>
   <g id="text_14">
    <g clip-path="url(#p202454013d)">
     <!-- 13 -->
     <g transform="translate(576.309269 964.173186)scale(0.12 -0.12)">
      <use xlink:href="#DejaVuSans-31"/>
      <use x="63.623047" xlink:href="#DejaVuSans-33"/>
     </g>
    </g>
   </g>
   <g id="text_15">
    <g clip-path="url(#p202454013d)">
     <!-- 14 -->
     <g transform="translate(502.554751 1066.713332)scale(0.12 -0.12)">
      <use xlink:href="#DejaVuSans-31"/>
      <use x="63.623047" xlink:href="#DejaVuSans-34"/>
     </g>
    </g>
   </g>
   <g id="text_16">
    <g clip-path="url(#p202454013d)">
     <!-- 15 -->
     <g transform="translate(422.72721 1148.977842)scale(0.12 -0.12)">
      <use xlink:href="#DejaVuSans-31"/>
      <use x="63.623047" xlink:href="#DejaVuSans-35"/>
     </g>
    </g>
   </g>
   <g id="text_17">
    <g clip-path="url(#p202454013d)">
     <!-- 16 -->
     <g transform="translate(327.215469 1188.693068)scale(0.12 -0.12)">
      <use xlink:href="#DejaVuSans-31"/>
      <use x="63.623047" xlink:href="#DejaVuSans-36"/>
     </g>
    </g>
   </g>
   <g id="text_18">
    <g clip-path="url(#p202454013d)">
     <!-- 17 -->
     <g transform="translate(269.207975 1133.640578)scale(0.12 -0.12)">
      <use xlink:href="#DejaVuSans-31"/>
      <use x="63.623047" xlink:href="#DejaVuSans-37"/>
     </g>
    </g>
   </g>
  </g>
 </g>
 <defs>
  <clipPath id="p202454013d">
   <rect height="1108.8" width="1116" x="180" y="172.8"/>
  </clipPath>
 </defs>
</svg>
