<?xml version="1.0" encoding="utf-8" standalone="no"?>
<!DOCTYPE svg PUBLIC "-//W3C//DTD SVG 1.1//EN"
  "http://www.w3.org/Graphics/SVG/1.1/DTD/svg11.dtd">
<svg height="1440pt" version="1.1" viewBox="0 0 1440 1440" width="1440pt" xmlns="http://www.w3.org/2000/svg" xmlns:xlink="http://www.w3.org/1999/xlink">
 <metadata>
  <rdf:RDF xmlns:cc="http://creativecommons.org/ns#" xmlns:dc="http://purl.org/dc/elements/1.1/" xmlns:rdf="http://www.w3.org/1999/02/22-rdf-syntax-ns#">
   <cc:Work>
    <dc:type rdf:resource="http://purl.org/dc/dcmitype/StillImage"/>
    <dc:date>2021-10-17T05:26:54.911581</dc:date>
    <dc:format>image/svg+xml</dc:format>
    <dc:creator>
     <cc:Agent>
      <dc:title>Matplotlib v3.4.3, https://matplotlib.org/</dc:title>
     </cc:Agent>
    </dc:creator>
   </cc:Work>
  </rdf:RDF>
 </metadata>
 <defs>
  <style type="text/css">*{stroke-linecap:butt;stroke-linejoin:round;}</style>
 </defs>
 <g id="figure_1">
  <g id="patch_1">
   <path d="M 0 1440 
L 1440 1440 
L 1440 0 
L 0 0 
z
" style="fill:#ffffff;"/>
  </g>
  <g id="axes_1">
   <g id="patch_2">
    <path clip-path="url(#p543d40ea39)" d="M 397.856003 575.514176 
Q 382.617353 504.634907 367.848705 435.941753 
" style="fill:none;stroke:#ff0000;stroke-linecap:round;stroke-width:2;"/>
    <path clip-path="url(#p543d40ea39)" d="M 366.73415 440.272777 
L 367.848705 435.941753 
L 370.644791 439.432011 
L 366.73415 440.272777 
z
" style="fill:#ff0000;stroke:#ff0000;stroke-linecap:round;stroke-width:2;"/>
   </g>
   <g id="patch_3">
    <path clip-path="url(#p543d40ea39)" d="M 402.472539 592.180717 
Q 432.998742 681.682067 463.164032 770.125238 
" style="fill:none;stroke:#000000;stroke-linecap:round;"/>
    <path clip-path="url(#p543d40ea39)" d="M 463.765719 765.693763 
L 463.164032 770.125238 
L 459.979864 766.985004 
L 463.765719 765.693763 
z
" style="stroke:#000000;stroke-linecap:round;"/>
   </g>
   <g id="patch_4">
    <path clip-path="url(#p543d40ea39)" d="M 358.422972 430.19111 
Q 326.050675 452.436364 294.599827 474.048426 
" style="fill:none;stroke:#000000;stroke-linecap:round;"/>
    <path clip-path="url(#p543d40ea39)" d="M 299.029191 473.431389 
L 294.599827 474.048426 
L 296.763816 470.134713 
L 299.029191 473.431389 
z
" style="stroke:#000000;stroke-linecap:round;"/>
   </g>
   <g id="patch_5">
    <path clip-path="url(#p543d40ea39)" d="M 358.938676 419.699344 
Q 321.199156 387.837111 284.313922 356.696123 
" style="fill:none;stroke:#000000;stroke-linecap:round;"/>
    <path clip-path="url(#p543d40ea39)" d="M 286.080106 360.804723 
L 284.313922 356.696123 
L 288.660513 357.748336 
L 286.080106 360.804723 
z
" style="stroke:#000000;stroke-linecap:round;"/>
   </g>
   <g id="patch_6">
    <path clip-path="url(#p543d40ea39)" d="M 368.163215 417.025515 
Q 387.823122 354.668892 407.146845 293.378563 
" style="fill:none;stroke:#000000;stroke-linecap:round;"/>
    <path clip-path="url(#p543d40ea39)" d="M 404.036638 296.592067 
L 407.146845 293.378563 
L 407.851524 297.794831 
L 404.036638 296.592067 
z
" style="stroke:#000000;stroke-linecap:round;"/>
   </g>
   <g id="patch_7">
    <path clip-path="url(#p543d40ea39)" d="M 374.12459 426.545687 
Q 409.984933 431.810601 444.739102 436.913109 
" style="fill:none;stroke:#000000;stroke-linecap:round;"/>
    <path clip-path="url(#p543d40ea39)" d="M 441.072047 434.353283 
L 444.739102 436.913109 
L 440.491008 438.310857 
L 441.072047 434.353283 
z
" style="stroke:#000000;stroke-linecap:round;"/>
   </g>
   <g id="patch_8">
    <path clip-path="url(#p543d40ea39)" d="M 363.833091 416.803986 
Q 349.670417 347.1528 335.730521 278.597228 
" style="fill:none;stroke:#000000;stroke-linecap:round;"/>
    <path clip-path="url(#p543d40ea39)" d="M 334.567666 282.915534 
L 335.730521 278.597228 
L 338.487453 282.118495 
L 334.567666 282.915534 
z
" style="stroke:#000000;stroke-linecap:round;"/>
   </g>
   <g id="patch_9">
    <path clip-path="url(#p543d40ea39)" d="M 470.510989 786.955388 
Q 512.388324 862.666274 553.724513 937.398814 
" style="fill:none;stroke:#000000;stroke-linecap:round;"/>
    <path clip-path="url(#p543d40ea39)" d="M 553.538575 932.930545 
L 553.724513 937.398814 
L 550.038335 934.866604 
L 553.538575 932.930545 
z
" style="stroke:#000000;stroke-linecap:round;"/>
   </g>
   <g id="patch_10">
    <path clip-path="url(#p543d40ea39)" d="M 564.700246 951.956915 
Q 599.22853 985.153901 632.144906 1016.80113 
" style="fill:none;stroke:#ff0000;stroke-linecap:round;stroke-width:2;"/>
    <path clip-path="url(#p543d40ea39)" d="M 630.647583 1012.587103 
L 632.144906 1016.80113 
L 627.87529 1015.470572 
L 630.647583 1012.587103 
z
" style="fill:#ff0000;stroke:#ff0000;stroke-linecap:round;stroke-width:2;"/>
   </g>
   <g id="patch_11">
    <path clip-path="url(#p543d40ea39)" d="M 557.228031 937.378641 
Q 553.04291 908.165539 549.016341 880.059172 
" style="fill:none;stroke:#000000;stroke-linecap:round;"/>
    <path clip-path="url(#p543d40ea39)" d="M 547.60381 884.302373 
L 549.016341 880.059172 
L 551.563383 883.735117 
L 547.60381 884.302373 
z
" style="stroke:#000000;stroke-linecap:round;"/>
   </g>
   <g id="patch_12">
    <path clip-path="url(#p543d40ea39)" d="M 647.835673 1020.662434 
Q 683.828006 1003.705784 717.797516 987.702123 
" style="fill:none;stroke:#ff0000;stroke-linecap:round;stroke-width:2;"/>
    <path clip-path="url(#p543d40ea39)" d="M 713.326601 987.597614 
L 717.797516 987.702123 
L 715.03136 991.216149 
L 713.326601 987.597614 
z
" style="fill:#ff0000;stroke:#ff0000;stroke-linecap:round;stroke-width:2;"/>
   </g>
   <g id="patch_13">
    <path clip-path="url(#p543d40ea39)" d="M 639.725261 1033.007646 
Q 637.440369 1104.867823 635.191007 1175.61053 
" style="fill:none;stroke:#000000;stroke-linecap:round;"/>
    <path clip-path="url(#p543d40ea39)" d="M 637.317118 1171.676111 
L 635.191007 1175.61053 
L 633.319139 1171.54899 
L 637.317118 1171.676111 
z
" style="stroke:#000000;stroke-linecap:round;"/>
   </g>
   <g id="patch_14">
    <path clip-path="url(#p543d40ea39)" d="M 734.270954 977.469273 
Q 767.483268 949.409929 798.987499 922.793655 
" style="fill:none;stroke:#ff0000;stroke-linecap:round;stroke-width:2;"/>
    <path clip-path="url(#p543d40ea39)" d="M 794.641265 923.847342 
L 798.987499 922.793655 
L 797.222707 926.902854 
L 794.641265 923.847342 
z
" style="fill:#ff0000;stroke:#ff0000;stroke-linecap:round;stroke-width:2;"/>
   </g>
   <g id="patch_15">
    <path clip-path="url(#p543d40ea39)" d="M 812.946342 909.190057 
Q 855.948615 859.04935 898.223042 809.757312 
" style="fill:none;stroke:#000000;stroke-linecap:round;"/>
    <path clip-path="url(#p543d40ea39)" d="M 894.100874 811.491594 
L 898.223042 809.757312 
L 897.137166 814.095615 
L 894.100874 811.491594 
z
" style="stroke:#000000;stroke-linecap:round;"/>
   </g>
   <g id="patch_16">
    <path clip-path="url(#p543d40ea39)" d="M 909.887537 795.494861 
Q 948.253941 745.971365 985.935629 697.331705 
" style="fill:none;stroke:#000000;stroke-linecap:round;"/>
    <path clip-path="url(#p543d40ea39)" d="M 981.904862 699.268949 
L 985.935629 697.331705 
L 985.066965 701.718665 
L 981.904862 699.268949 
z
" style="stroke:#000000;stroke-linecap:round;"/>
   </g>
   <g id="patch_17">
    <path clip-path="url(#p543d40ea39)" d="M 998.584543 684.067989 
Q 1036.583084 652.500806 1073.721635 621.648058 
" style="fill:none;stroke:#000000;stroke-linecap:round;"/>
    <path clip-path="url(#p543d40ea39)" d="M 1069.366821 622.6657 
L 1073.721635 621.648058 
L 1071.922859 625.742495 
L 1069.366821 622.6657 
z
" style="stroke:#000000;stroke-linecap:round;"/>
   </g>
   <g id="patch_18">
    <path clip-path="url(#p543d40ea39)" d="M 1089.121854 611.805867 
Q 1123.081886 596.316565 1156.024696 581.291222 
" style="fill:none;stroke:#000000;stroke-linecap:round;"/>
    <path clip-path="url(#p543d40ea39)" d="M 1151.555414 581.131469 
L 1156.024696 581.291222 
L 1153.215325 584.770796 
L 1151.555414 581.131469 
z
" style="stroke:#000000;stroke-linecap:round;"/>
   </g>
   <g id="patch_19">
    <path clip-path="url(#p543d40ea39)" d="M 1173.577806 577.582544 
Q 1182.041243 577.924801 1184.919075 578.041179 
" style="fill:none;stroke:#0000ff;stroke-linecap:round;stroke-width:5;"/>
    <path clip-path="url(#p543d40ea39)" d="M 1181.003154 575.881187 
L 1184.919075 578.041179 
L 1180.841528 579.87792 
L 1181.003154 575.881187 
z
" style="fill:#0000ff;stroke:#0000ff;stroke-linecap:round;stroke-width:5;"/>
   </g>
   <g id="PathCollection_1">
    <defs>
     <path d="M 0 8.660254 
C 2.296726 8.660254 4.499694 7.747755 6.123724 6.123724 
C 7.747755 4.499694 8.660254 2.296726 8.660254 0 
C 8.660254 -2.296726 7.747755 -4.499694 6.123724 -6.123724 
C 4.499694 -7.747755 2.296726 -8.660254 0 -8.660254 
C -2.296726 -8.660254 -4.499694 -7.747755 -6.123724 -6.123724 
C -7.747755 -4.499694 -8.660254 -2.296726 -8.660254 0 
C -8.660254 2.296726 -7.747755 4.499694 -6.123724 6.123724 
C -4.499694 7.747755 -2.296726 8.660254 0 8.660254 
z
" id="m1740e66f25" style="stroke:#1f78b4;"/>
    </defs>
    <g clip-path="url(#p543d40ea39)">
     <use style="fill:#1f78b4;stroke:#1f78b4;" x="399.677108" xlink:href="#m1740e66f25" y="583.984648"/>
     <use style="fill:#1f78b4;stroke:#1f78b4;" x="365.558206" xlink:href="#m1740e66f25" y="425.287995"/>
     <use style="fill:#1f78b4;stroke:#1f78b4;" x="286.542544" xlink:href="#m1740e66f25" y="479.585146"/>
     <use style="fill:#1f78b4;stroke:#1f78b4;" x="276.842975" xlink:href="#m1740e66f25" y="350.388648"/>
     <use style="fill:#1f78b4;stroke:#1f78b4;" x="410.086608" xlink:href="#m1740e66f25" y="284.054323"/>
     <use style="fill:#1f78b4;stroke:#1f78b4;" x="454.416475" xlink:href="#m1740e66f25" y="438.333914"/>
     <use style="fill:#1f78b4;stroke:#1f78b4;" x="333.782745" xlink:href="#m1740e66f25" y="269.018182"/>
     <use style="fill:#1f78b4;stroke:#1f78b4;" x="466.320026" xlink:href="#m1740e66f25" y="779.37846"/>
     <use style="fill:#1f78b4;stroke:#1f78b4;" x="558.456545" xlink:href="#m1740e66f25" y="945.953951"/>
     <use style="fill:#1f78b4;stroke:#1f78b4;" x="640.000423" xlink:href="#m1740e66f25" y="1024.353764"/>
     <use style="fill:#1f78b4;stroke:#1f78b4;" x="547.629231" xlink:href="#m1740e66f25" y="870.376827"/>
     <use style="fill:#1f78b4;stroke:#1f78b4;" x="727.65678" xlink:href="#m1740e66f25" y="983.057242"/>
     <use style="fill:#1f78b4;stroke:#1f78b4;" x="634.880316" xlink:href="#m1740e66f25" y="1185.381818"/>
     <use style="fill:#1f78b4;stroke:#1f78b4;" x="807.308846" xlink:href="#m1740e66f25" y="915.763385"/>
     <use style="fill:#1f78b4;stroke:#1f78b4;" x="904.586083" xlink:href="#m1740e66f25" y="802.337997"/>
     <use style="fill:#1f78b4;stroke:#1f78b4;" x="991.925472" xlink:href="#m1740e66f25" y="689.599993"/>
     <use style="fill:#1f78b4;stroke:#1f78b4;" x="1081.243699" xlink:href="#m1740e66f25" y="615.399125"/>
     <use style="fill:#1f78b4;stroke:#1f78b4;" x="1164.923246" xlink:href="#m1740e66f25" y="577.232558"/>
     <use style="fill:#1f78b4;stroke:#1f78b4;" x="1199.157025" xlink:href="#m1740e66f25" y="578.616954"/>
    </g>
   </g>
   <g id="text_1">
    <g clip-path="url(#p543d40ea39)">
     <!-- 1 -->
     <g transform="translate(395.859608 587.295898)scale(0.12 -0.12)">
      <defs>
       <path d="M 794 531 
L 1825 531 
L 1825 4091 
L 703 3866 
L 703 4441 
L 1819 4666 
L 2450 4666 
L 2450 531 
L 3481 531 
L 3481 0 
L 794 0 
L 794 531 
z
" id="DejaVuSans-31" transform="scale(0.015625)"/>
      </defs>
      <use xlink:href="#DejaVuSans-31"/>
     </g>
    </g>
   </g>
   <g id="text_2">
    <g clip-path="url(#p543d40ea39)">
     <!-- 0 -->
     <g transform="translate(361.740706 428.599245)scale(0.12 -0.12)">
      <defs>
       <path d="M 2034 4250 
Q 1547 4250 1301 3770 
Q 1056 3291 1056 2328 
Q 1056 1369 1301 889 
Q 1547 409 2034 409 
Q 2525 409 2770 889 
Q 3016 1369 3016 2328 
Q 3016 3291 2770 3770 
Q 2525 4250 2034 4250 
z
M 2034 4750 
Q 2819 4750 3233 4129 
Q 3647 3509 3647 2328 
Q 3647 1150 3233 529 
Q 2819 -91 2034 -91 
Q 1250 -91 836 529 
Q 422 1150 422 2328 
Q 422 3509 836 4129 
Q 1250 4750 2034 4750 
z
" id="DejaVuSans-30" transform="scale(0.015625)"/>
      </defs>
      <use xlink:href="#DejaVuSans-30"/>
     </g>
    </g>
   </g>
   <g id="text_3">
    <g clip-path="url(#p543d40ea39)">
     <!-- 4 -->
     <g transform="translate(282.725044 482.896396)scale(0.12 -0.12)">
      <defs>
       <path d="M 2419 4116 
L 825 1625 
L 2419 1625 
L 2419 4116 
z
M 2253 4666 
L 3047 4666 
L 3047 1625 
L 3713 1625 
L 3713 1100 
L 3047 1100 
L 3047 0 
L 2419 0 
L 2419 1100 
L 313 1100 
L 313 1709 
L 2253 4666 
z
" id="DejaVuSans-34" transform="scale(0.015625)"/>
      </defs>
      <use xlink:href="#DejaVuSans-34"/>
     </g>
    </g>
   </g>
   <g id="text_4">
    <g clip-path="url(#p543d40ea39)">
     <!-- 3 -->
     <g transform="translate(273.025475 353.699898)scale(0.12 -0.12)">
      <defs>
       <path d="M 2597 2516 
Q 3050 2419 3304 2112 
Q 3559 1806 3559 1356 
Q 3559 666 3084 287 
Q 2609 -91 1734 -91 
Q 1441 -91 1130 -33 
Q 819 25 488 141 
L 488 750 
Q 750 597 1062 519 
Q 1375 441 1716 441 
Q 2309 441 2620 675 
Q 2931 909 2931 1356 
Q 2931 1769 2642 2001 
Q 2353 2234 1838 2234 
L 1294 2234 
L 1294 2753 
L 1863 2753 
Q 2328 2753 2575 2939 
Q 2822 3125 2822 3475 
Q 2822 3834 2567 4026 
Q 2313 4219 1838 4219 
Q 1578 4219 1281 4162 
Q 984 4106 628 3988 
L 628 4550 
Q 988 4650 1302 4700 
Q 1616 4750 1894 4750 
Q 2613 4750 3031 4423 
Q 3450 4097 3450 3541 
Q 3450 3153 3228 2886 
Q 3006 2619 2597 2516 
z
" id="DejaVuSans-33" transform="scale(0.015625)"/>
      </defs>
      <use xlink:href="#DejaVuSans-33"/>
     </g>
    </g>
   </g>
   <g id="text_5">
    <g clip-path="url(#p543d40ea39)">
     <!-- 6 -->
     <g transform="translate(406.269108 287.365573)scale(0.12 -0.12)">
      <defs>
       <path d="M 2113 2584 
Q 1688 2584 1439 2293 
Q 1191 2003 1191 1497 
Q 1191 994 1439 701 
Q 1688 409 2113 409 
Q 2538 409 2786 701 
Q 3034 994 3034 1497 
Q 3034 2003 2786 2293 
Q 2538 2584 2113 2584 
z
M 3366 4563 
L 3366 3988 
Q 3128 4100 2886 4159 
Q 2644 4219 2406 4219 
Q 1781 4219 1451 3797 
Q 1122 3375 1075 2522 
Q 1259 2794 1537 2939 
Q 1816 3084 2150 3084 
Q 2853 3084 3261 2657 
Q 3669 2231 3669 1497 
Q 3669 778 3244 343 
Q 2819 -91 2113 -91 
Q 1303 -91 875 529 
Q 447 1150 447 2328 
Q 447 3434 972 4092 
Q 1497 4750 2381 4750 
Q 2619 4750 2861 4703 
Q 3103 4656 3366 4563 
z
" id="DejaVuSans-36" transform="scale(0.015625)"/>
      </defs>
      <use xlink:href="#DejaVuSans-36"/>
     </g>
    </g>
   </g>
   <g id="text_6">
    <g clip-path="url(#p543d40ea39)">
     <!-- 5 -->
     <g transform="translate(450.598975 441.645164)scale(0.12 -0.12)">
      <defs>
       <path d="M 691 4666 
L 3169 4666 
L 3169 4134 
L 1269 4134 
L 1269 2991 
Q 1406 3038 1543 3061 
Q 1681 3084 1819 3084 
Q 2600 3084 3056 2656 
Q 3513 2228 3513 1497 
Q 3513 744 3044 326 
Q 2575 -91 1722 -91 
Q 1428 -91 1123 -41 
Q 819 9 494 109 
L 494 744 
Q 775 591 1075 516 
Q 1375 441 1709 441 
Q 2250 441 2565 725 
Q 2881 1009 2881 1497 
Q 2881 1984 2565 2268 
Q 2250 2553 1709 2553 
Q 1456 2553 1204 2497 
Q 953 2441 691 2322 
L 691 4666 
z
" id="DejaVuSans-35" transform="scale(0.015625)"/>
      </defs>
      <use xlink:href="#DejaVuSans-35"/>
     </g>
    </g>
   </g>
   <g id="text_7">
    <g clip-path="url(#p543d40ea39)">
     <!-- 2 -->
     <g transform="translate(329.965245 272.329432)scale(0.12 -0.12)">
      <defs>
       <path d="M 1228 531 
L 3431 531 
L 3431 0 
L 469 0 
L 469 531 
Q 828 903 1448 1529 
Q 2069 2156 2228 2338 
Q 2531 2678 2651 2914 
Q 2772 3150 2772 3378 
Q 2772 3750 2511 3984 
Q 2250 4219 1831 4219 
Q 1534 4219 1204 4116 
Q 875 4013 500 3803 
L 500 4441 
Q 881 4594 1212 4672 
Q 1544 4750 1819 4750 
Q 2544 4750 2975 4387 
Q 3406 4025 3406 3419 
Q 3406 3131 3298 2873 
Q 3191 2616 2906 2266 
Q 2828 2175 2409 1742 
Q 1991 1309 1228 531 
z
" id="DejaVuSans-32" transform="scale(0.015625)"/>
      </defs>
      <use xlink:href="#DejaVuSans-32"/>
     </g>
    </g>
   </g>
   <g id="text_8">
    <g clip-path="url(#p543d40ea39)">
     <!-- 7 -->
     <g transform="translate(462.502526 782.68971)scale(0.12 -0.12)">
      <defs>
       <path d="M 525 4666 
L 3525 4666 
L 3525 4397 
L 1831 0 
L 1172 0 
L 2766 4134 
L 525 4134 
L 525 4666 
z
" id="DejaVuSans-37" transform="scale(0.015625)"/>
      </defs>
      <use xlink:href="#DejaVuSans-37"/>
     </g>
    </g>
   </g>
   <g id="text_9">
    <g clip-path="url(#p543d40ea39)">
     <!-- 8 -->
     <g transform="translate(554.639045 949.265201)scale(0.12 -0.12)">
      <defs>
       <path d="M 2034 2216 
Q 1584 2216 1326 1975 
Q 1069 1734 1069 1313 
Q 1069 891 1326 650 
Q 1584 409 2034 409 
Q 2484 409 2743 651 
Q 3003 894 3003 1313 
Q 3003 1734 2745 1975 
Q 2488 2216 2034 2216 
z
M 1403 2484 
Q 997 2584 770 2862 
Q 544 3141 544 3541 
Q 544 4100 942 4425 
Q 1341 4750 2034 4750 
Q 2731 4750 3128 4425 
Q 3525 4100 3525 3541 
Q 3525 3141 3298 2862 
Q 3072 2584 2669 2484 
Q 3125 2378 3379 2068 
Q 3634 1759 3634 1313 
Q 3634 634 3220 271 
Q 2806 -91 2034 -91 
Q 1263 -91 848 271 
Q 434 634 434 1313 
Q 434 1759 690 2068 
Q 947 2378 1403 2484 
z
M 1172 3481 
Q 1172 3119 1398 2916 
Q 1625 2713 2034 2713 
Q 2441 2713 2670 2916 
Q 2900 3119 2900 3481 
Q 2900 3844 2670 4047 
Q 2441 4250 2034 4250 
Q 1625 4250 1398 4047 
Q 1172 3844 1172 3481 
z
" id="DejaVuSans-38" transform="scale(0.015625)"/>
      </defs>
      <use xlink:href="#DejaVuSans-38"/>
     </g>
    </g>
   </g>
   <g id="text_10">
    <g clip-path="url(#p543d40ea39)">
     <!-- 9 -->
     <g transform="translate(636.182923 1027.665014)scale(0.12 -0.12)">
      <defs>
       <path d="M 703 97 
L 703 672 
Q 941 559 1184 500 
Q 1428 441 1663 441 
Q 2288 441 2617 861 
Q 2947 1281 2994 2138 
Q 2813 1869 2534 1725 
Q 2256 1581 1919 1581 
Q 1219 1581 811 2004 
Q 403 2428 403 3163 
Q 403 3881 828 4315 
Q 1253 4750 1959 4750 
Q 2769 4750 3195 4129 
Q 3622 3509 3622 2328 
Q 3622 1225 3098 567 
Q 2575 -91 1691 -91 
Q 1453 -91 1209 -44 
Q 966 3 703 97 
z
M 1959 2075 
Q 2384 2075 2632 2365 
Q 2881 2656 2881 3163 
Q 2881 3666 2632 3958 
Q 2384 4250 1959 4250 
Q 1534 4250 1286 3958 
Q 1038 3666 1038 3163 
Q 1038 2656 1286 2365 
Q 1534 2075 1959 2075 
z
" id="DejaVuSans-39" transform="scale(0.015625)"/>
      </defs>
      <use xlink:href="#DejaVuSans-39"/>
     </g>
    </g>
   </g>
   <g id="text_11">
    <g clip-path="url(#p543d40ea39)">
     <!-- 10 -->
     <g transform="translate(539.994231 873.688077)scale(0.12 -0.12)">
      <use xlink:href="#DejaVuSans-31"/>
      <use x="63.623047" xlink:href="#DejaVuSans-30"/>
     </g>
    </g>
   </g>
   <g id="text_12">
    <g clip-path="url(#p543d40ea39)">
     <!-- 11 -->
     <g transform="translate(720.02178 986.368492)scale(0.12 -0.12)">
      <use xlink:href="#DejaVuSans-31"/>
      <use x="63.623047" xlink:href="#DejaVuSans-31"/>
     </g>
    </g>
   </g>
   <g id="text_13">
    <g clip-path="url(#p543d40ea39)">
     <!-- 12 -->
     <g transform="translate(627.245316 1188.693068)scale(0.12 -0.12)">
      <use xlink:href="#DejaVuSans-31"/>
      <use x="63.623047" xlink:href="#DejaVuSans-32"/>
     </g>
    </g>
   </g>
   <g id="text_14">
    <g clip-path="url(#p543d40ea39)">
     <!-- 13 -->
     <g transform="translate(799.673846 919.074635)scale(0.12 -0.12)">
      <use xlink:href="#DejaVuSans-31"/>
      <use x="63.623047" xlink:href="#DejaVuSans-33"/>
     </g>
    </g>
   </g>
   <g id="text_15">
    <g clip-path="url(#p543d40ea39)">
     <!-- 14 -->
     <g transform="translate(896.951083 805.649247)scale(0.12 -0.12)">
      <use xlink:href="#DejaVuSans-31"/>
      <use x="63.623047" xlink:href="#DejaVuSans-34"/>
     </g>
    </g>
   </g>
   <g id="text_16">
    <g clip-path="url(#p543d40ea39)">
     <!-- 15 -->
     <g transform="translate(984.290472 692.911243)scale(0.12 -0.12)">
      <use xlink:href="#DejaVuSans-31"/>
      <use x="63.623047" xlink:href="#DejaVuSans-35"/>
     </g>
    </g>
   </g>
   <g id="text_17">
    <g clip-path="url(#p543d40ea39)">
     <!-- 16 -->
     <g transform="translate(1073.608699 618.710375)scale(0.12 -0.12)">
      <use xlink:href="#DejaVuSans-31"/>
      <use x="63.623047" xlink:href="#DejaVuSans-36"/>
     </g>
    </g>
   </g>
   <g id="text_18">
    <g clip-path="url(#p543d40ea39)">
     <!-- 17 -->
     <g transform="translate(1157.288246 580.543808)scale(0.12 -0.12)">
      <use xlink:href="#DejaVuSans-31"/>
      <use x="63.623047" xlink:href="#DejaVuSans-37"/>
     </g>
    </g>
   </g>
   <g id="text_19">
    <g clip-path="url(#p543d40ea39)">
     <!-- 18 -->
     <g transform="translate(1191.522025 581.928204)scale(0.12 -0.12)">
      <use xlink:href="#DejaVuSans-31"/>
      <use x="63.623047" xlink:href="#DejaVuSans-38"/>
     </g>
    </g>
   </g>
  </g>
 </g>
 <defs>
  <clipPath id="p543d40ea39">
   <rect height="1108.8" width="1116" x="180" y="172.8"/>
  </clipPath>
 </defs>
</svg>
