<?xml version="1.0" encoding="utf-8" standalone="no"?>
<!DOCTYPE svg PUBLIC "-//W3C//DTD SVG 1.1//EN"
  "http://www.w3.org/Graphics/SVG/1.1/DTD/svg11.dtd">
<svg height="1440pt" version="1.1" viewBox="0 0 1440 1440" width="1440pt" xmlns="http://www.w3.org/2000/svg" xmlns:xlink="http://www.w3.org/1999/xlink">
 <metadata>
  <rdf:RDF xmlns:cc="http://creativecommons.org/ns#" xmlns:dc="http://purl.org/dc/elements/1.1/" xmlns:rdf="http://www.w3.org/1999/02/22-rdf-syntax-ns#">
   <cc:Work>
    <dc:type rdf:resource="http://purl.org/dc/dcmitype/StillImage"/>
    <dc:date>2021-10-17T06:11:44.525357</dc:date>
    <dc:format>image/svg+xml</dc:format>
    <dc:creator>
     <cc:Agent>
      <dc:title>Matplotlib v3.4.3, https://matplotlib.org/</dc:title>
     </cc:Agent>
    </dc:creator>
   </cc:Work>
  </rdf:RDF>
 </metadata>
 <defs>
  <style type="text/css">*{stroke-linecap:butt;stroke-linejoin:round;}</style>
 </defs>
 <g id="figure_1">
  <g id="patch_1">
   <path d="M 0 1440 
L 1440 1440 
L 1440 0 
L 0 0 
z
" style="fill:#ffffff;"/>
  </g>
  <g id="axes_1">
   <g id="patch_2">
    <path clip-path="url(#p100be064bf)" d="M 461.463761 781.373749 
Q 423.067925 739.874811 386.190671 700.017187 
" style="fill:none;stroke:#ff0000;stroke-linecap:round;stroke-width:2;"/>
    <path clip-path="url(#p100be064bf)" d="M 387.43916 704.311517 
L 386.190671 700.017187 
L 390.375229 701.594994 
L 387.43916 704.311517 
z
" style="fill:#ff0000;stroke:#ff0000;stroke-linecap:round;stroke-width:2;"/>
   </g>
   <g id="patch_3">
    <path clip-path="url(#p100be064bf)" d="M 473.637467 793.688312 
Q 529.791124 846.85474 585.132913 899.252488 
" style="fill:none;stroke:#000000;stroke-linecap:round;"/>
    <path clip-path="url(#p100be064bf)" d="M 583.603338 895.05006 
L 585.132913 899.252488 
L 580.853225 897.954691 
L 583.603338 895.05006 
z
" style="stroke:#000000;stroke-linecap:round;"/>
   </g>
   <g id="patch_4">
    <path clip-path="url(#p100be064bf)" d="M 371.825048 686.869021 
Q 327.816707 654.330183 284.707355 622.45604 
" style="fill:none;stroke:#000000;stroke-linecap:round;"/>
    <path clip-path="url(#p100be064bf)" d="M 286.734637 626.442282 
L 284.707355 622.45604 
L 289.112718 623.22596 
L 286.734637 626.442282 
z
" style="stroke:#000000;stroke-linecap:round;"/>
   </g>
   <g id="patch_5">
    <path clip-path="url(#p100be064bf)" d="M 378.103796 683.386974 
Q 372.276856 610.194368 366.538642 538.116269 
" style="fill:none;stroke:#000000;stroke-linecap:round;"/>
    <path clip-path="url(#p100be064bf)" d="M 364.86239 542.262373 
L 366.538642 538.116269 
L 368.849774 541.944934 
L 364.86239 542.262373 
z
" style="stroke:#000000;stroke-linecap:round;"/>
   </g>
   <g id="patch_6">
    <path clip-path="url(#p100be064bf)" d="M 372.617912 698.094471 
Q 336.096932 734.034546 300.372834 769.190414 
" style="fill:none;stroke:#000000;stroke-linecap:round;"/>
    <path clip-path="url(#p100be064bf)" d="M 304.626676 767.810257 
L 300.372834 769.190414 
L 301.821014 764.959246 
L 304.626676 767.810257 
z
" style="stroke:#000000;stroke-linecap:round;"/>
   </g>
   <g id="patch_7">
    <path clip-path="url(#p100be064bf)" d="M 599.560198 910.593052 
Q 659.502541 948.377815 718.499074 985.566386 
" style="fill:none;stroke:#000000;stroke-linecap:round;"/>
    <path clip-path="url(#p100be064bf)" d="M 716.181746 981.741468 
L 718.499074 985.566386 
L 714.048743 985.125297 
L 716.181746 981.741468 
z
" style="stroke:#000000;stroke-linecap:round;"/>
   </g>
   <g id="patch_8">
    <path clip-path="url(#p100be064bf)" d="M 735.214585 992.718775 
Q 798.941768 1007.348417 861.579263 1021.727902 
" style="fill:none;stroke:#000000;stroke-linecap:round;"/>
    <path clip-path="url(#p100be064bf)" d="M 858.128167 1018.883621 
L 861.579263 1021.727902 
L 857.23318 1022.78221 
L 858.128167 1018.883621 
z
" style="stroke:#000000;stroke-linecap:round;"/>
   </g>
   <g id="patch_9">
    <path clip-path="url(#p100be064bf)" d="M 876.405458 1017.063986 
Q 910.974851 972.350127 944.176565 929.405294 
" style="fill:none;stroke:#ff0000;stroke-linecap:round;stroke-width:2;"/>
    <path clip-path="url(#p100be064bf)" d="M 940.147722 931.346537 
L 944.176565 929.405294 
L 943.312253 933.793114 
L 940.147722 931.346537 
z
" style="fill:#ff0000;stroke:#ff0000;stroke-linecap:round;stroke-width:2;"/>
   </g>
   <g id="patch_10">
    <path clip-path="url(#p100be064bf)" d="M 872.942968 1032.378563 
Q 888.608895 1104.64748 904.037963 1175.823741 
" style="fill:none;stroke:#000000;stroke-linecap:round;"/>
    <path clip-path="url(#p100be064bf)" d="M 905.145158 1171.49083 
L 904.037963 1175.823741 
L 901.235951 1172.338239 
L 905.145158 1171.49083 
z
" style="stroke:#000000;stroke-linecap:round;"/>
   </g>
   <g id="patch_11">
    <path clip-path="url(#p100be064bf)" d="M 954.604797 912.991635 
Q 992.231773 835.093088 1029.372467 758.201284 
" style="fill:none;stroke:#000000;stroke-linecap:round;"/>
    <path clip-path="url(#p100be064bf)" d="M 1025.831776 760.933226 
L 1029.372467 758.201284 
L 1029.433606 762.673002 
L 1025.831776 760.933226 
z
" style="stroke:#000000;stroke-linecap:round;"/>
   </g>
   <g id="patch_12">
    <path clip-path="url(#p100be064bf)" d="M 1036.182755 741.126471 
Q 1061.766588 658.405934 1087.020074 576.753512 
" style="fill:none;stroke:#000000;stroke-linecap:round;"/>
    <path clip-path="url(#p100be064bf)" d="M 1083.927485 579.983975 
L 1087.020074 576.753512 
L 1087.748891 581.165861 
L 1083.927485 579.983975 
z
" style="stroke:#000000;stroke-linecap:round;"/>
   </g>
   <g id="patch_13">
    <path clip-path="url(#p100be064bf)" d="M 1092.570806 559.169772 
Q 1116.988296 483.555022 1141.06222 409.004209 
" style="fill:none;stroke:#000000;stroke-linecap:round;"/>
    <path clip-path="url(#p100be064bf)" d="M 1137.929812 412.196076 
L 1141.06222 409.004209 
L 1141.736269 413.425256 
L 1137.929812 412.196076 
z
" style="stroke:#000000;stroke-linecap:round;"/>
   </g>
   <g id="patch_14">
    <path clip-path="url(#p100be064bf)" d="M 1147.431296 391.718472 
Q 1171.612222 334.358108 1195.358841 278.027977 
" style="fill:none;stroke:#000000;stroke-linecap:round;"/>
    <path clip-path="url(#p100be064bf)" d="M 1191.962085 280.936936 
L 1195.358841 278.027977 
L 1195.647955 282.490758 
L 1191.962085 280.936936 
z
" style="stroke:#000000;stroke-linecap:round;"/>
   </g>
   <g id="PathCollection_1">
    <defs>
     <path d="M 0 8.660254 
C 2.296726 8.660254 4.499694 7.747755 6.123724 6.123724 
C 7.747755 4.499694 8.660254 2.296726 8.660254 0 
C 8.660254 -2.296726 7.747755 -4.499694 6.123724 -6.123724 
C 4.499694 -7.747755 2.296726 -8.660254 0 -8.660254 
C -2.296726 -8.660254 -4.499694 -7.747755 -6.123724 -6.123724 
C -7.747755 -4.499694 -8.660254 -2.296726 -8.660254 0 
C -8.660254 2.296726 -7.747755 4.499694 -6.123724 6.123724 
C -4.499694 7.747755 -2.296726 8.660254 0 8.660254 
z
" id="m79a4edac99" style="stroke:#1f78b4;"/>
    </defs>
    <g clip-path="url(#p100be064bf)">
     <use style="fill:#1f78b4;stroke:#1f78b4;" x="467.347142" xlink:href="#m79a4edac99" y="787.732617"/>
     <use style="fill:#1f78b4;stroke:#1f78b4;" x="378.791043" xlink:href="#m79a4edac99" y="692.01953"/>
     <use style="fill:#1f78b4;stroke:#1f78b4;" x="276.842975" xlink:href="#m79a4edac99" y="616.641284"/>
     <use style="fill:#1f78b4;stroke:#1f78b4;" x="365.762576" xlink:href="#m79a4edac99" y="528.368048"/>
     <use style="fill:#1f78b4;stroke:#1f78b4;" x="293.404312" xlink:href="#m79a4edac99" y="776.048094"/>
     <use style="fill:#1f78b4;stroke:#1f78b4;" x="592.231328" xlink:href="#m79a4edac99" y="905.973286"/>
     <use style="fill:#1f78b4;stroke:#1f78b4;" x="726.770501" xlink:href="#m79a4edac99" y="990.780294"/>
     <use style="fill:#1f78b4;stroke:#1f78b4;" x="871.108402" xlink:href="#m79a4edac99" y="1023.915476"/>
     <use style="fill:#1f78b4;stroke:#1f78b4;" x="950.839197" xlink:href="#m79a4edac99" y="920.787498"/>
     <use style="fill:#1f78b4;stroke:#1f78b4;" x="906.109893" xlink:href="#m79a4edac99" y="1185.381818"/>
     <use style="fill:#1f78b4;stroke:#1f78b4;" x="1033.62428" xlink:href="#m79a4edac99" y="749.398821"/>
     <use style="fill:#1f78b4;stroke:#1f78b4;" x="1089.909009" xlink:href="#m79a4edac99" y="567.41268"/>
     <use style="fill:#1f78b4;stroke:#1f78b4;" x="1144.067198" xlink:href="#m79a4edac99" y="399.698557"/>
     <use style="fill:#1f78b4;stroke:#1f78b4;" x="1199.157025" xlink:href="#m79a4edac99" y="269.018182"/>
    </g>
   </g>
   <g id="text_1">
    <g clip-path="url(#p100be064bf)">
     <!-- 1 -->
     <g transform="translate(463.529642 791.043867)scale(0.12 -0.12)">
      <defs>
       <path d="M 794 531 
L 1825 531 
L 1825 4091 
L 703 3866 
L 703 4441 
L 1819 4666 
L 2450 4666 
L 2450 531 
L 3481 531 
L 3481 0 
L 794 0 
L 794 531 
z
" id="DejaVuSans-31" transform="scale(0.015625)"/>
      </defs>
      <use xlink:href="#DejaVuSans-31"/>
     </g>
    </g>
   </g>
   <g id="text_2">
    <g clip-path="url(#p100be064bf)">
     <!-- 0 -->
     <g transform="translate(374.973543 695.33078)scale(0.12 -0.12)">
      <defs>
       <path d="M 2034 4250 
Q 1547 4250 1301 3770 
Q 1056 3291 1056 2328 
Q 1056 1369 1301 889 
Q 1547 409 2034 409 
Q 2525 409 2770 889 
Q 3016 1369 3016 2328 
Q 3016 3291 2770 3770 
Q 2525 4250 2034 4250 
z
M 2034 4750 
Q 2819 4750 3233 4129 
Q 3647 3509 3647 2328 
Q 3647 1150 3233 529 
Q 2819 -91 2034 -91 
Q 1250 -91 836 529 
Q 422 1150 422 2328 
Q 422 3509 836 4129 
Q 1250 4750 2034 4750 
z
" id="DejaVuSans-30" transform="scale(0.015625)"/>
      </defs>
      <use xlink:href="#DejaVuSans-30"/>
     </g>
    </g>
   </g>
   <g id="text_3">
    <g clip-path="url(#p100be064bf)">
     <!-- 2 -->
     <g transform="translate(273.025475 619.952534)scale(0.12 -0.12)">
      <defs>
       <path d="M 1228 531 
L 3431 531 
L 3431 0 
L 469 0 
L 469 531 
Q 828 903 1448 1529 
Q 2069 2156 2228 2338 
Q 2531 2678 2651 2914 
Q 2772 3150 2772 3378 
Q 2772 3750 2511 3984 
Q 2250 4219 1831 4219 
Q 1534 4219 1204 4116 
Q 875 4013 500 3803 
L 500 4441 
Q 881 4594 1212 4672 
Q 1544 4750 1819 4750 
Q 2544 4750 2975 4387 
Q 3406 4025 3406 3419 
Q 3406 3131 3298 2873 
Q 3191 2616 2906 2266 
Q 2828 2175 2409 1742 
Q 1991 1309 1228 531 
z
" id="DejaVuSans-32" transform="scale(0.015625)"/>
      </defs>
      <use xlink:href="#DejaVuSans-32"/>
     </g>
    </g>
   </g>
   <g id="text_4">
    <g clip-path="url(#p100be064bf)">
     <!-- 3 -->
     <g transform="translate(361.945076 531.679298)scale(0.12 -0.12)">
      <defs>
       <path d="M 2597 2516 
Q 3050 2419 3304 2112 
Q 3559 1806 3559 1356 
Q 3559 666 3084 287 
Q 2609 -91 1734 -91 
Q 1441 -91 1130 -33 
Q 819 25 488 141 
L 488 750 
Q 750 597 1062 519 
Q 1375 441 1716 441 
Q 2309 441 2620 675 
Q 2931 909 2931 1356 
Q 2931 1769 2642 2001 
Q 2353 2234 1838 2234 
L 1294 2234 
L 1294 2753 
L 1863 2753 
Q 2328 2753 2575 2939 
Q 2822 3125 2822 3475 
Q 2822 3834 2567 4026 
Q 2313 4219 1838 4219 
Q 1578 4219 1281 4162 
Q 984 4106 628 3988 
L 628 4550 
Q 988 4650 1302 4700 
Q 1616 4750 1894 4750 
Q 2613 4750 3031 4423 
Q 3450 4097 3450 3541 
Q 3450 3153 3228 2886 
Q 3006 2619 2597 2516 
z
" id="DejaVuSans-33" transform="scale(0.015625)"/>
      </defs>
      <use xlink:href="#DejaVuSans-33"/>
     </g>
    </g>
   </g>
   <g id="text_5">
    <g clip-path="url(#p100be064bf)">
     <!-- 4 -->
     <g transform="translate(289.586812 779.359344)scale(0.12 -0.12)">
      <defs>
       <path d="M 2419 4116 
L 825 1625 
L 2419 1625 
L 2419 4116 
z
M 2253 4666 
L 3047 4666 
L 3047 1625 
L 3713 1625 
L 3713 1100 
L 3047 1100 
L 3047 0 
L 2419 0 
L 2419 1100 
L 313 1100 
L 313 1709 
L 2253 4666 
z
" id="DejaVuSans-34" transform="scale(0.015625)"/>
      </defs>
      <use xlink:href="#DejaVuSans-34"/>
     </g>
    </g>
   </g>
   <g id="text_6">
    <g clip-path="url(#p100be064bf)">
     <!-- 5 -->
     <g transform="translate(588.413828 909.284536)scale(0.12 -0.12)">
      <defs>
       <path d="M 691 4666 
L 3169 4666 
L 3169 4134 
L 1269 4134 
L 1269 2991 
Q 1406 3038 1543 3061 
Q 1681 3084 1819 3084 
Q 2600 3084 3056 2656 
Q 3513 2228 3513 1497 
Q 3513 744 3044 326 
Q 2575 -91 1722 -91 
Q 1428 -91 1123 -41 
Q 819 9 494 109 
L 494 744 
Q 775 591 1075 516 
Q 1375 441 1709 441 
Q 2250 441 2565 725 
Q 2881 1009 2881 1497 
Q 2881 1984 2565 2268 
Q 2250 2553 1709 2553 
Q 1456 2553 1204 2497 
Q 953 2441 691 2322 
L 691 4666 
z
" id="DejaVuSans-35" transform="scale(0.015625)"/>
      </defs>
      <use xlink:href="#DejaVuSans-35"/>
     </g>
    </g>
   </g>
   <g id="text_7">
    <g clip-path="url(#p100be064bf)">
     <!-- 6 -->
     <g transform="translate(722.953001 994.091544)scale(0.12 -0.12)">
      <defs>
       <path d="M 2113 2584 
Q 1688 2584 1439 2293 
Q 1191 2003 1191 1497 
Q 1191 994 1439 701 
Q 1688 409 2113 409 
Q 2538 409 2786 701 
Q 3034 994 3034 1497 
Q 3034 2003 2786 2293 
Q 2538 2584 2113 2584 
z
M 3366 4563 
L 3366 3988 
Q 3128 4100 2886 4159 
Q 2644 4219 2406 4219 
Q 1781 4219 1451 3797 
Q 1122 3375 1075 2522 
Q 1259 2794 1537 2939 
Q 1816 3084 2150 3084 
Q 2853 3084 3261 2657 
Q 3669 2231 3669 1497 
Q 3669 778 3244 343 
Q 2819 -91 2113 -91 
Q 1303 -91 875 529 
Q 447 1150 447 2328 
Q 447 3434 972 4092 
Q 1497 4750 2381 4750 
Q 2619 4750 2861 4703 
Q 3103 4656 3366 4563 
z
" id="DejaVuSans-36" transform="scale(0.015625)"/>
      </defs>
      <use xlink:href="#DejaVuSans-36"/>
     </g>
    </g>
   </g>
   <g id="text_8">
    <g clip-path="url(#p100be064bf)">
     <!-- 7 -->
     <g transform="translate(867.290902 1027.226726)scale(0.12 -0.12)">
      <defs>
       <path d="M 525 4666 
L 3525 4666 
L 3525 4397 
L 1831 0 
L 1172 0 
L 2766 4134 
L 525 4134 
L 525 4666 
z
" id="DejaVuSans-37" transform="scale(0.015625)"/>
      </defs>
      <use xlink:href="#DejaVuSans-37"/>
     </g>
    </g>
   </g>
   <g id="text_9">
    <g clip-path="url(#p100be064bf)">
     <!-- 8 -->
     <g transform="translate(947.021697 924.098748)scale(0.12 -0.12)">
      <defs>
       <path d="M 2034 2216 
Q 1584 2216 1326 1975 
Q 1069 1734 1069 1313 
Q 1069 891 1326 650 
Q 1584 409 2034 409 
Q 2484 409 2743 651 
Q 3003 894 3003 1313 
Q 3003 1734 2745 1975 
Q 2488 2216 2034 2216 
z
M 1403 2484 
Q 997 2584 770 2862 
Q 544 3141 544 3541 
Q 544 4100 942 4425 
Q 1341 4750 2034 4750 
Q 2731 4750 3128 4425 
Q 3525 4100 3525 3541 
Q 3525 3141 3298 2862 
Q 3072 2584 2669 2484 
Q 3125 2378 3379 2068 
Q 3634 1759 3634 1313 
Q 3634 634 3220 271 
Q 2806 -91 2034 -91 
Q 1263 -91 848 271 
Q 434 634 434 1313 
Q 434 1759 690 2068 
Q 947 2378 1403 2484 
z
M 1172 3481 
Q 1172 3119 1398 2916 
Q 1625 2713 2034 2713 
Q 2441 2713 2670 2916 
Q 2900 3119 2900 3481 
Q 2900 3844 2670 4047 
Q 2441 4250 2034 4250 
Q 1625 4250 1398 4047 
Q 1172 3844 1172 3481 
z
" id="DejaVuSans-38" transform="scale(0.015625)"/>
      </defs>
      <use xlink:href="#DejaVuSans-38"/>
     </g>
    </g>
   </g>
   <g id="text_10">
    <g clip-path="url(#p100be064bf)">
     <!-- 9 -->
     <g transform="translate(902.292393 1188.693068)scale(0.12 -0.12)">
      <defs>
       <path d="M 703 97 
L 703 672 
Q 941 559 1184 500 
Q 1428 441 1663 441 
Q 2288 441 2617 861 
Q 2947 1281 2994 2138 
Q 2813 1869 2534 1725 
Q 2256 1581 1919 1581 
Q 1219 1581 811 2004 
Q 403 2428 403 3163 
Q 403 3881 828 4315 
Q 1253 4750 1959 4750 
Q 2769 4750 3195 4129 
Q 3622 3509 3622 2328 
Q 3622 1225 3098 567 
Q 2575 -91 1691 -91 
Q 1453 -91 1209 -44 
Q 966 3 703 97 
z
M 1959 2075 
Q 2384 2075 2632 2365 
Q 2881 2656 2881 3163 
Q 2881 3666 2632 3958 
Q 2384 4250 1959 4250 
Q 1534 4250 1286 3958 
Q 1038 3666 1038 3163 
Q 1038 2656 1286 2365 
Q 1534 2075 1959 2075 
z
" id="DejaVuSans-39" transform="scale(0.015625)"/>
      </defs>
      <use xlink:href="#DejaVuSans-39"/>
     </g>
    </g>
   </g>
   <g id="text_11">
    <g clip-path="url(#p100be064bf)">
     <!-- 10 -->
     <g transform="translate(1025.98928 752.710071)scale(0.12 -0.12)">
      <use xlink:href="#DejaVuSans-31"/>
      <use x="63.623047" xlink:href="#DejaVuSans-30"/>
     </g>
    </g>
   </g>
   <g id="text_12">
    <g clip-path="url(#p100be064bf)">
     <!-- 11 -->
     <g transform="translate(1082.274009 570.72393)scale(0.12 -0.12)">
      <use xlink:href="#DejaVuSans-31"/>
      <use x="63.623047" xlink:href="#DejaVuSans-31"/>
     </g>
    </g>
   </g>
   <g id="text_13">
    <g clip-path="url(#p100be064bf)">
     <!-- 12 -->
     <g transform="translate(1136.432198 403.009807)scale(0.12 -0.12)">
      <use xlink:href="#DejaVuSans-31"/>
      <use x="63.623047" xlink:href="#DejaVuSans-32"/>
     </g>
    </g>
   </g>
   <g id="text_14">
    <g clip-path="url(#p100be064bf)">
     <!-- 13 -->
     <g transform="translate(1191.522025 272.329432)scale(0.12 -0.12)">
      <use xlink:href="#DejaVuSans-31"/>
      <use x="63.623047" xlink:href="#DejaVuSans-33"/>
     </g>
    </g>
   </g>
  </g>
 </g>
 <defs>
  <clipPath id="p100be064bf">
   <rect height="1108.8" width="1116" x="180" y="172.8"/>
  </clipPath>
 </defs>
</svg>
